<?xml version="1.0" encoding="UTF-8" standalone="no"?>
<!-- Created with Inkscape (http://www.inkscape.org/) -->

<svg
   xmlns:dc="http://purl.org/dc/elements/1.1/"
   xmlns:cc="http://creativecommons.org/ns#"
   xmlns:rdf="http://www.w3.org/1999/02/22-rdf-syntax-ns#"
   xmlns:svg="http://www.w3.org/2000/svg"
   xmlns="http://www.w3.org/2000/svg"
   version="1.1"
   width="990.14288"
   height="793"
   id="svg4856">
  <defs
     id="defs4858" />
  <metadata
     id="metadata4861">
    <rdf:RDF>
      <cc:Work
         rdf:about="">
        <dc:format>image/svg+xml</dc:format>
        <dc:type
           rdf:resource="http://purl.org/dc/dcmitype/StillImage" />
        <dc:title></dc:title>
      </cc:Work>
    </rdf:RDF>
  </metadata>
  <g
     transform="translate(258.64285,-159.43361)"
     id="layer1">
    <path
       d="m 451.42857,382.36218 a 158.57143,158.57143 0 1 1 -317.14285,0 158.57143,158.57143 0 1 1 317.14285,0 z"
       transform="translate(-128.57143,94.285714)"
       id="path5372"
       style="fill:#00eb57;fill-opacity:1;stroke:none" />
    <path
       d="m 451.42857,382.36218 a 158.57143,158.57143 0 1 1 -317.14285,0 158.57143,158.57143 0 1 1 317.14285,0 z"
       transform="matrix(1.3480589,0,0,1.3480589,-144.78869,218.34401)"
       id="path5372-1"
       style="fill:#00eb57;fill-opacity:1;stroke:none" />
    <path
       d="m 451.42857,382.36218 a 158.57143,158.57143 0 1 1 -317.14285,0 158.57143,158.57143 0 1 1 317.14285,0 z"
       transform="matrix(1.2231147,0,0,1.2231147,177.51641,288.9751)"
       id="path5372-8"
       style="fill:#00eb57;fill-opacity:1;stroke:none" />
    <path
       d="m 451.42857,382.36218 a 158.57143,158.57143 0 1 1 -317.14285,0 158.57143,158.57143 0 1 1 317.14285,0 z"
       transform="matrix(1.2231147,0,0,1.2231147,-421.05502,187.54652)"
       id="path5372-8-0"
       style="fill:#00eb57;fill-opacity:1;stroke:none" />
    <path
       d="m 451.42857,382.36218 a 158.57143,158.57143 0 1 1 -317.14285,0 158.57143,158.57143 0 1 1 317.14285,0 z"
       transform="matrix(0.76796074,0,0,0.76796074,259.38292,-11.27696)"
       id="path5372-8-2"
       style="fill:#00eb57;fill-opacity:1;stroke:none" />
    <path
       d="m 451.42857,382.36218 a 158.57143,158.57143 0 1 1 -317.14285,0 158.57143,158.57143 0 1 1 317.14285,0 z"
       transform="matrix(1.0089246,0,0,1.0089246,113.10065,100.87329)"
       id="path5372-8-1"
       style="fill:#00eb57;fill-opacity:1;stroke:none" />
  </g>
</svg>
