<?xml version="1.0" encoding="UTF-8" standalone="no"?>
<!-- Created with Inkscape (http://www.inkscape.org/) -->

<svg
   xmlns:dc="http://purl.org/dc/elements/1.1/"
   xmlns:cc="http://creativecommons.org/ns#"
   xmlns:rdf="http://www.w3.org/1999/02/22-rdf-syntax-ns#"
   xmlns:svg="http://www.w3.org/2000/svg"
   xmlns="http://www.w3.org/2000/svg"
   version="1.1"
   width="673.75"
   height="730"
   id="svg9062"
   xml:space="preserve"><metadata
     id="metadata9068"><rdf:RDF><cc:Work
         rdf:about=""><dc:format>image/svg+xml</dc:format><dc:type
           rdf:resource="http://purl.org/dc/dcmitype/StillImage" /><dc:title></dc:title></cc:Work></rdf:RDF></metadata><defs
     id="defs9066" /><g
     transform="matrix(1.25,0,0,-1.25,0,730)"
     id="g9070"><g
       transform="scale(0.1,0.1)"
       id="g9072"><g
         transform="scale(10,10)"
         id="g9074"><text
           transform="matrix(1,0,0,-1,5.66445,236.686)"
           id="text9076"><tspan
             x="0 6.3936 15.9936 23.4624 33.062401 41.5872 50.112 55.4496 65.049599"
             y="0"
             id="tspan9078"
             style="font-size:19.20000076px;font-variant:normal;font-weight:normal;writing-mode:lr-tb;fill:#000000;fill-opacity:1;fill-rule:nonzero;stroke:none;font-family:Liberation Serif;-inkscape-font-specification:LiberationSerif">Inspector</tspan><tspan
             x="130.702 144.56441 150.95799 157.35159 165.8764 175.47639 180.2764"
             y="-240.655"
             id="tspan9080"
             style="font-size:19.20000076px;font-variant:normal;font-weight:normal;writing-mode:lr-tb;fill:#000000;fill-opacity:1;fill-rule:nonzero;stroke:none;font-family:Liberation Serif;-inkscape-font-specification:LiberationSerif">Array 1</tspan><tspan
             x="113.7918 127.6542 134.04781 140.44141 148.9662 158.56619 163.3662"
             y="94.317001"
             id="tspan9082"
             style="font-size:19.20000076px;font-variant:normal;font-weight:normal;writing-mode:lr-tb;fill:#000000;fill-opacity:1;fill-rule:nonzero;stroke:none;font-family:Liberation Serif;-inkscape-font-specification:LiberationSerif">Array 2</tspan></text>
</g><path
         d="M 5360.62,390.07 C 3938.28,546.16 2911.8,1825.77 3067.89,3248.11 3201.17,4462.25 4164.34,5418.43 5379.45,5542.8"
         id="path9084"
         style="fill:#ffffff;fill-opacity:1;fill-rule:nonzero;stroke:none" /><path
         d="M 5360.62,390.066 C 3938.28,546.156 2911.8,1825.77 3067.89,3248.12 3201.17,4462.25 4164.34,5418.43 5379.45,5542.8"
         id="path9086"
         style="fill:none;stroke:#000000;stroke-width:16;stroke-linecap:butt;stroke-linejoin:miter;stroke-miterlimit:4;stroke-opacity:1;stroke-dasharray:none" /><path
         d="m 3052.46,2965.41 -819.8,0"
         id="path9088"
         style="fill:none;stroke:#000000;stroke-width:16;stroke-linecap:butt;stroke-linejoin:miter;stroke-miterlimit:4;stroke-opacity:1;stroke-dasharray:none" /><path
         d="m 2158.79,2965.42 110.7,64.02 0,-128.01 -110.7,63.99 z"
         id="path9090"
         style="fill:#000000;fill-opacity:1;fill-rule:evenodd;stroke:none" /><path
         d="m 2158.79,2965.41 110.7,64.04 0,-128.02 -110.7,63.98 z"
         id="path9092"
         style="fill:none;stroke:#000000;stroke-width:16;stroke-linecap:butt;stroke-linejoin:miter;stroke-miterlimit:4;stroke-opacity:1;stroke-dasharray:none" /><path
         d="m 3052.46,2965.41 0,-818.43"
         id="path9094"
         style="fill:none;stroke:#000000;stroke-width:16;stroke-linecap:butt;stroke-linejoin:miter;stroke-miterlimit:4;stroke-opacity:1;stroke-dasharray:none" /><path
         d="m 3052.46,2073.11 -64.02,110.71 128.01,0 -63.99,-110.71 z"
         id="path9096"
         style="fill:#000000;fill-opacity:1;fill-rule:evenodd;stroke:none" /><path
         d="m 3052.46,2073.12 -64.02,110.7 128.01,0 -63.99,-110.7 z"
         id="path9098"
         style="fill:none;stroke:#000000;stroke-width:16;stroke-linecap:butt;stroke-linejoin:miter;stroke-miterlimit:4;stroke-opacity:1;stroke-dasharray:none" /><path
         d="m 3555.27,4490.89 537.07,779.61"
         id="path9100"
         style="fill:none;stroke:#000000;stroke-width:16;stroke-linecap:butt;stroke-linejoin:miter;stroke-miterlimit:4;stroke-opacity:1;stroke-dasharray:none" /><path
         d="m 4134.22,5331.32 -10.08,-127.5 -105.43,72.61 115.51,54.89 z"
         id="path9102"
         style="fill:#000000;fill-opacity:1;fill-rule:evenodd;stroke:none" /><path
         d="m 4134.22,5331.32 -10.08,-127.51 -105.42,72.62 115.5,54.89 z"
         id="path9104"
         style="fill:none;stroke:#000000;stroke-width:16;stroke-linecap:butt;stroke-linejoin:miter;stroke-miterlimit:4;stroke-opacity:1;stroke-dasharray:none" /><path
         d="M 3517.81,1466.71 4026.64,668.387"
         id="path9106"
         style="fill:none;stroke:#000000;stroke-width:16;stroke-linecap:butt;stroke-linejoin:miter;stroke-miterlimit:4;stroke-opacity:1;stroke-dasharray:none" /><path
         d="m 4066.33,606.078 -113.48,58.992 107.93,68.789 5.55,-127.781 z"
         id="path9108"
         style="fill:#000000;fill-opacity:1;fill-rule:evenodd;stroke:none" /><path
         d="m 4066.33,606.082 -113.48,58.988 107.93,68.789 5.55,-127.777 z"
         id="path9110"
         style="fill:none;stroke:#000000;stroke-width:16;stroke-linecap:butt;stroke-linejoin:miter;stroke-miterlimit:4;stroke-opacity:1;stroke-dasharray:none" /><path
         d="m 2463.48,2915.77 4.29,-4.34 27.85,24.22 27.39,-24.22 4.29,4.34 -31.68,32.38 -32.14,-32.38 z"
         id="path9112"
         style="fill:#000000;fill-opacity:1;fill-rule:nonzero;stroke:none" /><path
         d="m 2453.4,2802.49 0.94,1.17 2.42,2.42 1.21,1.17 0.94,1.21 0.97,0.98 1.17,0.94 0.98,1.21 6.95,6.95 3.36,2.89 1.45,1.45 1.68,1.44 3.12,2.62 1.45,1.21 1.68,1.45 c 0,0.23 14.88,12.97 23.28,21.6 22.77,22.07 28.09,33.59 28.09,34.57 0,2.38 -2.19,2.38 -2.66,2.38 -1.68,0 -2.38,-0.47 -3.59,-2.65 -7.19,-11.53 -12.23,-15.36 -18.01,-15.36 -5.51,0 -8.63,3.6 -11.99,7.7 -4.57,5.51 -8.64,10.31 -16.57,10.31 -18,0 -28.79,-22.3 -28.79,-27.34 0,-1.21 0.71,-2.66 2.62,-2.66 2.19,0 2.66,1.21 3.13,2.66 4.57,11.01 18.47,11.25 20.39,11.25 5.04,0 9.61,-1.68 15.11,-3.6 9.38,-3.59 12.04,-3.59 18.25,-3.59 -8.64,-10.31 -28.56,-27.34 -33.09,-31.21 l -21.6,-19.92 c -16.09,-16.06 -24.49,-29.77 -24.49,-31.45 0,-2.15 2.38,-2.15 2.89,-2.15 1.91,0 2.38,0.47 3.83,3.13 5.5,8.16 12.73,14.65 20.15,14.65 5.51,0 7.93,-2.15 13.91,-9.14 4.1,-5.04 8.4,-8.64 15.39,-8.64 23.51,0 37.42,30.24 37.42,36.72 0,1.21 -0.98,2.43 -2.89,2.43 -2.15,0 -2.62,-1.45 -3.36,-3.13 -5.51,-15.62 -20.62,-20.16 -28.55,-20.16 -4.81,0 -9.11,1.45 -14.14,3.13 -8.17,3.08 -11.76,4.06 -16.8,4.06 -0.51,0 -4.1,0 -6.25,-0.7 z"
         id="path9114"
         style="fill:#000000;fill-opacity:1;fill-rule:nonzero;stroke:none" /><path
         d="m 2835.78,2439.05 -31.95,-32.42 4.33,-4.3 27.62,24.22 27.58,-24.22 4.34,4.3 -31.92,32.42 z"
         id="path9116"
         style="fill:#000000;fill-opacity:1;fill-rule:nonzero;stroke:none" /><path
         d="m 2840.82,2345.42 0,0.74 0.23,0.7 0.24,0.75 0.23,0.93 0.24,0.98 0.23,0.94 0.24,0.97 0.5,1.21 0.24,0.94 0.94,2.42 0.5,1.18 0.47,1.21 0.71,1.21 0.5,1.21 0.71,1.17 0.74,1.21 0.7,0.98 0.71,1.17 0.97,0.98 0.98,1.21 1.91,1.91 0.94,0.7 1.21,0.75 1.21,0.7 0.47,0.23 0.74,0.51 0.47,0.24 0.7,0.23 0.75,0.24 0.7,0 0.74,0.23 0.47,0.23 1.68,0 0.7,0.24 0.75,0 c 1.17,0 6.95,0 11.99,-3.09 -6.72,-1.21 -11.53,-7.22 -11.53,-12.97 0,-3.86 2.66,-8.39 9.11,-8.39 5.31,0 12.97,4.29 12.97,13.9 0,12.5 -14.15,15.86 -22.31,15.86 -13.95,0 -22.34,-12.73 -24.96,-18.24 -6.02,15.82 -18.99,18.24 -25.94,18.24 -24.72,0 -38.4,-30.98 -38.4,-36.72 0,-2.42 2.43,-2.42 2.89,-2.42 1.92,0 2.66,0.47 3.13,2.66 8.16,25.19 23.75,31.17 31.91,31.17 4.57,0 12.97,-2.15 12.97,-16.06 0,-7.46 -4.1,-23.28 -12.97,-56.64 -3.82,-14.88 -12.22,-24.96 -22.58,-24.96 -1.4,0 -6.95,0 -11.99,3.13 6.02,1.17 11.29,6.21 11.29,12.93 0,6.48 -5.27,8.4 -8.87,8.4 -7.22,0 -13.2,-6.22 -13.2,-13.91 0,-11.06 11.99,-15.59 22.54,-15.59 15.63,0 24.26,16.57 24.96,18.01 2.89,-8.91 11.53,-18.01 25.7,-18.01 24.73,0 38.4,30.71 38.4,36.72 0,2.38 -2.18,2.38 -2.89,2.38 -2.15,0 -2.65,-0.93 -3.12,-2.61 -7.93,-25.71 -24.22,-31.45 -31.92,-31.45 -9.1,0 -12.97,7.66 -12.97,15.82 0,5.28 1.45,10.59 4.11,20.9 l 8.16,32.62 z"
         id="path9118"
         style="fill:#000000;fill-opacity:1;fill-rule:nonzero;stroke:none" /><path
         d="m 16.0898,2241.71 1572.03,0 0,1572.03 -1572.03,0 0,-1572.03 z"
         id="path9120"
         style="fill:#ffffff;fill-opacity:1;fill-rule:nonzero;stroke:none" /><path
         d="m 16.0898,2241.71 1572.03,0 0,1572.03 -1572.03,0 0,-1572.03 z"
         id="path9122"
         style="fill:none;stroke:#000000;stroke-width:32;stroke-linecap:butt;stroke-linejoin:miter;stroke-miterlimit:4;stroke-opacity:1;stroke-dasharray:none" /><path
         d="m 2195.82,4625.5 231.33,-231.33 -843.01,-843.05 -231.37,231.37 843.05,843.01 z"
         id="path9124"
         style="fill:#ffffff;fill-opacity:1;fill-rule:nonzero;stroke:none" /><path
         d="m 2195.82,4625.5 231.33,-231.34 -843.01,-843.05 -231.37,231.37 843.05,843.02 z"
         id="path9126"
         style="fill:none;stroke:#000000;stroke-width:32;stroke-linecap:butt;stroke-linejoin:miter;stroke-miterlimit:4;stroke-opacity:1;stroke-dasharray:none" /><path
         d="m 1317.58,2288.23 253.83,206.41 752.14,-925 -253.82,-206.41 -752.15,925 z"
         id="path9128"
         style="fill:#ffffff;fill-opacity:1;fill-rule:nonzero;stroke:none" /><path
         d="m 1317.58,2288.23 253.82,206.41 752.16,-925 -253.83,-206.41 -752.15,925 z"
         id="path9130"
         style="fill:none;stroke:#000000;stroke-width:32;stroke-linecap:butt;stroke-linejoin:miter;stroke-miterlimit:4;stroke-opacity:1;stroke-dasharray:none" /><path
         d="m 2227.89,4765.43 336.25,-336.25 -172.5,-172.54 -336.25,336.25 172.5,172.54 z"
         id="path9132"
         style="fill:none;stroke:#000000;stroke-width:16;stroke-linecap:butt;stroke-linejoin:miter;stroke-miterlimit:4;stroke-opacity:1;stroke-dasharray:none" /><path
         d="m 2468.87,4352.45 c 84.84,84.84 83.12,224.06 -3.79,310.98 -86.92,86.91 -226.13,88.63 -310.98,3.78 -84.84,-84.84 -83.16,-224.1 3.75,-311.01 86.92,-86.91 226.17,-88.59 311.02,-3.75 z"
         id="path9134"
         style="fill:#ffffff;fill-opacity:1;fill-rule:nonzero;stroke:none" /><g
         transform="matrix(0.206148,-0.206148,15.4271,15.4271,0,0)"
         id="g9136"><path
           d="m -4568.52,221.082 c 0,5.5 -341.84,9.956 -763.45,9.956 -421.61,0 -763.44,-4.456 -763.44,-9.956 0.01,-5.499 341.84,-9.958 763.45,-9.958 421.61,0 763.45,4.459 763.44,9.958 z"
           id="path9138"
           style="fill:none;stroke:#000000;stroke-width:6.34415007;stroke-linecap:butt;stroke-linejoin:miter;stroke-miterlimit:4;stroke-opacity:1;stroke-dasharray:none" /></g><path
         d="m 2488.4,4084.64 -583.17,608.16 252.39,242.03 583.2,-608.16 -252.42,-242.03 z"
         id="path9140"
         style="fill:#ffffff;fill-opacity:1;fill-rule:nonzero;stroke:none" /><path
         d="m 2488.41,4084.64 -583.18,608.16 252.39,242.03 583.2,-608.16 -252.41,-242.03 z"
         id="path9142"
         style="fill:none;stroke:#000000;stroke-width:32;stroke-linecap:butt;stroke-linejoin:miter;stroke-miterlimit:4;stroke-opacity:1;stroke-dasharray:none" /><path
         d="m 2151.37,4688.74 c 98.86,94.8 255.86,91.52 350.66,-7.35 94.81,-98.86 91.52,-255.89 -7.34,-350.7 -98.87,-94.8 -255.9,-91.48 -350.71,7.38 -94.8,98.87 -91.52,255.86 7.39,350.67 z"
         id="path9144"
         style="fill:#ffffff;fill-opacity:1;fill-rule:nonzero;stroke:none" /><path
         d="m 2151.37,4688.73 c 98.86,94.82 255.85,91.53 350.66,-7.34 94.81,-98.86 91.53,-255.89 -7.34,-350.7 -98.87,-94.8 -255.9,-91.48 -350.7,7.38 -94.81,98.87 -91.52,255.86 7.38,350.66 z"
         id="path9146"
         style="fill:none;stroke:#000000;stroke-width:32;stroke-linecap:butt;stroke-linejoin:miter;stroke-miterlimit:4;stroke-opacity:1;stroke-dasharray:none" /><path
         d="m 1756.29,1343.39 675.51,503.63 209.02,-280.35 -675.51,-503.63 -209.02,280.35 z"
         id="path9148"
         style="fill:#ffffff;fill-opacity:1;fill-rule:nonzero;stroke:none" /><path
         d="m 1756.29,1343.38 675.51,503.63 209.02,-280.35 -675.51,-503.62 -209.02,280.34 z"
         id="path9150"
         style="fill:none;stroke:#000000;stroke-width:32;stroke-linecap:butt;stroke-linejoin:miter;stroke-miterlimit:4;stroke-opacity:1;stroke-dasharray:none" /><path
         d="m 2397.42,1603.27 c 81.88,-109.81 59.22,-265.2 -50.58,-347.07 -109.85,-81.88 -265.24,-59.26 -347.11,50.59 -81.88,109.8 -59.22,265.19 50.58,347.07 109.81,81.91 265.24,59.25 347.11,-50.59 z"
         id="path9152"
         style="fill:#ffffff;fill-opacity:1;fill-rule:nonzero;stroke:none" /><path
         d="m 2397.43,1603.27 c 81.86,-109.8 59.21,-265.19 -50.59,-347.06 -109.85,-81.89 -265.24,-59.27 -347.12,50.57 -81.87,109.81 -59.22,265.2 50.59,347.07 109.81,81.92 265.23,59.27 347.12,-50.58 z"
         id="path9154"
         style="fill:none;stroke:#000000;stroke-width:32;stroke-linecap:butt;stroke-linejoin:miter;stroke-miterlimit:4;stroke-opacity:1;stroke-dasharray:none" /><path
         d="m 2434.57,4509.83 c 0,-67.97 -55.12,-123.08 -123.09,-123.08 -67.96,0 -123.08,55.11 -123.08,123.08 0,67.97 55.12,123.09 123.08,123.09 67.97,0 123.09,-55.12 123.09,-123.09 z"
         id="path9156"
         style="fill:#ffffff;fill-opacity:1;fill-rule:nonzero;stroke:none" /><path
         d="m 2434.57,4509.84 c 0,-67.97 -55.12,-123.09 -123.09,-123.09 -67.96,0 -123.08,55.12 -123.08,123.09 0,67.96 55.12,123.07 123.08,123.07 67.97,0 123.09,-55.11 123.09,-123.07 z"
         id="path9158"
         style="fill:none;stroke:#000000;stroke-width:8;stroke-linecap:butt;stroke-linejoin:miter;stroke-miterlimit:4;stroke-opacity:1;stroke-dasharray:none" /><path
         d="M 2201.64,4424.71 824.609,3260.96"
         id="path9160"
         style="fill:none;stroke:#000000;stroke-width:14.86750031;stroke-linecap:butt;stroke-linejoin:miter;stroke-miterlimit:4;stroke-opacity:1;stroke-dasharray:none" /><path
         d="m 2254.06,4469.01 -40.19,-111.83 -76.8,90.82 116.99,21.01 z"
         id="path9162"
         style="fill:#000000;fill-opacity:1;fill-rule:evenodd;stroke:none" /><path
         d="m 2254.06,4469.01 -40.18,-111.83 -76.81,90.82 116.99,21.01 z"
         id="path9164"
         style="fill:none;stroke:#000000;stroke-width:14.86750031;stroke-linecap:butt;stroke-linejoin:miter;stroke-miterlimit:4;stroke-opacity:1;stroke-dasharray:none" /><path
         d="m 2362.15,4509.83 c 0,-28.01 -22.7,-50.7 -50.67,-50.7 -28,0 -50.7,22.69 -50.7,50.7 0,27.97 22.7,50.67 50.7,50.67 27.97,0 50.67,-22.7 50.67,-50.67 z"
         id="path9166"
         style="fill:#000000;fill-opacity:1;fill-rule:nonzero;stroke:none" /><path
         d="m 2362.15,4509.84 c 0,-28.02 -22.7,-50.71 -50.67,-50.71 -28,0 -50.7,22.69 -50.7,50.71 0,27.96 22.7,50.66 50.7,50.66 27.97,0 50.67,-22.7 50.67,-50.66 z"
         id="path9168"
         style="fill:none;stroke:#000000;stroke-width:8;stroke-linecap:butt;stroke-linejoin:miter;stroke-miterlimit:4;stroke-opacity:1;stroke-dasharray:none" /><path
         d="m 2318.36,1464.83 c 0,-67.97 -55.12,-123.08 -123.09,-123.08 -68,0 -123.08,55.11 -123.08,123.08 0,67.97 55.08,123.09 123.08,123.09 67.97,0 123.09,-55.12 123.09,-123.09 z"
         id="path9170"
         style="fill:#ffffff;fill-opacity:1;fill-rule:nonzero;stroke:none" /><path
         d="m 2318.36,1464.84 c 0,-67.97 -55.12,-123.09 -123.09,-123.09 -68,0 -123.08,55.12 -123.08,123.09 0,67.96 55.08,123.07 123.08,123.07 67.97,0 123.09,-55.11 123.09,-123.07 z"
         id="path9172"
         style="fill:none;stroke:#000000;stroke-width:8;stroke-linecap:butt;stroke-linejoin:miter;stroke-miterlimit:4;stroke-opacity:1;stroke-dasharray:none" /><path
         d="M 2108.2,1551.91 770.391,3053"
         id="path9174"
         style="fill:none;stroke:#000000;stroke-width:15.07730007;stroke-linecap:butt;stroke-linejoin:miter;stroke-miterlimit:4;stroke-opacity:1;stroke-dasharray:none" /><path
         d="m 2154.53,1499.91 -114.45,37.77 90.04,80.28 24.41,-118.05 z"
         id="path9176"
         style="fill:#000000;fill-opacity:1;fill-rule:evenodd;stroke:none" /><path
         d="m 2154.54,1499.91 -114.46,37.77 90.04,80.28 24.42,-118.05 z"
         id="path9178"
         style="fill:none;stroke:#000000;stroke-width:15.07730007;stroke-linecap:butt;stroke-linejoin:miter;stroke-miterlimit:4;stroke-opacity:1;stroke-dasharray:none" /><path
         d="m 2245.94,1464.83 c 0,-28.01 -22.7,-50.7 -50.67,-50.7 -28,0 -50.7,22.69 -50.7,50.7 0,28.01 22.7,50.71 50.7,50.71 27.97,0 50.67,-22.7 50.67,-50.71 z"
         id="path9180"
         style="fill:#000000;fill-opacity:1;fill-rule:nonzero;stroke:none" /><path
         d="m 2245.94,1464.84 c 0,-28.02 -22.7,-50.71 -50.67,-50.71 -28,0 -50.7,22.69 -50.7,50.71 0,28 22.7,50.7 50.7,50.7 27.97,0 50.67,-22.7 50.67,-50.7 z"
         id="path9182"
         style="fill:none;stroke:#000000;stroke-width:8;stroke-linecap:butt;stroke-linejoin:miter;stroke-miterlimit:4;stroke-opacity:1;stroke-dasharray:none" /><path
         d="m 870.199,3147.77 c 0,-106.18 -86.058,-192.27 -192.23,-192.27 -106.207,0 -192.27,86.09 -192.27,192.27 0,106.16 86.063,192.25 192.27,192.25 106.172,0 192.23,-86.09 192.23,-192.25 z"
         id="path9184"
         style="fill:none;stroke:#000000;stroke-width:2.7188499;stroke-linecap:butt;stroke-linejoin:miter;stroke-miterlimit:4;stroke-opacity:1;stroke-dasharray:none" /><path
         d="m 486.641,3148.73 383.558,0"
         id="path9186"
         style="fill:none;stroke:#000000;stroke-width:0.67971301;stroke-linecap:butt;stroke-linejoin:miter;stroke-miterlimit:4;stroke-opacity:1;stroke-dasharray:none" /><path
         d="m 673.09,3340.02 0,-383.54"
         id="path9188"
         style="fill:none;stroke:#000000;stroke-width:0.67971301;stroke-linecap:butt;stroke-linejoin:miter;stroke-miterlimit:4;stroke-opacity:1;stroke-dasharray:none" /><path
         d="m 673.629,3052.52 0,95.16 194.769,0 -0.277,-7.02 c -2.031,-48.21 -21.793,-93.14 -56.051,-127.43 -24.648,-24.64 -54.449,-41.48 -88.672,-50.11 -12.457,-3.17 -31.636,-5.74 -42.699,-5.74 l -7.07,0 0,95.14 z"
         id="path9190"
         style="fill:none;stroke:#000000;stroke-width:3.88406992;stroke-linecap:butt;stroke-linejoin:miter;stroke-miterlimit:4;stroke-opacity:1;stroke-dasharray:none" /><path
         d="m 675.59,3052.53 0,93.24 190.5,0 -0.66,-8.52 c -3.551,-47.61 -22.5,-89.14 -55.821,-122.46 -20.589,-20.62 -45.781,-36.09 -73.32,-45.15 -16.91,-5.59 -30.59,-8.05 -53.668,-9.81 l -7.031,-0.51 0,93.21 z"
         id="path9192"
         style="fill:#000000;fill-opacity:1;fill-rule:nonzero;stroke:none" /><path
         d="m 675.59,3052.52 0,93.25 190.5,0 -0.66,-8.52 c -3.551,-47.61 -22.5,-89.13 -55.821,-122.45 -20.589,-20.64 -45.781,-36.1 -73.32,-45.16 -16.91,-5.59 -30.59,-8.05 -53.668,-9.8 l -7.031,-0.52 0,93.2 z"
         id="path9194"
         style="fill:none;stroke:#000000;stroke-width:3.88406992;stroke-linecap:butt;stroke-linejoin:miter;stroke-miterlimit:4;stroke-opacity:1;stroke-dasharray:none" /><path
         d="m 487.73,3156.67 c 3.321,42.34 15.36,74.96 39.418,106.79 7.731,10.24 25.274,27.78 35.43,35.47 29.57,22.35 64.922,35.82 101.602,38.68 l 8.519,0.66 0,-188.63 -185.508,0 0.539,7.03 z"
         id="path9196"
         style="fill:#000000;fill-opacity:1;fill-rule:nonzero;stroke:none" /><path
         d="m 487.73,3156.66 c 3.321,42.36 15.36,74.97 39.418,106.8 7.731,10.24 25.274,27.77 35.43,35.47 29.57,22.34 64.922,35.82 101.602,38.68 l 8.519,0.66 0,-188.63 -185.508,0 0.539,7.02 z"
         id="path9198"
         style="fill:none;stroke:#000000;stroke-width:3.88406992;stroke-linecap:butt;stroke-linejoin:miter;stroke-miterlimit:4;stroke-opacity:1;stroke-dasharray:none" /><path
         d="m 2702.93,5062.92 -69.18,70.19 -69.14,-70.19 9.34,-9.38 59.8,52.54 59.8,-52.54 9.38,9.38 z"
         id="path9200"
         style="fill:#000000;fill-opacity:1;fill-rule:nonzero;stroke:none" /><path
         d="m 2682.66,4807.1 0,-3.13 0.5,-3.12 0,-5.2 1.02,-3.12 0,-1.57 1.05,-2.07 0.51,-1.56 0.55,-1.56 1.01,-1.56 2.11,-3.13 1.57,-1.56 1.52,-1.06 1.56,-1.52 1.06,-0.55 1.05,-0.5 1.02,-1.06 2.11,-1.01 1.01,-0.55 1.06,-0.51 1.56,-0.51 1.02,-0.54 3.12,-1.02 1.56,-0.55 1.57,0 3.12,-1.01 1.56,0 2.07,-0.51 2.07,0 1.57,-0.55 2.11,0 2.07,-0.5 9.33,0 2.62,-0.51 24.45,0 c 10.39,0 16.64,0 16.64,12.46 0,11.95 -6.76,11.95 -13.01,11.95 -31.71,0.55 -31.71,7.31 -31.71,19.26 l 0,111.29 c 0,45.74 -36.92,79.02 -113.91,79.02 -29.61,0 -92.54,-1.56 -92.54,-47.3 0,-22.89 18.2,-32.27 31.72,-32.27 16.13,0 32.77,10.39 32.77,32.27 0,15.58 -9.88,24.41 -11.44,25.47 14.57,3.12 31.17,3.63 37.42,3.63 39.02,0 56.68,-21.84 56.68,-60.82 l 0,-82.7 c 0,-49.92 -47.31,-56.68 -60.31,-56.68 -26.53,0 -47.31,18.21 -47.31,41.1 0,55.62 82.15,62.89 107.62,64.45 l 0,16.13 c -36.41,-1.56 -167.97,-6.25 -167.97,-81.13 0,-49.92 63.98,-59.26 99.84,-59.26 41.61,0 65.55,21.29 77,43.17 z"
         id="path9202"
         style="fill:#000000;fill-opacity:1;fill-rule:nonzero;stroke:none" /><path
         d="m 2900,4919.4 0,6.25 -0.51,0.51 0,1.05 -0.54,0.51 0,0.51 -0.51,0 0,0.55 -1.06,0 0,0.51 -2.58,0 0,0.5 -5.74,0 c -22.85,-22.85 -55.62,-23.4 -70.7,-23.4 l 0,-13 c 8.83,0 32.77,0 52.5,10.43 l 0,-184.61 c 0,-11.96 0,-16.64 -36.37,-16.64 l -13.51,0 0,-13.01 c 6.21,0.51 50.93,1.56 64.45,1.56 10.94,0 56.68,-1.05 64.49,-1.56 l 0,13.01 -13.51,0 c -36.41,0 -36.41,4.68 -36.41,16.64 l 0,200.19 z"
         id="path9204"
         style="fill:#000000;fill-opacity:1;fill-rule:nonzero;stroke:none" /><path
         d="m 1685.82,1179.01 -69.14,-70.19 9.37,-9.38 59.77,52.54 59.8,-52.54 9.38,9.38 -69.18,70.19 z"
         id="path9206"
         style="fill:#000000;fill-opacity:1;fill-rule:nonzero;stroke:none" /><path
         d="m 1734.73,852.961 0,-3.133 0.5,-3.117 0,-5.199 0.51,-1.563 0.55,-1.558 0,-1.532 1.01,-2.109 0.55,-1.559 0.51,-1.562 1.05,-1.559 1.02,-1.531 1.05,-1.559 1.57,-1.558 1.56,-1.063 1.56,-1.558 1.02,-0.512 1.05,-0.539 1.02,-1.02 1.05,-0.511 1.06,-0.539 1.01,-0.508 1.06,-0.512 1.56,-0.551 1.05,-0.5 1.53,-0.507 1.56,-0.551 1.56,-0.512 1.57,0 1.56,-0.5 1.56,-0.551 1.56,0 2.07,-0.508 2.11,0 1.57,-0.511 2.07,0 2.07,-0.539 9.37,0 2.58,-0.508 24.45,0 c 10.39,0 16.64,0 16.64,12.5 0,11.949 -6.76,11.949 -13,11.949 -31.72,0.508 -31.72,7.27 -31.72,19.219 l 0,111.289 c 0,45.781 -36.92,79.061 -113.87,79.061 -29.65,0 -92.58,-1.56 -92.58,-47.338 0,-22.891 18.2,-32.231 31.72,-32.231 16.13,0 32.77,10.391 32.77,32.231 0,15.618 -9.88,24.448 -11.44,25.468 14.57,3.12 31.21,3.67 37.42,3.67 39.02,0 56.68,-21.84 56.68,-60.861 l 0,-82.66 c 0,-49.918 -47.31,-56.68 -60.31,-56.68 -26.53,0 -47.31,18.172 -47.31,41.063 0,55.66 82.15,62.929 107.62,64.488 l 0,16.129 c -36.37,-1.559 -167.93,-6.25 -167.93,-81.129 0,-49.918 63.95,-59.301 99.84,-59.301 41.61,0 65.51,21.332 76.96,43.172 z"
         id="path9208"
         style="fill:#000000;fill-opacity:1;fill-rule:nonzero;stroke:none" /><path
         d="m 2013.95,801.469 -12.47,0 c -1.05,-8.321 -4.68,-29.61 -9.37,-33.278 -3.13,-2.07 -30.66,-2.07 -35.86,-2.07 l -66.56,0 c 37.93,33.789 50.43,43.668 72.26,60.859 27.03,21.29 52,43.668 52,77.969 0,43.711 -38.48,70.742 -84.77,70.742 -45.23,0 -75.39,-31.722 -75.39,-65 0,-18.203 15.62,-20.269 19.26,-20.269 8.83,0 19.22,6.207 19.22,19.219 0,6.75 -2.58,19.25 -21.33,19.25 10.94,25.98 35.9,33.789 52.54,33.789 36.4,0 55.11,-28.078 55.11,-57.731 0,-31.168 -22.34,-56.129 -33.79,-69.14 l -87.38,-86.329 c -3.63,-3.121 -3.63,-3.628 -3.63,-14.019 l 149.26,0 10.9,66.008 z"
         id="path9210"
         style="fill:#000000;fill-opacity:1;fill-rule:nonzero;stroke:none" /><path
         d="m 1234.73,4212.41 0,-25.47 94.65,3.09 0,24.45 c -32.23,0 -35.36,0 -35.36,20.27 l 0,314.11 -92.03,-4.18 0,-24.42 c 32.23,0 35.86,0 35.86,-19.76 l 0,-100.9 c -25.97,20.27 -52.5,23.4 -69.69,23.4 l 5.2,-18.71 c 29.14,0 49.92,-16.65 61.37,-31.72 l 0,-128.95 c -6.76,-9.37 -28.09,-37.97 -67.07,-37.97 -63.44,0 -63.44,62.39 -63.44,98.79 0,24.96 0,52.54 13.51,72.81 15.08,21.84 39.54,27.04 55.63,27.04 l -5.2,18.71 c -75.89,0 -130,-45.75 -130,-118.56 0,-68.12 47.86,-117.5 124.3,-117.5 31.21,0 56.17,12.46 72.27,25.47 z"
         id="path9212"
         style="fill:#000000;fill-opacity:1;fill-rule:nonzero;stroke:none" /><path
         d="m 1470.82,4342.41 0,5.7 -0.51,0 0,2.07 -0.54,0 0,0.55 -1.02,1.02 -0.55,0 -0.5,0.54 -2.08,0 -0.54,0.51 -5.2,0 c -22.85,-22.89 -56.13,-23.4 -70.7,-23.4 l 0,-13.01 c 8.32,0 32.23,0 52.5,10.4 l 0,-184.58 c 0,-11.95 0,-16.64 -36.37,-16.64 l -14.06,0 0,-13 c 6.76,0.5 51.48,1.56 65,1.56 10.94,0 56.68,-1.06 64.49,-1.56 l 0,13 -13.51,0 c -36.41,0 -36.41,4.69 -36.41,16.64 l 0,200.2 z"
         id="path9214"
         style="fill:#000000;fill-opacity:1;fill-rule:nonzero;stroke:none" /><path
         d="m 1045.12,1834.52 0,-25.47 94.61,3.13 0,24.45 c -32.23,0 -35.35,0 -35.35,20.27 l 0,314.06 -92.04,-4.14 0,-24.45 c 32.23,0 35.86,0 35.86,-19.76 l 0,-100.86 c -25.97,20.27 -52.501,23.39 -69.649,23.39 l 5.199,-18.75 c 29.1,0 49.92,-16.64 61.37,-31.71 l 0,-128.95 c -6.76,-9.37 -28.09,-37.97 -67.108,-37.97 -63.442,0 -63.442,62.42 -63.442,98.83 0,24.92 0,52.5 13.52,72.77 15.07,21.84 39.531,27.03 55.66,27.03 l -5.199,18.75 c -75.93,0 -130,-45.78 -130,-118.55 0,-68.13 47.82,-117.54 124.258,-117.54 31.211,0 56.171,12.46 72.311,25.47 z"
         id="path9216"
         style="fill:#000000;fill-opacity:1;fill-rule:nonzero;stroke:none" /><path
         d="m 1342.54,1800.73 -11.95,0 c -1.06,-8.32 -4.69,-29.65 -9.38,-33.28 -3.12,-2.07 -31.17,-2.07 -35.86,-2.07 l -66.56,0 c 37.97,33.79 50.43,43.67 72.26,60.82 26.53,21.33 51.49,43.71 51.49,78.01 0,43.67 -37.97,70.74 -84.77,70.74 -44.72,0 -74.88,-31.72 -74.88,-65 0,-18.2 15.63,-20.31 18.71,-20.31 8.87,0 19.26,6.25 19.26,19.25 0,6.76 -2.07,19.22 -21.33,19.22 11.45,26.02 35.9,33.83 53.05,33.83 36.4,0 55.12,-28.08 55.12,-57.73 0,-31.21 -22.35,-56.17 -34.3,-69.14 l -87.38,-86.33 c -3.13,-3.13 -3.13,-3.63 -3.13,-14.06 l 148.71,0 10.94,66.05 z"
         id="path9218"
         style="fill:#000000;fill-opacity:1;fill-rule:nonzero;stroke:none" /><g
         transform="scale(10,10)"
         id="g9220"><text
           transform="matrix(1,0,0,-1,209.315,81.6422)"
           id="text9222"><tspan
             x="0 6.3936 20.256001 29.856001 35.1936 39.993599 49.593601 55.987202 60.787201 70.387199 78.912003 88.512001 97.036797"
             y="0"
             id="tspan9224"
             style="font-size:19.20000076px;font-variant:normal;font-weight:normal;writing-mode:lr-tb;fill:#000000;fill-opacity:1;fill-rule:nonzero;stroke:none;font-family:Liberation Serif;-inkscape-font-specification:LiberationSerif">(Out of page)</tspan><tspan
             x="47.066002 53.459599 67.321999 76.921997 82.259598 87.059601 96.659599 103.0532 107.8532 117.4532 125.978 135.578 144.1028"
             y="-374.82599"
             id="tspan9226"
             style="font-size:19.20000076px;font-variant:normal;font-weight:normal;writing-mode:lr-tb;fill:#000000;fill-opacity:1;fill-rule:nonzero;stroke:none;font-family:Liberation Serif;-inkscape-font-specification:LiberationSerif">(Out of page)</tspan></text>
<text
           transform="matrix(1,0,0,-1,314.9478,328.5422)"
           id="text9228"><tspan
             x="0 15.5808 28.368 37.468948 51.868946 64.656143 72.662544 79.862549 95.875343 110.27534 119.86575 129.45615 142.24335 155.03055"
             y="0"
             id="tspan9230"
             style="font-size:28.79999924px;font-variant:normal;font-weight:normal;writing-mode:lr-tb;fill:#000000;fill-opacity:1;fill-rule:nonzero;stroke:none;font-family:Liberation Serif;-inkscape-font-specification:LiberationSerif">Target Surface</tspan></text>
</g><path
         d="m 671.211,3140.77 1120.079,0"
         id="path9232"
         style="fill:none;stroke:#000000;stroke-width:16;stroke-linecap:butt;stroke-linejoin:miter;stroke-miterlimit:4;stroke-opacity:1;stroke-dasharray:none" /><path
         d="m 1865.12,3140.77 -110.71,-63.98 0,127.96 110.71,-63.98 z"
         id="path9234"
         style="fill:#000000;fill-opacity:1;fill-rule:evenodd;stroke:none" /><path
         d="m 1865.12,3140.77 -110.71,-63.98 0,127.96 110.71,-63.98 z"
         id="path9236"
         style="fill:none;stroke:#000000;stroke-width:16;stroke-linecap:butt;stroke-linejoin:miter;stroke-miterlimit:4;stroke-opacity:1;stroke-dasharray:none" /><path
         d="m 1838.98,3403.78 46.1,0 c 35.97,0 39.84,-7.7 39.84,-21.14 0,-3.35 0,-9.1 -3.36,-23.51 -0.97,-2.38 -1.44,-4.3 -1.44,-5.27 0,-3.83 2.89,-5.79 5.74,-5.79 4.8,0 4.8,1.45 7.23,10.12 l 25.89,103.17 c 1.45,5.78 1.45,6.25 1.45,7.69 0,0.98 -0.98,5.27 -5.74,5.27 -4.81,0 -4.81,-2.38 -7.23,-10.07 -9.61,-36.96 -20.62,-45.59 -61.44,-45.59 l -43.21,0 30.28,120.94 c 4.29,16.79 4.76,18.75 25.89,18.75 l 62.9,0 c 59.02,0 70.07,-15.86 70.07,-52.35 0,-11.01 0,-12.96 -1.44,-25.89 -0.98,-6.25 -0.98,-7.23 -0.98,-8.64 0,-2.42 1.45,-5.31 5.78,-5.31 5.28,0 5.28,2.89 6.72,11.52 l 9.1,82.58 c 1.45,12.97 -0.93,12.97 -12.93,12.97 l -233.79,0 c -9.57,0 -14.37,0 -14.37,-9.61 0,-5.27 4.3,-5.27 13.44,-5.27 17.73,0 31.21,0 31.21,-8.67 0,-1.92 0,-2.86 -2.42,-11.02 l -63.36,-252.5 c -4.34,-18.71 -5.28,-22.54 -43.21,-22.54 -8.16,0 -13.43,0 -13.43,-9.14 0,-5.74 5.78,-5.74 7.18,-5.74 13.95,0 48.99,1.91 62.89,1.91 15.86,0 55.71,-1.91 71.53,-1.91 4.33,0 9.61,0 9.61,9.1 0,3.87 -2.89,4.8 -2.89,5.31 -1.45,0.47 -2.39,0.47 -12.97,0.47 -10.55,0 -12.93,0 -24.96,0.94 -13.91,1.44 -15.36,3.36 -15.36,9.61 0,0.97 0,3.83 1.92,11.05 l 29.76,118.56 z"
         id="path9238"
         style="fill:#000000;fill-opacity:1;fill-rule:nonzero;stroke:none" /><path
         d="m 2042.5,3198.35 0,-0.51 -0.47,-0.47 0,-1.44 -0.47,-0.47 0,-0.98 -0.51,-0.94 -0.46,-1.44 0,-0.98 -0.47,-0.94 0,-1.44 -0.47,-0.47 0,-1.95 -0.51,0 0,-1.92 c 0,-7.19 5.78,-10.54 11.52,-10.54 5.79,0 11.06,4.33 12.97,7.18 1.45,3.36 4.34,13.95 5.75,21.14 1.95,6.25 5.31,21.6 7.69,29.76 1.91,7.19 3.83,14.88 5.27,22.54 3.83,13.44 4.81,16.33 14.42,29.77 9.1,13.43 24.96,30.74 49.92,30.74 19.69,0 19.69,-16.8 19.69,-23.05 0,-20.15 -14.42,-57.11 -19.69,-71.05 -3.36,-9.61 -4.8,-12.46 -4.8,-18.25 0,-17.73 14.41,-28.78 31.67,-28.78 33.6,0 48.01,46.09 48.01,50.85 0,4.81 -4.33,4.81 -5.27,4.81 -4.81,0 -4.81,-2.38 -6.25,-5.74 -7.7,-26.88 -22.07,-40.32 -35.55,-40.32 -7.19,0 -8.12,4.3 -8.12,11.53 0,7.65 1.4,11.99 7.65,26.87 3.83,10.55 17.31,45.59 17.31,64.81 0,32.15 -25.47,37.89 -43.21,37.89 -27.85,0 -46.56,-17.27 -56.64,-30.7 -2.42,23.51 -22.1,30.7 -35.54,30.7 -14.38,0 -22.07,-10.55 -26.41,-18.24 -7.65,-12.46 -11.99,-31.18 -11.99,-33.09 0,-4.34 4.34,-4.34 5.78,-4.34 4.3,0 4.8,0.98 7.19,10.08 4.8,19.69 11.52,36.02 24.49,36.02 8.63,0 11.02,-7.23 11.02,-16.33 0,-6.25 -3.36,-18.71 -5.28,-27.38 -2.38,-9.1 -5.74,-23.01 -7.65,-30.24 l -10.59,-42.69 z"
         id="path9240"
         style="fill:#000000;fill-opacity:1;fill-rule:nonzero;stroke:none" /><path
         d="m 2312.73,3253.54 12.97,0 1.92,0.47 5.27,0 3.87,0.47 3.83,0.51 3.82,0.47 3.87,0.47 3.83,0.46 3.83,0.98 1.91,0.47 1.95,0.51 1.92,0.47 1.44,0.47 1.92,0.46 1.91,0.51 c 24.49,8.63 29.3,24.96 29.3,35.04 0,18.24 -18.24,29.26 -41.8,29.26 l 0,-9.57 c 14.89,0 27.39,-7.23 27.39,-19.69 0,-32.66 -56.65,-32.66 -71.06,-32.66 l -16.33,0 c 13.95,48.48 50.9,52.35 60,52.35 l 0,9.57 c -39.8,0 -94.06,-30.7 -94.06,-87.81 0,-33.6 21.13,-62.89 60,-62.89 56.64,0 83.05,33.12 83.05,37.93 0,1.91 -2.89,5.74 -5.78,5.74 -1.92,0 -2.39,-0.94 -5.28,-3.36 -25.9,-30.71 -65.27,-30.71 -71.01,-30.71 -20.2,0 -33.64,12.93 -33.64,40.32 0,4.29 0,11.05 3.87,29.76 l 21.09,0 z"
         id="path9242"
         style="fill:#000000;fill-opacity:1;fill-rule:nonzero;stroke:none" /><path
         d="m 2501.88,3309.21 34.06,0 c 6.25,0 10.58,0 10.58,7.18 0,4.81 -4.33,4.81 -10.07,4.81 l -31.68,0 12.46,49.45 c 0,1.45 0.97,3.36 0.97,4.34 0,6.21 -4.8,11.01 -11.52,11.01 -8.16,0 -13.44,-5.74 -15.86,-14.37 -1.91,-8.67 2.42,7.66 -12.46,-50.43 l -34.1,0 c -6.21,0 -10.55,0 -10.55,-7.19 0,-4.8 3.83,-4.8 9.61,-4.8 l 32.15,0 -19.69,-78.71 c -2.38,-8.64 -5.27,-20.63 -5.27,-24.96 0,-19.69 16.79,-31.68 36.01,-31.68 36.96,0 58.05,47.03 58.05,50.85 0,4.81 -4.3,4.81 -5.27,4.81 -4.3,0 -4.3,-0.94 -7.19,-6.72 -9.1,-20.62 -26.41,-39.34 -44.65,-39.34 -7.19,0 -11.99,4.3 -11.99,16.29 0,3.4 1.44,10.12 2.38,13.48 l 24.03,95.98 z"
         id="path9244"
         style="fill:#000000;fill-opacity:1;fill-rule:nonzero;stroke:none" /><path
         d="m 4101.72,5666.51 46.09,0 c 36.02,0 39.85,-7.69 39.85,-21.13 0,-3.36 0,-9.1 -3.36,-23.52 -0.98,-2.38 -1.45,-4.29 -1.45,-5.27 0,-3.83 2.89,-5.74 5.74,-5.74 4.81,0 4.81,1.44 7.23,10.08 l 25.9,103.2 c 1.44,5.74 1.44,6.21 1.44,7.66 0,0.97 -0.93,5.27 -5.74,5.27 -4.8,0 -4.8,-2.38 -7.22,-10.08 -9.58,-36.95 -20.63,-45.59 -61.41,-45.59 l -43.2,0 30.23,120.98 c 4.3,16.8 4.8,18.71 25.9,18.71 l 62.89,0 c 59.02,0 70.08,-15.86 70.08,-52.34 0,-11.02 0,-12.93 -1.45,-25.9 -0.94,-6.25 -0.94,-7.19 -0.94,-8.63 0,-2.42 1.45,-5.28 5.75,-5.28 5.27,0 5.27,2.86 6.72,11.49 l 9.14,82.58 c 1.4,12.96 -0.98,12.96 -12.97,12.96 l -233.75,0 c -9.61,0 -14.42,0 -14.42,-9.6 0,-5.28 4.34,-5.28 13.44,-5.28 17.77,0 31.21,0 31.21,-8.63 0,-1.95 0,-2.89 -2.42,-11.06 l -63.36,-252.46 c -4.3,-18.75 -5.27,-22.57 -43.2,-22.57 -8.17,0 -13.44,0 -13.44,-9.11 0,-5.78 5.78,-5.78 7.23,-5.78 13.9,0 48.94,1.92 62.85,1.92 15.86,0 55.7,-1.92 71.52,-1.92 4.34,0 9.61,0 9.61,9.14 0,3.83 -2.89,4.77 -2.89,5.28 -1.44,0.47 -2.38,0.47 -12.97,0.47 -10.55,0 -12.93,0 -24.92,0.97 -13.95,1.41 -15.39,3.36 -15.39,9.57 0,0.98 0,3.87 1.91,11.06 l 29.77,118.55 z"
         id="path9246"
         style="fill:#000000;fill-opacity:1;fill-rule:nonzero;stroke:none" /><path
         d="m 4376.29,5652.1 0,5.78 -0.47,0 0,1.44 -0.51,0 0,0.94 -0.47,0 0,0.51 -0.93,0 -0.51,0.47 -1.92,0 0,0.47 -5.27,0 c -21.13,-21.1 -51.83,-21.6 -65.27,-21.6 l 0,-12 c 7.65,0 30.23,0 48.47,9.61 l 0,-170.39 c 0,-11.05 0,-15.39 -33.59,-15.39 l -12.5,0 0,-11.99 c 5.78,0.47 47.03,1.44 59.53,1.44 10.08,0 52.31,-0.97 59.53,-1.44 l 0,11.99 -12.5,0 c -33.59,0 -33.59,4.34 -33.59,15.39 l 0,184.77 z"
         id="path9248"
         style="fill:#000000;fill-opacity:1;fill-rule:nonzero;stroke:none" /><path
         d="m 4081.48,239.09 46.1,0 c 36.01,0 39.84,-7.699 39.84,-21.129 0,-3.359 0,-9.102 -3.36,-23.52 -0.97,-2.382 -1.44,-4.332 -1.44,-5.269 0,-3.871 2.89,-5.781 5.78,-5.781 4.76,0 4.76,1.437 7.19,10.07 l 25.89,103.211 c 1.45,5.777 1.45,6.25 1.45,7.687 0,0.942 -0.94,5.282 -5.74,5.282 -4.81,0 -4.81,-2.391 -7.19,-10.082 -9.61,-36.95 -20.66,-45.59 -61.45,-45.59 l -43.2,0 30.24,120.941 c 4.29,16.801 4.8,18.711 25.89,18.711 l 62.9,0 c 59.06,0 70.07,-15.82 70.07,-52.301 0,-11.058 0,-12.968 -1.44,-25.898 -0.94,-6.25 -0.94,-7.231 -0.94,-8.672 0,-2.391 1.45,-5.281 5.74,-5.281 5.28,0 5.28,2.89 6.72,11.531 l 9.14,82.57 c 1.45,12.93 -0.97,12.93 -12.97,12.93 l -233.75,0 c -9.61,0 -14.41,0 -14.41,-9.57 0,-5.309 4.34,-5.309 13.44,-5.309 17.77,0 31.21,0 31.21,-8.633 0,-1.918 0,-2.847 -2.42,-11.019 l -63.36,-252.5 c -4.3,-18.707 -5.28,-22.5393 -43.21,-22.5393 -8.12,0 -13.43,0 -13.43,-9.1406 0,-5.7383 5.78,-5.7383 7.22,-5.7383 13.91,0 48.95,1.9101 62.85,1.9101 15.86,0 55.71,-1.9101 71.53,-1.9101 4.33,0 9.61,0 9.61,9.0976 0,3.8321 -2.89,4.8125 -2.89,5.2813 -1.41,0.5 -2.39,0.5 -12.93,0.5 -10.59,0 -12.97,0 -24.96,0.9414 -13.95,1.4489 -15.4,3.3589 -15.4,9.6089 0,0.981 0,3.829 1.96,11.059 l 29.72,118.551 z"
         id="path9250"
         style="fill:#000000;fill-opacity:1;fill-rule:nonzero;stroke:none" /><path
         d="m 4413.16,73.4609 -11.48,0 c -0.98,-7.6523 -4.34,-27.3398 -8.67,-30.6992 -2.85,-1.9101 -28.32,-1.9101 -33.13,-1.9101 l -61.4,0 c 35.04,31.207 46.56,40.3086 66.72,56.1289 24.96,19.6915 47.96,40.3475 47.96,72.0315 0,40.308 -35.5,65.277 -78.2,65.277 -41.8,0 -69.61,-29.301 -69.61,-60 0,-16.801 14.38,-18.719 17.74,-18.719 7.69,0 17.77,5.75 17.77,17.739 0,6.25 -2.38,17.769 -20.16,17.769 10.55,23.992 33.13,31.211 48.95,31.211 33.63,0 50.9,-25.93 50.9,-53.277 0,-28.832 -20.67,-51.832 -31.21,-63.871 L 4268.71,25.5 c -3.36,-2.8906 -3.36,-3.3594 -3.36,-12.9687 l 137.74,0 10.07,60.9296 z"
         id="path9252"
         style="fill:#000000;fill-opacity:1;fill-rule:nonzero;stroke:none" /></g></g></svg>