<?xml version="1.0" encoding="UTF-8" standalone="no"?>
<!-- Created with Inkscape (http://www.inkscape.org/) -->

<svg
   xmlns:dc="http://purl.org/dc/elements/1.1/"
   xmlns:cc="http://creativecommons.org/ns#"
   xmlns:rdf="http://www.w3.org/1999/02/22-rdf-syntax-ns#"
   xmlns:svg="http://www.w3.org/2000/svg"
   xmlns="http://www.w3.org/2000/svg"
   version="1.1"
   width="800"
   height="600"
   id="svg43723"
   xml:space="preserve"><metadata
     id="metadata43729"><rdf:RDF><cc:Work
         rdf:about=""><dc:format>image/svg+xml</dc:format><dc:type
           rdf:resource="http://purl.org/dc/dcmitype/StillImage" /><dc:title></dc:title></cc:Work></rdf:RDF></metadata><defs
     id="defs43727"><clipPath
       id="clipPath43739"><path
         d="m 0,0 6398.41,0 0,4800 L 0,4800 0,0 z"
         id="path43741" /></clipPath><clipPath
       id="clipPath43865"><path
         d="m 830.402,3724.8 0,-2481.6 4963.208,0 0,2481.6 -4963.208,0 z"
         id="path43867" /></clipPath><clipPath
       id="clipPath43921"><path
         d="m 0,0 0,4800 6399,0 L 6399,0 0,0 z"
         id="path43923" /></clipPath></defs><g
     transform="matrix(1.25,0,0,-1.25,0,600)"
     id="g43731"><g
       transform="scale(0.1,0.1)"
       id="g43733"><g
         id="g43735"><g
           clip-path="url(#clipPath43739)"
           id="g43737"><path
             d="m 830.402,1248 0,2476.8 4958.408,0 0,-2476.8 -4958.408,0"
             id="path43743"
             style="fill:none;stroke:#ffffff;stroke-width:5.00002003;stroke-linecap:butt;stroke-linejoin:round;stroke-miterlimit:10;stroke-opacity:1;stroke-dasharray:none" /><path
             d="m 830.402,1248 4958.408,0"
             id="path43745"
             style="fill:none;stroke:#000000;stroke-width:5.00002003;stroke-linecap:butt;stroke-linejoin:round;stroke-miterlimit:10;stroke-opacity:1;stroke-dasharray:none" /><path
             d="m 830.402,1248 0,2476.8"
             id="path43747"
             style="fill:none;stroke:#000000;stroke-width:5.00002003;stroke-linecap:butt;stroke-linejoin:round;stroke-miterlimit:10;stroke-opacity:1;stroke-dasharray:none" /><path
             d="m 830.402,1248 0,48"
             id="path43749"
             style="fill:none;stroke:#000000;stroke-width:5.00002003;stroke-linecap:butt;stroke-linejoin:round;stroke-miterlimit:10;stroke-opacity:1;stroke-dasharray:none" /><g
             transform="scale(10,10)"
             id="g43751"><text
               transform="matrix(1,0,0,-1,65.7602,108.96)"
               id="text43753"><tspan
                 x="0 8.1759996 15.96 19.851999"
                 y="0"
                 id="tspan43755"
                 style="font-size:14px;font-variant:normal;font-weight:normal;writing-mode:lr-tb;fill:#000000;fill-opacity:1;fill-rule:nonzero;stroke:none;font-family:Helvetica;-inkscape-font-specification:Helvetica">−0.2</tspan></text>
</g><path
             d="m 1449.6,1248 0,48"
             id="path43757"
             style="fill:none;stroke:#000000;stroke-width:5.00002003;stroke-linecap:butt;stroke-linejoin:round;stroke-miterlimit:10;stroke-opacity:1;stroke-dasharray:none" /><g
             transform="scale(10,10)"
             id="g43759"><text
               transform="matrix(1,0,0,-1,123.84,108.96)"
               id="text43761"><tspan
                 x="0 8.1759996 15.96 19.851999 27.636"
                 y="0"
                 id="tspan43763"
                 style="font-size:14px;font-variant:normal;font-weight:normal;writing-mode:lr-tb;fill:#000000;fill-opacity:1;fill-rule:nonzero;stroke:none;font-family:Helvetica;-inkscape-font-specification:Helvetica">−0.15</tspan></text>
</g><path
             d="m 2068.8,1248 0,48"
             id="path43765"
             style="fill:none;stroke:#000000;stroke-width:5.00002003;stroke-linecap:butt;stroke-linejoin:round;stroke-miterlimit:10;stroke-opacity:1;stroke-dasharray:none" /><g
             transform="scale(10,10)"
             id="g43767"><text
               transform="matrix(1,0,0,-1,189.6,108.96)"
               id="text43769"><tspan
                 x="0 8.1759996 15.96 19.851999"
                 y="0"
                 id="tspan43771"
                 style="font-size:14px;font-variant:normal;font-weight:normal;writing-mode:lr-tb;fill:#000000;fill-opacity:1;fill-rule:nonzero;stroke:none;font-family:Helvetica;-inkscape-font-specification:Helvetica">−0.1</tspan></text>
</g><path
             d="m 2688,1248 0,48"
             id="path43773"
             style="fill:none;stroke:#000000;stroke-width:5.00002003;stroke-linecap:butt;stroke-linejoin:round;stroke-miterlimit:10;stroke-opacity:1;stroke-dasharray:none" /><g
             transform="scale(10,10)"
             id="g43775"><text
               transform="matrix(1,0,0,-1,247.68,108.96)"
               id="text43777"><tspan
                 x="0 8.1759996 15.96 19.851999 27.636"
                 y="0"
                 id="tspan43779"
                 style="font-size:14px;font-variant:normal;font-weight:normal;writing-mode:lr-tb;fill:#000000;fill-opacity:1;fill-rule:nonzero;stroke:none;font-family:Helvetica;-inkscape-font-specification:Helvetica">−0.05</tspan></text>
</g><path
             d="m 3307.21,1248 0,48"
             id="path43781"
             style="fill:none;stroke:#000000;stroke-width:5.00002003;stroke-linecap:butt;stroke-linejoin:round;stroke-miterlimit:10;stroke-opacity:1;stroke-dasharray:none" /><g
             transform="scale(10,10)"
             id="g43783"><text
               transform="matrix(1,0,0,-1,326.88,108.96)"
               id="text43785"><tspan
                 x="0"
                 y="0"
                 id="tspan43787"
                 style="font-size:14px;font-variant:normal;font-weight:normal;writing-mode:lr-tb;fill:#000000;fill-opacity:1;fill-rule:nonzero;stroke:none;font-family:Helvetica;-inkscape-font-specification:Helvetica">0</tspan></text>
</g><path
             d="m 3926.41,1248 0,48"
             id="path43789"
             style="fill:none;stroke:#000000;stroke-width:5.00002003;stroke-linecap:butt;stroke-linejoin:round;stroke-miterlimit:10;stroke-opacity:1;stroke-dasharray:none" /><g
             transform="scale(10,10)"
             id="g43791"><text
               transform="matrix(1,0,0,-1,379.201,108.96)"
               id="text43793"><tspan
                 x="0 7.7839999 11.676 19.459999"
                 y="0"
                 id="tspan43795"
                 style="font-size:14px;font-variant:normal;font-weight:normal;writing-mode:lr-tb;fill:#000000;fill-opacity:1;fill-rule:nonzero;stroke:none;font-family:Helvetica;-inkscape-font-specification:Helvetica">0.05</tspan></text>
</g><path
             d="m 4545.61,1248 0,48"
             id="path43797"
             style="fill:none;stroke:#000000;stroke-width:5.00002003;stroke-linecap:butt;stroke-linejoin:round;stroke-miterlimit:10;stroke-opacity:1;stroke-dasharray:none" /><g
             transform="scale(10,10)"
             id="g43799"><text
               transform="matrix(1,0,0,-1,444.961,108.96)"
               id="text43801"><tspan
                 x="0 7.7839999 11.676"
                 y="0"
                 id="tspan43803"
                 style="font-size:14px;font-variant:normal;font-weight:normal;writing-mode:lr-tb;fill:#000000;fill-opacity:1;fill-rule:nonzero;stroke:none;font-family:Helvetica;-inkscape-font-specification:Helvetica">0.1</tspan></text>
</g><path
             d="m 5164.81,1248 0,48"
             id="path43805"
             style="fill:none;stroke:#000000;stroke-width:5.00002003;stroke-linecap:butt;stroke-linejoin:round;stroke-miterlimit:10;stroke-opacity:1;stroke-dasharray:none" /><g
             transform="scale(10,10)"
             id="g43807"><text
               transform="matrix(1,0,0,-1,503.041,108.96)"
               id="text43809"><tspan
                 x="0 7.7839999 11.676 19.459999"
                 y="0"
                 id="tspan43811"
                 style="font-size:14px;font-variant:normal;font-weight:normal;writing-mode:lr-tb;fill:#000000;fill-opacity:1;fill-rule:nonzero;stroke:none;font-family:Helvetica;-inkscape-font-specification:Helvetica">0.15</tspan></text>
</g><path
             d="m 5788.81,1248 0,48"
             id="path43813"
             style="fill:none;stroke:#000000;stroke-width:5.00002003;stroke-linecap:butt;stroke-linejoin:round;stroke-miterlimit:10;stroke-opacity:1;stroke-dasharray:none" /><g
             transform="scale(10,10)"
             id="g43815"><text
               transform="matrix(1,0,0,-1,569.281,108.96)"
               id="text43817"><tspan
                 x="0 7.7839999 11.676"
                 y="0"
                 id="tspan43819"
                 style="font-size:14px;font-variant:normal;font-weight:normal;writing-mode:lr-tb;fill:#000000;fill-opacity:1;fill-rule:nonzero;stroke:none;font-family:Helvetica;-inkscape-font-specification:Helvetica">0.2</tspan></text>
</g><path
             d="m 830.402,1248 48,0"
             id="path43821"
             style="fill:none;stroke:#000000;stroke-width:5.00002003;stroke-linecap:butt;stroke-linejoin:round;stroke-miterlimit:10;stroke-opacity:1;stroke-dasharray:none" /><g
             transform="scale(10,10)"
             id="g43823"><text
               transform="matrix(1,0,0,-1,72.4801,120)"
               id="text43825"><tspan
                 x="0"
                 y="0"
                 id="tspan43827"
                 style="font-size:14px;font-variant:normal;font-weight:normal;writing-mode:lr-tb;fill:#000000;fill-opacity:1;fill-rule:nonzero;stroke:none;font-family:Helvetica;-inkscape-font-specification:Helvetica">0</tspan></text>
</g><path
             d="m 830.402,1867.2 48,0"
             id="path43829"
             style="fill:none;stroke:#000000;stroke-width:5.00002003;stroke-linecap:butt;stroke-linejoin:round;stroke-miterlimit:10;stroke-opacity:1;stroke-dasharray:none" /><g
             transform="scale(10,10)"
             id="g43831"><text
               transform="matrix(1,0,0,-1,53.2801,181.92)"
               id="text43833"><tspan
                 x="0 7.7839999 11.676 19.459999"
                 y="0"
                 id="tspan43835"
                 style="font-size:14px;font-variant:normal;font-weight:normal;writing-mode:lr-tb;fill:#000000;fill-opacity:1;fill-rule:nonzero;stroke:none;font-family:Helvetica;-inkscape-font-specification:Helvetica">0.05</tspan></text>
</g><path
             d="m 830.402,2486.4 48,0"
             id="path43837"
             style="fill:none;stroke:#000000;stroke-width:5.00002003;stroke-linecap:butt;stroke-linejoin:round;stroke-miterlimit:10;stroke-opacity:1;stroke-dasharray:none" /><g
             transform="scale(10,10)"
             id="g43839"><text
               transform="matrix(1,0,0,-1,60.9602,243.84)"
               id="text43841"><tspan
                 x="0 7.7839999 11.676"
                 y="0"
                 id="tspan43843"
                 style="font-size:14px;font-variant:normal;font-weight:normal;writing-mode:lr-tb;fill:#000000;fill-opacity:1;fill-rule:nonzero;stroke:none;font-family:Helvetica;-inkscape-font-specification:Helvetica">0.1</tspan></text>
</g><path
             d="m 830.402,3105.61 48,0"
             id="path43845"
             style="fill:none;stroke:#000000;stroke-width:5.00002003;stroke-linecap:butt;stroke-linejoin:round;stroke-miterlimit:10;stroke-opacity:1;stroke-dasharray:none" /><g
             transform="scale(10,10)"
             id="g43847"><text
               transform="matrix(1,0,0,-1,53.2801,305.761)"
               id="text43849"><tspan
                 x="0 7.7839999 11.676 19.459999"
                 y="0"
                 id="tspan43851"
                 style="font-size:14px;font-variant:normal;font-weight:normal;writing-mode:lr-tb;fill:#000000;fill-opacity:1;fill-rule:nonzero;stroke:none;font-family:Helvetica;-inkscape-font-specification:Helvetica">0.15</tspan></text>
</g><path
             d="m 830.402,3724.8 48,0"
             id="path43853"
             style="fill:none;stroke:#000000;stroke-width:5.00002003;stroke-linecap:butt;stroke-linejoin:round;stroke-miterlimit:10;stroke-opacity:1;stroke-dasharray:none" /><g
             transform="scale(10,10)"
             id="g43855"><text
               transform="matrix(1,0,0,-1,60.9602,367.68)"
               id="text43857"><tspan
                 x="0 7.7839999 11.676"
                 y="0"
                 id="tspan43859"
                 style="font-size:14px;font-variant:normal;font-weight:normal;writing-mode:lr-tb;fill:#000000;fill-opacity:1;fill-rule:nonzero;stroke:none;font-family:Helvetica;-inkscape-font-specification:Helvetica">0.2</tspan></text>
</g></g></g><g
         id="g43861"><g
           clip-path="url(#clipPath43865)"
           id="g43863"><path
             d="m 4089.61,1636.8 -105.6,-67.2 -676.8,1041.6 105.59,67.21"
             id="path43869"
             style="fill:#000000;fill-opacity:1;fill-rule:evenodd;stroke:none" /><path
             d="m 4089.61,1636.8 -105.6,-67.2 -676.8,1041.6 105.59,67.21 676.81,-1041.61"
             id="path43871"
             style="fill:none;stroke:#000000;stroke-width:5.00002003;stroke-linecap:butt;stroke-linejoin:round;stroke-miterlimit:10;stroke-opacity:1;stroke-dasharray:none" /><path
             d="m 2568,1608 -96,86.4 835.21,916.8 91.2,-86.4"
             id="path43873"
             style="fill:#000000;fill-opacity:1;fill-rule:evenodd;stroke:none" /><path
             d="m 2568,1608 -96,86.4 835.21,916.8 91.2,-86.4 L 2568,1608"
             id="path43875"
             style="fill:none;stroke:#000000;stroke-width:5.00002003;stroke-linecap:butt;stroke-linejoin:round;stroke-miterlimit:10;stroke-opacity:1;stroke-dasharray:none" /><path
             d="M 3532.8,1387.2 3408,1372.8 3307.21,2611.2 3432,2620.8"
             id="path43877"
             style="fill:#000000;fill-opacity:1;fill-rule:evenodd;stroke:none" /><path
             d="M 3532.8,1387.2 3408,1372.8 3307.21,2611.2 3432,2620.8 3532.8,1387.2"
             id="path43879"
             style="fill:none;stroke:#000000;stroke-width:5.00002003;stroke-linecap:butt;stroke-linejoin:round;stroke-miterlimit:10;stroke-opacity:1;stroke-dasharray:none" /><path
             d="m 2774.41,1483.2 -105.61,62.4 638.41,1065.6 105.59,-62.4"
             id="path43881"
             style="fill:#000000;fill-opacity:1;fill-rule:evenodd;stroke:none" /><path
             d="m 2774.41,1483.2 -105.61,62.4 638.41,1065.6 105.59,-62.4 -638.39,-1065.6"
             id="path43883"
             style="fill:none;stroke:#000000;stroke-width:5.00002003;stroke-linecap:butt;stroke-linejoin:round;stroke-miterlimit:10;stroke-opacity:1;stroke-dasharray:none" /><path
             d="m 4108.81,1569.6 -4.8,19.2 0,14.4 -4.8,14.4 -9.6,14.4 -4.8,14.4 -14.4,9.6 -9.61,14.4 -14.39,4.8 -14.4,9.6 -14.4,4.8 -14.4,4.8 -48,0 -14.41,-4.8 -14.39,-9.6 -14.4,-4.8 -9.6,-14.4 -14.4,-9.6 -9.6,-14.4 -4.8,-9.6 -9.6,-14.4 0,-19.2 -4.8,-14.4 0,-14.4 4.8,-19.2 0,-14.4 9.6,-14.4 4.8,-14.4 9.6,-9.6 14.4,-14.4 9.6,-9.6 14.4,-9.6 14.39,-4.8 14.41,-4.8 48,0 14.4,4.8 14.4,4.8 14.4,4.8 14.39,9.6 9.61,9.6 14.4,14.4 4.8,14.4 9.6,14.4 4.8,14.4 0,14.4 4.8,14.4"
             id="path43885"
             style="fill:#c8c8c8;fill-opacity:1;fill-rule:evenodd;stroke:none" /><path
             d="m 4108.81,1569.6 -4.8,19.2 0,14.4 -4.8,14.4 -9.6,14.4 -4.8,14.4 -14.4,9.6 -9.61,14.4 -14.39,4.8 -14.4,9.6 -14.4,4.8 -14.4,4.8 -48,0 -14.41,-4.8 -14.39,-9.6 -14.4,-4.8 -9.6,-14.4 -14.4,-9.6 -9.6,-14.4 -4.8,-9.6 -9.6,-14.4 0,-19.2 -4.8,-14.4 0,-14.4 4.8,-19.2 0,-14.4 9.6,-14.4 4.8,-14.4 9.6,-9.6 14.4,-14.4 9.6,-9.6 14.4,-9.6 14.39,-4.8 14.41,-4.8 48,0 14.4,4.8 14.4,4.8 14.4,4.8 14.39,9.6 9.61,9.6 14.4,14.4 4.8,14.4 9.6,14.4 4.8,14.4 0,14.4 4.8,14.4 0,0"
             id="path43887"
             style="fill:none;stroke:#000000;stroke-width:5.00002003;stroke-linecap:butt;stroke-linejoin:round;stroke-miterlimit:10;stroke-opacity:1;stroke-dasharray:none" /><path
             d="m 2596.8,1694.4 0,14.4 -4.8,14.4 -4.8,14.4 -4.8,14.4 -9.6,14.4 -9.6,14.4 -9.59,9.6 -14.41,9.6 -14.4,4.8 -14.4,4.8 -14.4,4.8 -48,0 -19.2,-4.8 -14.4,-4.8 -9.6,-9.6 -14.4,-9.6 -9.6,-14.4 -9.6,-9.6 -9.59,-14.4 -4.81,-14.4 -4.8,-14.4 0,-48 4.8,-19.2 4.81,-14.4 9.59,-9.6 9.6,-14.4 9.6,-14.4 14.4,-9.6 9.6,-4.8 14.4,-9.6 19.2,-4.8 48,0 14.4,4.8 14.4,4.8 14.4,9.6 14.41,4.8 9.59,14.4 9.6,9.6 9.6,14.4 4.8,14.4 4.8,14.4 4.8,14.4 0,19.2"
             id="path43889"
             style="fill:#c8c8c8;fill-opacity:1;fill-rule:evenodd;stroke:none" /><path
             d="m 2596.8,1694.4 0,14.4 -4.8,14.4 -4.8,14.4 -4.8,14.4 -9.6,14.4 -9.6,14.4 -9.59,9.6 -14.41,9.6 -14.4,4.8 -14.4,4.8 -14.4,4.8 -48,0 -19.2,-4.8 -14.4,-4.8 -9.6,-9.6 -14.4,-9.6 -9.6,-14.4 -9.6,-9.6 -9.59,-14.4 -4.81,-14.4 -4.8,-14.4 0,-48 4.8,-19.2 4.81,-14.4 9.59,-9.6 9.6,-14.4 9.6,-14.4 14.4,-9.6 9.6,-4.8 14.4,-9.6 19.2,-4.8 48,0 14.4,4.8 14.4,4.8 14.4,9.6 14.41,4.8 9.59,14.4 9.6,9.6 9.6,14.4 4.8,14.4 4.8,14.4 4.8,14.4 0,19.2"
             id="path43891"
             style="fill:none;stroke:#000000;stroke-width:5.00002003;stroke-linecap:butt;stroke-linejoin:round;stroke-miterlimit:10;stroke-opacity:1;stroke-dasharray:none" /><path
             d="m 3532.8,1372.8 0,19.2 -4.8,14.4 -4.79,14.4 -4.8,14.4 -9.61,14.4 -9.59,9.6 -14.41,14.4 -9.59,9.6 -14.41,4.8 -14.39,4.8 -19.2,4.8 -43.21,0 -19.2,-4.8 -14.39,-9.6 -9.61,-4.8 -14.39,-9.6 -9.61,-14.4 -9.59,-9.6 -9.6,-14.4 -4.81,-14.4 -4.8,-19.2 0,-43.2 4.8,-19.2 4.81,-14.4 9.6,-14.4 9.59,-9.6 9.61,-14.4 14.39,-9.6 9.61,-4.8 14.39,-9.6 19.2,-4.8 43.21,0 19.2,4.8 14.39,4.8 14.41,4.8 9.59,9.6 14.41,9.6 9.59,14.4 9.61,14.4 4.8,14.4 4.79,14.4 4.8,14.4 0,14.4"
             id="path43893"
             style="fill:#c8c8c8;fill-opacity:1;fill-rule:evenodd;stroke:none" /><path
             d="m 3532.8,1372.8 0,19.2 -4.8,14.4 -4.79,14.4 -4.8,14.4 -9.61,14.4 -9.59,9.6 -14.41,14.4 -9.59,9.6 -14.41,4.8 -14.39,4.8 -19.2,4.8 -43.21,0 -19.2,-4.8 -14.39,-9.6 -9.61,-4.8 -14.39,-9.6 -9.61,-14.4 -9.59,-9.6 -9.6,-14.4 -4.81,-14.4 -4.8,-19.2 0,-43.2 4.8,-19.2 4.81,-14.4 9.6,-14.4 9.59,-9.6 9.61,-14.4 14.39,-9.6 9.61,-4.8 14.39,-9.6 19.2,-4.8 43.21,0 19.2,4.8 14.39,4.8 14.41,4.8 9.59,9.6 14.41,9.6 9.59,14.4 9.61,14.4 4.8,14.4 4.79,14.4 4.8,14.4 0,14.4"
             id="path43895"
             style="fill:none;stroke:#000000;stroke-width:5.00002003;stroke-linecap:butt;stroke-linejoin:round;stroke-miterlimit:10;stroke-opacity:1;stroke-dasharray:none" /><path
             d="m 2793.61,1545.6 0,19.2 -4.81,14.4 -4.8,14.4 -4.8,14.4 -9.59,14.4 -9.61,9.6 -14.39,14.4 -9.61,4.8 -14.39,9.6 -14.41,4.8 -19.2,4.8 -48,0 -14.39,-4.8 -14.41,-9.6 -14.4,-4.8 -9.6,-14.4 -9.59,-9.6 -9.61,-14.4 -9.6,-9.6 -4.79,-19.2 -4.81,-14.4 -4.8,-14.4 0,-14.4 4.8,-19.2 4.81,-14.4 4.79,-14.4 9.6,-14.4 9.61,-9.6 9.59,-14.4 9.6,-9.6 14.4,-9.6 14.41,-4.8 14.39,-4.8 48,0 19.2,4.8 14.41,4.8 14.39,4.8 9.61,9.6 14.39,9.6 9.61,14.4 9.59,14.4 4.8,14.4 4.8,14.4 4.81,14.4 0,14.4"
             id="path43897"
             style="fill:#c8c8c8;fill-opacity:1;fill-rule:evenodd;stroke:none" /><path
             d="m 2793.61,1545.6 0,19.2 -4.81,14.4 -4.8,14.4 -4.8,14.4 -9.59,14.4 -9.61,9.6 -14.39,14.4 -9.61,4.8 -14.39,9.6 -14.41,4.8 -19.2,4.8 -48,0 -14.39,-4.8 -14.41,-9.6 -14.4,-4.8 -9.6,-14.4 -9.59,-9.6 -9.61,-14.4 -9.6,-9.6 -4.79,-19.2 -4.81,-14.4 -4.8,-14.4 0,-14.4 4.8,-19.2 4.81,-14.4 4.79,-14.4 9.6,-14.4 9.61,-9.6 9.59,-14.4 9.6,-9.6 14.4,-9.6 14.41,-4.8 14.39,-4.8 48,0 19.2,4.8 14.41,4.8 14.39,4.8 9.61,9.6 14.39,9.6 9.61,14.4 9.59,14.4 4.8,14.4 4.8,14.4 4.81,14.4 0,14.4"
             id="path43899"
             style="fill:none;stroke:#000000;stroke-width:5.00002003;stroke-linecap:butt;stroke-linejoin:round;stroke-miterlimit:10;stroke-opacity:1;stroke-dasharray:none" /><path
             d="m 2688,1992 1238.4,0 0,1238.4 -1238.4,0 0,-1238.4 z"
             id="path43901"
             style="fill:#999999;fill-opacity:1;fill-rule:evenodd;stroke:none" /><path
             d="m 3926.41,3230.41 -1238.41,0 0,-1238.41 1238.41,0 0,1238.41"
             id="path43903"
             style="fill:none;stroke:#000000;stroke-width:5.00002003;stroke-linecap:butt;stroke-linejoin:round;stroke-miterlimit:10;stroke-opacity:1;stroke-dasharray:none" /><path
             d="m 2688,1992 1238.4,0 0,1238.4 -1238.4,0 0,-1238.4 z"
             id="path43905"
             style="fill:#999999;fill-opacity:1;fill-rule:evenodd;stroke:none" /><path
             d="m 3926.41,3230.41 -1238.41,0 0,-1238.41 1238.41,0 0,1238.41"
             id="path43907"
             style="fill:none;stroke:#000000;stroke-width:5.00002003;stroke-linecap:butt;stroke-linejoin:round;stroke-miterlimit:10;stroke-opacity:1;stroke-dasharray:none" /><path
             d="m 2688,1992 1238.4,0 0,1238.4 -1238.4,0 0,-1238.4 z"
             id="path43909"
             style="fill:#999999;fill-opacity:1;fill-rule:evenodd;stroke:none" /><path
             d="m 3926.41,3230.41 -1238.41,0 0,-1238.41 1238.41,0 0,1238.41"
             id="path43911"
             style="fill:none;stroke:#000000;stroke-width:5.00002003;stroke-linecap:butt;stroke-linejoin:round;stroke-miterlimit:10;stroke-opacity:1;stroke-dasharray:none" /><path
             d="m 2688,1992 1238.4,0 0,1238.4 -1238.4,0 0,-1238.4 z"
             id="path43913"
             style="fill:#999999;fill-opacity:1;fill-rule:evenodd;stroke:none" /><path
             d="m 3926.41,3230.41 -1238.41,0 0,-1238.41 1238.41,0 0,1238.41"
             id="path43915"
             style="fill:none;stroke:#000000;stroke-width:5.00002003;stroke-linecap:butt;stroke-linejoin:round;stroke-miterlimit:10;stroke-opacity:1;stroke-dasharray:none" /></g></g><g
         id="g43917"><g
           clip-path="url(#clipPath43921)"
           id="g43919"><g
             transform="scale(10,10)"
             id="g43925"><text
               transform="matrix(1,0,0,-1,310.561,94.0801)"
               id="text43927"><tspan
                 x="0 7 14.784 18.676001 23.337999 35"
                 y="0"
                 id="tspan43929"
                 style="font-size:14px;font-variant:normal;font-weight:normal;writing-mode:lr-tb;fill:#000000;fill-opacity:1;fill-rule:nonzero;stroke:none;font-family:Helvetica;-inkscape-font-specification:Helvetica">x1 (m)</tspan></text>
<text
               transform="matrix(0,1,1,0,45.6,228.48)"
               id="text43931"><tspan
                 x="0 7 14.784 18.676001 23.337999 35"
                 y="0"
                 id="tspan43933"
                 style="font-size:14px;font-variant:normal;font-weight:normal;writing-mode:lr-tb;fill:#000000;fill-opacity:1;fill-rule:nonzero;stroke:none;font-family:Helvetica;-inkscape-font-specification:Helvetica">x2 (m)</tspan></text>
</g></g></g></g></g></svg>