<?xml version="1.0" encoding="UTF-8" standalone="no"?>
<!-- Created with Inkscape (http://www.inkscape.org/) -->

<svg
   xmlns:dc="http://purl.org/dc/elements/1.1/"
   xmlns:cc="http://creativecommons.org/ns#"
   xmlns:rdf="http://www.w3.org/1999/02/22-rdf-syntax-ns#"
   xmlns:svg="http://www.w3.org/2000/svg"
   xmlns="http://www.w3.org/2000/svg"
   version="1.1"
   width="800"
   height="600"
   id="svg44127"
   xml:space="preserve"><metadata
     id="metadata44133"><rdf:RDF><cc:Work
         rdf:about=""><dc:format>image/svg+xml</dc:format><dc:type
           rdf:resource="http://purl.org/dc/dcmitype/StillImage" /><dc:title></dc:title></cc:Work></rdf:RDF></metadata><defs
     id="defs44131"><clipPath
       id="clipPath44143"><path
         d="m 0,0 6398.41,0 0,4800 L 0,4800 0,0 z"
         id="path44145" /></clipPath><clipPath
       id="clipPath44269"><path
         d="m 830.402,3724.8 0,-2481.6 4963.208,0 0,2481.6 -4963.208,0 z"
         id="path44271" /></clipPath><clipPath
       id="clipPath44325"><path
         d="m 0,0 0,4800 6399,0 L 6399,0 0,0 z"
         id="path44327" /></clipPath></defs><g
     transform="matrix(1.25,0,0,-1.25,0,600)"
     id="g44135"><g
       transform="scale(0.1,0.1)"
       id="g44137"><g
         id="g44139"><g
           clip-path="url(#clipPath44143)"
           id="g44141"><path
             d="m 830.402,1248 0,2476.8 4958.408,0 0,-2476.8 -4958.408,0"
             id="path44147"
             style="fill:none;stroke:#ffffff;stroke-width:5.00002003;stroke-linecap:butt;stroke-linejoin:round;stroke-miterlimit:10;stroke-opacity:1;stroke-dasharray:none" /><path
             d="m 830.402,1248 4958.408,0"
             id="path44149"
             style="fill:none;stroke:#000000;stroke-width:5.00002003;stroke-linecap:butt;stroke-linejoin:round;stroke-miterlimit:10;stroke-opacity:1;stroke-dasharray:none" /><path
             d="m 830.402,1248 0,2476.8"
             id="path44151"
             style="fill:none;stroke:#000000;stroke-width:5.00002003;stroke-linecap:butt;stroke-linejoin:round;stroke-miterlimit:10;stroke-opacity:1;stroke-dasharray:none" /><path
             d="m 830.402,1248 0,48"
             id="path44153"
             style="fill:none;stroke:#000000;stroke-width:5.00002003;stroke-linecap:butt;stroke-linejoin:round;stroke-miterlimit:10;stroke-opacity:1;stroke-dasharray:none" /><g
             transform="scale(10,10)"
             id="g44155"><text
               transform="matrix(1,0,0,-1,65.7602,108.96)"
               id="text44157"><tspan
                 x="0 8.1759996 15.96 19.851999"
                 y="0"
                 id="tspan44159"
                 style="font-size:14px;font-variant:normal;font-weight:normal;writing-mode:lr-tb;fill:#000000;fill-opacity:1;fill-rule:nonzero;stroke:none;font-family:Helvetica;-inkscape-font-specification:Helvetica">−0.2</tspan></text>
</g><path
             d="m 1449.6,1248 0,48"
             id="path44161"
             style="fill:none;stroke:#000000;stroke-width:5.00002003;stroke-linecap:butt;stroke-linejoin:round;stroke-miterlimit:10;stroke-opacity:1;stroke-dasharray:none" /><g
             transform="scale(10,10)"
             id="g44163"><text
               transform="matrix(1,0,0,-1,123.84,108.96)"
               id="text44165"><tspan
                 x="0 8.1759996 15.96 19.851999 27.636"
                 y="0"
                 id="tspan44167"
                 style="font-size:14px;font-variant:normal;font-weight:normal;writing-mode:lr-tb;fill:#000000;fill-opacity:1;fill-rule:nonzero;stroke:none;font-family:Helvetica;-inkscape-font-specification:Helvetica">−0.15</tspan></text>
</g><path
             d="m 2068.8,1248 0,48"
             id="path44169"
             style="fill:none;stroke:#000000;stroke-width:5.00002003;stroke-linecap:butt;stroke-linejoin:round;stroke-miterlimit:10;stroke-opacity:1;stroke-dasharray:none" /><g
             transform="scale(10,10)"
             id="g44171"><text
               transform="matrix(1,0,0,-1,189.6,108.96)"
               id="text44173"><tspan
                 x="0 8.1759996 15.96 19.851999"
                 y="0"
                 id="tspan44175"
                 style="font-size:14px;font-variant:normal;font-weight:normal;writing-mode:lr-tb;fill:#000000;fill-opacity:1;fill-rule:nonzero;stroke:none;font-family:Helvetica;-inkscape-font-specification:Helvetica">−0.1</tspan></text>
</g><path
             d="m 2688,1248 0,48"
             id="path44177"
             style="fill:none;stroke:#000000;stroke-width:5.00002003;stroke-linecap:butt;stroke-linejoin:round;stroke-miterlimit:10;stroke-opacity:1;stroke-dasharray:none" /><g
             transform="scale(10,10)"
             id="g44179"><text
               transform="matrix(1,0,0,-1,247.68,108.96)"
               id="text44181"><tspan
                 x="0 8.1759996 15.96 19.851999 27.636"
                 y="0"
                 id="tspan44183"
                 style="font-size:14px;font-variant:normal;font-weight:normal;writing-mode:lr-tb;fill:#000000;fill-opacity:1;fill-rule:nonzero;stroke:none;font-family:Helvetica;-inkscape-font-specification:Helvetica">−0.05</tspan></text>
</g><path
             d="m 3307.21,1248 0,48"
             id="path44185"
             style="fill:none;stroke:#000000;stroke-width:5.00002003;stroke-linecap:butt;stroke-linejoin:round;stroke-miterlimit:10;stroke-opacity:1;stroke-dasharray:none" /><g
             transform="scale(10,10)"
             id="g44187"><text
               transform="matrix(1,0,0,-1,326.88,108.96)"
               id="text44189"><tspan
                 x="0"
                 y="0"
                 id="tspan44191"
                 style="font-size:14px;font-variant:normal;font-weight:normal;writing-mode:lr-tb;fill:#000000;fill-opacity:1;fill-rule:nonzero;stroke:none;font-family:Helvetica;-inkscape-font-specification:Helvetica">0</tspan></text>
</g><path
             d="m 3926.41,1248 0,48"
             id="path44193"
             style="fill:none;stroke:#000000;stroke-width:5.00002003;stroke-linecap:butt;stroke-linejoin:round;stroke-miterlimit:10;stroke-opacity:1;stroke-dasharray:none" /><g
             transform="scale(10,10)"
             id="g44195"><text
               transform="matrix(1,0,0,-1,379.201,108.96)"
               id="text44197"><tspan
                 x="0 7.7839999 11.676 19.459999"
                 y="0"
                 id="tspan44199"
                 style="font-size:14px;font-variant:normal;font-weight:normal;writing-mode:lr-tb;fill:#000000;fill-opacity:1;fill-rule:nonzero;stroke:none;font-family:Helvetica;-inkscape-font-specification:Helvetica">0.05</tspan></text>
</g><path
             d="m 4545.61,1248 0,48"
             id="path44201"
             style="fill:none;stroke:#000000;stroke-width:5.00002003;stroke-linecap:butt;stroke-linejoin:round;stroke-miterlimit:10;stroke-opacity:1;stroke-dasharray:none" /><g
             transform="scale(10,10)"
             id="g44203"><text
               transform="matrix(1,0,0,-1,444.961,108.96)"
               id="text44205"><tspan
                 x="0 7.7839999 11.676"
                 y="0"
                 id="tspan44207"
                 style="font-size:14px;font-variant:normal;font-weight:normal;writing-mode:lr-tb;fill:#000000;fill-opacity:1;fill-rule:nonzero;stroke:none;font-family:Helvetica;-inkscape-font-specification:Helvetica">0.1</tspan></text>
</g><path
             d="m 5164.81,1248 0,48"
             id="path44209"
             style="fill:none;stroke:#000000;stroke-width:5.00002003;stroke-linecap:butt;stroke-linejoin:round;stroke-miterlimit:10;stroke-opacity:1;stroke-dasharray:none" /><g
             transform="scale(10,10)"
             id="g44211"><text
               transform="matrix(1,0,0,-1,503.041,108.96)"
               id="text44213"><tspan
                 x="0 7.7839999 11.676 19.459999"
                 y="0"
                 id="tspan44215"
                 style="font-size:14px;font-variant:normal;font-weight:normal;writing-mode:lr-tb;fill:#000000;fill-opacity:1;fill-rule:nonzero;stroke:none;font-family:Helvetica;-inkscape-font-specification:Helvetica">0.15</tspan></text>
</g><path
             d="m 5788.81,1248 0,48"
             id="path44217"
             style="fill:none;stroke:#000000;stroke-width:5.00002003;stroke-linecap:butt;stroke-linejoin:round;stroke-miterlimit:10;stroke-opacity:1;stroke-dasharray:none" /><g
             transform="scale(10,10)"
             id="g44219"><text
               transform="matrix(1,0,0,-1,569.281,108.96)"
               id="text44221"><tspan
                 x="0 7.7839999 11.676"
                 y="0"
                 id="tspan44223"
                 style="font-size:14px;font-variant:normal;font-weight:normal;writing-mode:lr-tb;fill:#000000;fill-opacity:1;fill-rule:nonzero;stroke:none;font-family:Helvetica;-inkscape-font-specification:Helvetica">0.2</tspan></text>
</g><path
             d="m 830.402,1248 48,0"
             id="path44225"
             style="fill:none;stroke:#000000;stroke-width:5.00002003;stroke-linecap:butt;stroke-linejoin:round;stroke-miterlimit:10;stroke-opacity:1;stroke-dasharray:none" /><g
             transform="scale(10,10)"
             id="g44227"><text
               transform="matrix(1,0,0,-1,72.4801,120)"
               id="text44229"><tspan
                 x="0"
                 y="0"
                 id="tspan44231"
                 style="font-size:14px;font-variant:normal;font-weight:normal;writing-mode:lr-tb;fill:#000000;fill-opacity:1;fill-rule:nonzero;stroke:none;font-family:Helvetica;-inkscape-font-specification:Helvetica">0</tspan></text>
</g><path
             d="m 830.402,1867.2 48,0"
             id="path44233"
             style="fill:none;stroke:#000000;stroke-width:5.00002003;stroke-linecap:butt;stroke-linejoin:round;stroke-miterlimit:10;stroke-opacity:1;stroke-dasharray:none" /><g
             transform="scale(10,10)"
             id="g44235"><text
               transform="matrix(1,0,0,-1,53.2801,181.92)"
               id="text44237"><tspan
                 x="0 7.7839999 11.676 19.459999"
                 y="0"
                 id="tspan44239"
                 style="font-size:14px;font-variant:normal;font-weight:normal;writing-mode:lr-tb;fill:#000000;fill-opacity:1;fill-rule:nonzero;stroke:none;font-family:Helvetica;-inkscape-font-specification:Helvetica">0.05</tspan></text>
</g><path
             d="m 830.402,2486.4 48,0"
             id="path44241"
             style="fill:none;stroke:#000000;stroke-width:5.00002003;stroke-linecap:butt;stroke-linejoin:round;stroke-miterlimit:10;stroke-opacity:1;stroke-dasharray:none" /><g
             transform="scale(10,10)"
             id="g44243"><text
               transform="matrix(1,0,0,-1,60.9602,243.84)"
               id="text44245"><tspan
                 x="0 7.7839999 11.676"
                 y="0"
                 id="tspan44247"
                 style="font-size:14px;font-variant:normal;font-weight:normal;writing-mode:lr-tb;fill:#000000;fill-opacity:1;fill-rule:nonzero;stroke:none;font-family:Helvetica;-inkscape-font-specification:Helvetica">0.1</tspan></text>
</g><path
             d="m 830.402,3105.61 48,0"
             id="path44249"
             style="fill:none;stroke:#000000;stroke-width:5.00002003;stroke-linecap:butt;stroke-linejoin:round;stroke-miterlimit:10;stroke-opacity:1;stroke-dasharray:none" /><g
             transform="scale(10,10)"
             id="g44251"><text
               transform="matrix(1,0,0,-1,53.2801,305.761)"
               id="text44253"><tspan
                 x="0 7.7839999 11.676 19.459999"
                 y="0"
                 id="tspan44255"
                 style="font-size:14px;font-variant:normal;font-weight:normal;writing-mode:lr-tb;fill:#000000;fill-opacity:1;fill-rule:nonzero;stroke:none;font-family:Helvetica;-inkscape-font-specification:Helvetica">0.15</tspan></text>
</g><path
             d="m 830.402,3724.8 48,0"
             id="path44257"
             style="fill:none;stroke:#000000;stroke-width:5.00002003;stroke-linecap:butt;stroke-linejoin:round;stroke-miterlimit:10;stroke-opacity:1;stroke-dasharray:none" /><g
             transform="scale(10,10)"
             id="g44259"><text
               transform="matrix(1,0,0,-1,60.9602,367.68)"
               id="text44261"><tspan
                 x="0 7.7839999 11.676"
                 y="0"
                 id="tspan44263"
                 style="font-size:14px;font-variant:normal;font-weight:normal;writing-mode:lr-tb;fill:#000000;fill-opacity:1;fill-rule:nonzero;stroke:none;font-family:Helvetica;-inkscape-font-specification:Helvetica">0.2</tspan></text>
</g></g></g><g
         id="g44265"><g
           clip-path="url(#clipPath44269)"
           id="g44267"><path
             d="m 2520,1646.4 -91.2,86.4 878.41,878.4 86.4,-86.4"
             id="path44273"
             style="fill:#000000;fill-opacity:1;fill-rule:evenodd;stroke:none" /><path
             d="m 2520,1646.4 -91.2,86.4 878.41,878.4 86.4,-86.4 L 2520,1646.4"
             id="path44275"
             style="fill:none;stroke:#000000;stroke-width:5.00002003;stroke-linecap:butt;stroke-linejoin:round;stroke-miterlimit:10;stroke-opacity:1;stroke-dasharray:none" /><path
             d="m 2947.2,1416 -115.2,48 475.21,1147.2 115.2,-48"
             id="path44277"
             style="fill:#000000;fill-opacity:1;fill-rule:evenodd;stroke:none" /><path
             d="m 2947.2,1416 -115.2,48 475.21,1147.2 115.2,-48 L 2947.2,1416"
             id="path44279"
             style="fill:none;stroke:#000000;stroke-width:5.00002003;stroke-linecap:butt;stroke-linejoin:round;stroke-miterlimit:10;stroke-opacity:1;stroke-dasharray:none" /><path
             d="m 3897.61,1512 -115.2,-48 -475.2,1147.2 115.2,48"
             id="path44281"
             style="fill:#000000;fill-opacity:1;fill-rule:evenodd;stroke:none" /><path
             d="m 3897.61,1512 -115.2,-48 -475.2,1147.2 115.2,48 475.2,-1147.2"
             id="path44283"
             style="fill:none;stroke:#000000;stroke-width:5.00002003;stroke-linecap:butt;stroke-linejoin:round;stroke-miterlimit:10;stroke-opacity:1;stroke-dasharray:none" /><path
             d="m 4272.01,1819.2 -86.4,-86.4 -878.4,878.4 86.4,86.41"
             id="path44285"
             style="fill:#000000;fill-opacity:1;fill-rule:evenodd;stroke:none" /><path
             d="m 4272.01,1819.2 -86.4,-86.4 -878.4,878.4 86.4,86.41 878.4,-878.41"
             id="path44287"
             style="fill:none;stroke:#000000;stroke-width:5.00002003;stroke-linecap:butt;stroke-linejoin:round;stroke-miterlimit:10;stroke-opacity:1;stroke-dasharray:none" /><path
             d="m 2553.61,1732.8 0,19.2 -4.81,14.4 -4.8,14.4 -4.8,14.4 -9.59,14.4 -9.61,9.6 -14.39,9.6 -9.61,9.6 -14.39,9.6 -14.41,4.8 -14.4,4.8 -33.6,0 -14.4,-4.8 -19.19,-4.8 -14.41,-4.8 -9.59,-9.6 -14.41,-9.6 -9.59,-9.6 -9.61,-14.4 -9.6,-14.4 -4.79,-14.4 -4.81,-14.4 0,-48 4.81,-14.4 4.79,-14.4 9.6,-14.4 9.61,-14.4 9.59,-9.6 14.41,-9.6 9.59,-9.6 14.41,-4.8 19.19,-4.8 14.4,0 14.41,-4.8 19.19,4.8 14.4,0 14.41,9.6 14.39,4.8 9.61,9.6 14.39,9.6 9.61,14.4 9.59,14.4 4.8,14.4 4.8,14.4 4.81,14.4 0,14.4"
             id="path44289"
             style="fill:#c8c8c8;fill-opacity:1;fill-rule:evenodd;stroke:none" /><path
             d="m 2553.61,1732.8 0,19.2 -4.81,14.4 -4.8,14.4 -4.8,14.4 -9.59,14.4 -9.61,9.6 -14.39,9.6 -9.61,9.6 -14.39,9.6 -14.41,4.8 -14.4,4.8 -33.6,0 -14.4,-4.8 -19.19,-4.8 -14.41,-4.8 -9.59,-9.6 -14.41,-9.6 -9.59,-9.6 -9.61,-14.4 -9.6,-14.4 -4.79,-14.4 -4.81,-14.4 0,-48 4.81,-14.4 4.79,-14.4 9.6,-14.4 9.61,-14.4 9.59,-9.6 14.41,-9.6 9.59,-9.6 14.41,-4.8 19.19,-4.8 14.4,0 14.41,-4.8 19.19,4.8 14.4,0 14.41,9.6 14.39,4.8 9.61,9.6 14.39,9.6 9.61,14.4 9.59,14.4 4.8,14.4 4.8,14.4 4.81,14.4 0,14.4"
             id="path44291"
             style="fill:none;stroke:#000000;stroke-width:5.00002003;stroke-linecap:butt;stroke-linejoin:round;stroke-miterlimit:10;stroke-opacity:1;stroke-dasharray:none" /><path
             d="m 2956.8,1464 0,19.2 -4.8,14.4 -4.8,14.4 -4.79,14.4 -9.61,14.4 -9.6,9.6 -14.4,9.6 -9.6,9.6 -14.4,9.6 -14.39,4.8 -19.21,4.8 -28.79,0 -19.21,-4.8 -14.4,-4.8 -14.39,-4.8 -14.41,-9.6 -9.59,-9.6 -9.61,-9.6 -9.6,-14.4 -9.59,-14.4 -4.81,-14.4 -4.8,-14.4 -4.8,-14.4 0,-14.4 4.8,-19.2 4.8,-14.4 4.81,-14.4 9.59,-14.4 9.6,-14.4 9.61,-9.6 9.59,-9.6 14.41,-9.6 14.39,-4.8 14.4,-4.8 19.21,0 14.39,-4.8 14.4,4.8 19.21,0 14.39,9.6 14.4,4.8 9.6,9.6 14.4,9.6 9.6,14.4 9.61,14.4 4.79,14.4 4.8,14.4 4.8,14.4 0,14.4"
             id="path44293"
             style="fill:#c8c8c8;fill-opacity:1;fill-rule:evenodd;stroke:none" /><path
             d="m 2956.8,1464 0,19.2 -4.8,14.4 -4.8,14.4 -4.79,14.4 -9.61,14.4 -9.6,9.6 -14.4,9.6 -9.6,9.6 -14.4,9.6 -14.39,4.8 -19.21,4.8 -28.79,0 -19.21,-4.8 -14.4,-4.8 -14.39,-4.8 -14.41,-9.6 -9.59,-9.6 -9.61,-9.6 -9.6,-14.4 -9.59,-14.4 -4.81,-14.4 -4.8,-14.4 -4.8,-14.4 0,-14.4 4.8,-19.2 4.8,-14.4 4.81,-14.4 9.59,-14.4 9.6,-14.4 9.61,-9.6 9.59,-9.6 14.41,-9.6 14.39,-4.8 14.4,-4.8 19.21,0 14.39,-4.8 14.4,4.8 19.21,0 14.39,9.6 14.4,4.8 9.6,9.6 14.4,9.6 9.6,14.4 9.61,14.4 4.79,14.4 4.8,14.4 4.8,14.4 0,14.4"
             id="path44295"
             style="fill:none;stroke:#000000;stroke-width:5.00002003;stroke-linecap:butt;stroke-linejoin:round;stroke-miterlimit:10;stroke-opacity:1;stroke-dasharray:none" /><path
             d="m 3907.21,1464 -4.8,19.2 0,14.4 -4.8,14.4 -9.6,14.4 -4.8,14.4 -14.41,9.6 -9.59,9.6 -14.41,9.6 -14.39,9.6 -14.4,4.8 -14.4,4.8 -33.6,0 -14.4,-4.8 -14.4,-4.8 -14.41,-4.8 -14.39,-9.6 -14.4,-9.6 -9.6,-9.6 -9.61,-14.4 -4.79,-14.4 -9.6,-14.4 -4.8,-14.4 0,-48 4.8,-14.4 9.6,-14.4 4.79,-14.4 9.61,-14.4 9.6,-9.6 14.4,-9.6 14.39,-9.6 14.41,-4.8 14.4,-4.8 14.4,0 19.2,-4.8 14.4,4.8 14.4,0 14.4,9.6 14.39,4.8 14.41,9.6 9.59,9.6 14.41,14.4 4.8,14.4 9.6,14.4 4.8,14.4 0,14.4 4.8,14.4"
             id="path44297"
             style="fill:#c8c8c8;fill-opacity:1;fill-rule:evenodd;stroke:none" /><path
             d="m 3907.21,1464 -4.8,19.2 0,14.4 -4.8,14.4 -9.6,14.4 -4.8,14.4 -14.41,9.6 -9.59,9.6 -14.41,9.6 -14.39,9.6 -14.4,4.8 -14.4,4.8 -33.6,0 -14.4,-4.8 -14.4,-4.8 -14.41,-4.8 -14.39,-9.6 -14.4,-9.6 -9.6,-9.6 -9.61,-14.4 -4.79,-14.4 -9.6,-14.4 -4.8,-14.4 0,-48 4.8,-14.4 9.6,-14.4 4.79,-14.4 9.61,-14.4 9.6,-9.6 14.4,-9.6 14.39,-9.6 14.41,-4.8 14.4,-4.8 14.4,0 19.2,-4.8 14.4,4.8 14.4,0 14.4,9.6 14.39,4.8 14.41,9.6 9.59,9.6 14.41,14.4 4.8,14.4 9.6,14.4 4.8,14.4 0,14.4 4.8,14.4 0,0"
             id="path44299"
             style="fill:none;stroke:#000000;stroke-width:5.00002003;stroke-linecap:butt;stroke-linejoin:round;stroke-miterlimit:10;stroke-opacity:1;stroke-dasharray:none" /><path
             d="m 4305.61,1732.8 0,33.6 -4.8,14.4 -9.6,14.4 -9.6,14.4 -9.6,9.6 -9.6,9.6 -14.4,9.6 -14.4,9.6 -14.4,4.8 -14.4,4.8 -33.6,0 -14.4,-4.8 -14.4,-4.8 -14.4,-4.8 -14.4,-9.6 -14.4,-9.6 -9.6,-9.6 -9.6,-14.4 -9.6,-14.4 -4.8,-14.4 -4.81,-14.4 0,-48 4.81,-14.4 4.8,-14.4 9.6,-14.4 9.6,-14.4 9.6,-9.6 14.4,-9.6 14.4,-9.6 14.4,-4.8 14.4,-4.8 14.4,0 14.4,-4.8 19.2,4.8 14.4,0 14.4,9.6 14.4,4.8 14.4,9.6 9.6,9.6 9.6,14.4 9.6,14.4 9.6,14.4 4.8,14.4 0,28.8"
             id="path44301"
             style="fill:#c8c8c8;fill-opacity:1;fill-rule:evenodd;stroke:none" /><path
             d="m 4305.61,1732.8 0,33.6 -4.8,14.4 -9.6,14.4 -9.6,14.4 -9.6,9.6 -9.6,9.6 -14.4,9.6 -14.4,9.6 -14.4,4.8 -14.4,4.8 -33.6,0 -14.4,-4.8 -14.4,-4.8 -14.4,-4.8 -14.4,-9.6 -14.4,-9.6 -9.6,-9.6 -9.6,-14.4 -9.6,-14.4 -4.8,-14.4 -4.81,-14.4 0,-48 4.81,-14.4 4.8,-14.4 9.6,-14.4 9.6,-14.4 9.6,-9.6 14.4,-9.6 14.4,-9.6 14.4,-4.8 14.4,-4.8 14.4,0 14.4,-4.8 19.2,4.8 14.4,0 14.4,9.6 14.4,4.8 14.4,9.6 9.6,9.6 9.6,14.4 9.6,14.4 9.6,14.4 4.8,14.4 0,28.8"
             id="path44303"
             style="fill:none;stroke:#000000;stroke-width:5.00002003;stroke-linecap:butt;stroke-linejoin:round;stroke-miterlimit:10;stroke-opacity:1;stroke-dasharray:none" /><path
             d="m 2688,1992 1238.4,0 0,1238.4 -1238.4,0 0,-1238.4 z"
             id="path44305"
             style="fill:#999999;fill-opacity:1;fill-rule:evenodd;stroke:none" /><path
             d="m 3926.41,3230.41 -1238.41,0 0,-1238.41 1238.41,0 0,1238.41"
             id="path44307"
             style="fill:none;stroke:#000000;stroke-width:5.00002003;stroke-linecap:butt;stroke-linejoin:round;stroke-miterlimit:10;stroke-opacity:1;stroke-dasharray:none" /><path
             d="m 2688,1992 1238.4,0 0,1238.4 -1238.4,0 0,-1238.4 z"
             id="path44309"
             style="fill:#999999;fill-opacity:1;fill-rule:evenodd;stroke:none" /><path
             d="m 3926.41,3230.41 -1238.41,0 0,-1238.41 1238.41,0 0,1238.41"
             id="path44311"
             style="fill:none;stroke:#000000;stroke-width:5.00002003;stroke-linecap:butt;stroke-linejoin:round;stroke-miterlimit:10;stroke-opacity:1;stroke-dasharray:none" /><path
             d="m 2688,1992 1238.4,0 0,1238.4 -1238.4,0 0,-1238.4 z"
             id="path44313"
             style="fill:#999999;fill-opacity:1;fill-rule:evenodd;stroke:none" /><path
             d="m 3926.41,3230.41 -1238.41,0 0,-1238.41 1238.41,0 0,1238.41"
             id="path44315"
             style="fill:none;stroke:#000000;stroke-width:5.00002003;stroke-linecap:butt;stroke-linejoin:round;stroke-miterlimit:10;stroke-opacity:1;stroke-dasharray:none" /><path
             d="m 2688,1992 1238.4,0 0,1238.4 -1238.4,0 0,-1238.4 z"
             id="path44317"
             style="fill:#999999;fill-opacity:1;fill-rule:evenodd;stroke:none" /><path
             d="m 3926.41,3230.41 -1238.41,0 0,-1238.41 1238.41,0 0,1238.41"
             id="path44319"
             style="fill:none;stroke:#000000;stroke-width:5.00002003;stroke-linecap:butt;stroke-linejoin:round;stroke-miterlimit:10;stroke-opacity:1;stroke-dasharray:none" /></g></g><g
         id="g44321"><g
           clip-path="url(#clipPath44325)"
           id="g44323"><g
             transform="scale(10,10)"
             id="g44329"><text
               transform="matrix(1,0,0,-1,310.561,94.0801)"
               id="text44331"><tspan
                 x="0 7 14.784 18.676001 23.337999 35"
                 y="0"
                 id="tspan44333"
                 style="font-size:14px;font-variant:normal;font-weight:normal;writing-mode:lr-tb;fill:#000000;fill-opacity:1;fill-rule:nonzero;stroke:none;font-family:Helvetica;-inkscape-font-specification:Helvetica">x1 (m)</tspan></text>
<text
               transform="matrix(0,1,1,0,45.6,228.48)"
               id="text44335"><tspan
                 x="0 7 14.784 18.676001 23.337999 35"
                 y="0"
                 id="tspan44337"
                 style="font-size:14px;font-variant:normal;font-weight:normal;writing-mode:lr-tb;fill:#000000;fill-opacity:1;fill-rule:nonzero;stroke:none;font-family:Helvetica;-inkscape-font-specification:Helvetica">x2 (m)</tspan></text>
</g></g></g></g></g></svg>