<?xml version="1.0" encoding="UTF-8" standalone="no"?>
<!-- Created with Inkscape (http://www.inkscape.org/) -->

<svg
   xmlns:dc="http://purl.org/dc/elements/1.1/"
   xmlns:cc="http://creativecommons.org/ns#"
   xmlns:rdf="http://www.w3.org/1999/02/22-rdf-syntax-ns#"
   xmlns:svg="http://www.w3.org/2000/svg"
   xmlns="http://www.w3.org/2000/svg"
   version="1.1"
   width="560"
   height="420"
   id="svg6047"
   xml:space="preserve"><metadata
     id="metadata6053"><rdf:RDF><cc:Work
         rdf:about=""><dc:format>image/svg+xml</dc:format><dc:type
           rdf:resource="http://purl.org/dc/dcmitype/StillImage" /><dc:title></dc:title></cc:Work></rdf:RDF></metadata><defs
     id="defs6051"><clipPath
       id="clipPath6165"><path
         d="m 720,3105.6 0,-1132.8 3345.61,0 0,1132.8 -3345.61,0 z"
         id="path6167" /></clipPath><clipPath
       id="clipPath6291"><path
         d="m 720,1516.8 0,-1137.601 3345.61,0 0,1137.601 -3345.61,0 z"
         id="path6293" /></clipPath><clipPath
       id="clipPath6345"><path
         d="m 1276.8,1464 0,-240 2740.81,0 0,240 -2740.81,0 z"
         id="path6347" /></clipPath><clipPath
       id="clipPath6361"><path
         d="m 1276.8,1464 0,-240 2740.81,0 0,240 -2740.81,0 z"
         id="path6363" /></clipPath><clipPath
       id="clipPath6377"><path
         d="m 1276.8,1464 0,-240 2740.81,0 0,240 -2740.81,0 z"
         id="path6379" /></clipPath></defs><g
     transform="matrix(1.25,0,0,-1.25,0,420)"
     id="g6055"><g
       transform="scale(0.1,0.1)"
       id="g6057"><path
         d="m 720,1977.6 0,1128 3340.8,0 0,-1128 -3340.8,0"
         id="path6059"
         style="fill:none;stroke:#ffffff;stroke-width:5.00002003;stroke-linecap:butt;stroke-linejoin:round;stroke-miterlimit:10;stroke-opacity:1;stroke-dasharray:none" /><path
         d="m 720,1977.6 3340.8,0"
         id="path6061"
         style="fill:none;stroke:#000000;stroke-width:5.00002003;stroke-linecap:butt;stroke-linejoin:round;stroke-miterlimit:10;stroke-opacity:1;stroke-dasharray:none" /><path
         d="m 720,3105.6 3340.8,0"
         id="path6063"
         style="fill:none;stroke:#000000;stroke-width:5.00002003;stroke-linecap:butt;stroke-linejoin:round;stroke-miterlimit:10;stroke-opacity:1;stroke-dasharray:none" /><path
         d="m 720,1977.6 0,1128"
         id="path6065"
         style="fill:none;stroke:#000000;stroke-width:5.00002003;stroke-linecap:butt;stroke-linejoin:round;stroke-miterlimit:10;stroke-opacity:1;stroke-dasharray:none" /><path
         d="m 4060.8,1977.6 0,1128"
         id="path6067"
         style="fill:none;stroke:#000000;stroke-width:5.00002003;stroke-linecap:butt;stroke-linejoin:round;stroke-miterlimit:10;stroke-opacity:1;stroke-dasharray:none" /><path
         d="m 720,1977.6 3340.8,0"
         id="path6069"
         style="fill:none;stroke:#000000;stroke-width:5.00002003;stroke-linecap:butt;stroke-linejoin:round;stroke-miterlimit:10;stroke-opacity:1;stroke-dasharray:none" /><path
         d="m 720,1977.6 0,1128"
         id="path6071"
         style="fill:none;stroke:#000000;stroke-width:5.00002003;stroke-linecap:butt;stroke-linejoin:round;stroke-miterlimit:10;stroke-opacity:1;stroke-dasharray:none" /><path
         d="m 720,1977.6 0,33.6"
         id="path6073"
         style="fill:none;stroke:#000000;stroke-width:5.00002003;stroke-linecap:butt;stroke-linejoin:round;stroke-miterlimit:10;stroke-opacity:1;stroke-dasharray:none" /><path
         d="m 720,3105.6 0,-28.8"
         id="path6075"
         style="fill:none;stroke:#000000;stroke-width:5.00002003;stroke-linecap:butt;stroke-linejoin:round;stroke-miterlimit:10;stroke-opacity:1;stroke-dasharray:none" /><g
         transform="scale(10,10)"
         id="g6077"><text
           transform="matrix(1,0,0,-1,67.6801,180)"
           id="text6079"><tspan
             x="0"
             y="0"
             id="tspan6081"
             style="font-size:16px;font-variant:normal;font-weight:normal;writing-mode:lr-tb;fill:#000000;fill-opacity:1;fill-rule:nonzero;stroke:none;font-family:Helvetica;-inkscape-font-specification:Helvetica">0</tspan></text>
</g><path
         d="m 1555.2,1977.6 0,33.6"
         id="path6083"
         style="fill:none;stroke:#000000;stroke-width:5.00002003;stroke-linecap:butt;stroke-linejoin:round;stroke-miterlimit:10;stroke-opacity:1;stroke-dasharray:none" /><path
         d="m 1555.2,3105.6 0,-28.8"
         id="path6085"
         style="fill:none;stroke:#000000;stroke-width:5.00002003;stroke-linecap:butt;stroke-linejoin:round;stroke-miterlimit:10;stroke-opacity:1;stroke-dasharray:none" /><g
         transform="scale(10,10)"
         id="g6087"><text
           transform="matrix(1,0,0,-1,146.88,180)"
           id="text6089"><tspan
             x="0 8.8959999"
             y="0"
             id="tspan6091"
             style="font-size:16px;font-variant:normal;font-weight:normal;writing-mode:lr-tb;fill:#000000;fill-opacity:1;fill-rule:nonzero;stroke:none;font-family:Helvetica;-inkscape-font-specification:Helvetica">10</tspan></text>
</g><path
         d="m 2390.4,1977.6 0,33.6"
         id="path6093"
         style="fill:none;stroke:#000000;stroke-width:5.00002003;stroke-linecap:butt;stroke-linejoin:round;stroke-miterlimit:10;stroke-opacity:1;stroke-dasharray:none" /><path
         d="m 2390.4,3105.6 0,-28.8"
         id="path6095"
         style="fill:none;stroke:#000000;stroke-width:5.00002003;stroke-linecap:butt;stroke-linejoin:round;stroke-miterlimit:10;stroke-opacity:1;stroke-dasharray:none" /><g
         transform="scale(10,10)"
         id="g6097"><text
           transform="matrix(1,0,0,-1,230.4,180)"
           id="text6099"><tspan
             x="0 8.8959999"
             y="0"
             id="tspan6101"
             style="font-size:16px;font-variant:normal;font-weight:normal;writing-mode:lr-tb;fill:#000000;fill-opacity:1;fill-rule:nonzero;stroke:none;font-family:Helvetica;-inkscape-font-specification:Helvetica">20</tspan></text>
</g><path
         d="m 3225.61,1977.6 0,33.6"
         id="path6103"
         style="fill:none;stroke:#000000;stroke-width:5.00002003;stroke-linecap:butt;stroke-linejoin:round;stroke-miterlimit:10;stroke-opacity:1;stroke-dasharray:none" /><path
         d="m 3225.61,3105.6 0,-28.8"
         id="path6105"
         style="fill:none;stroke:#000000;stroke-width:5.00002003;stroke-linecap:butt;stroke-linejoin:round;stroke-miterlimit:10;stroke-opacity:1;stroke-dasharray:none" /><g
         transform="scale(10,10)"
         id="g6107"><text
           transform="matrix(1,0,0,-1,313.921,180)"
           id="text6109"><tspan
             x="0 8.8959999"
             y="0"
             id="tspan6111"
             style="font-size:16px;font-variant:normal;font-weight:normal;writing-mode:lr-tb;fill:#000000;fill-opacity:1;fill-rule:nonzero;stroke:none;font-family:Helvetica;-inkscape-font-specification:Helvetica">30</tspan></text>
</g><path
         d="m 4060.8,1977.6 0,33.6"
         id="path6113"
         style="fill:none;stroke:#000000;stroke-width:5.00002003;stroke-linecap:butt;stroke-linejoin:round;stroke-miterlimit:10;stroke-opacity:1;stroke-dasharray:none" /><path
         d="m 4060.8,3105.6 0,-28.8"
         id="path6115"
         style="fill:none;stroke:#000000;stroke-width:5.00002003;stroke-linecap:butt;stroke-linejoin:round;stroke-miterlimit:10;stroke-opacity:1;stroke-dasharray:none" /><g
         transform="scale(10,10)"
         id="g6117"><text
           transform="matrix(1,0,0,-1,397.441,180)"
           id="text6119"><tspan
             x="0 8.8959999"
             y="0"
             id="tspan6121"
             style="font-size:16px;font-variant:normal;font-weight:normal;writing-mode:lr-tb;fill:#000000;fill-opacity:1;fill-rule:nonzero;stroke:none;font-family:Helvetica;-inkscape-font-specification:Helvetica">40</tspan></text>
</g><path
         d="m 720,1977.6 28.801,0"
         id="path6123"
         style="fill:none;stroke:#000000;stroke-width:5.00002003;stroke-linecap:butt;stroke-linejoin:round;stroke-miterlimit:10;stroke-opacity:1;stroke-dasharray:none" /><path
         d="m 4060.8,1977.6 -33.59,0"
         id="path6125"
         style="fill:none;stroke:#000000;stroke-width:5.00002003;stroke-linecap:butt;stroke-linejoin:round;stroke-miterlimit:10;stroke-opacity:1;stroke-dasharray:none" /><g
         transform="scale(10,10)"
         id="g6127"><text
           transform="matrix(1,0,0,-1,60.4801,192)"
           id="text6129"><tspan
             x="0"
             y="0"
             id="tspan6131"
             style="font-size:16px;font-variant:normal;font-weight:normal;writing-mode:lr-tb;fill:#000000;fill-opacity:1;fill-rule:nonzero;stroke:none;font-family:Helvetica;-inkscape-font-specification:Helvetica">0</tspan></text>
</g><path
         d="m 720,2544 28.801,0"
         id="path6133"
         style="fill:none;stroke:#000000;stroke-width:5.00002003;stroke-linecap:butt;stroke-linejoin:round;stroke-miterlimit:10;stroke-opacity:1;stroke-dasharray:none" /><path
         d="m 4060.8,2544 -33.59,0"
         id="path6135"
         style="fill:none;stroke:#000000;stroke-width:5.00002003;stroke-linecap:butt;stroke-linejoin:round;stroke-miterlimit:10;stroke-opacity:1;stroke-dasharray:none" /><g
         transform="scale(10,10)"
         id="g6137"><text
           transform="matrix(1,0,0,-1,51.3602,248.64)"
           id="text6139"><tspan
             x="0 8.8959999"
             y="0"
             id="tspan6141"
             style="font-size:16px;font-variant:normal;font-weight:normal;writing-mode:lr-tb;fill:#000000;fill-opacity:1;fill-rule:nonzero;stroke:none;font-family:Helvetica;-inkscape-font-specification:Helvetica">50</tspan></text>
</g><path
         d="m 720,3105.6 28.801,0"
         id="path6143"
         style="fill:none;stroke:#000000;stroke-width:5.00002003;stroke-linecap:butt;stroke-linejoin:round;stroke-miterlimit:10;stroke-opacity:1;stroke-dasharray:none" /><path
         d="m 4060.8,3105.6 -33.59,0"
         id="path6145"
         style="fill:none;stroke:#000000;stroke-width:5.00002003;stroke-linecap:butt;stroke-linejoin:round;stroke-miterlimit:10;stroke-opacity:1;stroke-dasharray:none" /><g
         transform="scale(10,10)"
         id="g6147"><text
           transform="matrix(1,0,0,-1,42.7199,304.8)"
           id="text6149"><tspan
             x="0 8.8959999 17.792"
             y="0"
             id="tspan6151"
             style="font-size:16px;font-variant:normal;font-weight:normal;writing-mode:lr-tb;fill:#000000;fill-opacity:1;fill-rule:nonzero;stroke:none;font-family:Helvetica;-inkscape-font-specification:Helvetica">100</tspan></text>
</g><path
         d="m 720,1977.6 3340.8,0"
         id="path6153"
         style="fill:none;stroke:#000000;stroke-width:5.00002003;stroke-linecap:butt;stroke-linejoin:round;stroke-miterlimit:10;stroke-opacity:1;stroke-dasharray:none" /><path
         d="m 720,3105.6 3340.8,0"
         id="path6155"
         style="fill:none;stroke:#000000;stroke-width:5.00002003;stroke-linecap:butt;stroke-linejoin:round;stroke-miterlimit:10;stroke-opacity:1;stroke-dasharray:none" /><path
         d="m 720,1977.6 0,1128"
         id="path6157"
         style="fill:none;stroke:#000000;stroke-width:5.00002003;stroke-linecap:butt;stroke-linejoin:round;stroke-miterlimit:10;stroke-opacity:1;stroke-dasharray:none" /><path
         d="m 4060.8,1977.6 0,1128"
         id="path6159"
         style="fill:none;stroke:#000000;stroke-width:5.00002003;stroke-linecap:butt;stroke-linejoin:round;stroke-miterlimit:10;stroke-opacity:1;stroke-dasharray:none" /><g
         id="g6161"><g
           clip-path="url(#clipPath6165)"
           id="g6163"><path
             d="m 2779.2,2774.4 9.6,0 9.61,4.8 24,0 9.59,4.8 38.41,0 9.59,4.8 144,0 4.8,4.8 67.2,0 9.61,14.4 9.59,14.4 9.6,19.2 4.81,14.4 9.6,14.4 9.59,9.6 9.61,9.6 4.8,9.6 9.59,9.6 9.61,9.6 9.59,9.6 4.8,4.8 9.61,4.8 9.59,4.8 9.61,4.8 4.8,4.8 9.59,4.8 9.61,4.8 4.8,4.8 9.59,0 9.61,4.8 9.6,0 4.79,4.8 19.21,0 9.59,4.8 14.41,0 9.59,4.8 33.61,0 9.59,4.8 81.61,0 9.6,4.8 134.4,0"
             id="path6169"
             style="fill:none;stroke:#0000ff;stroke-width:5.00002003;stroke-linecap:butt;stroke-linejoin:round;stroke-miterlimit:10;stroke-opacity:1;stroke-dasharray:none" /><path
             d="m 1953.6,2481.6 43.2,0 4.8,4.8 268.8,0 9.6,9.6 9.61,24 4.79,19.2 9.6,19.2 9.61,19.2 9.59,14.4 4.8,14.4 9.61,14.4 9.59,9.6 9.6,9.6 4.81,9.6 9.59,9.6 9.6,9.6 9.6,4.8 4.8,9.6 9.6,4.8 9.6,4.8 4.8,4.8 9.6,4.8 9.6,4.8 9.6,0 4.8,4.8 9.6,4.8 9.6,0 9.61,4.8 14.39,0 9.61,4.8 14.39,0 9.61,4.8 33.59,0 9.6,4.8 67.2,0 4.8,4.8 52.81,0 9.59,4.8 4.8,4.8 9.61,4.8 9.59,4.8 9.6,0 4.81,4.8 9.59,4.8 9.6,0 9.61,4.8 4.79,0"
             id="path6171"
             style="fill:none;stroke:#0000ff;stroke-width:5.00002003;stroke-linecap:butt;stroke-linejoin:round;stroke-miterlimit:10;stroke-opacity:1;stroke-dasharray:none" /><path
             d="m 1128,1977.6 105.6,0 9.6,9.6 9.6,19.2 9.6,24 4.8,19.2 9.6,14.4 9.6,19.2 9.6,14.4 4.8,9.6 9.6,14.4 9.6,9.6 9.6,9.6 4.8,9.6 9.6,9.6 9.6,4.8 4.8,9.6 9.6,4.8 9.6,4.8 9.6,4.8 4.8,4.8 9.6,4.8 9.6,0 9.6,4.8 4.8,4.8 9.6,0 9.6,4.8 9.6,0 4.8,4.8 19.2,0 9.6,4.8 33.6,0 4.8,4.8 52.8,0 4.8,4.8 62.4,0 4.8,19.2 9.6,19.2 9.6,24 9.6,14.4 4.8,19.2 9.6,14.4 9.6,14.4 9.6,14.4 4.8,9.6 9.6,9.6 9.6,9.6 9.6,9.6 4.8,4.8 9.6,9.6 9.6,4.8 4.8,4.8 9.6,4.8 9.6,4.8 9.6,4.8 4.8,4.8 9.6,4.8 9.6,0 9.6,4.8 4.8,0 9.6,4.8 9.6,0 9.6,4.8 14.4,0 9.6,4.8 33.6,0 9.6,4.8 14.4,0"
             id="path6173"
             style="fill:none;stroke:#0000ff;stroke-width:5.00002003;stroke-linecap:butt;stroke-linejoin:round;stroke-miterlimit:10;stroke-opacity:1;stroke-dasharray:none" /><path
             d="m 724.801,1977.6 403.199,0"
             id="path6175"
             style="fill:none;stroke:#0000ff;stroke-width:5.00002003;stroke-linecap:butt;stroke-linejoin:round;stroke-miterlimit:10;stroke-opacity:1;stroke-dasharray:none" /></g></g><g
         transform="scale(10,10)"
         id="g6177"><text
           transform="matrix(0,1,1,0,34.5602,203.04)"
           id="text6179"><tspan
             x="0 11.552 20.448 29.344 38.240002 41.792 50.688 59.584 64.031998 69.360001 78.255997 87.152 96.047997"
             y="0"
             id="tspan6181"
             style="font-size:16px;font-variant:normal;font-weight:normal;writing-mode:lr-tb;fill:#000000;fill-opacity:1;fill-rule:nonzero;stroke:none;font-family:Helvetica;-inkscape-font-specification:Helvetica">Heading (deg)</tspan></text>
</g><path
         d="m 720,384 3340.8,0 0,1132.8 -3340.8,0 0,-1132.8 z"
         id="path6183"
         style="fill:#ffffff;fill-opacity:1;fill-rule:evenodd;stroke:none" /><path
         d="m 720,384 0,1132.8 3340.8,0 0,-1132.8 -3340.8,0"
         id="path6185"
         style="fill:none;stroke:#ffffff;stroke-width:5.00002003;stroke-linecap:butt;stroke-linejoin:round;stroke-miterlimit:10;stroke-opacity:1;stroke-dasharray:none" /><path
         d="m 720,384 3340.8,0"
         id="path6187"
         style="fill:none;stroke:#000000;stroke-width:5.00002003;stroke-linecap:butt;stroke-linejoin:round;stroke-miterlimit:10;stroke-opacity:1;stroke-dasharray:none" /><path
         d="m 720,1516.8 3340.8,0"
         id="path6189"
         style="fill:none;stroke:#000000;stroke-width:5.00002003;stroke-linecap:butt;stroke-linejoin:round;stroke-miterlimit:10;stroke-opacity:1;stroke-dasharray:none" /><path
         d="m 720,384 0,1132.8"
         id="path6191"
         style="fill:none;stroke:#000000;stroke-width:5.00002003;stroke-linecap:butt;stroke-linejoin:round;stroke-miterlimit:10;stroke-opacity:1;stroke-dasharray:none" /><path
         d="m 4060.8,384 0,1132.8"
         id="path6193"
         style="fill:none;stroke:#000000;stroke-width:5.00002003;stroke-linecap:butt;stroke-linejoin:round;stroke-miterlimit:10;stroke-opacity:1;stroke-dasharray:none" /><path
         d="m 720,384 3340.8,0"
         id="path6195"
         style="fill:none;stroke:#000000;stroke-width:5.00002003;stroke-linecap:butt;stroke-linejoin:round;stroke-miterlimit:10;stroke-opacity:1;stroke-dasharray:none" /><path
         d="m 720,384 0,1132.8"
         id="path6197"
         style="fill:none;stroke:#000000;stroke-width:5.00002003;stroke-linecap:butt;stroke-linejoin:round;stroke-miterlimit:10;stroke-opacity:1;stroke-dasharray:none" /><path
         d="m 720,384 0,33.598"
         id="path6199"
         style="fill:none;stroke:#000000;stroke-width:5.00002003;stroke-linecap:butt;stroke-linejoin:round;stroke-miterlimit:10;stroke-opacity:1;stroke-dasharray:none" /><path
         d="m 720,1516.8 0,-28.8"
         id="path6201"
         style="fill:none;stroke:#000000;stroke-width:5.00002003;stroke-linecap:butt;stroke-linejoin:round;stroke-miterlimit:10;stroke-opacity:1;stroke-dasharray:none" /><g
         transform="scale(10,10)"
         id="g6203"><text
           transform="matrix(1,0,0,-1,67.6801,20.6398)"
           id="text6205"><tspan
             x="0"
             y="0"
             id="tspan6207"
             style="font-size:16px;font-variant:normal;font-weight:normal;writing-mode:lr-tb;fill:#000000;fill-opacity:1;fill-rule:nonzero;stroke:none;font-family:Helvetica;-inkscape-font-specification:Helvetica">0</tspan></text>
</g><path
         d="m 1555.2,384 0,33.598"
         id="path6209"
         style="fill:none;stroke:#000000;stroke-width:5.00002003;stroke-linecap:butt;stroke-linejoin:round;stroke-miterlimit:10;stroke-opacity:1;stroke-dasharray:none" /><path
         d="m 1555.2,1516.8 0,-28.8"
         id="path6211"
         style="fill:none;stroke:#000000;stroke-width:5.00002003;stroke-linecap:butt;stroke-linejoin:round;stroke-miterlimit:10;stroke-opacity:1;stroke-dasharray:none" /><g
         transform="scale(10,10)"
         id="g6213"><text
           transform="matrix(1,0,0,-1,146.88,20.6398)"
           id="text6215"><tspan
             x="0 8.8959999"
             y="0"
             id="tspan6217"
             style="font-size:16px;font-variant:normal;font-weight:normal;writing-mode:lr-tb;fill:#000000;fill-opacity:1;fill-rule:nonzero;stroke:none;font-family:Helvetica;-inkscape-font-specification:Helvetica">10</tspan></text>
</g><path
         d="m 2390.4,384 0,33.598"
         id="path6219"
         style="fill:none;stroke:#000000;stroke-width:5.00002003;stroke-linecap:butt;stroke-linejoin:round;stroke-miterlimit:10;stroke-opacity:1;stroke-dasharray:none" /><path
         d="m 2390.4,1516.8 0,-28.8"
         id="path6221"
         style="fill:none;stroke:#000000;stroke-width:5.00002003;stroke-linecap:butt;stroke-linejoin:round;stroke-miterlimit:10;stroke-opacity:1;stroke-dasharray:none" /><g
         transform="scale(10,10)"
         id="g6223"><text
           transform="matrix(1,0,0,-1,230.4,20.6398)"
           id="text6225"><tspan
             x="0 8.8959999"
             y="0"
             id="tspan6227"
             style="font-size:16px;font-variant:normal;font-weight:normal;writing-mode:lr-tb;fill:#000000;fill-opacity:1;fill-rule:nonzero;stroke:none;font-family:Helvetica;-inkscape-font-specification:Helvetica">20</tspan></text>
</g><path
         d="m 3225.61,384 0,33.598"
         id="path6229"
         style="fill:none;stroke:#000000;stroke-width:5.00002003;stroke-linecap:butt;stroke-linejoin:round;stroke-miterlimit:10;stroke-opacity:1;stroke-dasharray:none" /><path
         d="m 3225.61,1516.8 0,-28.8"
         id="path6231"
         style="fill:none;stroke:#000000;stroke-width:5.00002003;stroke-linecap:butt;stroke-linejoin:round;stroke-miterlimit:10;stroke-opacity:1;stroke-dasharray:none" /><g
         transform="scale(10,10)"
         id="g6233"><text
           transform="matrix(1,0,0,-1,313.921,20.6398)"
           id="text6235"><tspan
             x="0 8.8959999"
             y="0"
             id="tspan6237"
             style="font-size:16px;font-variant:normal;font-weight:normal;writing-mode:lr-tb;fill:#000000;fill-opacity:1;fill-rule:nonzero;stroke:none;font-family:Helvetica;-inkscape-font-specification:Helvetica">30</tspan></text>
</g><path
         d="m 4060.8,384 0,33.598"
         id="path6239"
         style="fill:none;stroke:#000000;stroke-width:5.00002003;stroke-linecap:butt;stroke-linejoin:round;stroke-miterlimit:10;stroke-opacity:1;stroke-dasharray:none" /><path
         d="m 4060.8,1516.8 0,-28.8"
         id="path6241"
         style="fill:none;stroke:#000000;stroke-width:5.00002003;stroke-linecap:butt;stroke-linejoin:round;stroke-miterlimit:10;stroke-opacity:1;stroke-dasharray:none" /><g
         transform="scale(10,10)"
         id="g6243"><text
           transform="matrix(1,0,0,-1,397.441,20.6398)"
           id="text6245"><tspan
             x="0 8.8959999"
             y="0"
             id="tspan6247"
             style="font-size:16px;font-variant:normal;font-weight:normal;writing-mode:lr-tb;fill:#000000;fill-opacity:1;fill-rule:nonzero;stroke:none;font-family:Helvetica;-inkscape-font-specification:Helvetica">40</tspan></text>
</g><path
         d="m 720,384 28.801,0"
         id="path6249"
         style="fill:none;stroke:#000000;stroke-width:5.00002003;stroke-linecap:butt;stroke-linejoin:round;stroke-miterlimit:10;stroke-opacity:1;stroke-dasharray:none" /><path
         d="m 4060.8,384 -33.59,0"
         id="path6251"
         style="fill:none;stroke:#000000;stroke-width:5.00002003;stroke-linecap:butt;stroke-linejoin:round;stroke-miterlimit:10;stroke-opacity:1;stroke-dasharray:none" /><g
         transform="scale(10,10)"
         id="g6253"><text
           transform="matrix(1,0,0,-1,24.4801,32.6398)"
           id="text6255"><tspan
             x="0 9.3439999 18.24 27.136 36.032001"
             y="0"
             id="tspan6257"
             style="font-size:16px;font-variant:normal;font-weight:normal;writing-mode:lr-tb;fill:#000000;fill-opacity:1;fill-rule:nonzero;stroke:none;font-family:Helvetica;-inkscape-font-specification:Helvetica">−1000</tspan></text>
</g><path
         d="m 720,950.398 28.801,0"
         id="path6259"
         style="fill:none;stroke:#000000;stroke-width:5.00002003;stroke-linecap:butt;stroke-linejoin:round;stroke-miterlimit:10;stroke-opacity:1;stroke-dasharray:none" /><path
         d="m 4060.8,950.398 -33.59,0"
         id="path6261"
         style="fill:none;stroke:#000000;stroke-width:5.00002003;stroke-linecap:butt;stroke-linejoin:round;stroke-miterlimit:10;stroke-opacity:1;stroke-dasharray:none" /><g
         transform="scale(10,10)"
         id="g6263"><text
           transform="matrix(1,0,0,-1,60.4801,89.2801)"
           id="text6265"><tspan
             x="0"
             y="0"
             id="tspan6267"
             style="font-size:16px;font-variant:normal;font-weight:normal;writing-mode:lr-tb;fill:#000000;fill-opacity:1;fill-rule:nonzero;stroke:none;font-family:Helvetica;-inkscape-font-specification:Helvetica">0</tspan></text>
</g><path
         d="m 720,1516.8 28.801,0"
         id="path6269"
         style="fill:none;stroke:#000000;stroke-width:5.00002003;stroke-linecap:butt;stroke-linejoin:round;stroke-miterlimit:10;stroke-opacity:1;stroke-dasharray:none" /><path
         d="m 4060.8,1516.8 -33.59,0"
         id="path6271"
         style="fill:none;stroke:#000000;stroke-width:5.00002003;stroke-linecap:butt;stroke-linejoin:round;stroke-miterlimit:10;stroke-opacity:1;stroke-dasharray:none" /><g
         transform="scale(10,10)"
         id="g6273"><text
           transform="matrix(1,0,0,-1,33.6,145.92)"
           id="text6275"><tspan
             x="0 8.8959999 17.792 26.688"
             y="0"
             id="tspan6277"
             style="font-size:16px;font-variant:normal;font-weight:normal;writing-mode:lr-tb;fill:#000000;fill-opacity:1;fill-rule:nonzero;stroke:none;font-family:Helvetica;-inkscape-font-specification:Helvetica">1000</tspan></text>
</g><path
         d="m 720,384 3340.8,0"
         id="path6279"
         style="fill:none;stroke:#000000;stroke-width:5.00002003;stroke-linecap:butt;stroke-linejoin:round;stroke-miterlimit:10;stroke-opacity:1;stroke-dasharray:none" /><path
         d="m 720,1516.8 3340.8,0"
         id="path6281"
         style="fill:none;stroke:#000000;stroke-width:5.00002003;stroke-linecap:butt;stroke-linejoin:round;stroke-miterlimit:10;stroke-opacity:1;stroke-dasharray:none" /><path
         d="m 720,384 0,1132.8"
         id="path6283"
         style="fill:none;stroke:#000000;stroke-width:5.00002003;stroke-linecap:butt;stroke-linejoin:round;stroke-miterlimit:10;stroke-opacity:1;stroke-dasharray:none" /><path
         d="m 4060.8,384 0,1132.8"
         id="path6285"
         style="fill:none;stroke:#000000;stroke-width:5.00002003;stroke-linecap:butt;stroke-linejoin:round;stroke-miterlimit:10;stroke-opacity:1;stroke-dasharray:none" /><g
         id="g6287"><g
           clip-path="url(#clipPath6291)"
           id="g6289"><path
             d="M 724.801,427.199 792,700.801 l 67.203,177.597 67.199,110.403 67.2,52.799 67.198,19.2 67.2,0 67.2,-14.4 67.2,-220.798 67.2,105.597 62.4,52.801 67.2,24 67.2,9.6 67.2,-4.8 67.2,-71.999 67.2,24 67.2,9.597 67.2,0 67.2,-110.398 67.2,57.602 67.2,33.597 67.2,19.199 62.41,4.801 67.19,4.801 67.2,-81.602 67.2,48 67.2,19.204 67.21,4.796 67.19,4.801 67.2,-4.801 67.2,-67.199 67.21,38.403 67.2,14.398 67.19,9.602 67.2,4.796 62.41,0 67.2,316.802 67.19,-172.8 67.2,-139.201 67.21,-86.398 67.2,-38.403 67.2,-9.597 67.19,4.801 67.21,19.199"
             id="path6295"
             style="fill:none;stroke:#0000ff;stroke-width:20;stroke-linecap:butt;stroke-linejoin:round;stroke-miterlimit:10;stroke-opacity:1;stroke-dasharray:5, 40, 60, 40;stroke-dashoffset:0" /><path
             d="m 724.801,1516.8 67.199,-57.6 67.203,-360 67.199,-216.001 67.2,-110.398 67.198,-38.403 67.2,4.801 67.2,28.801 67.2,249.6 67.2,-95.998 62.4,-24 67.2,-4.801 67.2,9.597 67.2,9.602 67.2,57.602 67.2,-14.403 134.4,0 67.2,4.801 67.2,-4.801 264,0 67.2,-33.597 67.2,19.199 67.2,24 67.21,14.398 67.19,9.602 67.2,-4.801 67.2,-110.398 67.21,57.597 67.2,38.403 67.19,19.199 67.2,4.801 62.41,0 L 3129.61,384 3196.8,652.801 3264,936 l 67.21,163.2 67.2,67.2 67.2,14.4 67.19,-19.2 67.21,-38.4"
             id="path6297"
             style="fill:none;stroke:#008000;stroke-width:20;stroke-linecap:butt;stroke-linejoin:round;stroke-miterlimit:10;stroke-opacity:1;stroke-dasharray:60;stroke-dashoffset:0" /><path
             d="M 724.801,427.199 792,700.801 l 67.203,177.597 67.199,110.403 67.2,52.799 67.198,19.2 67.2,0 67.2,-14.4 67.2,19.2 67.2,-33.6 62.4,-43.199 67.2,-28.801 67.2,-14.398 67.2,-9.602 67.2,57.602 67.2,-28.801 67.2,-24 67.2,-9.602 67.2,105.601 67.2,-52.8 67.2,-33.602 67.2,-19.199 62.41,-9.597 67.19,0 67.2,148.798 67.2,-86.4 67.2,-52.801 67.21,-28.801 67.19,-9.597 67.2,4.801 67.2,187.198 67.21,-95.999 67.2,-57.602 67.19,-28.801 67.2,-9.597 62.41,0 67.2,508.799 67.19,-297.6 67.2,-153.602 67.21,-81.597 67.2,-28.801 67.2,-4.801 67.19,14.403 67.21,19.199"
             id="path6299"
             style="fill:none;stroke:#ff0000;stroke-width:20;stroke-linecap:butt;stroke-linejoin:round;stroke-miterlimit:10;stroke-opacity:1;stroke-dasharray:none" /></g></g><g
         transform="scale(10,10)"
         id="g6301"><text
           transform="matrix(0,1,1,0,16.3199,24.9598)"
           id="text6303"><tspan
             x="0 10.672 16 21.327999 30.224001 38.223999 42.672001 53.344002 62.240002 71.136002 80.031998 88.928001 93.375999 98.704002 104.032 112.928 121.824 126.272 134.272"
             y="0"
             id="tspan6305"
             style="font-size:16px;font-variant:normal;font-weight:normal;writing-mode:lr-tb;fill:#000000;fill-opacity:1;fill-rule:nonzero;stroke:none;font-family:Helvetica;-inkscape-font-specification:Helvetica">Array Speed (rad/s)</tspan></text>
<text
           transform="matrix(1,0,0,-1,209.28,4.31992)"
           id="text6307"><tspan
             x="0 9.776 13.328 26.656 35.551998 40 45.327999 53.327999"
             y="0"
             id="tspan6309"
             style="font-size:16px;font-variant:normal;font-weight:normal;writing-mode:lr-tb;fill:#000000;fill-opacity:1;fill-rule:nonzero;stroke:none;font-family:Helvetica;-inkscape-font-specification:Helvetica">Time (s)</tspan></text>
</g><path
         d="m 1276.8,1228.8 2736,0 0,235.199 -2736,0 0,-235.199 z"
         id="path6311"
         style="fill:#ffffff;fill-opacity:1;fill-rule:evenodd;stroke:none" /><path
         d="m 1276.8,1228.8 0,235.2 2736,0 0,-235.2 -2736,0"
         id="path6313"
         style="fill:none;stroke:#ffffff;stroke-width:5.00002003;stroke-linecap:butt;stroke-linejoin:round;stroke-miterlimit:10;stroke-opacity:1;stroke-dasharray:none" /><path
         d="m 1276.8,1228.8 2736,0"
         id="path6315"
         style="fill:none;stroke:#000000;stroke-width:5.00002003;stroke-linecap:butt;stroke-linejoin:round;stroke-miterlimit:10;stroke-opacity:1;stroke-dasharray:none" /><path
         d="m 1276.8,1464 2736,0"
         id="path6317"
         style="fill:none;stroke:#000000;stroke-width:5.00002003;stroke-linecap:butt;stroke-linejoin:round;stroke-miterlimit:10;stroke-opacity:1;stroke-dasharray:none" /><path
         d="m 1276.8,1228.8 0,235.2"
         id="path6319"
         style="fill:none;stroke:#000000;stroke-width:5.00002003;stroke-linecap:butt;stroke-linejoin:round;stroke-miterlimit:10;stroke-opacity:1;stroke-dasharray:none" /><path
         d="m 4012.8,1228.8 0,235.2"
         id="path6321"
         style="fill:none;stroke:#000000;stroke-width:5.00002003;stroke-linecap:butt;stroke-linejoin:round;stroke-miterlimit:10;stroke-opacity:1;stroke-dasharray:none" /><path
         d="m 1276.8,1228.8 2736,0"
         id="path6323"
         style="fill:none;stroke:#000000;stroke-width:5.00002003;stroke-linecap:butt;stroke-linejoin:round;stroke-miterlimit:10;stroke-opacity:1;stroke-dasharray:none" /><path
         d="m 1276.8,1228.8 0,235.2"
         id="path6325"
         style="fill:none;stroke:#000000;stroke-width:5.00002003;stroke-linecap:butt;stroke-linejoin:round;stroke-miterlimit:10;stroke-opacity:1;stroke-dasharray:none" /><path
         d="m 1276.8,1228.8 2736,0"
         id="path6327"
         style="fill:none;stroke:#000000;stroke-width:5.00002003;stroke-linecap:butt;stroke-linejoin:round;stroke-miterlimit:10;stroke-opacity:1;stroke-dasharray:none" /><path
         d="m 1276.8,1464 2736,0"
         id="path6329"
         style="fill:none;stroke:#000000;stroke-width:5.00002003;stroke-linecap:butt;stroke-linejoin:round;stroke-miterlimit:10;stroke-opacity:1;stroke-dasharray:none" /><path
         d="m 1276.8,1228.8 0,235.2"
         id="path6331"
         style="fill:none;stroke:#000000;stroke-width:5.00002003;stroke-linecap:butt;stroke-linejoin:round;stroke-miterlimit:10;stroke-opacity:1;stroke-dasharray:none" /><path
         d="m 4012.8,1228.8 0,235.2"
         id="path6333"
         style="fill:none;stroke:#000000;stroke-width:5.00002003;stroke-linecap:butt;stroke-linejoin:round;stroke-miterlimit:10;stroke-opacity:1;stroke-dasharray:none" /><g
         transform="scale(10,10)"
         id="g6335"><text
           transform="matrix(1,0,0,-1,166.08,128.64)"
           id="text6337"><tspan
             x="0 10.672 16 21.327999 30.224001 38.223999 42.672001"
             y="0"
             id="tspan6339"
             style="font-size:16px;font-variant:normal;font-weight:normal;writing-mode:lr-tb;fill:#000000;fill-opacity:1;fill-rule:nonzero;stroke:none;font-family:Helvetica;-inkscape-font-specification:Helvetica">Array 1</tspan></text>
</g><g
         id="g6341"><g
           clip-path="url(#clipPath6345)"
           id="g6343"><path
             d="m 1334.4,1348.8 292.8,0"
             id="path6349"
             style="fill:none;stroke:#0000ff;stroke-width:20;stroke-linecap:butt;stroke-linejoin:round;stroke-miterlimit:10;stroke-opacity:1;stroke-dasharray:5, 40, 60, 40;stroke-dashoffset:0" /></g></g><g
         transform="scale(10,10)"
         id="g6351"><text
           transform="matrix(1,0,0,-1,255.84,128.64)"
           id="text6353"><tspan
             x="0 10.672 16 21.327999 30.224001 38.223999 42.672001"
             y="0"
             id="tspan6355"
             style="font-size:16px;font-variant:normal;font-weight:normal;writing-mode:lr-tb;fill:#000000;fill-opacity:1;fill-rule:nonzero;stroke:none;font-family:Helvetica;-inkscape-font-specification:Helvetica">Array 2</tspan></text>
</g><g
         id="g6357"><g
           clip-path="url(#clipPath6361)"
           id="g6359"><path
             d="m 2232,1348.8 292.8,0"
             id="path6365"
             style="fill:none;stroke:#008000;stroke-width:20;stroke-linecap:butt;stroke-linejoin:round;stroke-miterlimit:10;stroke-opacity:1;stroke-dasharray:60;stroke-dashoffset:0" /></g></g><g
         transform="scale(10,10)"
         id="g6367"><text
           transform="matrix(1,0,0,-1,346.08,128.64)"
           id="text6369"><tspan
             x="0 10.672 16 21.327999 30.224001 38.223999 42.672001"
             y="0"
             id="tspan6371"
             style="font-size:16px;font-variant:normal;font-weight:normal;writing-mode:lr-tb;fill:#000000;fill-opacity:1;fill-rule:nonzero;stroke:none;font-family:Helvetica;-inkscape-font-specification:Helvetica">Array 3</tspan></text>
</g><g
         id="g6373"><g
           clip-path="url(#clipPath6377)"
           id="g6375"><path
             d="m 3129.61,1348.8 297.6,0"
             id="path6381"
             style="fill:none;stroke:#ff0000;stroke-width:20;stroke-linecap:butt;stroke-linejoin:round;stroke-miterlimit:10;stroke-opacity:1;stroke-dasharray:none" /></g></g></g></g></svg>