<?xml version="1.0" encoding="UTF-8" standalone="no"?>
<!-- Created with Inkscape (http://www.inkscape.org/) -->

<svg
   xmlns:dc="http://purl.org/dc/elements/1.1/"
   xmlns:cc="http://creativecommons.org/ns#"
   xmlns:rdf="http://www.w3.org/1999/02/22-rdf-syntax-ns#"
   xmlns:svg="http://www.w3.org/2000/svg"
   xmlns="http://www.w3.org/2000/svg"
   version="1.1"
   width="744.09448"
   height="1052.3622"
   id="svg8212">
  <defs
     id="defs8214" />
  <metadata
     id="metadata8217">
    <rdf:RDF>
      <cc:Work
         rdf:about="">
        <dc:format>image/svg+xml</dc:format>
        <dc:type
           rdf:resource="http://purl.org/dc/dcmitype/StillImage" />
        <dc:title></dc:title>
      </cc:Work>
    </rdf:RDF>
  </metadata>
  <g
     id="layer1">
    <rect
       width="43.313999"
       height="807.93774"
       x="311.48584"
       y="117.65379"
       id="rect8222"
       style="fill:#5796c6;fill-opacity:1;stroke:#000000;stroke-width:5;stroke-linecap:butt;stroke-miterlimit:4;stroke-opacity:1;stroke-dasharray:none;stroke-dashoffset:0" />
    <rect
       width="251.42857"
       height="240"
       x="208.57143"
       y="378.07648"
       id="rect8220"
       style="fill:#969696;fill-opacity:1;stroke:#323232;stroke-width:8;stroke-linecap:butt;stroke-miterlimit:4;stroke-opacity:1;stroke-dasharray:none;stroke-dashoffset:0" />
    <g
       transform="matrix(0.2546407,0,0,0.2546407,239.31394,-38.962709)"
       id="layer1-5">
      <rect
         width="547.94812"
         height="227.41212"
         x="98.073181"
         y="412.47504"
         id="magnet"
         style="fill:#969696;fill-opacity:1;stroke:#000000;stroke-width:8;stroke-miterlimit:4;stroke-opacity:1;stroke-dasharray:none" />
      <path
         d="m 588.93665,482.73495 a 171.85364,171.85364 0 1 1 -343.70728,0 171.85364,171.85364 0 1 1 343.70728,0 z"
         transform="matrix(0.93855976,0,0,0.93855976,-19.410087,73.105488)"
         id="center"
         style="fill:#464646;fill-opacity:1;stroke:#323232;stroke-width:8.52369785;stroke-miterlimit:4;stroke-opacity:1;stroke-dasharray:none" />
    </g>
    <g
       transform="matrix(0.2546407,0,0,0.2546407,239.54734,798.37507)"
       id="layer1-5-1">
      <rect
         width="547.94812"
         height="227.41212"
         x="98.073181"
         y="412.47504"
         id="magnet-41"
         style="fill:#969696;fill-opacity:1;stroke:#000000;stroke-width:8;stroke-miterlimit:4;stroke-opacity:1;stroke-dasharray:none" />
      <path
         d="m 588.93665,482.73495 a 171.85364,171.85364 0 1 1 -343.70728,0 171.85364,171.85364 0 1 1 343.70728,0 z"
         transform="matrix(0.93855976,0,0,0.93855976,-19.410087,73.105488)"
         id="center-0"
         style="fill:#464646;fill-opacity:1;stroke:#323232;stroke-width:8.52369785;stroke-miterlimit:4;stroke-opacity:1;stroke-dasharray:none" />
    </g>
  </g>
</svg>
