<?xml version="1.0" encoding="utf-8" standalone="no"?><!DOCTYPE svg PUBLIC "-//W3C//DTD SVG 1.1//EN" "http://www.w3.org/Graphics/SVG/1.1/DTD/svg11.dtd">
<svg preserveAspectRatio="xMinYMin meet" width="100%" height="100%" viewBox="0 0 560.000 420.000"  version="1.1" xmlns="http://www.w3.org/2000/svg" xmlns:xlink="http://www.w3.org/1999/xlink">
  <desc>Matlab Figure Converted by PLOT2SVG written by Juerg Schwizer</desc>
  <g id="topgroup">
  <rect x="0" y="0" width="560.000" height="420.000" fill="#ffffff" stroke="none" />
  <g id ="ID000000">
  <clipPath id="ID000001">
    <rect x="72.800" y="31.500" width="434.000" height="328.500"/>
  </clipPath>
      <polygon fill="#ffffff" fill-opacity="1.00" stroke="none" stroke-width="0.5pt" stroke-opacity="1.00" stroke-dasharray="none" points="72.800,360.000 506.800,360.000 506.800,31.500 72.800,31.500 "/>
      <polygon fill="#ffffff" fill-opacity="1.00" stroke="none" stroke-width="0.5pt" stroke-opacity="1.00" stroke-dasharray="none" points="72.800,31.500 506.800,31.500 506.800,31.500 72.800,31.500 "/>
      <polygon fill="#ffffff" fill-opacity="1.00" stroke="none" stroke-width="0.5pt" stroke-opacity="1.00" stroke-dasharray="none" points="72.800,360.000 72.800,360.000 72.800,31.500 72.800,31.500 "/>
    <g>
<g id="ID000002" clip-path="url(#ID000001)" >
      <polyline fill="none" stroke="#0000ff" stroke-width="4.0pt" stroke-dasharray="12.8,3.2,3.2,3.2" points="74.350,197.998 75.900,197.998 77.347,197.998 78.897,200.247 80.343,202.495 81.790,202.495 83.443,204.744 84.890,204.744 86.337,204.744 87.887,209.240 89.437,209.240 90.883,211.489 92.433,213.737 93.880,215.986 95.327,218.234 97.187,220.482 98.840,222.731 100.597,224.979 102.250,229.476 104.007,231.724 105.763,233.973 107.417,236.221 109.173,236.221 110.930,238.470 112.583,238.470 114.340,240.718 115.993,240.718 117.853,240.718 119.507,240.718 121.160,240.718 122.917,242.966 124.673,242.966 126.327,245.215 128.083,245.215 129.737,245.215 131.597,247.463 133.250,247.463 134.903,247.463 136.660,247.463 138.417,247.463 140.173,247.463 141.827,247.463 143.480,247.463 145.340,247.463 146.993,247.463 148.750,247.463 150.403,247.463 152.160,247.463 153.917,247.463 155.570,245.215 157.223,245.215 159.083,245.215 160.737,245.215 162.493,242.966 164.147,240.718 165.903,236.221 167.660,233.973 169.313,229.476 171.070,224.979 172.827,220.482 174.480,215.986 176.030,211.489 177.477,209.240 179.027,204.744 180.577,202.495 182.023,197.998 183.470,193.502 185.020,191.253 186.570,184.508 188.017,182.260 189.567,175.514 191.013,171.018 192.873,164.272 194.527,159.776 196.180,155.279 197.937,150.782 199.693,146.285 201.347,141.789 203.103,139.540 204.757,135.043 206.617,132.795 208.270,128.298 209.923,123.801 211.680,121.553 213.437,117.056 215.193,112.559 216.847,110.311 218.500,108.063 220.360,105.814 222.013,101.317 223.770,99.069 225.423,99.069 227.180,96.821 228.937,94.572 230.590,92.324 232.243,90.075 234.103,90.075 235.757,87.827 237.513,85.579 239.167,83.330 240.923,78.833 242.680,76.585 244.333,76.585 246.090,74.337 247.847,72.088 249.500,69.840 251.257,69.840 252.910,65.343 254.770,65.343 256.423,65.343 258.077,60.846 259.833,60.846 261.590,60.846 263.347,60.846 265.000,60.846 266.653,58.598 268.513,58.598 270.167,58.598 271.820,60.846 273.577,58.598 275.333,58.598 277.090,58.598 278.743,58.598 280.397,58.598 282.257,58.598 283.910,58.598 285.667,58.598 287.320,58.598 289.077,58.598 290.833,58.598 292.487,58.598 294.243,58.598 296.000,58.598 297.653,58.598 299.410,58.598 301.063,58.598 302.820,58.598 304.577,58.598 306.230,58.598 307.987,58.598 309.743,56.350 311.397,58.598 313.153,56.350 314.807,58.598 316.667,58.598 318.320,58.598 319.973,56.350 321.730,58.598 323.487,58.598 325.243,58.598 326.897,58.598 328.550,58.598 330.410,58.598 332.063,56.350 333.717,56.350 335.473,58.598 337.230,58.598 338.987,58.598 340.640,58.598 342.293,58.598 344.153,58.598 345.807,58.598 347.563,58.598 349.217,58.598 350.973,58.598 352.730,58.598 354.383,56.350 356.140,58.598 357.897,58.598 359.550,58.598 361.307,56.350 362.960,56.350 364.820,58.598 366.473,56.350 368.127,56.350 369.883,58.598 371.640,58.598 373.293,58.598 375.050,56.350 376.703,58.598 378.563,58.598 380.217,58.598 381.870,56.350 383.627,58.598 385.383,58.598 387.140,58.598 388.793,58.598 390.447,58.598 392.307,58.598 393.960,58.598 395.717,60.846 397.370,58.598 399.127,58.598 400.883,58.598 402.537,60.846 404.190,58.598 406.050,58.598 407.703,58.598 409.460,60.846 411.113,60.846 412.870,60.846 414.627,60.846 416.280,60.846 418.037,60.846 419.793,60.846 421.447,60.846 423.203,60.846 424.857,60.846 426.717,60.846 428.370,60.846 430.023,60.846 431.780,60.846 433.537,60.846 435.293,60.846 436.947,60.846 438.600,60.846 440.460,60.846 442.113,63.095 443.767,63.095 445.523,65.343 447.280,65.343 449.037,65.343 450.690,65.343 452.343,67.591 454.203,69.840 455.857,72.088 457.613,74.337 459.267,76.585 461.023,78.833 462.780,81.082 464.433,83.330 466.190,85.579 467.947,90.075 469.600,92.324 471.357,96.821 473.010,101.317 474.767,105.814 476.523,112.559 478.177,121.553 479.933,128.298 481.690,132.795 483.343,137.292 485.100,141.789 486.753,146.285 488.613,148.534 490.267,153.030 491.920,159.776 493.677,164.272 495.433,168.769 497.190,175.514 498.637,177.763 500.083,180.011 501.633,182.260 503.183,184.508 504.630,184.508 506.180,186.756 507.627,189.005 509.177,193.502 510.727,195.750 512.173,200.247 513.620,204.744 515.170,206.992 516.720,211.489 518.167,213.737 519.717,215.986 521.163,215.986 522.713,215.986 524.263,218.234 525.917,218.234 527.570,218.234 529.430,218.234 531.083,218.234 532.840,218.234 534.493,220.482 536.147,220.482 538.007,222.731 539.660,222.731 541.417,222.731 543.070,224.979 544.827,224.979 "/>
<g>
</g>
</g>
<g id="ID000003" clip-path="url(#ID000001)" >
      <polyline fill="none" stroke="#007f00" stroke-width="4.0pt" stroke-dasharray="12.8,3.2" points="74.350,193.502 75.900,193.502 77.347,193.502 78.897,191.253 80.343,189.005 81.790,189.005 83.443,186.756 84.890,186.756 86.337,186.756 87.887,182.260 89.437,182.260 90.883,180.011 92.433,177.763 93.880,175.514 95.327,173.266 97.187,171.018 98.840,168.769 100.597,166.521 102.250,162.024 104.007,159.776 105.763,157.527 107.417,155.279 109.173,155.279 110.930,153.030 112.583,153.030 114.340,150.782 115.993,150.782 117.853,150.782 119.507,150.782 121.160,150.782 122.917,148.534 124.673,148.534 126.327,146.285 128.083,146.285 129.737,146.285 131.597,144.037 133.250,144.037 134.903,144.037 136.660,144.037 138.417,144.037 140.173,144.037 141.827,144.037 143.480,144.037 145.340,144.037 146.993,144.037 148.750,144.037 150.403,144.037 152.160,144.037 153.917,144.037 155.570,146.285 157.223,146.285 159.083,146.285 160.737,146.285 162.493,148.534 164.147,150.782 165.903,155.279 167.660,157.527 169.313,162.024 171.070,166.521 172.827,171.018 174.480,175.514 176.030,180.011 177.477,182.260 179.027,186.756 180.577,189.005 182.023,193.502 183.470,197.998 185.020,200.247 186.570,206.992 188.017,209.240 189.567,215.986 191.013,220.482 192.873,227.228 194.527,231.724 196.180,236.221 197.937,240.718 199.693,245.215 201.347,249.711 203.103,251.960 204.757,256.457 206.617,258.705 208.270,263.202 209.923,267.699 211.680,269.947 213.437,274.444 215.193,278.941 216.847,281.189 218.500,283.437 220.360,285.686 222.013,290.183 223.770,292.431 225.423,292.431 227.180,294.679 228.937,296.928 230.590,299.176 232.243,301.425 234.103,301.425 235.757,303.673 237.513,305.921 239.167,308.170 240.923,312.667 242.680,314.915 244.333,314.915 246.090,317.163 247.847,319.412 249.500,321.660 251.257,321.660 252.910,326.157 254.770,326.157 256.423,326.157 258.077,330.654 259.833,330.654 261.590,330.654 263.347,330.654 265.000,330.654 266.653,332.902 268.513,332.902 270.167,332.902 271.820,330.654 273.577,332.902 275.333,332.902 277.090,332.902 278.743,332.902 280.397,332.902 282.257,332.902 283.910,332.902 285.667,332.902 287.320,332.902 289.077,332.902 290.833,332.902 292.487,332.902 294.243,332.902 296.000,332.902 297.653,332.902 299.410,332.902 301.063,332.902 302.820,332.902 304.577,332.902 306.230,332.902 307.987,332.902 309.743,335.150 311.397,332.902 313.153,335.150 314.807,332.902 316.667,332.902 318.320,332.902 319.973,335.150 321.730,332.902 323.487,332.902 325.243,332.902 326.897,332.902 328.550,332.902 330.410,332.902 332.063,335.150 333.717,335.150 335.473,332.902 337.230,332.902 338.987,332.902 340.640,332.902 342.293,332.902 344.153,332.902 345.807,332.902 347.563,332.902 349.217,332.902 350.973,332.902 352.730,332.902 354.383,335.150 356.140,332.902 357.897,332.902 359.550,332.902 361.307,335.150 362.960,335.150 364.820,332.902 366.473,335.150 368.127,335.150 369.883,332.902 371.640,332.902 373.293,332.902 375.050,335.150 376.703,332.902 378.563,332.902 380.217,332.902 381.870,335.150 383.627,332.902 385.383,332.902 387.140,332.902 388.793,332.902 390.447,332.902 392.307,332.902 393.960,332.902 395.717,330.654 397.370,332.902 399.127,332.902 400.883,332.902 402.537,330.654 404.190,332.902 406.050,332.902 407.703,332.902 409.460,330.654 411.113,330.654 412.870,330.654 414.627,330.654 416.280,330.654 418.037,330.654 419.793,330.654 421.447,330.654 423.203,330.654 424.857,330.654 426.717,330.654 428.370,330.654 430.023,330.654 431.780,330.654 433.537,330.654 435.293,330.654 436.947,330.654 438.600,330.654 440.460,330.654 442.113,328.405 443.767,328.405 445.523,326.157 447.280,326.157 449.037,326.157 450.690,326.157 452.343,323.909 454.203,321.660 455.857,319.412 457.613,317.163 459.267,314.915 461.023,312.667 462.780,310.418 464.433,308.170 466.190,305.921 467.947,301.425 469.600,299.176 471.357,294.679 473.010,290.183 474.767,285.686 476.523,278.941 478.177,269.947 479.933,263.202 481.690,258.705 483.343,254.208 485.100,249.711 486.753,245.215 488.613,242.966 490.267,238.470 491.920,231.724 493.677,227.228 495.433,222.731 497.190,215.986 498.637,213.737 500.083,211.489 501.633,209.240 503.183,206.992 504.630,206.992 506.180,204.744 507.627,202.495 509.177,197.998 510.727,195.750 512.173,191.253 513.620,186.756 515.170,184.508 516.720,180.011 518.167,177.763 519.717,175.514 521.163,175.514 522.713,175.514 524.263,173.266 525.917,173.266 527.570,173.266 529.430,173.266 531.083,173.266 532.840,173.266 534.493,171.018 536.147,171.018 538.007,168.769 539.660,168.769 541.417,168.769 543.070,166.521 544.827,166.521 "/>
<g>
</g>
</g>
<g id="ID000004" >
  <g transform="translate(28.800,197.252)">
    <g transform="rotate(-90.0)">
      <text x="0.000" y="0.000" font-family="Times" text-anchor="middle" font-size="18pt" fill="#000000" >Motor Speed (rad/s)</text>
    </g>
  </g>
</g>
<g id="ID000005" >
  <g transform="translate(289.300,408.648)">
    <g transform="rotate(-0.0)">
      <text x="0.000" y="0.000" font-family="Times" text-anchor="middle" font-size="18pt" fill="#000000" >Time (s)</text>
    </g>
  </g>
</g>
<g id="ID000006" >
</g>
<g id="ID000007" >
</g>
<g id="ID000008" >
</g>
    </g>
    <g>
      <polyline fill="none" stroke="#000000" stroke-width="0.5pt" stroke-dasharray="none" points="72.800,360.000 72.800,355.660 "/>
      <polyline fill="none" stroke="#000000" stroke-width="0.5pt" stroke-dasharray="none" points="176.133,360.000 176.133,355.660 "/>
      <polyline fill="none" stroke="#000000" stroke-width="0.5pt" stroke-dasharray="none" points="279.467,360.000 279.467,355.660 "/>
      <polyline fill="none" stroke="#000000" stroke-width="0.5pt" stroke-dasharray="none" points="382.800,360.000 382.800,355.660 "/>
      <polyline fill="none" stroke="#000000" stroke-width="0.5pt" stroke-dasharray="none" points="486.133,360.000 486.133,355.660 "/>
      <polyline fill="none" stroke="#000000" stroke-width="0.5pt" stroke-dasharray="none" points="72.800,360.000 506.800,360.000 "/>
  <g transform="translate(72.800,387.810)">
    <g transform="rotate(-0.0)">
      <text x="0.000" y="0.000" font-family="Times" text-anchor="middle" font-size="18pt" fill="#000000" >0</text>
    </g>
  </g>
  <g transform="translate(176.133,387.810)">
    <g transform="rotate(-0.0)">
      <text x="0.000" y="0.000" font-family="Times" text-anchor="middle" font-size="18pt" fill="#000000" >1</text>
    </g>
  </g>
  <g transform="translate(279.467,387.810)">
    <g transform="rotate(-0.0)">
      <text x="0.000" y="0.000" font-family="Times" text-anchor="middle" font-size="18pt" fill="#000000" >2</text>
    </g>
  </g>
  <g transform="translate(382.800,387.810)">
    <g transform="rotate(-0.0)">
      <text x="0.000" y="0.000" font-family="Times" text-anchor="middle" font-size="18pt" fill="#000000" >3</text>
    </g>
  </g>
  <g transform="translate(486.133,387.810)">
    <g transform="rotate(-0.0)">
      <text x="0.000" y="0.000" font-family="Times" text-anchor="middle" font-size="18pt" fill="#000000" >4</text>
    </g>
  </g>
      <polyline fill="none" stroke="#000000" stroke-width="0.5pt" stroke-dasharray="none" points="72.800,360.000 77.140,360.000 "/>
      <polyline fill="none" stroke="#000000" stroke-width="0.5pt" stroke-dasharray="none" points="72.800,305.250 77.140,305.250 "/>
      <polyline fill="none" stroke="#000000" stroke-width="0.5pt" stroke-dasharray="none" points="72.800,250.500 77.140,250.500 "/>
      <polyline fill="none" stroke="#000000" stroke-width="0.5pt" stroke-dasharray="none" points="72.800,195.750 77.140,195.750 "/>
      <polyline fill="none" stroke="#000000" stroke-width="0.5pt" stroke-dasharray="none" points="72.800,141.000 77.140,141.000 "/>
      <polyline fill="none" stroke="#000000" stroke-width="0.5pt" stroke-dasharray="none" points="72.800,86.250 77.140,86.250 "/>
      <polyline fill="none" stroke="#000000" stroke-width="0.5pt" stroke-dasharray="none" points="72.800,31.500 77.140,31.500 "/>
      <polyline fill="none" stroke="#000000" stroke-width="0.5pt" stroke-dasharray="none" points="72.800,360.000 72.800,31.500 "/>
  <g transform="translate(64.120,368.100)">
    <g transform="rotate(-0.0)">
      <text x="0.000" y="0.000" font-family="Times" text-anchor="end" font-size="18pt" fill="#000000" >-30</text>
    </g>
  </g>
  <g transform="translate(64.120,313.350)">
    <g transform="rotate(-0.0)">
      <text x="0.000" y="0.000" font-family="Times" text-anchor="end" font-size="18pt" fill="#000000" >-20</text>
    </g>
  </g>
  <g transform="translate(64.120,258.600)">
    <g transform="rotate(-0.0)">
      <text x="0.000" y="0.000" font-family="Times" text-anchor="end" font-size="18pt" fill="#000000" >-10</text>
    </g>
  </g>
  <g transform="translate(64.120,203.850)">
    <g transform="rotate(-0.0)">
      <text x="0.000" y="0.000" font-family="Times" text-anchor="end" font-size="18pt" fill="#000000" >0</text>
    </g>
  </g>
  <g transform="translate(64.120,149.100)">
    <g transform="rotate(-0.0)">
      <text x="0.000" y="0.000" font-family="Times" text-anchor="end" font-size="18pt" fill="#000000" >10</text>
    </g>
  </g>
  <g transform="translate(64.120,94.350)">
    <g transform="rotate(-0.0)">
      <text x="0.000" y="0.000" font-family="Times" text-anchor="end" font-size="18pt" fill="#000000" >20</text>
    </g>
  </g>
  <g transform="translate(64.120,39.600)">
    <g transform="rotate(-0.0)">
      <text x="0.000" y="0.000" font-family="Times" text-anchor="end" font-size="18pt" fill="#000000" >30</text>
    </g>
  </g>
      <polyline fill="none" stroke="#000000" stroke-width="0.5pt" stroke-dasharray="none" points="72.800,360.000 72.800,356.715 "/>
      <polyline fill="none" stroke="#000000" stroke-width="0.5pt" stroke-dasharray="none" points="72.800,360.000 72.800,356.715 "/>
      <polyline fill="none" stroke="#000000" stroke-width="0.5pt" stroke-dasharray="none" points="72.800,360.000 72.800,356.715 "/>
      <polyline fill="none" stroke="#000000" stroke-width="0.5pt" stroke-dasharray="none" points="72.800,360.000 72.800,360.000 "/>
    </g>
  </g>
  <g id ="ID000009">
  <clipPath id="ID000010">
    <rect x="78.750" y="38.750" width="126.500" height="63.625"/>
  </clipPath>
      <polygon fill="#ffffff" fill-opacity="1.00" stroke="none" stroke-width="0.5pt" stroke-opacity="1.00" stroke-dasharray="none" points="78.750,102.375 205.250,102.375 205.250,38.750 78.750,38.750 "/>
      <polygon fill="#ffffff" fill-opacity="1.00" stroke="none" stroke-width="0.5pt" stroke-opacity="1.00" stroke-dasharray="none" points="78.750,38.750 205.250,38.750 205.250,38.750 78.750,38.750 "/>
      <polygon fill="#ffffff" fill-opacity="1.00" stroke="none" stroke-width="0.5pt" stroke-opacity="1.00" stroke-dasharray="none" points="78.750,102.375 78.750,102.375 78.750,38.750 78.750,38.750 "/>
    <g>
<g id="ID000011" >
  <g transform="translate(128.446,64.524)">
    <g transform="rotate(-0.0)">
      <text x="0.000" y="0.000" font-family="Times" text-anchor="start" font-size="18pt" fill="#000000" >Motor 1</text>
    </g>
  </g>
</g>
<g id="ID000012" clip-path="url(#ID000010)" >
      <polyline fill="none" stroke="#0000ff" stroke-width="4.0pt" stroke-dasharray="12.8,3.2,3.2,3.2" points="86.250,55.750 123.750,55.750 "/>
<g>
</g>
</g>
<g id="ID000013" clip-path="url(#ID000010)" >
<g>
</g>
</g>
<g id="ID000014" >
  <g transform="translate(128.446,94.821)">
    <g transform="rotate(-0.0)">
      <text x="0.000" y="0.000" font-family="Times" text-anchor="start" font-size="18pt" fill="#000000" >Motor 2</text>
    </g>
  </g>
</g>
<g id="ID000015" clip-path="url(#ID000010)" >
      <polyline fill="none" stroke="#007f00" stroke-width="4.0pt" stroke-dasharray="12.8,3.2" points="86.250,85.375 123.750,85.375 "/>
<g>
</g>
</g>
<g id="ID000016" clip-path="url(#ID000010)" >
<g>
</g>
</g>
<g id="ID000017" >
</g>
<g id="ID000018" >
</g>
<g id="ID000019" >
</g>
    </g>
    <g>
      <polyline fill="none" stroke="#000000" stroke-width="0.5pt" stroke-dasharray="none" points="78.750,102.375 205.250,102.375 "/>
      <polyline fill="none" stroke="#000000" stroke-width="0.5pt" stroke-dasharray="none" points="78.750,38.750 205.250,38.750 "/>
      <polyline fill="none" stroke="#000000" stroke-width="0.5pt" stroke-dasharray="none" points="78.750,102.375 78.750,38.750 "/>
      <polyline fill="none" stroke="#000000" stroke-width="0.5pt" stroke-dasharray="none" points="205.250,102.375 205.250,38.750 "/>
      <polyline fill="none" stroke="#000000" stroke-width="0.5pt" stroke-dasharray="none" points="78.750,102.375 78.750,101.739 "/>
      <polyline fill="none" stroke="#000000" stroke-width="0.5pt" stroke-dasharray="none" points="78.750,102.375 78.750,102.375 "/>
    </g>
  </g>
  <g id ="ID000020">
  <clipPath id="ID000021">
    <rect x="72.800" y="31.500" width="434.000" height="328.500"/>
  </clipPath>
      <polygon fill="#000000" fill-opacity="0.00" stroke="none" stroke-width="0.5pt" stroke-opacity="1.00" stroke-dasharray="none" points="72.800,360.000 506.800,360.000 506.800,31.500 72.800,31.500 "/>
      <polygon fill="#000000" fill-opacity="0.00" stroke="none" stroke-width="0.5pt" stroke-opacity="1.00" stroke-dasharray="none" points="72.800,360.000 506.800,360.000 506.800,360.000 72.800,360.000 "/>
      <polygon fill="#000000" fill-opacity="0.00" stroke="none" stroke-width="0.5pt" stroke-opacity="1.00" stroke-dasharray="none" points="72.800,360.000 72.800,360.000 72.800,31.500 72.800,31.500 "/>
    <g>
<g id="ID000022" >
  <g transform="translate(550.400,197.252)">
    <g transform="rotate(-90.0)">
      <text x="0.000" y="0.000" font-family="Times" text-anchor="middle" font-size="18pt" fill="#000000" >Force on Cart (N)</text>
    </g>
  </g>
</g>
<g id="ID000023" clip-path="url(#ID000021)" >
      <polyline fill="none" stroke="#ff0000" stroke-width="2.0pt" stroke-dasharray="none" points="72.800,246.255 73.145,246.255 73.490,246.255 73.834,246.255 74.179,246.255 74.524,246.255 74.869,246.255 75.214,246.255 75.558,246.255 75.903,246.255 76.248,246.255 76.593,246.255 76.937,246.255 77.282,246.255 77.627,246.255 77.972,246.255 78.317,246.255 78.661,246.255 79.006,246.255 79.351,246.255 79.696,246.255 80.041,246.255 80.385,246.255 80.730,246.255 81.075,246.255 81.420,246.255 81.765,246.255 82.109,246.255 82.454,246.255 82.799,246.255 83.144,246.255 83.488,246.255 83.833,246.255 84.178,246.255 84.523,246.255 84.868,246.255 85.212,246.255 85.557,246.255 85.902,246.255 86.247,246.255 86.592,246.255 86.936,246.255 87.281,246.255 87.626,246.255 87.971,246.255 88.316,246.255 88.660,246.255 89.005,246.255 89.350,246.255 89.695,246.255 90.039,246.255 90.384,246.255 90.729,246.255 91.074,246.255 91.419,246.255 91.763,246.255 92.108,246.255 92.453,246.255 92.798,246.255 93.143,246.255 93.487,246.255 93.832,246.255 94.177,246.255 94.522,246.255 94.866,246.255 95.211,246.255 95.556,246.255 95.901,246.255 96.246,246.255 96.590,246.255 96.935,246.255 97.280,246.255 97.625,246.255 97.970,246.255 98.314,246.255 98.659,246.255 99.004,246.255 99.349,246.255 99.694,246.255 100.038,246.255 100.383,246.255 100.728,246.255 101.073,246.255 101.417,246.255 101.762,246.255 102.107,246.255 102.452,246.255 102.797,246.255 103.141,246.255 103.486,246.255 103.831,246.255 104.176,246.255 104.521,246.255 104.865,246.255 105.210,246.255 105.555,246.255 105.900,246.255 106.245,246.255 106.589,246.255 106.934,246.255 107.279,245.480 107.624,245.366 107.968,245.524 108.313,245.947 108.658,246.632 109.003,247.574 109.348,248.467 109.692,249.317 110.037,250.128 110.382,250.905 110.727,251.653 111.072,252.633 111.416,253.584 111.761,254.497 112.106,255.360 112.451,256.163 112.796,256.624 113.140,256.996 113.485,257.286 113.830,257.498 114.175,257.637 114.519,257.781 114.864,257.947 115.209,258.140 115.554,258.363 115.899,258.619 116.243,258.841 116.588,258.861 116.933,258.679 117.278,258.295 117.623,257.710 117.967,257.231 118.312,256.729 118.657,256.193 119.002,255.609 119.346,254.964 119.691,253.972 120.036,252.929 120.381,251.838 120.726,250.705 121.070,249.534 121.415,248.423 121.760,247.500 122.105,246.772 122.450,246.245 122.794,245.925 123.139,245.844 123.484,245.579 123.829,245.123 124.174,244.469 124.518,243.610 124.863,242.725 125.208,242.319 125.553,242.395 125.897,242.954 126.242,244.001 126.587,245.201 126.932,246.012 127.277,246.431 127.621,246.455 127.966,246.080 128.311,245.597 128.656,245.347 129.001,245.328 129.345,245.537 129.690,245.973 130.035,246.257 130.380,246.336 130.725,246.216 131.069,245.907 131.414,245.417 131.759,245.105 132.104,244.989 132.448,245.069 132.793,245.341 133.138,245.804 133.483,246.124 133.828,246.087 134.172,245.696 134.517,244.952 134.862,243.856 135.207,242.550 135.552,241.233 135.896,239.908 136.241,238.580 136.586,237.251 136.931,236.117 137.276,235.185 137.620,234.453 137.965,233.919 138.310,233.579 138.655,233.175 138.999,232.724 139.344,232.232 139.689,231.705 140.034,231.150 140.379,230.785 140.723,230.576 141.068,230.525 141.413,230.628 141.758,230.886 142.103,231.391 142.447,231.894 142.792,232.384 143.137,232.850 143.482,233.280 143.827,233.355 144.171,233.350 144.516,233.273 144.861,233.129 145.206,232.926 145.550,232.837 145.895,232.818 146.240,232.870 146.585,232.992 146.930,233.186 147.274,233.278 147.619,233.323 147.964,233.328 148.309,233.299 148.654,233.246 148.998,233.338 149.343,233.576 149.688,233.960 150.033,234.494 150.377,235.179 150.722,236.119 151.067,236.763 151.412,237.092 151.757,237.090 152.101,236.740 152.446,235.755 152.791,234.667 153.136,233.481 153.481,232.205 153.825,230.844 154.170,229.407 154.515,227.911 154.860,226.363 155.205,224.772 155.549,223.142 155.894,221.681 156.239,220.437 156.584,219.412 156.928,218.610 157.273,218.032 157.618,217.703 157.963,217.509 158.308,217.447 158.652,217.517 158.997,217.718 159.342,217.951 159.687,218.008 160.032,217.886 160.376,217.579 160.721,217.082 161.066,216.445 161.411,215.973 161.756,215.668 162.100,215.535 162.445,215.576 162.790,215.621 163.135,215.655 163.479,215.687 163.824,215.724 164.169,215.775 164.514,215.863 164.859,215.705 165.203,215.301 165.548,214.648 165.893,213.745 166.238,212.834 166.583,212.183 166.927,211.793 167.272,211.662 167.617,211.790 167.962,212.097 168.307,212.250 168.651,212.239 168.996,212.058 169.341,211.699 169.686,211.180 170.030,210.551 170.375,209.805 170.720,208.935 171.065,207.935 171.410,206.330 171.754,204.429 172.099,202.249 172.444,199.803 172.789,197.109 173.134,194.995 173.478,193.499 173.823,192.614 174.168,192.332 174.513,192.647 174.858,192.989 175.202,193.298 175.547,193.582 175.892,193.850 176.237,194.109 176.581,194.263 176.926,194.000 177.271,193.323 177.616,192.232 177.961,190.729 178.305,188.931 178.650,187.146 178.995,185.379 179.340,183.639 179.685,181.932 180.029,180.537 180.374,179.186 180.719,177.871 181.064,176.583 181.408,175.313 181.753,173.774 182.098,172.245 182.443,170.734 182.788,169.247 183.132,167.793 183.477,166.428 183.822,165.084 184.167,163.764 184.512,162.472 184.856,161.213 185.201,159.946 185.546,158.749 185.891,157.630 186.236,156.595 186.580,155.651 186.925,155.075 187.270,154.549 187.615,154.063 187.959,153.606 188.304,153.168 188.649,152.482 188.994,151.828 189.339,151.212 189.683,150.640 190.028,150.118 190.373,149.575 190.718,148.923 191.063,148.168 191.407,147.315 191.752,146.370 192.097,145.716 192.442,145.322 192.787,145.181 193.131,145.284 193.476,145.626 193.821,145.612 194.166,145.062 194.510,143.978 194.855,142.367 195.200,140.232 195.545,138.118 195.890,136.361 196.234,134.957 196.579,133.904 196.924,133.202 197.269,132.676 197.614,132.026 197.958,131.248 198.303,130.334 198.648,129.281 198.993,127.831 199.338,126.377 199.682,124.930 200.027,123.504 200.372,122.113 200.717,121.410 201.061,121.023 201.406,120.938 201.751,121.136 202.096,121.603 202.441,121.476 202.785,121.106 203.130,120.514 203.475,119.718 203.820,118.737 204.165,118.060 204.509,117.551 204.854,117.208 205.199,117.033 205.544,117.025 205.889,117.144 206.233,117.194 206.578,117.168 206.923,117.064 207.268,116.876 207.612,116.361 207.957,115.788 208.302,115.166 208.647,114.507 208.992,113.821 209.336,113.466 209.681,113.225 210.026,113.090 210.371,113.055 210.716,113.112 211.060,113.063 211.405,112.809 211.750,112.345 212.095,111.668 212.440,110.774 212.784,109.690 213.129,108.730 213.474,107.898 213.819,107.198 214.163,106.634 214.508,105.996 214.853,105.122 215.198,104.018 215.543,102.688 215.887,101.139 216.232,99.893 216.577,99.119 216.922,98.812 217.267,98.966 217.611,99.577 217.956,100.324 218.301,101.041 218.646,101.728 218.990,102.384 219.335,103.008 219.680,103.528 220.025,103.839 220.370,103.940 220.714,103.829 221.059,103.504 221.404,102.852 221.749,102.153 222.094,101.414 222.438,100.645 222.783,99.855 223.128,99.509 223.473,99.601 223.818,100.128 224.162,101.085 224.507,102.467 224.852,104.008 225.197,105.508 225.541,106.964 225.886,108.375 226.231,109.736 226.576,110.992 226.921,112.121 227.265,113.121 227.610,113.990 227.955,114.726 228.300,115.405 228.645,116.124 228.989,116.881 229.334,117.675 229.679,118.502 230.024,119.306 230.369,120.031 230.713,120.677 231.058,121.241 231.403,121.721 231.748,122.115 232.092,122.599 232.437,123.178 232.782,123.855 233.127,124.633 233.472,125.438 233.816,126.258 234.161,127.100 234.506,127.968 234.851,128.869 235.196,130.089 235.540,131.375 235.885,132.718 236.230,134.106 236.575,135.529 236.920,136.704 237.264,137.710 237.609,138.547 237.954,139.215 238.299,139.713 238.643,139.965 238.988,139.946 239.333,139.656 239.678,139.097 240.023,138.270 240.367,137.392 240.712,136.938 241.057,136.917 241.402,137.337 241.747,138.207 242.091,139.666 242.436,140.880 242.781,141.831 243.126,142.497 243.470,142.859 243.815,142.496 244.160,141.979 244.505,141.316 244.850,140.516 245.194,139.587 245.539,138.645 245.884,137.802 246.229,137.067 246.574,136.448 246.918,135.952 247.263,135.703 247.608,135.587 247.953,135.603 248.298,135.755 248.642,136.043 248.987,136.209 249.332,135.983 249.677,135.365 250.021,134.356 250.366,132.957 250.711,131.703 251.056,130.862 251.401,130.428 251.745,130.394 252.090,130.752 252.435,130.927 252.780,130.878 253.125,130.613 253.469,130.142 253.814,129.471 254.159,128.788 254.504,128.140 254.849,127.530 255.193,126.962 255.538,126.441 255.883,126.054 256.228,125.525 256.572,124.847 256.917,124.015 257.262,123.019 257.607,121.897 257.952,120.905 258.296,120.043 258.641,119.309 258.986,118.704 259.331,118.289 259.676,118.142 260.020,118.262 260.365,118.649 260.710,119.303 261.055,119.860 261.400,119.937 261.744,119.535 262.089,118.653 262.434,117.290 262.779,115.678 263.123,114.413 263.468,113.504 263.813,112.961 264.158,112.793 264.503,112.957 264.847,112.908 265.192,112.639 265.537,112.145 265.882,111.421 266.227,110.522 266.571,109.617 266.916,108.705 267.261,107.783 267.606,106.848 267.951,106.049 268.295,105.636 268.640,105.611 268.985,105.973 269.330,106.724 269.674,107.624 270.019,108.024 270.364,107.911 270.709,107.275 271.054,106.102 271.398,104.609 271.743,103.647 272.088,103.223 272.433,103.343 272.778,104.015 273.122,104.770 273.467,105.144 273.812,105.144 274.157,104.776 274.501,104.048 274.846,103.373 275.191,102.788 275.536,102.288 275.881,101.869 276.225,101.525 276.570,101.036 276.915,100.649 277.260,100.373 277.605,100.218 277.949,100.193 278.294,100.481 278.639,100.727 278.984,100.924 279.329,101.065 279.673,101.144 280.018,101.349 280.363,101.865 280.708,102.685 281.052,103.804 281.397,105.214 281.742,106.466 282.087,107.533 282.432,108.423 282.776,109.138 283.121,109.686 283.466,110.333 283.811,111.296 284.156,112.579 284.500,114.187 284.845,116.124 285.190,118.205 285.535,119.905 285.880,121.219 286.224,122.140 286.569,122.662 286.914,122.983 287.259,123.415 287.603,123.956 287.948,124.601 288.293,125.347 288.638,125.973 288.983,126.554 289.327,127.097 289.672,127.608 290.017,128.091 290.362,128.951 290.707,130.293 291.051,132.114 291.396,134.411 291.741,137.182 292.086,139.914 292.431,142.151 292.775,143.892 293.120,145.134 293.465,145.876 293.810,146.409 294.154,146.990 294.499,147.616 294.844,148.285 295.189,148.993 295.534,149.461 295.878,149.748 296.223,149.862 296.568,149.809 296.913,149.596 297.258,149.217 297.602,148.596 297.947,147.739 298.292,146.650 298.637,145.332 298.982,144.160 299.326,143.186 299.671,142.404 300.016,141.808 300.361,141.395 300.705,140.819 301.050,140.087 301.395,139.206 301.740,138.178 302.085,137.010 302.429,135.990 302.774,135.195 303.119,134.624 303.464,134.275 303.809,134.148 304.153,134.213 304.498,134.180 304.843,134.039 305.188,133.782 305.532,133.399 305.877,132.735 306.222,132.065 306.567,131.394 306.912,130.723 307.256,130.057 307.601,129.246 307.946,128.378 308.291,127.463 308.636,126.510 308.980,125.528 309.325,124.863 309.670,124.290 310.015,123.801 310.360,123.391 310.704,123.052 311.049,122.724 311.394,122.267 311.739,121.672 312.083,120.928 312.428,120.027 312.773,118.973 313.118,118.169 313.463,117.617 313.807,117.318 314.152,117.275 314.497,117.415 314.842,117.632 315.187,117.927 315.531,118.302 315.876,118.758 316.221,119.074 316.566,119.143 316.911,118.966 317.255,118.550 317.600,117.898 317.945,117.303 318.290,117.026 318.634,117.072 318.979,117.442 319.324,118.142 319.669,118.904 320.014,119.189 320.358,118.993 320.703,118.311 321.048,117.137 321.393,115.814 321.738,114.911 322.082,114.429 322.427,114.370 322.772,114.735 323.117,115.226 323.462,115.669 323.806,116.070 324.151,116.434 324.496,116.765 324.841,117.248 325.185,117.796 325.530,118.405 325.875,119.074 326.220,119.799 326.565,120.295 326.909,120.524 327.254,120.490 327.599,120.197 327.944,119.648 328.289,119.344 328.633,119.208 328.978,119.228 329.323,119.390 329.668,119.681 330.013,119.523 330.357,119.299 330.702,119.021 331.047,118.705 331.392,118.366 331.736,118.307 332.081,118.291 332.426,118.317 332.771,118.386 333.116,118.496 333.460,118.624 333.805,118.824 334.150,119.097 334.495,119.445 334.840,119.868 335.184,120.189 335.529,120.353 335.874,120.363 336.219,120.224 336.563,119.941 336.908,119.381 337.253,118.399 337.598,116.997 337.943,115.180 338.287,112.949 338.632,110.786 338.977,108.927 339.322,107.367 339.667,106.102 340.011,105.128 340.356,104.253 340.701,103.243 341.046,102.093 341.391,100.798 341.735,99.353 342.080,97.690 342.425,96.294 342.770,95.176 343.114,94.348 343.459,93.819 343.804,93.795 344.149,93.863 344.494,94.014 344.838,94.241 345.183,94.535 345.528,94.880 345.873,95.491 346.218,96.367 346.562,97.508 346.907,98.913 347.252,100.245 347.597,101.334 347.942,102.184 348.286,102.799 348.631,103.182 348.976,103.538 349.321,103.665 349.665,103.553 350.010,103.195 350.355,102.581 350.700,101.608 351.045,100.724 351.389,99.939 351.734,99.259 352.079,98.691 352.424,98.332 352.769,97.918 353.113,97.446 353.458,96.912 353.803,96.313 354.148,95.639 354.493,95.082 354.837,94.643 355.182,94.325 355.527,94.131 355.872,93.953 356.216,93.587 356.561,93.032 356.906,92.287 357.251,91.352 357.596,90.433 357.940,89.748 358.285,89.299 358.630,89.084 358.975,89.102 359.320,89.203 359.664,88.981 360.009,88.427 360.354,87.533 360.699,86.292 361.044,84.486 361.388,82.638 361.733,80.761 362.078,78.867 362.423,76.970 362.767,75.433 363.112,73.958 363.457,72.537 363.802,71.165 364.147,69.836 364.491,68.285 364.836,66.799 365.181,65.388 365.526,64.062 365.871,62.829 366.215,61.888 366.560,61.256 366.905,60.937 367.250,60.935 367.595,61.254 367.939,61.857 368.284,62.367 368.629,62.780 368.974,63.088 369.318,63.287 369.663,63.587 370.008,64.325 370.353,65.497 370.698,67.103 371.042,69.139 371.387,71.314 371.732,73.343 372.077,75.223 372.422,76.952 372.766,78.528 373.111,79.865 373.456,80.988 373.801,81.900 374.145,82.600 374.490,83.090 374.835,83.700 375.180,84.569 375.525,85.694 375.869,87.069 376.214,88.690 376.559,89.860 376.904,90.752 377.249,91.387 377.593,91.783 377.938,91.961 378.283,92.557 378.628,93.226 378.973,93.961 379.317,94.750 379.662,95.587 380.007,96.256 380.352,96.810 380.696,97.247 381.041,97.565 381.386,97.763 381.731,97.866 382.076,97.857 382.420,97.732 382.765,97.488 383.110,97.121 383.455,96.563 383.800,95.889 384.144,95.100 384.489,94.196 384.834,93.178 385.179,92.311 385.524,91.814 385.868,91.687 386.213,91.930 386.558,92.540 386.903,93.062 387.247,93.212 387.592,92.993 387.937,92.409 388.282,91.465 388.627,90.486 388.971,89.743 389.316,89.239 389.661,88.975 390.006,88.953 390.351,89.358 390.695,89.829 391.040,90.351 391.385,90.909 391.730,91.491 392.075,91.817 392.419,92.192 392.764,92.618 393.109,93.098 393.454,93.635 393.798,94.195 394.143,94.597 394.488,94.842 394.833,94.926 395.178,94.848 395.522,94.596 395.867,94.459 396.212,94.442 396.557,94.554 396.902,94.801 397.246,95.132 397.591,95.044 397.936,94.531 398.281,93.587 398.625,92.203 398.970,90.549 399.315,89.194 399.660,88.141 400.005,87.396 400.349,86.963 400.694,86.490 401.039,85.699 401.384,84.594 401.729,83.183 402.073,81.472 402.418,79.904 402.763,78.495 403.108,77.237 403.453,76.124 403.797,75.150 404.142,74.171 404.487,73.370 404.832,72.748 405.176,72.309 405.521,72.057 405.866,72.022 406.211,72.347 406.556,73.038 406.900,74.101 407.245,75.544 407.590,77.118 407.935,78.345 408.280,79.225 408.624,79.756 408.969,79.940 409.314,80.067 409.659,80.324 410.004,80.704 410.348,81.205 410.693,81.823 411.038,82.240 411.383,82.525 411.727,82.685 412.072,82.728 412.417,82.659 412.762,82.782 413.107,82.892 413.451,82.981 413.796,83.040 414.141,83.063 414.486,82.961 414.831,82.740 415.175,82.394 415.520,81.917 415.865,81.304 416.210,80.380 416.555,79.490 416.899,78.644 417.244,77.851 417.589,77.120 417.934,76.691 418.278,76.360 418.623,76.123 418.968,75.974 419.313,75.911 419.658,75.597 420.002,75.135 420.347,74.534 420.692,73.803 421.037,72.950 421.382,72.259 421.726,71.638 422.071,71.084 422.416,70.595 422.761,70.168 423.106,69.645 423.450,69.035 423.795,68.340 424.140,67.562 424.485,66.702 424.829,65.891 425.174,65.240 425.519,64.749 425.864,64.419 426.209,64.251 426.553,64.049 426.898,63.606 427.243,62.922 427.588,61.998 427.933,60.833 428.277,59.508 428.622,58.177 428.967,56.840 429.312,55.500 429.656,54.158 430.001,53.056 430.346,52.402 430.691,52.197 431.036,52.442 431.380,53.137 431.725,53.965 432.070,54.576 432.415,54.969 432.760,55.144 433.104,55.100 433.449,55.095 433.794,55.384 434.139,55.967 434.484,56.843 434.828,58.012 435.173,59.151 435.518,60.076 435.863,60.789 436.207,61.293 436.552,61.592 436.897,61.745 437.242,61.797 437.587,61.750 437.931,61.605 438.276,61.366 438.621,61.047 438.966,60.427 439.311,59.499 439.655,58.258 440.000,56.699 440.345,55.058 440.690,53.622 441.035,52.384 441.379,51.341 441.724,50.488 442.069,49.561 442.414,48.651 442.758,47.763 443.103,46.903 443.448,46.077 443.793,45.353 444.138,44.395 444.482,43.197 444.827,41.753 445.172,40.054 445.517,38.256 445.862,37.058 446.206,36.468 446.551,36.497 446.896,37.152 447.241,38.239 447.586,39.138 447.930,39.847 448.275,40.362 448.620,40.681 448.965,40.735 449.309,40.734 449.654,40.683 449.999,40.586 450.344,40.447 450.689,40.264 451.033,40.012 451.378,39.697 451.723,39.320 452.068,38.886 452.413,38.740 452.757,38.942 453.102,39.489 453.447,40.374 453.792,41.593 454.137,42.841 454.481,43.851 454.826,44.618 455.171,45.138 455.516,45.407 455.860,45.437 456.205,45.692 456.550,46.182 456.895,46.914 457.240,47.898 457.584,49.131 457.929,50.290 458.274,51.374 458.619,52.381 458.964,53.312 459.308,54.171 459.653,54.769 459.998,55.098 460.343,55.151 460.688,54.921 461.032,54.750 461.377,54.892 461.722,55.337 462.067,56.073 462.411,57.092 462.756,58.006 463.101,58.853 463.446,59.636 463.791,60.358 464.135,61.020 464.480,61.654 464.825,62.272 465.170,62.876 465.515,63.467 465.859,64.046 466.204,64.890 466.549,66.051 466.894,67.524 467.238,69.304 467.583,71.386 467.928,73.488 468.273,75.432 468.618,77.217 468.962,78.839 469.307,80.298 469.652,81.565 469.997,83.005 470.342,84.627 470.686,86.441 471.031,88.456 471.376,91.010 471.721,93.652 472.066,96.370 472.410,99.148 472.755,101.973 473.100,104.495 473.445,106.851 473.789,109.041 474.134,111.066 474.479,112.926 474.824,114.567 475.169,115.962 475.513,117.112 475.858,118.016 476.203,118.675 476.548,120.466 476.893,123.608 477.237,128.070 477.582,133.819 477.927,140.821 478.272,146.719 478.617,151.249 478.961,154.440 479.306,156.319 479.651,156.915 479.996,158.671 480.340,161.864 480.685,166.458 481.030,172.420 481.375,179.713 481.720,186.579 482.064,192.731 482.409,198.177 482.754,202.928 483.099,206.991 483.444,210.713 483.788,214.172 484.133,217.370 484.478,220.306 484.823,222.979 485.168,225.969 485.512,229.429 485.857,233.348 486.202,237.713 486.547,242.515 486.891,246.831 487.236,250.440 487.581,253.350 487.926,255.569 488.271,257.106 488.615,258.299 488.960,259.486 489.305,260.678 489.650,261.881 489.995,263.104 490.339,265.080 490.684,267.511 491.029,270.375 491.374,273.651 491.719,277.316 492.063,280.234 492.408,282.574 492.753,284.354 493.098,285.589 493.442,286.297 493.787,287.621 494.132,289.411 494.477,291.643 494.822,294.297 495.166,297.351 495.511,299.720 495.856,301.617 496.201,303.059 496.546,304.062 496.890,304.644 497.235,304.878 497.580,304.696 497.925,304.110 498.269,303.132 498.614,301.774 498.959,300.965 499.304,300.442 499.649,300.181 499.993,300.160 500.338,300.356 500.683,300.045 501.028,299.553 501.373,298.888 501.717,298.058 502.062,297.072 502.407,295.764 502.752,293.884 503.097,291.435 503.441,288.424 503.786,284.855 504.131,281.586 504.476,278.927 504.820,276.867 505.165,275.396 505.510,274.502 505.855,273.270 506.200,271.659 506.544,269.683 506.889,267.357 507.234,264.696 507.579,262.657 507.924,261.211 508.268,260.346 508.613,260.046 508.958,260.300 509.303,260.234 509.648,260.234 509.992,260.234 510.337,260.234 510.682,260.234 511.027,260.234 511.371,260.234 511.716,260.234 512.061,260.234 512.406,260.234 512.751,260.234 513.095,260.234 513.440,260.234 513.785,260.234 514.130,260.234 514.475,260.234 514.819,260.234 515.164,260.234 515.509,260.234 515.854,260.234 516.199,260.234 516.543,260.234 516.888,260.234 517.233,260.234 517.578,260.234 517.922,260.234 518.267,260.234 518.612,260.234 518.957,260.234 519.302,260.234 519.646,260.234 519.991,260.234 520.336,260.234 520.681,260.234 521.026,260.234 521.370,260.234 521.715,260.234 522.060,260.234 522.405,260.234 522.750,260.234 523.094,260.234 523.439,260.234 523.784,260.234 524.129,260.234 524.473,260.234 524.818,260.234 525.163,260.234 525.508,260.234 525.853,260.234 526.197,260.234 526.542,260.234 526.887,260.234 527.232,260.234 527.577,260.234 527.921,260.234 528.266,260.234 528.611,260.234 528.956,260.234 529.300,260.234 529.645,260.234 529.990,260.234 530.335,260.234 530.680,260.234 531.024,260.234 531.369,260.234 531.714,260.234 532.059,260.234 532.404,260.234 532.748,260.234 533.093,260.234 533.438,260.234 533.783,260.234 534.128,260.234 534.472,260.234 534.817,260.234 535.162,260.234 535.507,260.234 535.851,260.234 536.196,260.234 536.541,260.234 536.886,260.234 537.231,260.234 537.575,260.234 537.920,260.234 538.265,260.234 538.610,260.234 538.955,260.234 539.299,260.234 539.644,260.234 539.989,260.234 540.334,260.234 540.679,260.234 541.023,260.234 541.368,260.234 541.713,260.234 542.058,260.234 542.402,260.234 542.747,260.234 543.092,260.234 543.437,260.234 "/>
<g>
</g>
</g>
<g id="ID000024" >
</g>
<g id="ID000025" >
</g>
<g id="ID000026" >
</g>
<g id="ID000027" >
</g>
    </g>
    <g>
      <polyline fill="none" stroke="#000000" stroke-width="0.5pt" stroke-dasharray="none" points="72.800,360.000 506.800,360.000 "/>
      <polyline fill="none" stroke="#000000" stroke-width="0.5pt" stroke-dasharray="none" points="506.800,336.536 502.460,336.536 "/>
      <polyline fill="none" stroke="#000000" stroke-width="0.5pt" stroke-dasharray="none" points="506.800,289.607 502.460,289.607 "/>
      <polyline fill="none" stroke="#000000" stroke-width="0.5pt" stroke-dasharray="none" points="506.800,242.679 502.460,242.679 "/>
      <polyline fill="none" stroke="#000000" stroke-width="0.5pt" stroke-dasharray="none" points="506.800,195.750 502.460,195.750 "/>
      <polyline fill="none" stroke="#000000" stroke-width="0.5pt" stroke-dasharray="none" points="506.800,148.821 502.460,148.821 "/>
      <polyline fill="none" stroke="#000000" stroke-width="0.5pt" stroke-dasharray="none" points="506.800,101.893 502.460,101.893 "/>
      <polyline fill="none" stroke="#000000" stroke-width="0.5pt" stroke-dasharray="none" points="506.800,54.964 502.460,54.964 "/>
      <polyline fill="none" stroke="#000000" stroke-width="0.5pt" stroke-dasharray="none" points="506.800,360.000 506.800,31.500 "/>
  <g transform="translate(515.480,344.636)">
    <g transform="rotate(-0.0)">
      <text x="0.000" y="0.000" font-family="Times" text-anchor="start" font-size="18pt" fill="#000000" >-6</text>
    </g>
  </g>
  <g transform="translate(515.480,297.707)">
    <g transform="rotate(-0.0)">
      <text x="0.000" y="0.000" font-family="Times" text-anchor="start" font-size="18pt" fill="#000000" >-4</text>
    </g>
  </g>
  <g transform="translate(515.480,250.779)">
    <g transform="rotate(-0.0)">
      <text x="0.000" y="0.000" font-family="Times" text-anchor="start" font-size="18pt" fill="#000000" >-2</text>
    </g>
  </g>
  <g transform="translate(515.480,203.850)">
    <g transform="rotate(-0.0)">
      <text x="0.000" y="0.000" font-family="Times" text-anchor="start" font-size="18pt" fill="#000000" >0</text>
    </g>
  </g>
  <g transform="translate(515.480,156.921)">
    <g transform="rotate(-0.0)">
      <text x="0.000" y="0.000" font-family="Times" text-anchor="start" font-size="18pt" fill="#000000" >2</text>
    </g>
  </g>
  <g transform="translate(515.480,109.993)">
    <g transform="rotate(-0.0)">
      <text x="0.000" y="0.000" font-family="Times" text-anchor="start" font-size="18pt" fill="#000000" >4</text>
    </g>
  </g>
  <g transform="translate(515.480,63.064)">
    <g transform="rotate(-0.0)">
      <text x="0.000" y="0.000" font-family="Times" text-anchor="start" font-size="18pt" fill="#000000" >6</text>
    </g>
  </g>
      <polyline fill="none" stroke="#000000" stroke-width="0.5pt" stroke-dasharray="none" points="72.800,360.000 72.800,356.715 "/>
      <polyline fill="none" stroke="#000000" stroke-width="0.5pt" stroke-dasharray="none" points="72.800,360.000 72.800,356.715 "/>
      <polyline fill="none" stroke="#000000" stroke-width="0.5pt" stroke-dasharray="none" points="72.800,360.000 72.800,356.715 "/>
      <polyline fill="none" stroke="#000000" stroke-width="0.5pt" stroke-dasharray="none" points="72.800,360.000 72.800,360.000 "/>
  <g transform="translate(72.800,18.000)">
    <g transform="rotate(-0.0)">
      <text x="0.000" y="0.000" font-family="Times" text-anchor="start" font-size="18pt" fill="#000000" >&#215; 10<tspan font-size="12.6pt" dy="-12.6pt">-3</tspan></text>
    </g>
  </g>
    </g>
  </g>
  <g id ="ID000028">
  <clipPath id="ID000029">
    <rect x="396.750" y="38.750" width="104.500" height="34.000"/>
  </clipPath>
      <polygon fill="#cccccc" fill-opacity="1.00" stroke="none" stroke-width="0.5pt" stroke-opacity="1.00" stroke-dasharray="none" points="396.750,72.750 501.250,72.750 501.250,38.750 396.750,38.750 "/>
      <polygon fill="#cccccc" fill-opacity="1.00" stroke="none" stroke-width="0.5pt" stroke-opacity="1.00" stroke-dasharray="none" points="396.750,38.750 501.250,38.750 501.250,38.750 396.750,38.750 "/>
      <polygon fill="#cccccc" fill-opacity="1.00" stroke="none" stroke-width="0.5pt" stroke-opacity="1.00" stroke-dasharray="none" points="396.750,72.750 396.750,72.750 396.750,38.750 396.750,38.750 "/>
    <g>
<g id="ID000030" >
  <g transform="translate(446.488,64.350)">
    <g transform="rotate(-0.0)">
      <text x="0.000" y="0.000" font-family="Times" text-anchor="start" font-size="18pt" fill="#000000" >Force</text>
    </g>
  </g>
</g>
<g id="ID000031" clip-path="url(#ID000029)" >
      <polyline fill="none" stroke="#ff0000" stroke-width="2.0pt" stroke-dasharray="none" points="404.250,55.750 441.750,55.750 "/>
<g>
</g>
</g>
<g id="ID000032" clip-path="url(#ID000029)" >
<g>
</g>
</g>
<g id="ID000033" >
</g>
<g id="ID000034" >
</g>
<g id="ID000035" >
</g>
    </g>
    <g>
      <polyline fill="none" stroke="#000000" stroke-width="0.5pt" stroke-dasharray="none" points="396.750,72.750 501.250,72.750 "/>
      <polyline fill="none" stroke="#000000" stroke-width="0.5pt" stroke-dasharray="none" points="396.750,38.750 501.250,38.750 "/>
      <polyline fill="none" stroke="#000000" stroke-width="0.5pt" stroke-dasharray="none" points="396.750,72.750 396.750,38.750 "/>
      <polyline fill="none" stroke="#000000" stroke-width="0.5pt" stroke-dasharray="none" points="501.250,72.750 501.250,38.750 "/>
      <polyline fill="none" stroke="#000000" stroke-width="0.5pt" stroke-dasharray="none" points="396.750,72.750 396.750,72.410 "/>
      <polyline fill="none" stroke="#000000" stroke-width="0.5pt" stroke-dasharray="none" points="396.750,72.750 396.750,72.750 "/>
    </g>
  </g>
  </g>
</svg>
