<?xml version="1.0" encoding="UTF-8" standalone="no"?>
<!-- Created with Inkscape (http://www.inkscape.org/) -->

<svg
   xmlns:dc="http://purl.org/dc/elements/1.1/"
   xmlns:cc="http://creativecommons.org/ns#"
   xmlns:rdf="http://www.w3.org/1999/02/22-rdf-syntax-ns#"
   xmlns:svg="http://www.w3.org/2000/svg"
   xmlns="http://www.w3.org/2000/svg"
   version="1.1"
   width="560"
   height="420"
   id="svg9373"
   xml:space="preserve"><metadata
     id="metadata9379"><rdf:RDF><cc:Work
         rdf:about=""><dc:format>image/svg+xml</dc:format><dc:type
           rdf:resource="http://purl.org/dc/dcmitype/StillImage" /><dc:title></dc:title></cc:Work></rdf:RDF></metadata><defs
     id="defs9377"><clipPath
       id="clipPath9499"><path
         d="m 614.402,3105.6 0,-2707.202 3451.208,0 0,2707.202 -3451.208,0 z"
         id="path9501" /></clipPath><clipPath
       id="clipPath9559"><path
         d="m 662.402,3057.6 0,-465.6 1017.598,0 0,465.6 -1017.598,0 z"
         id="path9561" /></clipPath><clipPath
       id="clipPath9575"><path
         d="m 662.402,3057.6 0,-465.6 1017.598,0 0,465.6 -1017.598,0 z"
         id="path9577" /></clipPath><clipPath
       id="clipPath9655"><path
         d="m 609.602,3105.6 0,-2630.401 3456.008,0 0,2630.401 -3456.008,0 z"
         id="path9657" /></clipPath><clipPath
       id="clipPath9717"><path
         d="m 3182.41,3057.6 0,-254.4 840,0 0,254.4 -840,0 z"
         id="path9719" /></clipPath></defs><g
     transform="matrix(1.25,0,0,-1.25,0,420)"
     id="g9381"><g
       transform="scale(0.1,0.1)"
       id="g9383"><path
         d="m 614.402,403.199 0,2702.401 3446.398,0 0,-2702.401 -3446.398,0"
         id="path9385"
         style="fill:none;stroke:#ffffff;stroke-width:5.00002003;stroke-linecap:butt;stroke-linejoin:round;stroke-miterlimit:10;stroke-opacity:1;stroke-dasharray:none" /><path
         d="m 614.402,403.199 3446.398,0"
         id="path9387"
         style="fill:none;stroke:#000000;stroke-width:5.00002003;stroke-linecap:butt;stroke-linejoin:round;stroke-miterlimit:10;stroke-opacity:1;stroke-dasharray:none" /><path
         d="m 614.402,403.199 0,2702.401"
         id="path9389"
         style="fill:none;stroke:#000000;stroke-width:5.00002003;stroke-linecap:butt;stroke-linejoin:round;stroke-miterlimit:10;stroke-opacity:1;stroke-dasharray:none" /><path
         d="m 614.402,403.199 0,38.399"
         id="path9391"
         style="fill:none;stroke:#000000;stroke-width:5.00002003;stroke-linecap:butt;stroke-linejoin:round;stroke-miterlimit:10;stroke-opacity:1;stroke-dasharray:none" /><g
         transform="scale(10,10)"
         id="g9393"><text
           transform="matrix(1,0,0,-1,57.1199,21.6)"
           id="text9395"><tspan
             x="0"
             y="0"
             id="tspan9397"
             style="font-size:18px;font-variant:normal;font-weight:normal;writing-mode:lr-tb;fill:#000000;fill-opacity:1;fill-rule:nonzero;stroke:none;font-family:Times;-inkscape-font-specification:Times-Roman">0</tspan></text>
</g><path
         d="m 1430.4,403.199 0,38.399"
         id="path9399"
         style="fill:none;stroke:#000000;stroke-width:5.00002003;stroke-linecap:butt;stroke-linejoin:round;stroke-miterlimit:10;stroke-opacity:1;stroke-dasharray:none" /><g
         transform="scale(10,10)"
         id="g9401"><text
           transform="matrix(1,0,0,-1,138.72,21.6)"
           id="text9403"><tspan
             x="0"
             y="0"
             id="tspan9405"
             style="font-size:18px;font-variant:normal;font-weight:normal;writing-mode:lr-tb;fill:#000000;fill-opacity:1;fill-rule:nonzero;stroke:none;font-family:Times;-inkscape-font-specification:Times-Roman">1</tspan></text>
</g><path
         d="m 2251.2,403.199 0,38.399"
         id="path9407"
         style="fill:none;stroke:#000000;stroke-width:5.00002003;stroke-linecap:butt;stroke-linejoin:round;stroke-miterlimit:10;stroke-opacity:1;stroke-dasharray:none" /><g
         transform="scale(10,10)"
         id="g9409"><text
           transform="matrix(1,0,0,-1,220.8,21.6)"
           id="text9411"><tspan
             x="0"
             y="0"
             id="tspan9413"
             style="font-size:18px;font-variant:normal;font-weight:normal;writing-mode:lr-tb;fill:#000000;fill-opacity:1;fill-rule:nonzero;stroke:none;font-family:Times;-inkscape-font-specification:Times-Roman">2</tspan></text>
</g><path
         d="m 3072,403.199 0,38.399"
         id="path9415"
         style="fill:none;stroke:#000000;stroke-width:5.00002003;stroke-linecap:butt;stroke-linejoin:round;stroke-miterlimit:10;stroke-opacity:1;stroke-dasharray:none" /><g
         transform="scale(10,10)"
         id="g9417"><text
           transform="matrix(1,0,0,-1,302.88,21.6)"
           id="text9419"><tspan
             x="0"
             y="0"
             id="tspan9421"
             style="font-size:18px;font-variant:normal;font-weight:normal;writing-mode:lr-tb;fill:#000000;fill-opacity:1;fill-rule:nonzero;stroke:none;font-family:Times;-inkscape-font-specification:Times-Roman">3</tspan></text>
</g><path
         d="m 3892.8,403.199 0,38.399"
         id="path9423"
         style="fill:none;stroke:#000000;stroke-width:5.00002003;stroke-linecap:butt;stroke-linejoin:round;stroke-miterlimit:10;stroke-opacity:1;stroke-dasharray:none" /><g
         transform="scale(10,10)"
         id="g9425"><text
           transform="matrix(1,0,0,-1,384.961,21.6)"
           id="text9427"><tspan
             x="0"
             y="0"
             id="tspan9429"
             style="font-size:18px;font-variant:normal;font-weight:normal;writing-mode:lr-tb;fill:#000000;fill-opacity:1;fill-rule:nonzero;stroke:none;font-family:Times;-inkscape-font-specification:Times-Roman">4</tspan></text>
</g><path
         d="m 614.402,403.199 33.598,0"
         id="path9431"
         style="fill:none;stroke:#000000;stroke-width:5.00002003;stroke-linecap:butt;stroke-linejoin:round;stroke-miterlimit:10;stroke-opacity:1;stroke-dasharray:none" /><g
         transform="scale(10,10)"
         id="g9433"><text
           transform="matrix(1,0,0,-1,25.9199,34.0801)"
           id="text9435"><tspan
             x="0 10.152 19.152 23.652"
             y="0"
             id="tspan9437"
             style="font-size:18px;font-variant:normal;font-weight:normal;writing-mode:lr-tb;fill:#000000;fill-opacity:1;fill-rule:nonzero;stroke:none;font-family:Times;-inkscape-font-specification:Times-Roman">−0.4</tspan></text>
</g><path
         d="M 614.402,792 648,792"
         id="path9439"
         style="fill:none;stroke:#000000;stroke-width:5.00002003;stroke-linecap:butt;stroke-linejoin:round;stroke-miterlimit:10;stroke-opacity:1;stroke-dasharray:none" /><g
         transform="scale(10,10)"
         id="g9441"><text
           transform="matrix(1,0,0,-1,25.9199,72.9602)"
           id="text9443"><tspan
             x="0 10.152 19.152 23.652"
             y="0"
             id="tspan9445"
             style="font-size:18px;font-variant:normal;font-weight:normal;writing-mode:lr-tb;fill:#000000;fill-opacity:1;fill-rule:nonzero;stroke:none;font-family:Times;-inkscape-font-specification:Times-Roman">−0.3</tspan></text>
</g><path
         d="M 614.402,1176 648,1176"
         id="path9447"
         style="fill:none;stroke:#000000;stroke-width:5.00002003;stroke-linecap:butt;stroke-linejoin:round;stroke-miterlimit:10;stroke-opacity:1;stroke-dasharray:none" /><g
         transform="scale(10,10)"
         id="g9449"><text
           transform="matrix(1,0,0,-1,25.9199,111.36)"
           id="text9451"><tspan
             x="0 10.152 19.152 23.652"
             y="0"
             id="tspan9453"
             style="font-size:18px;font-variant:normal;font-weight:normal;writing-mode:lr-tb;fill:#000000;fill-opacity:1;fill-rule:nonzero;stroke:none;font-family:Times;-inkscape-font-specification:Times-Roman">−0.2</tspan></text>
</g><path
         d="m 614.402,1564.8 33.598,0"
         id="path9455"
         style="fill:none;stroke:#000000;stroke-width:5.00002003;stroke-linecap:butt;stroke-linejoin:round;stroke-miterlimit:10;stroke-opacity:1;stroke-dasharray:none" /><g
         transform="scale(10,10)"
         id="g9457"><text
           transform="matrix(1,0,0,-1,25.9199,150.24)"
           id="text9459"><tspan
             x="0 10.152 19.152 23.652"
             y="0"
             id="tspan9461"
             style="font-size:18px;font-variant:normal;font-weight:normal;writing-mode:lr-tb;fill:#000000;fill-opacity:1;fill-rule:nonzero;stroke:none;font-family:Times;-inkscape-font-specification:Times-Roman">−0.1</tspan></text>
</g><path
         d="m 614.402,1948.8 33.598,0"
         id="path9463"
         style="fill:none;stroke:#000000;stroke-width:5.00002003;stroke-linecap:butt;stroke-linejoin:round;stroke-miterlimit:10;stroke-opacity:1;stroke-dasharray:none" /><g
         transform="scale(10,10)"
         id="g9465"><text
           transform="matrix(1,0,0,-1,49.9199,188.64)"
           id="text9467"><tspan
             x="0"
             y="0"
             id="tspan9469"
             style="font-size:18px;font-variant:normal;font-weight:normal;writing-mode:lr-tb;fill:#000000;fill-opacity:1;fill-rule:nonzero;stroke:none;font-family:Times;-inkscape-font-specification:Times-Roman">0</tspan></text>
</g><path
         d="m 614.402,2337.6 33.598,0"
         id="path9471"
         style="fill:none;stroke:#000000;stroke-width:5.00002003;stroke-linecap:butt;stroke-linejoin:round;stroke-miterlimit:10;stroke-opacity:1;stroke-dasharray:none" /><g
         transform="scale(10,10)"
         id="g9473"><text
           transform="matrix(1,0,0,-1,36.4801,227.52)"
           id="text9475"><tspan
             x="0 9 13.5"
             y="0"
             id="tspan9477"
             style="font-size:18px;font-variant:normal;font-weight:normal;writing-mode:lr-tb;fill:#000000;fill-opacity:1;fill-rule:nonzero;stroke:none;font-family:Times;-inkscape-font-specification:Times-Roman">0.1</tspan></text>
</g><path
         d="m 614.402,2721.6 33.598,0"
         id="path9479"
         style="fill:none;stroke:#000000;stroke-width:5.00002003;stroke-linecap:butt;stroke-linejoin:round;stroke-miterlimit:10;stroke-opacity:1;stroke-dasharray:none" /><g
         transform="scale(10,10)"
         id="g9481"><text
           transform="matrix(1,0,0,-1,36.4801,265.92)"
           id="text9483"><tspan
             x="0 9 13.5"
             y="0"
             id="tspan9485"
             style="font-size:18px;font-variant:normal;font-weight:normal;writing-mode:lr-tb;fill:#000000;fill-opacity:1;fill-rule:nonzero;stroke:none;font-family:Times;-inkscape-font-specification:Times-Roman">0.2</tspan></text>
</g><path
         d="m 614.402,3105.6 33.598,0"
         id="path9487"
         style="fill:none;stroke:#000000;stroke-width:5.00002003;stroke-linecap:butt;stroke-linejoin:round;stroke-miterlimit:10;stroke-opacity:1;stroke-dasharray:none" /><g
         transform="scale(10,10)"
         id="g9489"><text
           transform="matrix(1,0,0,-1,36.4801,304.32)"
           id="text9491"><tspan
             x="0 9 13.5"
             y="0"
             id="tspan9493"
             style="font-size:18px;font-variant:normal;font-weight:normal;writing-mode:lr-tb;fill:#000000;fill-opacity:1;fill-rule:nonzero;stroke:none;font-family:Times;-inkscape-font-specification:Times-Roman">0.3</tspan></text>
</g><g
         id="g9495"><g
           clip-path="url(#clipPath9499)"
           id="g9497"><path
             d="m 2726.41,2875.2 110.39,0 9.61,14.4 14.39,-14.4 28.81,0 14.39,14.4 14.41,0 14.39,-14.4 9.61,14.4 14.39,0 14.4,-14.4 28.8,0 14.41,14.4 9.59,-14.4 28.8,0 14.4,14.4 14.41,-14.4 81.6,0 14.4,-19.2 9.6,19.2 28.79,0 14.41,-19.2 14.39,19.2 28.81,0 9.6,-19.2 249.59,0 9.61,-14.4 14.39,0 14.41,-14.4 43.2,0 9.6,-14.4 14.4,-14.4 14.39,-14.4 14.41,-14.4 14.4,-19.2 14.4,-14.4 14.4,-14.4 9.6,-14.4 14.4,-14.4 14.39,-33.6 14.41,-14.4 14.4,-28.8 14.4,-28.8 14.4,-33.6 9.6,-43.2 14.4,-62.4 14.39,-43.2 14.41,-28.8 14.4,-33.6 14.4,-28.8 9.6,-28.8 14.4,-19.2 14.4,-28.8 14.39,-43.2 14.41,-33.6 14.4,-28.8 14.4,-43.2 9.6,-19.2 9.6,-14.4 14.4,-14.4 14.4,-14.4 9.6,0 9.6,-14.4 14.4,-14.4"
             id="path9503"
             style="fill:none;stroke:#0000ff;stroke-width:40;stroke-linecap:butt;stroke-linejoin:round;stroke-miterlimit:10;stroke-opacity:1;stroke-dasharray:5, 40, 60, 40;stroke-dashoffset:0" /><path
             d="m 1392,1752 14.4,33.6 14.4,28.8 9.6,28.8 14.4,14.4 9.6,33.6 14.4,14.4 9.6,28.8 14.4,28.8 9.6,19.2 14.4,43.2 9.6,14.4 14.4,48 9.6,28.8 14.4,43.2 14.4,33.6 14.4,28.8 14.4,28.8 9.6,33.6 14.4,28.8 14.4,14.4 14.4,28.8 14.4,19.2 14.4,28.8 9.6,28.8 14.4,14.4 14.4,33.6 14.4,28.8 14.4,14.4 14.4,14.4 14.4,14.4 9.6,33.6 14.4,14.4 14.4,0 14.4,14.4 14.4,14.4 14.4,14.4 9.6,14.4 14.4,0 14.4,19.2 14.4,14.4 14.4,14.4 14.4,28.8 14.4,14.4 9.6,0 14.4,19.2 14.4,14.4 14.4,14.4 14.4,0 9.6,28.8 28.8,0 14.4,28.8 52.8,0 14.4,19.2 28.8,0 14.41,-19.2 14.39,19.2 273.61,0 9.59,14.4 14.41,-14.4 14.39,14.4 14.4,-14.4 28.8,0 9.6,14.4 14.4,-14.4 72,0 9.6,14.4 14.4,0 14.41,-14.4 28.8,0"
             id="path9505"
             style="fill:none;stroke:#0000ff;stroke-width:40;stroke-linecap:butt;stroke-linejoin:round;stroke-miterlimit:10;stroke-opacity:1;stroke-dasharray:5, 40, 60, 40;stroke-dashoffset:0" /><path
             d="m 624,1934.4 24,0 14.402,-14.4 9.598,-14.4 9.602,0 14.398,-14.4 24,0 9.602,-33.6 14.398,0 9.602,-14.4 14.398,-14.4 9.602,-14.4 14.398,-14.4 14.402,-14.4 14.399,-19.2 9.601,-14.4 14.399,-28.8 14.402,-14.4 14.399,-14.4 14.398,-19.2 14.402,0 14.399,-14.4 9.601,0 14.399,-14.4 57.601,0 9.598,-14.4 14.4,0 14.4,-14.4 28.8,0 14.4,-14.4 177.6,0 9.6,14.4 43.2,0 14.4,14.4 14.4,14.4 14.4,28.8 9.6,19.2 14.4,28.8 14.4,28.8"
             id="path9507"
             style="fill:none;stroke:#0000ff;stroke-width:40;stroke-linecap:butt;stroke-linejoin:round;stroke-miterlimit:10;stroke-opacity:1;stroke-dasharray:5, 40, 60, 40;stroke-dashoffset:0" /><path
             d="m 2726.41,1027.2 110.39,0 9.61,-14.4 14.39,14.4 28.81,0 14.39,-14.4 14.41,0 14.39,14.4 9.61,-14.4 14.39,0 14.4,14.4 28.8,0 14.41,-14.4 9.59,14.4 28.8,0 14.4,-14.4 14.41,14.4 81.6,0 14.4,14.4 9.6,-14.4 28.79,0 14.41,14.4 14.39,-14.4 28.81,0 9.6,14.4 249.59,0 9.61,14.4 14.39,0 14.41,14.4 43.2,0 9.6,14.4 14.4,19.2 14.39,14.4 14.41,14.4 14.4,14.4 14.4,14.4 14.4,14.4 9.6,19.2 14.4,14.4 14.39,28.8 14.41,14.4 14.4,28.8 14.4,33.6 14.4,28.8 9.6,48 14.4,57.6 14.39,48 14.41,28.8 14.4,28.8 14.4,33.6 9.6,28.8 14.4,14.4 14.4,28.8 14.39,48 14.41,28.8 14.4,28.8 14.4,48 9.6,14.4 9.6,14.4 14.4,14.4 14.4,14.4 9.6,0 9.6,19.2 14.4,9.6"
             id="path9509"
             style="fill:none;stroke:#008000;stroke-width:40;stroke-linecap:butt;stroke-linejoin:round;stroke-miterlimit:10;stroke-opacity:1;stroke-dasharray:60;stroke-dashoffset:0" /><path
             d="m 1392,2145.6 14.4,-28.8 14.4,-28.8 9.6,-33.6 14.4,-14.4 9.6,-28.8 14.4,-14.4 9.6,-33.6 14.4,-28.8 9.6,-14.4 14.4,-48 9.6,-14.4 14.4,-43.2 9.6,-28.8 14.4,-48 14.4,-28.8 14.4,-33.6 14.4,-28.8 9.6,-28.8 14.4,-28.8 14.4,-19.2 14.4,-28.8 14.4,-14.4 14.4,-28.8 9.6,-33.6 14.4,-14.4 14.4,-28.8 14.4,-28.8 14.4,-19.2 14.4,-14.4 14.4,-14.4 9.6,-28.8 14.4,-14.4 14.4,0 14.4,-19.2 14.4,-14.4 14.4,-14.4 9.6,-14.4 14.4,0 14.4,-14.4 14.4,-14.4 14.4,-14.4 14.4,-33.6 14.4,-14.4 9.6,0 14.4,-14.4 14.4,-14.4 14.4,-14.4 14.4,0 9.6,-33.6 28.8,0 14.4,-28.8 52.8,0 14.4,-14.4 28.8,0 14.41,14.4 14.39,-14.4 273.61,0 9.59,-14.4 14.41,14.4 14.39,-14.4 14.4,14.4 28.8,0 9.6,-14.4 14.4,14.4 72,0 9.6,-14.4 14.4,0 14.41,14.4 28.8,0"
             id="path9511"
             style="fill:none;stroke:#008000;stroke-width:40;stroke-linecap:butt;stroke-linejoin:round;stroke-miterlimit:10;stroke-opacity:1;stroke-dasharray:60;stroke-dashoffset:0" /><path
             d="m 624,1963.2 24,0 14.402,19.2 9.598,14.4 9.602,0 14.398,14.4 24,0 9.602,28.8 14.398,0 9.602,14.4 14.398,14.4 9.602,19.2 14.398,14.4 14.402,14.4 14.399,14.4 9.601,14.4 14.399,33.6 14.402,14.4 14.399,14.4 14.398,14.4 14.402,0 14.399,14.4 9.601,0 14.399,14.4 57.601,0 9.598,14.4 14.4,0 14.4,19.2 28.8,0 14.4,14.4 177.6,0 9.6,-14.4 43.2,0 14.4,-19.2 14.4,-14.4 14.4,-28.8 9.6,-14.4 14.4,-28.8 14.4,-33.6"
             id="path9513"
             style="fill:none;stroke:#008000;stroke-width:40;stroke-linecap:butt;stroke-linejoin:round;stroke-miterlimit:10;stroke-opacity:1;stroke-dasharray:60;stroke-dashoffset:0" /></g></g><g
         transform="scale(10,10)"
         id="g9515"><text
           transform="matrix(0,1,1,0,17.2801,99.3602)"
           id="text9517"><tspan
             x="0 16.002001 25.002001 30.006001 39.006001 45 49.5 62.495998 71.496002 76.5 85.5 90 102.006 111.006 118.998 124.002 131.994 136.494"
             y="0"
             id="tspan9519"
             style="font-size:18px;font-variant:normal;font-weight:normal;writing-mode:lr-tb;fill:#000000;fill-opacity:1;fill-rule:nonzero;stroke:none;font-family:Times;-inkscape-font-specification:Times-Roman">Motor Duty Cycle %</tspan></text>
<text
           transform="matrix(1,0,0,-1,203.04,4.8)"
           id="text9521"><tspan
             x="0 10.998 16.002001 30.006001 37.998001 42.498001 48.492001 55.493999"
             y="0"
             id="tspan9523"
             style="font-size:18px;font-variant:normal;font-weight:normal;writing-mode:lr-tb;fill:#000000;fill-opacity:1;fill-rule:nonzero;stroke:none;font-family:Times;-inkscape-font-specification:Times-Roman">Time (s)</tspan></text>
</g><path
         d="m 662.402,2596.8 1012.8,0 0,460.801 -1012.8,0 0,-460.801 z"
         id="path9525"
         style="fill:#ffffff;fill-opacity:1;fill-rule:evenodd;stroke:none" /><path
         d="m 662.402,2596.8 0,460.8 1012.798,0 0,-460.8 -1012.798,0"
         id="path9527"
         style="fill:none;stroke:#ffffff;stroke-width:5.00002003;stroke-linecap:butt;stroke-linejoin:round;stroke-miterlimit:10;stroke-opacity:1;stroke-dasharray:none" /><path
         d="m 662.402,2596.8 1012.798,0"
         id="path9529"
         style="fill:none;stroke:#000000;stroke-width:5.00002003;stroke-linecap:butt;stroke-linejoin:round;stroke-miterlimit:10;stroke-opacity:1;stroke-dasharray:none" /><path
         d="m 662.402,3057.6 1012.798,0"
         id="path9531"
         style="fill:none;stroke:#000000;stroke-width:5.00002003;stroke-linecap:butt;stroke-linejoin:round;stroke-miterlimit:10;stroke-opacity:1;stroke-dasharray:none" /><path
         d="m 662.402,2596.8 0,460.8"
         id="path9533"
         style="fill:none;stroke:#000000;stroke-width:5.00002003;stroke-linecap:butt;stroke-linejoin:round;stroke-miterlimit:10;stroke-opacity:1;stroke-dasharray:none" /><path
         d="m 1675.2,2596.8 0,460.8"
         id="path9535"
         style="fill:none;stroke:#000000;stroke-width:5.00002003;stroke-linecap:butt;stroke-linejoin:round;stroke-miterlimit:10;stroke-opacity:1;stroke-dasharray:none" /><path
         d="m 662.402,2596.8 1012.798,0"
         id="path9537"
         style="fill:none;stroke:#000000;stroke-width:5.00002003;stroke-linecap:butt;stroke-linejoin:round;stroke-miterlimit:10;stroke-opacity:1;stroke-dasharray:none" /><path
         d="m 662.402,2596.8 0,460.8"
         id="path9539"
         style="fill:none;stroke:#000000;stroke-width:5.00002003;stroke-linecap:butt;stroke-linejoin:round;stroke-miterlimit:10;stroke-opacity:1;stroke-dasharray:none" /><path
         d="m 662.402,2596.8 1012.798,0"
         id="path9541"
         style="fill:none;stroke:#000000;stroke-width:5.00002003;stroke-linecap:butt;stroke-linejoin:round;stroke-miterlimit:10;stroke-opacity:1;stroke-dasharray:none" /><path
         d="m 662.402,3057.6 1012.798,0"
         id="path9543"
         style="fill:none;stroke:#000000;stroke-width:5.00002003;stroke-linecap:butt;stroke-linejoin:round;stroke-miterlimit:10;stroke-opacity:1;stroke-dasharray:none" /><path
         d="m 662.402,2596.8 0,460.8"
         id="path9545"
         style="fill:none;stroke:#000000;stroke-width:5.00002003;stroke-linecap:butt;stroke-linejoin:round;stroke-miterlimit:10;stroke-opacity:1;stroke-dasharray:none" /><path
         d="m 1675.2,2596.8 0,460.8"
         id="path9547"
         style="fill:none;stroke:#000000;stroke-width:5.00002003;stroke-linecap:butt;stroke-linejoin:round;stroke-miterlimit:10;stroke-opacity:1;stroke-dasharray:none" /><g
         transform="scale(10,10)"
         id="g9549"><text
           transform="matrix(1,0,0,-1,105.6,287.04)"
           id="text9551"><tspan
             x="0 16.002001 25.002001 30.006001 39.006001 45 49.5"
             y="0"
             id="tspan9553"
             style="font-size:18px;font-variant:normal;font-weight:normal;writing-mode:lr-tb;fill:#000000;fill-opacity:1;fill-rule:nonzero;stroke:none;font-family:Times;-inkscape-font-specification:Times-Roman">Motor 1</tspan></text>
</g><g
         id="g9555"><g
           clip-path="url(#clipPath9559)"
           id="g9557"><path
             d="m 720,2937.6 302.4,0"
             id="path9563"
             style="fill:none;stroke:#0000ff;stroke-width:40;stroke-linecap:butt;stroke-linejoin:round;stroke-miterlimit:10;stroke-opacity:1;stroke-dasharray:5, 40, 60, 40;stroke-dashoffset:0" /></g></g><g
         transform="scale(10,10)"
         id="g9565"><text
           transform="matrix(1,0,0,-1,105.6,265.44)"
           id="text9567"><tspan
             x="0 16.002001 25.002001 30.006001 39.006001 45 49.5"
             y="0"
             id="tspan9569"
             style="font-size:18px;font-variant:normal;font-weight:normal;writing-mode:lr-tb;fill:#000000;fill-opacity:1;fill-rule:nonzero;stroke:none;font-family:Times;-inkscape-font-specification:Times-Roman">Motor 2</tspan></text>
</g><g
         id="g9571"><g
           clip-path="url(#clipPath9575)"
           id="g9573"><path
             d="m 720,2721.6 302.4,0"
             id="path9579"
             style="fill:none;stroke:#008000;stroke-width:40;stroke-linecap:butt;stroke-linejoin:round;stroke-miterlimit:10;stroke-opacity:1;stroke-dasharray:60;stroke-dashoffset:0" /></g></g><path
         d="M 609.602,480 4060.8,480"
         id="path9581"
         style="fill:none;stroke:#000000;stroke-width:5.00002003;stroke-linecap:butt;stroke-linejoin:round;stroke-miterlimit:10;stroke-opacity:1;stroke-dasharray:none" /><path
         d="m 4060.8,480 0,2625.6"
         id="path9583"
         style="fill:none;stroke:#000000;stroke-width:5.00002003;stroke-linecap:butt;stroke-linejoin:round;stroke-miterlimit:10;stroke-opacity:1;stroke-dasharray:none" /><path
         d="m 4060.8,672 -38.39,0"
         id="path9585"
         style="fill:none;stroke:#000000;stroke-width:5.00002003;stroke-linecap:butt;stroke-linejoin:round;stroke-miterlimit:10;stroke-opacity:1;stroke-dasharray:none" /><g
         transform="scale(10,10)"
         id="g9587"><text
           transform="matrix(1,0,0,-1,408.961,60.9598)"
           id="text9589"><tspan
             x="0 10.152"
             y="0"
             id="tspan9591"
             style="font-size:18px;font-variant:normal;font-weight:normal;writing-mode:lr-tb;fill:#000000;fill-opacity:1;fill-rule:nonzero;stroke:none;font-family:Times;-inkscape-font-specification:Times-Roman">−6</tspan></text>
</g><path
         d="m 4060.8,1046.4 -38.39,0"
         id="path9593"
         style="fill:none;stroke:#000000;stroke-width:5.00002003;stroke-linecap:butt;stroke-linejoin:round;stroke-miterlimit:10;stroke-opacity:1;stroke-dasharray:none" /><g
         transform="scale(10,10)"
         id="g9595"><text
           transform="matrix(1,0,0,-1,408.961,98.4)"
           id="text9597"><tspan
             x="0 10.152"
             y="0"
             id="tspan9599"
             style="font-size:18px;font-variant:normal;font-weight:normal;writing-mode:lr-tb;fill:#000000;fill-opacity:1;fill-rule:nonzero;stroke:none;font-family:Times;-inkscape-font-specification:Times-Roman">−4</tspan></text>
</g><path
         d="m 4060.8,1420.8 -38.39,0"
         id="path9601"
         style="fill:none;stroke:#000000;stroke-width:5.00002003;stroke-linecap:butt;stroke-linejoin:round;stroke-miterlimit:10;stroke-opacity:1;stroke-dasharray:none" /><g
         transform="scale(10,10)"
         id="g9603"><text
           transform="matrix(1,0,0,-1,408.961,135.84)"
           id="text9605"><tspan
             x="0 10.152"
             y="0"
             id="tspan9607"
             style="font-size:18px;font-variant:normal;font-weight:normal;writing-mode:lr-tb;fill:#000000;fill-opacity:1;fill-rule:nonzero;stroke:none;font-family:Times;-inkscape-font-specification:Times-Roman">−2</tspan></text>
</g><path
         d="m 4060.8,1795.2 -38.39,0"
         id="path9609"
         style="fill:none;stroke:#000000;stroke-width:5.00002003;stroke-linecap:butt;stroke-linejoin:round;stroke-miterlimit:10;stroke-opacity:1;stroke-dasharray:none" /><g
         transform="scale(10,10)"
         id="g9611"><text
           transform="matrix(1,0,0,-1,408.961,173.28)"
           id="text9613"><tspan
             x="0"
             y="0"
             id="tspan9615"
             style="font-size:18px;font-variant:normal;font-weight:normal;writing-mode:lr-tb;fill:#000000;fill-opacity:1;fill-rule:nonzero;stroke:none;font-family:Times;-inkscape-font-specification:Times-Roman">0</tspan></text>
</g><path
         d="m 4060.8,2169.6 -38.39,0"
         id="path9617"
         style="fill:none;stroke:#000000;stroke-width:5.00002003;stroke-linecap:butt;stroke-linejoin:round;stroke-miterlimit:10;stroke-opacity:1;stroke-dasharray:none" /><g
         transform="scale(10,10)"
         id="g9619"><text
           transform="matrix(1,0,0,-1,408.961,210.72)"
           id="text9621"><tspan
             x="0"
             y="0"
             id="tspan9623"
             style="font-size:18px;font-variant:normal;font-weight:normal;writing-mode:lr-tb;fill:#000000;fill-opacity:1;fill-rule:nonzero;stroke:none;font-family:Times;-inkscape-font-specification:Times-Roman">2</tspan></text>
</g><path
         d="m 4060.8,2544 -38.39,0"
         id="path9625"
         style="fill:none;stroke:#000000;stroke-width:5.00002003;stroke-linecap:butt;stroke-linejoin:round;stroke-miterlimit:10;stroke-opacity:1;stroke-dasharray:none" /><g
         transform="scale(10,10)"
         id="g9627"><text
           transform="matrix(1,0,0,-1,408.961,248.16)"
           id="text9629"><tspan
             x="0"
             y="0"
             id="tspan9631"
             style="font-size:18px;font-variant:normal;font-weight:normal;writing-mode:lr-tb;fill:#000000;fill-opacity:1;fill-rule:nonzero;stroke:none;font-family:Times;-inkscape-font-specification:Times-Roman">4</tspan></text>
</g><path
         d="m 4060.8,2918.4 -38.39,0"
         id="path9633"
         style="fill:none;stroke:#000000;stroke-width:5.00002003;stroke-linecap:butt;stroke-linejoin:round;stroke-miterlimit:10;stroke-opacity:1;stroke-dasharray:none" /><g
         transform="scale(10,10)"
         id="g9635"><text
           transform="matrix(1,0,0,-1,408.961,285.6)"
           id="text9637"><tspan
             x="0"
             y="0"
             id="tspan9639"
             style="font-size:18px;font-variant:normal;font-weight:normal;writing-mode:lr-tb;fill:#000000;fill-opacity:1;fill-rule:nonzero;stroke:none;font-family:Times;-inkscape-font-specification:Times-Roman">6</tspan><tspan
             x="-2.88008 6.1199198 10.61992 19.619921"
             y="-29.2801"
             id="tspan9641"
             style="font-size:18px;font-variant:normal;font-weight:normal;writing-mode:lr-tb;fill:#000000;fill-opacity:1;fill-rule:nonzero;stroke:none;font-family:Times;-inkscape-font-specification:Times-Roman">x 10</tspan></text>
<text
           transform="matrix(1,0,0,-1,437.28132,325.4399)"
           id="text9643"><tspan
             x="0 6.7680001"
             y="0"
             id="tspan9645"
             style="font-size:12px;font-variant:normal;font-weight:normal;writing-mode:lr-tb;fill:#000000;fill-opacity:1;fill-rule:nonzero;stroke:none;font-family:Times;-inkscape-font-specification:Times-Roman">−3</tspan></text>
<text
           transform="matrix(0,1,1,0,443.521,114.72)"
           id="text9647"><tspan
             x="0 10.008 19.007999 25.002001 32.993999 40.986 45.486 54.486 63.486 67.986 79.991997 87.984001 93.977997 98.982002 103.482 109.476 122.472"
             y="0"
             id="tspan9649"
             style="font-size:18px;font-variant:normal;font-weight:normal;writing-mode:lr-tb;fill:#000000;fill-opacity:1;fill-rule:nonzero;stroke:none;font-family:Times;-inkscape-font-specification:Times-Roman">Force on Cart (N)</tspan></text>
</g><g
         id="g9651"><g
           clip-path="url(#clipPath9655)"
           id="g9653"><path
             d="m 3787.21,2544 4.8,-19.2 0,-19.2 4.79,-19.2 0,-14.4 4.81,-14.4 4.8,-14.4 0,-9.6 4.8,-9.6 0,-9.6 4.8,-4.8 0,-14.4 4.79,-24 4.81,-33.6 0,-48 4.8,-57.6 0,-43.2 4.8,-38.4 0,-24 4.8,-14.4 4.79,-4.8 0,-14.4 4.81,-28.8 0,-33.6 4.8,-48 0,-57.6 4.8,-57.6 4.8,-48 0,-43.2 4.79,-38.4 0,-33.6 4.81,-28.8 0,-28.8 4.8,-24 4.8,-24 0,-19.2 4.8,-24 0,-28.8 4.79,-33.6 0,-33.6 4.81,-38.4 4.8,-33.6 0,-28.8 4.8,-24 0,-19.2 4.8,-9.6 0,-9.6 4.79,-9.6 4.81,-9.6 0,-9.6 4.8,-9.6 0,-14.4 4.8,-19.2 0,-24 4.8,-28.8 4.79,-28.8 0,-24 4.81,-19.2 0,-14.4 4.8,-9.6 0,-4.8 4.8,-9.6 4.8,-14.4 0,-19.2 4.79,-19.2 0,-24 4.81,-19.199 0,-14.403 4.8,-14.398 4.8,-4.801 0,-4.801 4.8,-4.796 0,4.796 4.79,4.801 0,4.801 4.81,9.602 9.6,14.398 -4.8,0 9.6,0 4.79,4.801 4.81,4.801 0,9.597 4.8,4.801 0,9.602 4.8,19.198 0,19.2 4.8,24 4.79,28.8 0,24 4.81,19.2 0,19.2 4.8,9.6 0,9.6 4.8,9.6 4.8,14.4 0,14.4 4.79,19.2 0,19.2 4.81,9.6"
             id="path9659"
             style="fill:none;stroke:#ff0000;stroke-width:20;stroke-linecap:butt;stroke-linejoin:round;stroke-miterlimit:10;stroke-opacity:1;stroke-dasharray:none" /><path
             d="m 3480,2913.6 4.8,-9.6 0,-9.6 4.81,-9.6 0,-4.8 4.8,-4.8 9.59,-9.6 -4.79,0 9.59,0 4.81,4.8 4.8,4.8 4.8,9.6 0,9.6 4.79,14.4 0,9.6 4.8,14.4 4.81,9.6 0,4.8 4.8,9.6 0,4.8 4.8,9.6 0,4.8 4.79,9.6 4.8,4.8 0,4.8 4.81,9.6 0,9.6 4.8,9.6 0,14.4 4.8,14.4 9.59,14.4 -4.8,0 4.8,-4.8 4.81,-9.6 0,-4.8 4.8,-4.8 9.6,-9.6 -4.8,0 9.59,0 4.81,4.8 4.8,0 4.8,4.8 4.8,4.8 4.79,0 4.81,-4.8 0,-4.8 4.8,-9.6 0,-9.6 4.8,-9.6 0,-4.8 4.8,-4.8 4.79,-4.8 4.81,-4.8 4.8,-4.8 0,-9.6 4.8,-9.6 4.8,-9.6 0,-9.6 4.79,-4.8 0,-9.6 4.81,-4.8 0,-4.8 4.8,-4.8 4.8,4.8 4.8,0 4.79,-4.8 0,-4.8 4.81,-9.6 4.8,-9.6 0,-4.8 4.8,-4.8 0,-9.6 4.8,-4.8 0,-4.8 4.79,-4.8 4.81,-4.8 0,-4.8 4.8,-4.8 0,-4.8 4.8,-9.6 0,-9.6 4.8,-14.4 4.79,-19.2 0,-14.4 4.81,-19.2 0,-14.4 4.8,-9.6 0,-14.4 4.8,-9.6 4.8,-9.6 0,-14.4 4.79,-14.4 0,-14.4 4.81,-24 0,-19.2 4.8,-24 4.8,-19.2 0,-24"
             id="path9661"
             style="fill:none;stroke:#ff0000;stroke-width:20;stroke-linecap:butt;stroke-linejoin:round;stroke-miterlimit:10;stroke-opacity:1;stroke-dasharray:none" /><path
             d="m 3144,2625.6 4.8,-4.8 4.81,-4.8 4.8,-4.8 0,-4.8 4.8,-4.8 9.59,0 4.81,4.8 4.8,-4.8 4.8,0 4.79,4.8 4.8,4.8 0,9.6 4.81,14.4 0,9.6 4.8,9.6 4.8,4.8 0,4.8 4.79,4.8 0,4.8 4.8,9.6 0,9.6 4.81,14.4 4.8,14.4 0,9.6 4.8,9.6 0,9.6 4.79,9.6 0,4.8 4.8,9.6 9.61,9.6 -4.8,0 4.8,0 4.8,-4.8 0,-4.8 4.79,-4.8 4.8,-14.4 0,-9.6 4.81,-14.4 0,-4.8 4.8,-4.8 4.8,0 4.79,-4.8 4.8,-4.8 0,-4.8 4.81,-4.8 4.8,-4.8 24,0 4.8,4.8 0,4.8 4.79,4.8 0,4.8 4.8,9.6 4.81,4.8 0,4.8 4.8,9.6 4.8,4.8 4.79,0 4.8,4.8 4.81,4.8 0,4.8 4.8,4.8 0,4.8 4.8,9.6 9.59,9.6 0,4.8 4.81,4.8 0,4.8 4.8,4.8 4.8,4.8 0,9.6 4.79,4.8 0,4.8 9.61,9.6 -4.81,0 4.81,0 4.8,4.8 4.8,4.8 0,9.6 4.79,9.6 0,9.6 4.8,9.6 4.81,9.6 0,14.4 4.8,9.6 0,9.6 4.8,4.8 4.79,0 4.8,-9.6 0,-4.8 9.61,-9.6 -4.8,0 9.6,0 4.79,-4.8"
             id="path9663"
             style="fill:none;stroke:#ff0000;stroke-width:20;stroke-linecap:butt;stroke-linejoin:round;stroke-miterlimit:10;stroke-opacity:1;stroke-dasharray:none" /><path
             d="m 2817.61,2548.8 0,4.8 4.8,9.6 9.59,9.6 0,4.8 4.8,4.8 0,4.8 4.81,4.8 9.59,9.6 0,4.8 4.8,4.8 4.8,0 4.81,4.8 0,4.8 4.8,9.6 0,4.8 4.79,9.6 4.8,4.8 4.8,-4.8 4.81,4.8 0,4.8 4.8,4.8 0,9.6 4.79,14.4 4.8,14.4 0,14.4 4.8,19.2 0,14.4 4.81,9.6 0,14.4 4.8,9.6 4.79,9.6 0,14.4 4.8,9.6 0,14.4 4.8,9.6 0,9.6 4.81,9.6 9.59,14.4 -4.79,0 4.79,0 4.8,-4.8 4.8,-4.8 4.81,-4.8 4.8,-4.8 4.79,-4.8 0,-9.6 4.8,-14.4 4.8,-14.4 0,-19.2 4.81,-14.4 0,-14.4 4.8,-14.4 0,-14.4 4.79,-9.6 4.8,-9.6 0,-4.8 4.8,-9.6 4.81,-4.8 0,-9.6 4.8,-9.6 4.79,-9.6 0,-14.4 4.8,-9.6 0,-4.8 9.61,-9.6 -4.81,0 4.81,0 4.8,-4.8 0,-4.8 4.79,-9.6 0,-4.8 4.8,-4.8 0,-4.8 4.8,-4.8 9.61,-9.6 -4.8,0 9.59,0 4.8,4.8 4.8,4.8 4.81,4.8 0,9.6 4.8,4.8 0,9.6 4.79,4.8 4.8,4.8 4.8,-4.8 4.81,-4.8 4.8,0 4.79,4.8 0,9.6 4.8,4.8 0,9.6 4.8,4.8 4.81,0 9.6,-9.6 0,-4.8 4.79,-4.8 0,-4.8"
             id="path9665"
             style="fill:none;stroke:#ff0000;stroke-width:20;stroke-linecap:butt;stroke-linejoin:round;stroke-miterlimit:10;stroke-opacity:1;stroke-dasharray:none" /><path
             d="m 2467.2,2313.6 4.8,4.8 0,9.6 4.8,4.8 4.81,9.6 0,4.8 4.79,9.6 0,4.8 9.6,9.6 -4.8,0 4.8,0 9.61,9.6 0,4.8 4.79,9.6 0,4.8 4.8,9.6 4.8,4.8 0,4.8 4.8,4.8 4.81,-4.8 4.79,0 9.6,-9.6 -4.8,0 4.8,0 4.8,4.8 4.81,4.8 4.79,4.8 4.8,-4.8 4.8,-4.8 0,-4.8 4.8,-4.8 4.81,4.8 0,4.8 4.79,9.6 0,9.6 4.8,9.6 4.8,4.8 4.8,-4.8 0,-4.8 4.81,-4.8 4.79,-4.8 4.8,-4.8 4.8,-4.8 0,-4.8 4.8,-4.8 0,-9.6 4.81,-4.8 4.79,0 9.6,9.6 -4.8,0 19.21,0 4.79,4.8 4.8,4.8 9.61,0 4.8,-4.8 4.79,0 4.8,-4.8 4.8,-4.8 9.61,0 4.79,4.8 4.8,9.6 0,9.6 4.8,14.4 0,19.2 4.81,14.4 0,19.2 4.8,9.6 4.79,9.6 0,9.6 4.8,4.8 0,9.6 4.8,9.6 0,9.6 4.81,14.4 4.8,9.6 0,14.4 4.79,4.8 0,9.6 4.8,4.8 4.8,0 4.81,-4.8 4.8,-4.8 4.79,-4.8 0,-9.6 4.8,-4.8 4.8,-14.4 0,-9.6 4.81,-9.6 0,-4.8 9.59,-9.6 -4.79,0 14.39,0 0,4.8 4.81,9.6"
             id="path9667"
             style="fill:none;stroke:#ff0000;stroke-width:20;stroke-linecap:butt;stroke-linejoin:round;stroke-miterlimit:10;stroke-opacity:1;stroke-dasharray:none" /><path
             d="m 2164.8,2515.2 -4.8,0 4.8,0 4.81,-4.8 0,-4.8 9.59,-9.6 -4.8,0 4.8,4.8 4.8,9.6 4.8,14.4 0,4.8 4.81,4.8 4.79,-4.8 0,-9.6 9.6,0 4.8,9.6 0,4.8 9.6,9.6 -4.79,0 4.79,0 9.6,9.6 0,4.8 9.61,0 4.79,-4.8 4.8,0 4.8,-4.8 0,-4.8 4.8,-4.8 4.81,-9.6 0,-9.6 4.79,-9.6 0,-9.6 4.8,-9.6 0,-4.8 4.8,-4.8 4.8,-4.8 0,-4.8 4.81,-14.4 0,-9.6 4.79,-14.4 0,-19.2 4.8,-14.4 4.8,-9.6 0,-4.8 4.8,-4.8 0,-4.8 4.81,-4.8 4.79,-9.6 4.8,-4.8 0,-4.8 4.8,-4.8 0,-4.8 4.8,-4.8 4.81,-9.6 4.79,-9.6 0,-14.4 4.8,-19.2 0,-19.2 4.8,-24 0,-19.2 4.8,-14.4 4.81,-9.6 0,-4.8 4.79,-4.8 0,-4.8 4.8,-4.8 0,-4.8 9.6,-9.6 -4.8,0 4.8,0 4.81,-4.8 4.79,4.8 4.8,9.6 0,4.8 4.8,9.6 4.8,9.6 0,9.6 4.81,9.6 0,4.8 9.59,9.6 -4.8,0 4.8,0 4.8,9.6 0,4.8 4.8,9.6 0,9.6 4.81,9.6 0,4.8 4.79,4.8 4.8,4.8 9.6,0 -4.8,0 4.8,0 4.81,4.8 4.79,4.8 0,4.8 4.8,4.8 0,4.8"
             id="path9669"
             style="fill:none;stroke:#ff0000;stroke-width:20;stroke-linecap:butt;stroke-linejoin:round;stroke-miterlimit:10;stroke-opacity:1;stroke-dasharray:none" /><path
             d="m 1848,2433.6 0,-9.6 4.8,-4.8 0,-4.8 4.8,-9.6 4.8,-4.8 0,-4.8 9.6,-9.6 0,-4.8 4.8,-4.8 4.8,-4.8 0,-9.6 4.8,-4.8 0,-4.8 4.8,-9.6 0,-4.8 4.8,-9.6 4.8,-9.6 0,-9.6 4.8,-9.6 0,-9.6 4.8,-14.4 0,-9.6 4.8,-4.8 4.8,-9.6 0,-4.8 4.8,-4.8 4.8,0 4.8,4.8 4.8,9.6 0,4.8 4.8,4.8 4.8,-4.8 0,-4.8 4.8,-14.4 4.8,-9.6 0,-4.8 4.8,-4.8 0,-4.8 4.8,4.8 0,4.8 4.8,4.8 4.8,4.8 0,9.6 4.8,4.8 0,4.8 4.8,9.6 0,4.8 4.8,4.8 9.6,0 4.8,-4.8 4.8,4.8 4.8,4.8 0,4.8 4.8,14.4 0,9.6 9.6,9.6 -4.8,0 4.8,0 4.8,-4.8 4.8,0 4.8,4.8 0,4.8 4.8,9.6 4.8,4.8 0,4.8 4.8,4.8 4.8,4.8 0,4.8 4.8,4.8 4.8,4.8 0,9.6 4.8,9.6 0,9.6 4.8,4.8 0,4.8 4.8,4.8 4.8,4.8 4.8,-4.8 9.6,-9.6 -4.8,0 4.8,0 4.8,4.8 0,4.8 4.8,14.4 0,9.6 4.8,9.6 0,9.6 4.8,4.8 9.6,0 4.8,4.8 0,4.8 4.8,9.6 4.8,4.8 0,9.6 4.8,4.8 0,9.6 9.6,9.6"
             id="path9671"
             style="fill:none;stroke:#ff0000;stroke-width:20;stroke-linecap:butt;stroke-linejoin:round;stroke-miterlimit:10;stroke-opacity:1;stroke-dasharray:none" /><path
             d="m 1531.2,2145.6 4.8,4.8 0,4.8 4.8,4.8 0,4.8 4.8,4.8 0,4.8 4.8,9.6 4.8,4.8 0,4.8 4.8,4.8 4.8,-4.8 4.8,0 4.8,4.8 0,9.6 4.8,14.4 0,14.4 4.8,19.2 0,14.4 4.8,9.6 4.8,9.6 0,4.8 4.8,4.8 0,4.8 4.8,4.8 0,9.6 4.8,9.6 4.8,9.6 0,14.4 4.8,9.6 0,9.6 9.6,19.2 -4.8,0 4.8,0 4.8,4.8 0,-4.8 9.6,0 0,4.8 4.8,9.6 4.8,4.8 0,4.8 9.6,9.6 -4.8,0 19.2,0 4.8,4.8 0,4.8 4.8,4.8 4.8,4.8 0,4.8 4.8,4.8 4.8,4.8 9.6,0 4.8,4.8 0,4.8 4.8,4.8 0,9.6 4.8,9.6 4.8,4.8 0,4.8 4.8,4.8 0,4.8 4.8,9.6 0,9.6 4.8,9.6 4.8,14.4 0,9.6 4.8,4.8 4.8,-4.8 4.8,-4.8 4.8,-4.8 0,-4.8 9.6,-14.4 0,-4.8 4.8,0 4.8,4.8 4.8,4.8 0,4.8 4.8,4.8 0,4.8 4.8,9.6 4.8,0 4.8,-4.8 0,-4.8 4.8,-14.4 0,-9.6 4.8,-14.4 4.8,-9.6 0,-14.4 4.8,-9.6 0,-9.6 4.8,-9.6 0,-4.8 4.8,-9.6 4.8,-4.8 0,-4.8 4.8,-4.8"
             id="path9673"
             style="fill:none;stroke:#ff0000;stroke-width:20;stroke-linecap:butt;stroke-linejoin:round;stroke-miterlimit:10;stroke-opacity:1;stroke-dasharray:none" /><path
             d="m 1200,1492.8 4.8,0 4.8,4.8 4.8,-4.8 4.8,-4.8 0,-4.8 4.8,-4.8 4.8,-4.8 0,-4.8 4.8,-4.8 4.8,4.8 0,4.8 4.8,9.6 4.8,9.6 0,9.6 4.8,14.4 0,9.6 4.8,9.6 0,14.4 4.8,14.4 4.8,9.6 0,14.4 4.8,9.6 0,9.6 9.6,9.6 -4.8,0 4.8,0 4.8,4.8 4.8,-4.8 9.6,0 4.8,4.8 4.8,9.6 4.8,4.8 28.8,0 0,9.6 4.8,4.8 0,9.6 4.8,4.8 4.8,4.8 4.8,-4.8 9.6,0 4.8,4.8 4.8,4.8 0,9.6 4.8,4.8 0,9.6 4.8,9.6 0,19.2 4.8,14.4 4.8,19.2 0,24 4.8,14.4 0,14.4 4.8,4.8 0,4.8 4.8,-4.8 4.8,-4.8 4.8,-4.8 4.8,-4.8 4.8,4.8 4.8,4.8 0,9.6 4.8,9.6 0,14.4 4.8,14.4 0,14.4 4.8,14.4 4.8,14.4 0,9.6 4.8,14.4 0,9.6 4.8,9.6 0,9.6 4.8,14.4 4.8,9.6 0,14.4 4.8,9.6 0,14.4 4.8,9.6 0,9.6 4.8,9.6 4.8,9.6 0,14.4 4.8,9.6 0,9.6 4.8,4.8 0,9.6 4.8,9.6 9.6,9.6 0,4.8 4.8,4.8 0,4.8 4.8,4.8"
             id="path9675"
             style="fill:none;stroke:#ff0000;stroke-width:20;stroke-linecap:butt;stroke-linejoin:round;stroke-miterlimit:10;stroke-opacity:1;stroke-dasharray:none" /><path
             d="m 816,1392 62.402,0 4.801,4.8 4.797,-4.8 4.801,-4.8 0,-4.8 4.801,-9.6 4.8,-4.8 0,-9.6 4.801,-4.8 0,-4.8 4.797,-9.6 0,-4.8 4.801,-9.6 4.801,-4.8 0,-9.6 4.8,-4.8 4.801,-4.8 4.797,0 4.801,-4.8 4.801,0 4.8,-4.8 4.801,0 4.797,4.8 9.602,9.6 0,4.8 4.8,4.8 4.801,4.8 0,9.6 4.797,9.6 0,9.6 4.801,4.8 0,9.6 4.801,9.6 4.8,9.6 0,4.8 4.798,4.8 4.8,4.8 4.8,4.8 4.8,4.8 0,4.8 4.8,9.6 4.8,-4.8 4.8,-4.8 4.8,-9.6 0,-9.6 4.8,0 4.8,4.8 9.6,0 4.8,-4.8 9.6,0 9.6,9.6 -4.8,0 4.8,0 4.8,-4.8 4.8,-4.8 4.8,4.8 4.8,4.8 0,9.6 4.8,9.6 0,9.6 4.8,9.6 4.8,14.4 0,9.6 4.8,9.6 0,4.8 4.8,9.6 4.8,4.8 4.8,4.8 4.8,4.8 0,4.8 9.6,9.6 -4.8,0 9.6,0 4.8,-4.8 4.8,-4.8 0,-4.8 4.8,-4.8 4.8,-4.8 4.8,4.8 19.2,0 4.8,-4.8"
             id="path9677"
             style="fill:none;stroke:#ff0000;stroke-width:20;stroke-linecap:butt;stroke-linejoin:round;stroke-miterlimit:10;stroke-opacity:1;stroke-dasharray:none" /><path
             d="M 609.602,1392 816,1392"
             id="path9679"
             style="fill:none;stroke:#ff0000;stroke-width:20;stroke-linecap:butt;stroke-linejoin:round;stroke-miterlimit:10;stroke-opacity:1;stroke-dasharray:none" /></g></g><g
         transform="scale(10,10)"
         id="g9681" /><path
         d="m 3182.41,2808 835.199,0 0,249.598 -835.199,0 0,-249.598 z"
         id="path9683"
         style="fill:#ffffff;fill-opacity:1;fill-rule:evenodd;stroke:none" /><path
         d="m 3182.41,2808 0,249.6 835.2,0 0,-249.6 -835.2,0"
         id="path9685"
         style="fill:none;stroke:#ffffff;stroke-width:5.00002003;stroke-linecap:butt;stroke-linejoin:round;stroke-miterlimit:10;stroke-opacity:1;stroke-dasharray:none" /><path
         d="m 3182.41,2808 835.2,0"
         id="path9687"
         style="fill:none;stroke:#000000;stroke-width:5.00002003;stroke-linecap:butt;stroke-linejoin:round;stroke-miterlimit:10;stroke-opacity:1;stroke-dasharray:none" /><path
         d="m 3182.41,3057.6 835.2,0"
         id="path9689"
         style="fill:none;stroke:#000000;stroke-width:5.00002003;stroke-linecap:butt;stroke-linejoin:round;stroke-miterlimit:10;stroke-opacity:1;stroke-dasharray:none" /><path
         d="m 3182.41,2808 0,249.6"
         id="path9691"
         style="fill:none;stroke:#000000;stroke-width:5.00002003;stroke-linecap:butt;stroke-linejoin:round;stroke-miterlimit:10;stroke-opacity:1;stroke-dasharray:none" /><path
         d="m 4017.61,2808 0,249.6"
         id="path9693"
         style="fill:none;stroke:#000000;stroke-width:5.00002003;stroke-linecap:butt;stroke-linejoin:round;stroke-miterlimit:10;stroke-opacity:1;stroke-dasharray:none" /><path
         d="m 3182.41,2808 835.2,0"
         id="path9695"
         style="fill:none;stroke:#000000;stroke-width:5.00002003;stroke-linecap:butt;stroke-linejoin:round;stroke-miterlimit:10;stroke-opacity:1;stroke-dasharray:none" /><path
         d="m 3182.41,2808 0,249.6"
         id="path9697"
         style="fill:none;stroke:#000000;stroke-width:5.00002003;stroke-linecap:butt;stroke-linejoin:round;stroke-miterlimit:10;stroke-opacity:1;stroke-dasharray:none" /><path
         d="m 3182.41,2808 835.2,0"
         id="path9699"
         style="fill:none;stroke:#000000;stroke-width:5.00002003;stroke-linecap:butt;stroke-linejoin:round;stroke-miterlimit:10;stroke-opacity:1;stroke-dasharray:none" /><path
         d="m 3182.41,3057.6 835.2,0"
         id="path9701"
         style="fill:none;stroke:#000000;stroke-width:5.00002003;stroke-linecap:butt;stroke-linejoin:round;stroke-miterlimit:10;stroke-opacity:1;stroke-dasharray:none" /><path
         d="m 3182.41,2808 0,249.6"
         id="path9703"
         style="fill:none;stroke:#000000;stroke-width:5.00002003;stroke-linecap:butt;stroke-linejoin:round;stroke-miterlimit:10;stroke-opacity:1;stroke-dasharray:none" /><path
         d="m 4017.61,2808 0,249.6"
         id="path9705"
         style="fill:none;stroke:#000000;stroke-width:5.00002003;stroke-linecap:butt;stroke-linejoin:round;stroke-miterlimit:10;stroke-opacity:1;stroke-dasharray:none" /><g
         transform="scale(10,10)"
         id="g9707"><text
           transform="matrix(1,0,0,-1,357.6,287.04)"
           id="text9709"><tspan
             x="0 10.008 19.007999 25.002001 32.993999"
             y="0"
             id="tspan9711"
             style="font-size:18px;font-variant:normal;font-weight:normal;writing-mode:lr-tb;fill:#000000;fill-opacity:1;fill-rule:nonzero;stroke:none;font-family:Times;-inkscape-font-specification:Times-Roman">Force</tspan></text>
</g><g
         id="g9713"><g
           clip-path="url(#clipPath9717)"
           id="g9715"><path
             d="m 3240,2932.8 297.61,0"
             id="path9721"
             style="fill:none;stroke:#ff0000;stroke-width:20;stroke-linecap:butt;stroke-linejoin:round;stroke-miterlimit:10;stroke-opacity:1;stroke-dasharray:none" /></g></g></g></g></svg>