<?xml version="1.0" encoding="UTF-8" standalone="no"?>
<!-- Created with Inkscape (http://www.inkscape.org/) -->

<svg
   xmlns:ns0="http://www.iki.fi/pav/software/textext/"
   xmlns:dc="http://purl.org/dc/elements/1.1/"
   xmlns:cc="http://creativecommons.org/ns#"
   xmlns:rdf="http://www.w3.org/1999/02/22-rdf-syntax-ns#"
   xmlns:svg="http://www.w3.org/2000/svg"
   xmlns="http://www.w3.org/2000/svg"
   xmlns:xlink="http://www.w3.org/1999/xlink"
   xmlns:sodipodi="http://sodipodi.sourceforge.net/DTD/sodipodi-0.dtd"
   xmlns:inkscape="http://www.inkscape.org/namespaces/inkscape"
   sodipodi:docname="one_block_force_creation.svg"
   inkscape:version="0.48.4 r9939"
   id="svg2"
   height="477.96439"
   width="765.17712"
   version="1.1">
  <sodipodi:namedview
     pagecolor="#ffffff"
     bordercolor="#666666"
     borderopacity="1"
     objecttolerance="10"
     gridtolerance="10"
     guidetolerance="10"
     inkscape:pageopacity="0"
     inkscape:pageshadow="2"
     inkscape:window-width="1920"
     inkscape:window-height="1056"
     id="namedview8011"
     showgrid="false"
     fit-margin-top="0"
     fit-margin-left="0"
     fit-margin-right="0"
     fit-margin-bottom="0"
     inkscape:zoom="1.3765448"
     inkscape:cx="434.45132"
     inkscape:cy="168.30139"
     inkscape:window-x="1920"
     inkscape:window-y="24"
     inkscape:window-maximized="1"
     inkscape:current-layer="svg2" />
  <defs
     id="defs4">
    <inkscape:perspective
       sodipodi:type="inkscape:persp3d"
       inkscape:vp_x="-14.364658 : 161.93875 : 1"
       inkscape:vp_y="0 : -304.57959 : 0"
       inkscape:vp_z="331.7719 : 161.93875 : 1"
       inkscape:persp3d-origin="158.70361 : 185.642 : 1"
       id="perspective12658" />
    <marker
       style="overflow:visible"
       id="Arrow2Lend"
       orient="auto"
       refY="0"
       refX="0">
      <path
         inkscape:connector-curvature="0"
         style="fill-rule:evenodd;stroke-width:0.625;stroke-linejoin:round"
         id="path3868"
         transform="matrix(-1.1,0,0,-1.1,-1.1,0)"
         d="M 8.7185878,4.0337352 -2.2072895,0.01601326 8.7185884,-4.0017078 c -1.7454984,2.3720609 -1.7354408,5.6174519 -6e-7,8.035443 z" />
    </marker>
    <marker
       style="overflow:visible"
       id="Arrow2Lstart"
       orient="auto"
       refY="0"
       refX="0">
      <path
         inkscape:connector-curvature="0"
         style="fill-rule:evenodd;stroke-width:0.625;stroke-linejoin:round"
         id="path3865"
         transform="matrix(1.1,0,0,1.1,1.1,0)"
         d="M 8.7185878,4.0337352 -2.2072895,0.01601326 8.7185884,-4.0017078 c -1.7454984,2.3720609 -1.7354408,5.6174519 -6e-7,8.035443 z" />
    </marker>
    <marker
       style="overflow:visible"
       id="Arrow2Lstart-6"
       orient="auto"
       refY="0"
       refX="0">
      <path
         inkscape:connector-curvature="0"
         style="fill-rule:evenodd;stroke-width:0.625;stroke-linejoin:round"
         id="path3865-5"
         transform="matrix(1.1,0,0,1.1,1.1,0)"
         d="M 8.7185878,4.0337352 -2.2072895,0.01601326 8.7185884,-4.0017078 c -1.7454984,2.3720609 -1.7354408,5.6174519 -6e-7,8.035443 z" />
    </marker>
    <marker
       style="overflow:visible"
       id="Arrow2Lend-4"
       orient="auto"
       refY="0"
       refX="0">
      <path
         inkscape:connector-curvature="0"
         style="fill-rule:evenodd;stroke-width:0.625;stroke-linejoin:round"
         id="path3868-1"
         transform="matrix(-1.1,0,0,-1.1,-1.1,0)"
         d="M 8.7185878,4.0337352 -2.2072895,0.01601326 8.7185884,-4.0017078 c -1.7454984,2.3720609 -1.7354408,5.6174519 -6e-7,8.035443 z" />
    </marker>
    <marker
       style="overflow:visible"
       id="Arrow2Lend-3"
       orient="auto"
       refY="0"
       refX="0">
      <path
         inkscape:connector-curvature="0"
         style="fill-rule:evenodd;stroke-width:0.625;stroke-linejoin:round"
         id="path3868-0"
         transform="matrix(-1.1,0,0,-1.1,-1.1,0)"
         d="M 8.7185878,4.0337352 -2.2072895,0.01601326 8.7185884,-4.0017078 c -1.7454984,2.3720609 -1.7354408,5.6174519 -6e-7,8.035443 z" />
    </marker>
    <marker
       style="overflow:visible"
       id="Arrow2Lend-5"
       orient="auto"
       refY="0"
       refX="0">
      <path
         inkscape:connector-curvature="0"
         style="fill-rule:evenodd;stroke-width:0.625;stroke-linejoin:round"
         id="path3868-7"
         transform="matrix(-1.1,0,0,-1.1,-1.1,0)"
         d="M 8.7185878,4.0337352 -2.2072895,0.01601326 8.7185884,-4.0017078 c -1.7454984,2.3720609 -1.7354408,5.6174519 -6e-7,8.035443 z" />
    </marker>
    <marker
       style="overflow:visible"
       id="Arrow2Lend-0"
       orient="auto"
       refY="0"
       refX="0">
      <path
         inkscape:connector-curvature="0"
         style="fill-rule:evenodd;stroke-width:0.625;stroke-linejoin:round"
         id="path3868-8"
         transform="matrix(-1.1,0,0,-1.1,-1.1,0)"
         d="M 8.7185878,4.0337352 -2.2072895,0.01601326 8.7185884,-4.0017078 c -1.7454984,2.3720609 -1.7354408,5.6174519 -6e-7,8.035443 z" />
    </marker>
    <marker
       style="overflow:visible"
       id="Arrow2Lend-6"
       orient="auto"
       refY="0"
       refX="0">
      <path
         inkscape:connector-curvature="0"
         style="fill-rule:evenodd;stroke-width:0.625;stroke-linejoin:round"
         id="path3868-3"
         transform="matrix(-1.1,0,0,-1.1,-1.1,0)"
         d="M 8.7185878,4.0337352 -2.2072895,0.01601326 8.7185884,-4.0017078 c -1.7454984,2.3720609 -1.7354408,5.6174519 -6e-7,8.035443 z" />
    </marker>
    <marker
       inkscape:stockid="Arrow2LstartZ"
       style="overflow:visible"
       id="Arrow2LstartZ"
       orient="auto"
       refY="0"
       refX="0">
      <path
         inkscape:connector-curvature="0"
         style="fill:#0026ff;fill-rule:evenodd;stroke:#0026ff;stroke-width:0.625;stroke-linejoin:round"
         id="path10561"
         transform="matrix(1.1,0,0,1.1,1.1,0)"
         d="M 8.7185878,4.0337352 -2.2072895,0.01601326 8.7185884,-4.0017078 c -1.7454984,2.3720609 -1.7354408,5.6174519 -6e-7,8.035443 z" />
    </marker>
    <marker
       style="overflow:visible"
       id="Arrow2Lendf"
       orient="auto"
       refY="0"
       refX="0"
       inkscape:stockid="Arrow2Lendf">
      <path
         inkscape:connector-curvature="0"
         style="fill:#ff5c00;fill-rule:evenodd;stroke:#ff5c00;stroke-width:0.625;stroke-linejoin:round"
         id="path10682"
         transform="matrix(-1.1,0,0,-1.1,-1.1,0)"
         d="M 8.7185878,4.0337352 -2.2072895,0.01601326 8.7185884,-4.0017078 c -1.7454984,2.3720609 -1.7354408,5.6174519 -6e-7,8.035443 z" />
    </marker>
    <marker
       style="overflow:visible"
       id="Arrow2Lendo"
       orient="auto"
       refY="0"
       refX="0"
       inkscape:stockid="Arrow2Lendo">
      <path
         inkscape:connector-curvature="0"
         style="fill:#ff5c00;fill-rule:evenodd;stroke:#ff5c00;stroke-width:0.625;stroke-linejoin:round"
         id="path10685"
         transform="matrix(-1.1,0,0,-1.1,-1.1,0)"
         d="M 8.7185878,4.0337352 -2.2072895,0.01601326 8.7185884,-4.0017078 c -1.7454984,2.3720609 -1.7354408,5.6174519 -6e-7,8.035443 z" />
    </marker>
    <marker
       style="overflow:visible"
       id="Arrow2Lendg"
       orient="auto"
       refY="0"
       refX="0"
       inkscape:stockid="Arrow2Lendg">
      <path
         inkscape:connector-curvature="0"
         style="fill:#ff5c00;fill-rule:evenodd;stroke:#ff5c00;stroke-width:0.625;stroke-linejoin:round"
         id="path10688"
         transform="matrix(-1.1,0,0,-1.1,-1.1,0)"
         d="M 8.7185878,4.0337352 -2.2072895,0.01601326 8.7185884,-4.0017078 c -1.7454984,2.3720609 -1.7354408,5.6174519 -6e-7,8.035443 z" />
    </marker>
    <marker
       inkscape:stockid="Arrow2LendI"
       style="overflow:visible"
       id="Arrow2LendI"
       orient="auto"
       refY="0"
       refX="0">
      <path
         inkscape:connector-curvature="0"
         style="fill:#09b200;fill-rule:evenodd;stroke:#09b200;stroke-width:0.625;stroke-linejoin:round"
         id="path10821"
         transform="matrix(-1.1,0,0,-1.1,-1.1,0)"
         d="M 8.7185878,4.0337352 -2.2072895,0.01601326 8.7185884,-4.0017078 c -1.7454984,2.3720609 -1.7354408,5.6174519 -6e-7,8.035443 z" />
    </marker>
    <marker
       inkscape:stockid="Arrow2Lendy"
       style="overflow:visible"
       id="Arrow2Lendy"
       orient="auto"
       refY="0"
       refX="0">
      <path
         inkscape:connector-curvature="0"
         style="fill:#09b200;fill-rule:evenodd;stroke:#09b200;stroke-width:0.625;stroke-linejoin:round"
         id="path10824"
         transform="matrix(-1.1,0,0,-1.1,-1.1,0)"
         d="M 8.7185878,4.0337352 -2.2072895,0.01601326 8.7185884,-4.0017078 c -1.7454984,2.3720609 -1.7354408,5.6174519 -6e-7,8.035443 z" />
    </marker>
    <marker
       inkscape:stockid="Arrow2LendG"
       style="overflow:visible"
       id="Arrow2LendG"
       orient="auto"
       refY="0"
       refX="0">
      <path
         inkscape:connector-curvature="0"
         style="fill:#09b200;fill-rule:evenodd;stroke:#09b200;stroke-width:0.625;stroke-linejoin:round"
         id="path10827"
         transform="matrix(-1.1,0,0,-1.1,-1.1,0)"
         d="M 8.7185878,4.0337352 -2.2072895,0.01601326 8.7185884,-4.0017078 c -1.7454984,2.3720609 -1.7354408,5.6174519 -6e-7,8.035443 z" />
    </marker>
    <marker
       inkscape:stockid="Arrow2Lendy"
       style="overflow:visible"
       id="Arrow2Lendy-3"
       orient="auto"
       refY="0"
       refX="0">
      <path
         inkscape:connector-curvature="0"
         style="fill:#09b200;fill-rule:evenodd;stroke:#09b200;stroke-width:0.625;stroke-linejoin:round"
         id="path10824-5"
         transform="matrix(-1.1,0,0,-1.1,-1.1,0)"
         d="M 8.7185878,4.0337352 -2.2072895,0.01601326 8.7185884,-4.0017078 c -1.7454984,2.3720609 -1.7354408,5.6174519 -6e-7,8.035443 z" />
    </marker>
    <marker
       inkscape:stockid="Arrow2LendyE"
       style="overflow:visible"
       id="Arrow2LendyE"
       orient="auto"
       refY="0"
       refX="0">
      <path
         inkscape:connector-curvature="0"
         style="fill:#000000;fill-rule:evenodd;stroke:#000000;stroke-width:0.625;stroke-linejoin:round"
         id="path12791"
         transform="matrix(-1.1,0,0,-1.1,-1.1,0)"
         d="M 8.7185878,4.0337352 -2.2072895,0.01601326 8.7185884,-4.0017078 c -1.7454984,2.3720609 -1.7354408,5.6174519 -6e-7,8.035443 z" />
    </marker>
  </defs>
  <metadata
     id="metadata7">
    <rdf:RDF>
      <cc:Work
         rdf:about="">
        <dc:format>image/svg+xml</dc:format>
        <dc:type
           rdf:resource="http://purl.org/dc/dcmitype/StillImage" />
        <dc:title />
      </cc:Work>
    </rdf:RDF>
  </metadata>
  <path
     inkscape:connector-curvature="0"
     style="fill:#ffffff;fill-opacity:1;fill-rule:evenodd;stroke:#000000;stroke-width:3.7605958;stroke-miterlimit:4;stroke-opacity:1;stroke-dasharray:none;stroke-dashoffset:0"
     id="path3003-5-3"
     d="M 694.87043,88.580484 762.88272,299.99947 757.2751,338.48798 689.2628,127.06899 z" />
  <path
     inkscape:connector-curvature="0"
     style="fill:#ffffff;fill-opacity:1;fill-rule:evenodd;stroke:#000000;stroke-width:2.99777389;stroke-miterlimit:4;stroke-opacity:1;stroke-dasharray:none;stroke-dashoffset:0"
     id="path3013-4"
     d="M 369.20077,190.02286 684.98831,133.43391 750.91833,336.18906 435.1308,392.778 z" />
  <path
     inkscape:connector-curvature="0"
     style="fill:#ffffff;fill-opacity:1;fill-rule:evenodd;stroke:#000000;stroke-width:2.85754132;stroke-miterlimit:4;stroke-opacity:1;stroke-dasharray:none;stroke-dashoffset:0"
     id="path3005-2"
     d="m 395.95743,139.50506 297.15539,-21.89401 -3.35237,37.17312 -297.1554,21.89401 z" />
  <path
     inkscape:connector-curvature="0"
     style="fill:#ffffff;fill-opacity:1;fill-rule:evenodd;stroke:#000000;stroke-width:3.09499192;stroke-miterlimit:4;stroke-opacity:1;stroke-dasharray:none;stroke-dashoffset:0"
     id="path3011-5"
     d="m 442.11607,355.19686 321.51354,-58.55832 -7.47131,41.39688 -321.51353,58.55834 z" />
  <path
     inkscape:connector-curvature="0"
     style="fill:#ffffff;fill-opacity:1;fill-rule:evenodd;stroke:#000000;stroke-width:3.7605958;stroke-miterlimit:4;stroke-opacity:1;stroke-dasharray:none;stroke-dashoffset:0"
     id="path3003-5"
     d="m 372.51177,142.86242 68.01229,211.41899 -5.60762,38.48851 -68.0123,-211.41899 z" />
  <path
     inkscape:connector-curvature="0"
     style="fill:#ffffff;fill-opacity:1;fill-rule:evenodd;stroke:#000000;stroke-width:3.09106565;stroke-miterlimit:4;stroke-opacity:1;stroke-dasharray:none;stroke-dashoffset:0"
     id="path3013-4-6"
     d="M 373.98727,143.58157 696.30845,84.635297 763.60256,295.83665 441.28139,354.78293 z" />
  <g
     transform="matrix(6,0,0,-6,-734.92372,4003.08)"
     id="g4613"
     xml:space="preserve"
     style="font-style:normal;font-variant:normal;font-weight:normal;font-stretch:normal;letter-spacing:normal;word-spacing:normal;text-anchor:start;fill:none;stroke:#000000;stroke-linecap:butt;stroke-linejoin:miter;stroke-miterlimit:10.43299961;stroke-opacity:1;stroke-dasharray:none;stroke-dashoffset:0"><path
       d="m 228.6,664.98 0.01,0 0,0 0,0 0,0 0,0 0,0.01 0,0 0,0 0,0 0,0 0,0.01 0,0 0,0.01 0,0 0.01,0.01 0,0 0,0 0,0.01 0,0.01 0,0 0,0.01 0,0 0.01,0.01 0,0 0,0.01 0,0 0,0 0,0.01 0,0 0,0 0,0 0,0 0,0.01 0,0 0,0 0,0 0,0 0,0 0,0 0,0 0,0 c 0,0.04 -0.03,0.1 -0.11,0.1 -0.14,0 -0.72,-0.06 -0.89,-0.07 -0.06,-0.01 -0.15,-0.02 -0.15,-0.16 0,-0.1 0.09,-0.1 0.18,-0.1 0.33,0 0.33,-0.05 0.33,-0.1 0,-0.05 -0.01,-0.09 -0.03,-0.16 l -0.39,-1.58 c -0.15,0.23 -0.39,0.41 -0.72,0.41 v -0.2 c 0.49,0 0.62,-0.52 0.62,-0.6 0,-0.03 -0.01,-0.08 -0.02,-0.1 l -0.33,-1.3 c -0.05,-0.19 -0.2,-0.33 -0.35,-0.46 -0.07,-0.06 -0.34,-0.28 -0.65,-0.28 -0.25,0 -0.5,0.18 -0.5,0.67 0,0.37 0.2,1.14 0.36,1.41 0.32,0.56 0.67,0.66 0.87,0.66 v 0.2 c -0.89,0 -1.8,-0.98 -1.8,-1.98 0,-0.68 0.46,-1.16 1.05,-1.16 0.38,0 0.72,0.22 0.99,0.49 0.14,-0.42 0.54,-0.49 0.72,-0.49 0.25,0 0.43,0.16 0.55,0.37 0.15,0.27 0.24,0.67 0.24,0.7 0,0.09 -0.09,0.09 -0.11,0.09 -0.09,0 -0.1,-0.03 -0.15,-0.22 -0.08,-0.33 -0.22,-0.74 -0.51,-0.74 -0.18,0 -0.23,0.15 -0.23,0.34 0,0.13 0.02,0.19 0.04,0.28 z"
       id="path4615"
       style="fill:#000000;stroke-width:0"
       inkscape:connector-curvature="0" /><path
       d="m 234.23,663.92 0.1,0.02 0.09,0.02 0.1,0.02 0.09,0.03 0.09,0.03 0.09,0.03 0.08,0.03 0.08,0.03 0.08,0.04 0.07,0.04 0.07,0.04 0.07,0.04 0.07,0.04 0.06,0.05 0.06,0.05 0.06,0.05 0.05,0.05 0.06,0.05 0.04,0.06 0.05,0.05 0.04,0.06 0.04,0.06 0.03,0.06 0.03,0.06 0.03,0.06 0.02,0.07 0.02,0.06 0.02,0.07 0.01,0.07 0.01,0.07 0.01,0.07 0,0.07 c 0,0.91 -0.87,1.71 -2.47,1.71 l -0.13,-0.47 c 1.01,0 1.19,-0.78 1.19,-1.24 0,-0.77 -0.48,-1.38 -1.45,-1.38 h -1.55 v -0.36 h 1.93 c 0.2,0 0.67,0 1.01,-0.43 0.32,-0.41 0.32,-0.97 0.32,-1.08 0,-0.12 0,-1.39 -1.43,-1.39 h 0 -1.83 v 2.9 0.36 2.62 h 1.81 l 0.13,0.47 h -4.32 v -0.47 h 1.08 v -5.88 h -1.08 v -0.47 h 4.62 c 1.65,0 2.49,0.88 2.49,1.85 0,0.95 -0.86,1.62 -2.04,1.71 z"
       id="path4617"
       style="fill:#000000;stroke-width:0"
       inkscape:connector-curvature="0" /><line
       style="stroke-width:0.398"
       x1="224.63"
       y1="658.92999"
       x2="236.92999"
       y2="658.92999"
       id="line4619" /><path
       d="m 231.18,657.62 0,0 0,0 0,0 0,0 0,0.01 0,0 0,0 0,0 0,0 0,0.01 0,0 0,0 0,0.01 0,0 0.01,0.01 0,0 0,0.01 0,0 0,0.01 0,0.01 0,0 0.01,0.01 0,0 0,0.01 0,0 0,0 0,0.01 0,0 0,0 0,0 0,0.01 0,0 0,0 0,0 0,0 0,0 0,0 0,0 0,0 0,0 c 0,0.04 -0.02,0.1 -0.11,0.1 -0.14,0 -0.72,-0.06 -0.89,-0.07 -0.06,-0.01 -0.15,-0.01 -0.15,-0.16 0,-0.1 0.09,-0.1 0.18,-0.1 0.33,0 0.33,-0.05 0.33,-0.1 0,-0.05 -0.01,-0.09 -0.03,-0.15 l -0.39,-1.59 c -0.15,0.23 -0.39,0.41 -0.72,0.41 v -0.19 c 0.49,0 0.62,-0.53 0.62,-0.61 0,-0.03 -0.01,-0.08 -0.02,-0.1 l -0.33,-1.3 c -0.05,-0.19 -0.2,-0.33 -0.35,-0.46 -0.07,-0.06 -0.35,-0.28 -0.64,-0.28 -0.26,0 -0.51,0.18 -0.51,0.67 0,0.37 0.2,1.14 0.36,1.42 0.32,0.55 0.68,0.66 0.87,0.66 v 0.19 c -0.89,0 -1.8,-0.98 -1.8,-1.98 0,-0.68 0.46,-1.16 1.05,-1.16 0.38,0 0.71,0.22 0.99,0.49 0.14,-0.42 0.54,-0.49 0.72,-0.49 0.25,0 0.43,0.16 0.55,0.37 0.15,0.27 0.25,0.67 0.25,0.7 0,0.09 -0.1,0.09 -0.12,0.09 -0.09,0 -0.1,-0.03 -0.15,-0.22 -0.08,-0.33 -0.22,-0.74 -0.51,-0.74 -0.18,0 -0.23,0.15 -0.23,0.34 0,0.13 0.02,0.19 0.04,0.29 z"
       id="path4621"
       style="fill:#000000;stroke-width:0"
       inkscape:connector-curvature="0" /><path
       d="m 233.06,655.75 h 0.71 c 0.13,0 0.22,0 0.22,0.15 0,0.1 -0.09,0.1 -0.21,0.1 h -0.66 l 0.26,1.03 c 0.01,0.04 0.02,0.07 0.02,0.1 0,0.12 -0.1,0.22 -0.24,0.22 -0.17,0 -0.28,-0.12 -0.32,-0.3 -0.05,-0.17 0.04,0.16 -0.27,-1.05 h -0.71 c -0.13,0 -0.22,0 -0.22,-0.15 0,-0.1 0.08,-0.1 0.21,-0.1 h 0.66 l -0.41,-1.64 c -0.04,-0.17 -0.11,-0.43 -0.11,-0.52 0,-0.41 0.35,-0.66 0.75,-0.66 0.77,0 1.21,0.98 1.21,1.07 0,0.09 -0.09,0.09 -0.11,0.09 -0.08,0 -0.09,-0.01 -0.15,-0.13 -0.19,-0.44 -0.55,-0.83 -0.93,-0.83 -0.15,0 -0.25,0.09 -0.25,0.34 0,0.07 0.03,0.21 0.05,0.29 z"
       id="path4623"
       style="fill:#000000;stroke-width:0"
       inkscape:connector-curvature="0" /></g>  <path
     d="M 654.93445,132.20038 411.93867,172.42543"
     id="path4663"
     style="fill:#ff5c00;fill-opacity:1;stroke:#ff5c00;stroke-width:1.70000005;stroke-linecap:butt;stroke-linejoin:miter;stroke-miterlimit:4;stroke-opacity:1;stroke-dasharray:3.4, 1.7;stroke-dashoffset:0;marker-end:url(#Arrow2Lendo)"
     inkscape:connector-curvature="0" />
  <path
     d="M 671.06065,200.66496 428.06486,240.89"
     id="path4663-3"
     style="fill:#ff5c00;fill-opacity:1;stroke:#ff5c00;stroke-width:1.70000005;stroke-linecap:square;stroke-linejoin:bevel;stroke-miterlimit:4;stroke-opacity:1;stroke-dasharray:1.7, 3.4;stroke-dashoffset:0;marker-end:url(#Arrow2Lendf)"
     inkscape:connector-curvature="0" />
  <path
     d="M 689.55579,263.48729 446.56001,303.71234"
     id="path4663-4"
     style="fill:#ff5c00;fill-opacity:1;stroke:#ff5c00;stroke-width:1.70000005;stroke-linecap:butt;stroke-linejoin:miter;stroke-miterlimit:4;stroke-opacity:1;stroke-dasharray:3.4000001, 1.70000005;stroke-dashoffset:0;marker-end:url(#Arrow2Lendg)"
     inkscape:connector-curvature="0" />
  <g
     transform="matrix(6,0,0,-6,-662.21372,4107.0161)"
     id="g4942"
     xml:space="preserve"
     style="font-style:normal;font-variant:normal;font-weight:normal;font-stretch:normal;letter-spacing:normal;word-spacing:normal;text-anchor:start;fill:#ff5c00;fill-opacity:1;stroke:#000000;stroke-linecap:butt;stroke-linejoin:miter;stroke-miterlimit:10.43299961;stroke-opacity:1;stroke-dasharray:none;stroke-dashoffset:0"><path
       d="m 225.66,661.71 -1.73,-0.08 v -0.47 c 0.59,0 0.66,0 0.66,-0.39 v -3.07 h -0.69 v -0.47 c 0.31,0.01 0.8,0.04 1.21,0.04 0.3,0 0.81,-0.03 1.17,-0.04 v 0.47 h -0.62 z"
       id="path4944"
       style="fill:#ff5c00;fill-opacity:1;stroke:#000000;stroke-width:0;stroke-opacity:1"
       inkscape:connector-curvature="0" /><path
       d="m 225.76,663.36 0,0.04 0,0.04 -0.01,0.04 -0.01,0.04 -0.01,0.04 -0.01,0.04 -0.01,0.03 -0.01,0.04 -0.02,0.03 -0.02,0.04 -0.01,0.03 -0.03,0.03 -0.02,0.03 -0.02,0.03 -0.03,0.03 -0.02,0.03 -0.03,0.02 -0.03,0.02 -0.03,0.03 -0.03,0.02 -0.03,0.02 -0.03,0.02 -0.03,0.01 -0.04,0.02 -0.03,0.01 -0.04,0.01 -0.04,0.02 -0.03,0 -0.04,0.01 -0.04,0.01 -0.04,0 -0.04,0 c -0.42,0 -0.77,-0.35 -0.77,-0.78 0,-0.42 0.35,-0.77 0.77,-0.77 0.42,0 0.78,0.34 0.78,0.77 z"
       id="path4946"
       style="fill:#ff5c00;fill-opacity:1;stroke:#000000;stroke-width:0;stroke-opacity:1"
       inkscape:connector-curvature="0" /></g>  <path
     d="m 509.83075,364.39276 21.25422,68.00438"
     id="path4389-6"
     style="fill:#09b200;fill-opacity:1;stroke:#09b200;stroke-width:3;stroke-linecap:butt;stroke-linejoin:miter;stroke-miterlimit:4;stroke-opacity:1;stroke-dasharray:none;marker-end:url(#Arrow2LendI)"
     inkscape:connector-curvature="0" />
  <path
     d="m 612.10395,345.56783 21.25421,68.00437"
     id="path4389-0"
     style="fill:#09b200;fill-opacity:1;stroke:#09b200;stroke-width:3;stroke-linecap:butt;stroke-linejoin:miter;stroke-miterlimit:4;stroke-opacity:1;stroke-dasharray:none;marker-end:url(#Arrow2Lendy)"
     inkscape:connector-curvature="0" />
  <path
     d="m 709.04579,323.40644 21.25422,68.00437"
     id="path4389-1"
     style="fill:#09b200;fill-opacity:1;stroke:#09b200;stroke-width:3;stroke-linecap:butt;stroke-linejoin:miter;stroke-miterlimit:4;stroke-opacity:1;stroke-dasharray:none;marker-end:url(#Arrow2LendG)"
     inkscape:connector-curvature="0" />
  <g
     transform="matrix(6,0,0,-6,-833.71272,4001.0253)"
     id="content-4"
     xml:space="preserve"
     style="font-style:normal;font-variant:normal;font-weight:normal;font-stretch:normal;letter-spacing:normal;word-spacing:normal;text-anchor:start;fill:#0026ff;fill-opacity:1;stroke:#0026ff;stroke-linecap:butt;stroke-linejoin:miter;stroke-miterlimit:10.43299961;stroke-opacity:1;stroke-dasharray:none;stroke-dashoffset:0"><path
       d="m 228.88,660.79 0.1,0.02 0.1,0.02 0.09,0.02 0.1,0.03 0.09,0.03 0.08,0.03 0.09,0.03 0.08,0.04 0.07,0.03 0.08,0.04 0.07,0.04 0.07,0.04 0.07,0.05 0.06,0.04 0.06,0.05 0.06,0.05 0.05,0.05 0.05,0.05 0.05,0.06 0.04,0.05 0.04,0.06 0.04,0.06 0.04,0.06 0.03,0.06 0.02,0.07 0.03,0.06 0.02,0.07 0.02,0.06 0.01,0.07 0.01,0.07 0,0.07 0,0.07 c 0,0.92 -0.86,1.71 -2.46,1.71 l -0.13,-0.47 c 1,0 1.18,-0.78 1.18,-1.24 0,-0.76 -0.48,-1.38 -1.44,-1.38 h -1.55 v -0.36 h 1.93 c 0.2,0 0.66,0 1,-0.43 0.33,-0.41 0.33,-0.97 0.33,-1.08 0,-0.12 0,-1.39 -1.43,-1.39 h 0 -1.83 v 2.9 0.36 2.62 h 1.81 l 0.13,0.47 h -4.32 v -0.47 h 1.08 v -5.88 h -1.08 v -0.47 h 4.62 c 1.65,0 2.48,0.88 2.48,1.85 0,0.96 -0.85,1.62 -2.04,1.71 z"
       id="path5222-9"
       style="fill:#0026ff;fill-opacity:1;stroke:#0026ff;stroke-width:0;stroke-opacity:1"
       inkscape:connector-curvature="0" /></g>  <g
     transform="matrix(6,0,0,-6,-994.31483,4348.8707)"
     id="g3095"
     xml:space="preserve"
     style="font-style:normal;font-variant:normal;font-weight:normal;font-stretch:normal;letter-spacing:normal;word-spacing:normal;text-anchor:start;fill:#09b200;fill-opacity:1;stroke:#09b200;stroke-linecap:butt;stroke-linejoin:miter;stroke-miterlimit:10.43299961;stroke-opacity:1;stroke-dasharray:none;stroke-dashoffset:0"><path
       d="m 270.28843,651.91105 h -5.46 v -0.31 h 0.24 c 0.76,0 0.79,-0.11 0.79,-0.46 v -5.21 c 0,-0.36 -0.03,-0.47 -0.79,-0.47 h -0.24 v -0.31 c 0.35,0.04 1.12,0.04 1.51,0.04 0.41,0 1.32,0 1.67,-0.04 v 0.31 h -0.32 c -0.95,0 -0.95,0.13 -0.95,0.48 v 2.44 h 0.86 c 0.95,0 1.05,-0.31 1.05,-1.16 h 0.25 v 2.63 h -0.25 c 0,-0.83 -0.1,-1.16 -1.05,-1.16 h -0.86 v 2.51 c 0,0.33 0.02,0.4 0.49,0.4 h 1.19 c 1.49,0 1.74,-0.55 1.9,-1.92 h 0.25 z"
       id="path3097"
       style="fill:#09b200;fill-opacity:1;stroke:#09b200;stroke-width:0;stroke-opacity:1"
       inkscape:connector-curvature="0" /></g>  <path
     d="m 571.20434,235.27982 c 0,-222.25268 0.80526,-222.25268 0.80526,-222.25268"
     id="path3841-2"
     style="fill:#0026ff;fill-opacity:1;stroke:#0026ff;stroke-width:4;stroke-linecap:butt;stroke-linejoin:miter;stroke-miterlimit:4;stroke-opacity:1;stroke-dasharray:none;marker-start:url(#Arrow2LstartZ)"
     inkscape:connector-curvature="0" />
  <g
     ns0:text="$$\\nabla^2 \\textbf{A} = \\mu_0\\sigma \\frac{d\\textbf{A}}{dt}$$"
     ns0:preamble="/home/ben/configs/anyname.ini"
     transform="matrix(5.2607475,0,0,5.2607475,-1904.484,-405.26647)"
     id="g12049">
    <defs
       id="defs12051">
      <g
         id="g12053">
        <symbol
           style="overflow:visible"
           overflow="visible"
           id="textext-3899b6e3-0">
          <path
             inkscape:connector-curvature="0"
             style="stroke:none"
             d=""
             id="path12056" />
        </symbol>
        <symbol
           style="overflow:visible"
           overflow="visible"
           id="textext-3899b6e3-1">
          <path
             inkscape:connector-curvature="0"
             style="stroke:none"
             d="M 7.78125,-6.59375 C 7.796875,-6.625 7.828125,-6.6875 7.828125,-6.734375 7.828125,-6.796875 7.8125,-6.8125 7.59375,-6.8125 l -6.890625,0 c -0.21875,0 -0.234375,0.015625 -0.234375,0.078125 0,0.046875 0.03125,0.109375 0.046875,0.140625 L 3.875,0.140625 c 0.078125,0.125 0.109375,0.1875 0.265625,0.1875 0.171875,0 0.203125,-0.0625 0.28125,-0.1875 z m -6.078125,0.5 5.46875,0 -2.71875,5.484375 z m 0,0"
             id="path12059" />
        </symbol>
        <symbol
           style="overflow:visible"
           overflow="visible"
           id="textext-3899b6e3-2">
          <path
             inkscape:connector-curvature="0"
             style="stroke:none"
             d=""
             id="path12062" />
        </symbol>
        <symbol
           style="overflow:visible"
           overflow="visible"
           id="textext-3899b6e3-3">
          <path
             inkscape:connector-curvature="0"
             style="stroke:none"
             d="m 3.515625,-1.265625 -0.234375,0 c -0.015625,0.15625 -0.09375,0.5625 -0.1875,0.625 -0.046875,0.046875 -0.578125,0.046875 -0.6875,0.046875 l -1.28125,0 c 0.734375,-0.640625 0.984375,-0.84375 1.390625,-1.171875 0.515625,-0.40625 1,-0.84375 1,-1.5 0,-0.84375 -0.734375,-1.359375 -1.625,-1.359375 -0.859375,0 -1.453125,0.609375 -1.453125,1.25 0,0.34375 0.296875,0.390625 0.375,0.390625 0.15625,0 0.359375,-0.125 0.359375,-0.375 0,-0.125 -0.046875,-0.375 -0.40625,-0.375 C 0.984375,-4.21875 1.453125,-4.375 1.78125,-4.375 c 0.703125,0 1.0625,0.546875 1.0625,1.109375 0,0.609375 -0.4375,1.078125 -0.65625,1.328125 L 0.515625,-0.265625 C 0.4375,-0.203125 0.4375,-0.1875 0.4375,0 l 2.875,0 z m 0,0"
             id="path12065" />
        </symbol>
        <symbol
           style="overflow:visible"
           overflow="visible"
           id="textext-3899b6e3-4">
          <path
             inkscape:connector-curvature="0"
             style="stroke:none"
             d="M 3.59375,-2.21875 C 3.59375,-2.984375 3.5,-3.546875 3.1875,-4.03125 2.96875,-4.34375 2.53125,-4.625 1.984375,-4.625 c -1.625,0 -1.625,1.90625 -1.625,2.40625 0,0.5 0,2.359375 1.625,2.359375 1.609375,0 1.609375,-1.859375 1.609375,-2.359375 z M 1.984375,-0.0625 c -0.328125,0 -0.75,-0.1875 -0.890625,-0.75 C 1,-1.21875 1,-1.796875 1,-2.3125 1,-2.828125 1,-3.359375 1.09375,-3.734375 1.25,-4.28125 1.6875,-4.4375 1.984375,-4.4375 c 0.375,0 0.734375,0.234375 0.859375,0.640625 0.109375,0.375 0.125,0.875 0.125,1.484375 0,0.515625 0,1.03125 -0.09375,1.46875 -0.140625,0.640625 -0.609375,0.78125 -0.890625,0.78125 z m 0,0"
             id="path12068" />
        </symbol>
        <symbol
           style="overflow:visible"
           overflow="visible"
           id="textext-3899b6e3-5">
          <path
             inkscape:connector-curvature="0"
             style="stroke:none"
             d=""
             id="path12071" />
        </symbol>
        <symbol
           style="overflow:visible"
           overflow="visible"
           id="textext-3899b6e3-6">
          <path
             inkscape:connector-curvature="0"
             style="stroke:none"
             d="m 4.71875,-6.703125 c -0.109375,-0.25 -0.21875,-0.25 -0.390625,-0.25 -0.28125,0 -0.328125,0.078125 -0.390625,0.25 l -2.46875,6 C 1.40625,-0.546875 1.375,-0.46875 0.625,-0.46875 l -0.21875,0 0,0.46875 c 0.375,-0.015625 0.859375,-0.03125 1.171875,-0.03125 0.390625,0 0.9375,0 1.3125,0.03125 l 0,-0.46875 C 2.875,-0.46875 2,-0.46875 2,-0.59375 c 0,-0.015625 0.03125,-0.109375 0.046875,-0.125 l 0.5,-1.203125 2.671875,0 0.59375,1.453125 -0.953125,0 0,0.46875 C 5.25,-0.03125 6.1875,-0.03125 6.625,-0.03125 c 0.390625,0 1.265625,0 1.625,0.03125 l 0,-0.46875 -0.96875,0 z M 3.875,-5.15625 l 1.140625,2.765625 -2.28125,0 z m 0,0"
             id="path12074" />
        </symbol>
        <symbol
           style="overflow:visible"
           overflow="visible"
           id="textext-3899b6e3-7">
          <path
             inkscape:connector-curvature="0"
             style="stroke:none"
             d=""
             id="path12077" />
        </symbol>
        <symbol
           style="overflow:visible"
           overflow="visible"
           id="textext-3899b6e3-8">
          <path
             inkscape:connector-curvature="0"
             style="stroke:none"
             d="m 6.84375,-3.265625 c 0.15625,0 0.34375,0 0.34375,-0.1875 C 7.1875,-3.65625 7,-3.65625 6.859375,-3.65625 l -5.96875,0 c -0.140625,0 -0.328125,0 -0.328125,0.203125 0,0.1875 0.1875,0.1875 0.328125,0.1875 z m 0.015625,1.9375 c 0.140625,0 0.328125,0 0.328125,-0.203125 0,-0.1875 -0.1875,-0.1875 -0.34375,-0.1875 l -5.953125,0 c -0.140625,0 -0.328125,0 -0.328125,0.1875 0,0.203125 0.1875,0.203125 0.328125,0.203125 z m 0,0"
             id="path12080" />
        </symbol>
        <symbol
           style="overflow:visible"
           overflow="visible"
           id="textext-3899b6e3-9">
          <path
             inkscape:connector-curvature="0"
             style="stroke:none"
             d=""
             id="path12083" />
        </symbol>
        <symbol
           style="overflow:visible"
           overflow="visible"
           id="textext-3899b6e3-10">
          <path
             inkscape:connector-curvature="0"
             style="stroke:none"
             d="m 2.296875,-3.5 c 0.0625,-0.203125 0.15625,-0.59375 0.15625,-0.640625 0,-0.171875 -0.125,-0.265625 -0.296875,-0.265625 -0.015625,0 -0.296875,0.015625 -0.390625,0.359375 l -1.4375,5.765625 c -0.03125,0.125 -0.03125,0.140625 -0.03125,0.171875 0,0.140625 0.109375,0.265625 0.28125,0.265625 0.203125,0 0.328125,-0.1875 0.34375,-0.21875 C 0.96875,1.859375 1.09375,1.328125 1.46875,-0.203125 1.796875,0.0625 2.25,0.109375 2.4375,0.109375 c 0.703125,0 1.09375,-0.453125 1.328125,-0.734375 0.09375,0.453125 0.46875,0.734375 0.90625,0.734375 0.34375,0 0.578125,-0.234375 0.734375,-0.546875 0.171875,-0.359375 0.296875,-0.96875 0.296875,-0.984375 0,-0.109375 -0.09375,-0.109375 -0.125,-0.109375 -0.09375,0 -0.109375,0.046875 -0.140625,0.1875 -0.15625,0.640625 -0.34375,1.234375 -0.75,1.234375 -0.265625,0 -0.296875,-0.265625 -0.296875,-0.453125 0,-0.21875 0.109375,-0.6875 0.1875,-1.046875 L 4.859375,-2.6875 C 4.890625,-2.828125 5,-3.203125 5.03125,-3.359375 5.078125,-3.59375 5.1875,-3.96875 5.1875,-4.03125 c 0,-0.171875 -0.140625,-0.265625 -0.296875,-0.265625 -0.046875,0 -0.3125,0.015625 -0.390625,0.34375 l -0.46875,1.875 c -0.109375,0.5 -0.21875,0.90625 -0.25,1.015625 -0.015625,0.046875 -0.484375,0.953125 -1.296875,0.953125 -0.5,0 -0.734375,-0.328125 -0.734375,-0.875 0,-0.28125 0.0625,-0.5625 0.140625,-0.84375 z m 0,0"
             id="path12086" />
        </symbol>
        <symbol
           style="overflow:visible"
           overflow="visible"
           id="textext-3899b6e3-11">
          <path
             inkscape:connector-curvature="0"
             style="stroke:none"
             d="m 5.15625,-3.71875 c 0.140625,0 0.5,0 0.5,-0.34375 0,-0.234375 -0.21875,-0.234375 -0.390625,-0.234375 l -2.28125,0 c -1.5,0 -2.609375,1.640625 -2.609375,2.828125 0,0.875 0.59375,1.578125 1.5,1.578125 1.171875,0 2.5,-1.203125 2.5,-2.734375 0,-0.171875 0,-0.65625 -0.3125,-1.09375 z M 1.890625,-0.109375 C 1.390625,-0.109375 1,-0.46875 1,-1.1875 c 0,-0.296875 0.109375,-1.109375 0.46875,-1.703125 0.421875,-0.6875 1.015625,-0.828125 1.359375,-0.828125 0.828125,0 0.90625,0.65625 0.90625,0.96875 0,0.46875 -0.203125,1.28125 -0.53125,1.796875 -0.390625,0.578125 -0.9375,0.84375 -1.3125,0.84375 z m 0,0"
             id="path12089" />
        </symbol>
        <symbol
           style="overflow:visible"
           overflow="visible"
           id="textext-3899b6e3-12">
          <path
             inkscape:connector-curvature="0"
             style="stroke:none"
             d="m 5.140625,-6.8125 c 0,0 0,-0.109375 -0.125,-0.109375 -0.15625,0 -1.09375,0.09375 -1.265625,0.109375 -0.078125,0.015625 -0.140625,0.0625 -0.140625,0.1875 0,0.125 0.09375,0.125 0.234375,0.125 0.484375,0 0.5,0.0625 0.5,0.171875 L 4.3125,-6.125 3.71875,-3.765625 C 3.53125,-4.140625 3.25,-4.40625 2.796875,-4.40625 c -1.15625,0 -2.390625,1.46875 -2.390625,2.921875 0,0.9375 0.546875,1.59375 1.3125,1.59375 0.203125,0 0.703125,-0.046875 1.296875,-0.75 0.078125,0.421875 0.4375,0.75 0.90625,0.75 0.359375,0 0.578125,-0.234375 0.75,-0.546875 0.15625,-0.359375 0.296875,-0.96875 0.296875,-0.984375 0,-0.109375 -0.09375,-0.109375 -0.125,-0.109375 -0.09375,0 -0.109375,0.046875 -0.140625,0.1875 -0.171875,0.640625 -0.34375,1.234375 -0.75,1.234375 -0.28125,0 -0.296875,-0.265625 -0.296875,-0.453125 0,-0.25 0.015625,-0.3125 0.046875,-0.484375 z m -2.0625,5.625 C 3.015625,-1 3.015625,-0.984375 2.875,-0.8125 2.4375,-0.265625 2.03125,-0.109375 1.75,-0.109375 c -0.5,0 -0.640625,-0.546875 -0.640625,-0.9375 0,-0.5 0.3125,-1.71875 0.546875,-2.1875 0.3125,-0.578125 0.75,-0.953125 1.15625,-0.953125 0.640625,0 0.78125,0.8125 0.78125,0.875 0,0.0625 -0.015625,0.125 -0.03125,0.171875 z m 0,0"
             id="path12092" />
        </symbol>
        <symbol
           style="overflow:visible"
           overflow="visible"
           id="textext-3899b6e3-13">
          <path
             inkscape:connector-curvature="0"
             style="stroke:none"
             d="m 2.046875,-3.984375 0.9375,0 c 0.203125,0 0.3125,0 0.3125,-0.203125 0,-0.109375 -0.109375,-0.109375 -0.28125,-0.109375 l -0.875,0 C 2.5,-5.71875 2.546875,-5.90625 2.546875,-5.96875 c 0,-0.171875 -0.125,-0.265625 -0.296875,-0.265625 -0.03125,0 -0.3125,0 -0.390625,0.359375 l -0.390625,1.578125 -0.9375,0 c -0.203125,0 -0.296875,0 -0.296875,0.1875 0,0.125 0.078125,0.125 0.28125,0.125 l 0.875,0 C 0.671875,-1.15625 0.625,-0.984375 0.625,-0.8125 0.625,-0.265625 1,0.109375 1.546875,0.109375 2.5625,0.109375 3.125,-1.34375 3.125,-1.421875 3.125,-1.53125 3.046875,-1.53125 3.015625,-1.53125 2.921875,-1.53125 2.90625,-1.5 2.859375,-1.390625 2.4375,-0.34375 1.90625,-0.109375 1.5625,-0.109375 c -0.203125,0 -0.3125,-0.125 -0.3125,-0.453125 0,-0.25 0.03125,-0.3125 0.0625,-0.484375 z m 0,0"
             id="path12095" />
        </symbol>
      </g>
    </defs>
    <g
       id="textext-3899b6e3-14">
      <g
         style="fill:#000000;fill-opacity:1"
         id="g12098">
        <use
           height="466.93729"
           width="344.02475"
           xlink:href="#textext-3899b6e3-1"
           x="361.54901"
           y="138.46001"
           id="use12100" />
      </g>
      <g
         style="fill:#000000;fill-opacity:1"
         id="g12102">
        <use
           height="466.93729"
           width="344.02475"
           xlink:href="#textext-3899b6e3-3"
           x="369.85101"
           y="134.347"
           id="use12104" />
      </g>
      <g
         style="fill:#000000;fill-opacity:1"
         id="g12106">
        <use
           height="466.93729"
           width="344.02475"
           xlink:href="#textext-3899b6e3-6"
           x="374.32001"
           y="138.46001"
           id="use12108" />
      </g>
      <g
         style="fill:#000000;fill-opacity:1"
         id="g12110">
        <use
           height="466.93729"
           width="344.02475"
           xlink:href="#textext-3899b6e3-8"
           x="385.75"
           y="138.46001"
           id="use12112" />
      </g>
      <g
         style="fill:#000000;fill-opacity:1"
         id="g12114">
        <use
           height="466.93729"
           width="344.02475"
           xlink:href="#textext-3899b6e3-10"
           x="396.26599"
           y="138.46001"
           id="use12116" />
      </g>
      <g
         style="fill:#000000;fill-opacity:1"
         id="g12118">
        <use
           height="466.93729"
           width="344.02475"
           xlink:href="#textext-3899b6e3-4"
           x="402.26901"
           y="139.955"
           id="use12120" />
      </g>
      <g
         style="fill:#000000;fill-opacity:1"
         id="g12122">
        <use
           height="466.93729"
           width="344.02475"
           xlink:href="#textext-3899b6e3-11"
           x="406.73801"
           y="138.46001"
           id="use12124" />
      </g>
      <g
         style="fill:#000000;fill-opacity:1"
         id="g12126">
        <use
           height="466.93729"
           width="344.02475"
           xlink:href="#textext-3899b6e3-12"
           x="413.98401"
           y="131.72"
           id="use12128" />
      </g>
      <g
         style="fill:#000000;fill-opacity:1"
         id="g12130">
        <use
           height="466.93729"
           width="344.02475"
           xlink:href="#textext-3899b6e3-6"
           x="419.16901"
           y="131.72"
           id="use12132" />
      </g>
      <path
         inkscape:connector-curvature="0"
         style="fill:none;stroke:#000000;stroke-width:0.398;stroke-linecap:butt;stroke-linejoin:miter;stroke-miterlimit:10;stroke-opacity:1"
         d="m 3.75e-4,0.00125 13.847656,0"
         transform="matrix(1,0,0,-1,413.984,135.97)"
         id="path12134" />
      <g
         style="fill:#000000;fill-opacity:1"
         id="g12136">
        <use
           height="466.93729"
           width="344.02475"
           xlink:href="#textext-3899b6e3-12"
           x="416.51599"
           y="145.29401"
           id="use12138" />
        <use
           height="466.93729"
           width="344.02475"
           xlink:href="#textext-3899b6e3-13"
           x="421.70154"
           y="145.29401"
           id="use12140" />
      </g>
    </g>
  </g>
  <path
     d="m 571.57463,13.47633 30.41268,64.431397"
     id="path4389-0-7"
     style="fill:#09b200;fill-opacity:1;stroke:#000000;stroke-width:3;stroke-linecap:butt;stroke-linejoin:miter;stroke-miterlimit:4;stroke-opacity:1;stroke-dasharray:none;marker-end:url(#Arrow2LendyE)"
     inkscape:connector-curvature="0" />
  <g
     id="g13131"
     ns0:preamble="/home/ben/configs/anyname.ini"
     ns0:text="$$\\textbf{B} = \\nabla \\times \\textbf{A} $$"
     transform="matrix(6,0,0,6,-2201.8923,-630.04845)">
    <defs
       id="defs13133">
      <g
         id="g13135">
        <symbol
           id="textext-934ff90a-0"
           overflow="visible"
           style="overflow:visible">
          <path
             id="path13138"
             d=""
             style="stroke:none"
             inkscape:connector-curvature="0" />
        </symbol>
        <symbol
           id="textext-934ff90a-1"
           overflow="visible"
           style="overflow:visible">
          <path
             id="path13141"
             d="m 2.765625,-3.734375 0,-2.640625 1.8125,0 c 1.015625,0 1.1875,0.796875 1.1875,1.25 0,0.765625 -0.46875,1.390625 -1.4375,1.390625 z M 5.46875,-3.5625 C 6.546875,-3.765625 7.1875,-4.359375 7.1875,-5.125 c 0,-0.921875 -0.875,-1.71875 -2.46875,-1.71875 l -4.328125,0 0,0.46875 1.078125,0 0,5.90625 -1.078125,0 0,0.46875 4.625,0 C 6.671875,0 7.5,-0.875 7.5,-1.859375 7.5,-2.8125 6.65625,-3.484375 5.46875,-3.5625 z m -0.859375,3.09375 -1.84375,0 0,-2.90625 1.9375,0 c 0.203125,0 0.671875,0 1.015625,0.421875 0.328125,0.421875 0.328125,0.984375 0.328125,1.09375 0,0.109375 0,1.390625 -1.4375,1.390625 z m 0,0"
             style="stroke:none"
             inkscape:connector-curvature="0" />
        </symbol>
        <symbol
           id="textext-934ff90a-2"
           overflow="visible"
           style="overflow:visible">
          <path
             id="path13144"
             d="m 4.71875,-6.703125 c -0.109375,-0.25 -0.21875,-0.25 -0.390625,-0.25 -0.28125,0 -0.328125,0.078125 -0.390625,0.25 l -2.46875,6 C 1.40625,-0.546875 1.375,-0.46875 0.625,-0.46875 l -0.21875,0 0,0.46875 c 0.375,-0.015625 0.859375,-0.03125 1.171875,-0.03125 0.390625,0 0.9375,0 1.3125,0.03125 l 0,-0.46875 C 2.875,-0.46875 2,-0.46875 2,-0.59375 c 0,-0.015625 0.03125,-0.109375 0.046875,-0.125 l 0.5,-1.203125 2.671875,0 0.59375,1.453125 -0.953125,0 0,0.46875 C 5.25,-0.03125 6.1875,-0.03125 6.625,-0.03125 c 0.390625,0 1.265625,0 1.625,0.03125 l 0,-0.46875 -0.96875,0 z M 3.875,-5.15625 l 1.140625,2.765625 -2.28125,0 z m 0,0"
             style="stroke:none"
             inkscape:connector-curvature="0" />
        </symbol>
        <symbol
           id="textext-934ff90a-3"
           overflow="visible"
           style="overflow:visible">
          <path
             id="path13147"
             d=""
             style="stroke:none"
             inkscape:connector-curvature="0" />
        </symbol>
        <symbol
           id="textext-934ff90a-4"
           overflow="visible"
           style="overflow:visible">
          <path
             id="path13150"
             d="m 6.84375,-3.265625 c 0.15625,0 0.34375,0 0.34375,-0.1875 C 7.1875,-3.65625 7,-3.65625 6.859375,-3.65625 l -5.96875,0 c -0.140625,0 -0.328125,0 -0.328125,0.203125 0,0.1875 0.1875,0.1875 0.328125,0.1875 z m 0.015625,1.9375 c 0.140625,0 0.328125,0 0.328125,-0.203125 0,-0.1875 -0.1875,-0.1875 -0.34375,-0.1875 l -5.953125,0 c -0.140625,0 -0.328125,0 -0.328125,0.1875 0,0.203125 0.1875,0.203125 0.328125,0.203125 z m 0,0"
             style="stroke:none"
             inkscape:connector-curvature="0" />
        </symbol>
        <symbol
           id="textext-934ff90a-5"
           overflow="visible"
           style="overflow:visible">
          <path
             id="path13153"
             d=""
             style="stroke:none"
             inkscape:connector-curvature="0" />
        </symbol>
        <symbol
           id="textext-934ff90a-6"
           overflow="visible"
           style="overflow:visible">
          <path
             id="path13156"
             d="M 7.78125,-6.59375 C 7.796875,-6.625 7.828125,-6.6875 7.828125,-6.734375 7.828125,-6.796875 7.8125,-6.8125 7.59375,-6.8125 l -6.890625,0 c -0.21875,0 -0.234375,0.015625 -0.234375,0.078125 0,0.046875 0.03125,0.109375 0.046875,0.140625 L 3.875,0.140625 c 0.078125,0.125 0.109375,0.1875 0.265625,0.1875 0.171875,0 0.203125,-0.0625 0.28125,-0.1875 z m -6.078125,0.5 5.46875,0 -2.71875,5.484375 z m 0,0"
             style="stroke:none"
             inkscape:connector-curvature="0" />
        </symbol>
        <symbol
           id="textext-934ff90a-7"
           overflow="visible"
           style="overflow:visible">
          <path
             id="path13159"
             d="M 3.875,-2.765625 1.890625,-4.75 C 1.765625,-4.875 1.75,-4.890625 1.671875,-4.890625 1.5625,-4.890625 1.46875,-4.8125 1.46875,-4.6875 c 0,0.0625 0.015625,0.078125 0.125,0.1875 l 2,2 -2,2.015625 c -0.109375,0.109375 -0.125,0.125 -0.125,0.1875 0,0.125 0.09375,0.203125 0.203125,0.203125 0.078125,0 0.09375,-0.015625 0.21875,-0.140625 L 3.875,-2.21875 l 2.0625,2.0625 c 0.015625,0.015625 0.078125,0.0625 0.140625,0.0625 0.125,0 0.203125,-0.078125 0.203125,-0.203125 0,-0.015625 0,-0.046875 -0.03125,-0.109375 C 6.234375,-0.421875 4.65625,-1.984375 4.15625,-2.5 l 1.828125,-1.8125 c 0.046875,-0.0625 0.203125,-0.1875 0.25,-0.25 0,-0.015625 0.046875,-0.0625 0.046875,-0.125 0,-0.125 -0.078125,-0.203125 -0.203125,-0.203125 C 6,-4.890625 5.96875,-4.859375 5.859375,-4.75 z m 0,0"
             style="stroke:none"
             inkscape:connector-curvature="0" />
        </symbol>
      </g>
    </defs>
    <g
       id="textext-934ff90a-8">
      <g
         id="g13162"
         style="fill:#000000;fill-opacity:1">
        <use
           id="use13164"
           y="134.765"
           x="370.00101"
           xlink:href="#textext-934ff90a-1"
           width="344.02475"
           height="466.93729" />
      </g>
      <g
         id="g13166"
         style="fill:#000000;fill-opacity:1">
        <use
           id="use13168"
           y="134.765"
           x="380.918"
           xlink:href="#textext-934ff90a-4"
           width="344.02475"
           height="466.93729" />
      </g>
      <g
         id="g13170"
         style="fill:#000000;fill-opacity:1">
        <use
           id="use13172"
           y="134.765"
           x="391.43399"
           xlink:href="#textext-934ff90a-6"
           width="344.02475"
           height="466.93729" />
      </g>
      <g
         id="g13174"
         style="fill:#000000;fill-opacity:1">
        <use
           id="use13176"
           y="134.765"
           x="401.94754"
           xlink:href="#textext-934ff90a-7"
           width="344.02475"
           height="466.93729" />
      </g>
      <g
         id="g13178"
         style="fill:#000000;fill-opacity:1">
        <use
           id="use13180"
           y="134.765"
           x="411.91299"
           xlink:href="#textext-934ff90a-2"
           width="344.02475"
           height="466.93729" />
      </g>
    </g>
  </g>
</svg>
