<?xml version="1.0" encoding="UTF-8" standalone="no"?>
<!-- Created with Inkscape (http://www.inkscape.org/) -->

<svg
   xmlns:dc="http://purl.org/dc/elements/1.1/"
   xmlns:cc="http://creativecommons.org/ns#"
   xmlns:rdf="http://www.w3.org/1999/02/22-rdf-syntax-ns#"
   xmlns:svg="http://www.w3.org/2000/svg"
   xmlns="http://www.w3.org/2000/svg"
   version="1.1"
   width="543.33997"
   height="765.06335"
   id="svg8212">
  <defs
     id="defs8214" />
  <metadata
     id="metadata8217">
    <rdf:RDF>
      <cc:Work
         rdf:about="">
        <dc:format>image/svg+xml</dc:format>
        <dc:type
           rdf:resource="http://purl.org/dc/dcmitype/StillImage" />
        <dc:title></dc:title>
      </cc:Work>
    </rdf:RDF>
  </metadata>
  <g
     transform="translate(-204.57143,-106.9124)"
     id="layer1">
    <rect
       width="44.465599"
       height="466.23221"
       x="554.18054"
       y="-360.673"
       transform="matrix(0.70314269,0.71104877,-0.71104877,0.70314269,0,0)"
       id="arm-1"
       style="fill:#5796c6;fill-opacity:1;stroke:#000000;stroke-width:3.84839916;stroke-linecap:butt;stroke-miterlimit:4;stroke-opacity:1;stroke-dasharray:none;stroke-dashoffset:0" />
    <rect
       width="44.465599"
       height="466.23221"
       x="-132.74991"
       y="-1043.9838"
       transform="matrix(0.70314269,-0.71104877,-0.71104877,-0.70314269,0,0)"
       id="arm-2"
       style="fill:#5796c6;fill-opacity:1;stroke:#000000;stroke-width:3.84839916;stroke-linecap:butt;stroke-miterlimit:4;stroke-opacity:1;stroke-dasharray:none;stroke-dashoffset:0" />
    <rect
       width="251.42857"
       height="240"
       x="208.57143"
       y="378.07648"
       id="body"
       style="fill:#5796c6;fill-opacity:1;stroke:#323232;stroke-width:8;stroke-linecap:butt;stroke-miterlimit:4;stroke-opacity:1;stroke-dasharray:none;stroke-dashoffset:0" />
    <g
       transform="matrix(0.23075648,-0.10767234,0.10767234,0.23075648,528.92111,733.85883)"
       id="magnet2">
      <rect
         width="547.94812"
         height="227.41212"
         x="98.073181"
         y="412.47504"
         id="magnet-41"
         style="fill:#969696;fill-opacity:1;stroke:#000000;stroke-width:8;stroke-miterlimit:4;stroke-opacity:1;stroke-dasharray:none" />
      <path
         d="m 588.93665,482.73495 a 171.85364,171.85364 0 1 1 -343.70728,0 171.85364,171.85364 0 1 1 343.70728,0 z"
         transform="matrix(0.93855976,0,0,0.93855976,-19.410087,73.105488)"
         id="center-0"
         style="fill:#464646;fill-opacity:1;stroke:#323232;stroke-width:8.52369785;stroke-miterlimit:4;stroke-opacity:1;stroke-dasharray:none" />
    </g>
    <g
       transform="matrix(0.23640274,0.0946342,-0.0946342,0.23640274,607.32262,1.1396554)"
       id="magnet1">
      <rect
         width="547.94812"
         height="227.41212"
         x="98.073181"
         y="412.47504"
         id="magnet"
         style="fill:#969696;fill-opacity:1;stroke:#000000;stroke-width:8;stroke-miterlimit:4;stroke-opacity:1;stroke-dasharray:none" />
      <path
         d="m 588.93665,482.73495 a 171.85364,171.85364 0 1 1 -343.70728,0 171.85364,171.85364 0 1 1 343.70728,0 z"
         transform="matrix(0.93855976,0,0,0.93855976,-19.410087,73.105488)"
         id="center"
         style="fill:#464646;fill-opacity:1;stroke:#323232;stroke-width:8.52369785;stroke-miterlimit:4;stroke-opacity:1;stroke-dasharray:none" />
    </g>
  </g>
</svg>
