<?xml version="1.0" encoding="UTF-8" standalone="no"?>
<!-- Created with Inkscape (http://www.inkscape.org/) -->

<svg
   xmlns:dc="http://purl.org/dc/elements/1.1/"
   xmlns:cc="http://creativecommons.org/ns#"
   xmlns:rdf="http://www.w3.org/1999/02/22-rdf-syntax-ns#"
   xmlns:svg="http://www.w3.org/2000/svg"
   xmlns="http://www.w3.org/2000/svg"
   version="1.1"
   width="671.43689"
   height="748.10541"
   id="svg3413"
   xml:space="preserve"><metadata
     id="metadata3419"><rdf:RDF><cc:Work
         rdf:about=""><dc:format>image/svg+xml</dc:format><dc:type
           rdf:resource="http://purl.org/dc/dcmitype/StillImage" /><dc:title></dc:title></cc:Work></rdf:RDF></metadata><defs
     id="defs3417" /><g
     transform="matrix(1.25,0,0,-1.25,-264.28,748.10621)"
     id="g3421"><g
       id="g3423"><g
         transform="matrix(1,0,0,-1,0,598.48566)"
         id="g3425"><path
           d="m 442.984,98.176 0,-62.668"
           id="path3427"
           style="fill:none;stroke:#000000;stroke-width:1.60000002;stroke-linecap:butt;stroke-linejoin:miter;stroke-miterlimit:4;stroke-opacity:1;stroke-dasharray:none" /></g><g
         transform="matrix(0,1,1,0,0,598.48566)"
         id="g3429"><path
           d="m -28.121,442.984 -11.074,6.399 0,-12.801 11.074,6.402 z"
           id="path3431"
           style="fill:#000000;fill-opacity:1;fill-rule:evenodd;stroke:#000000;stroke-width:1.60000002;stroke-linecap:butt;stroke-linejoin:miter;stroke-miterlimit:4;stroke-opacity:1;stroke-dasharray:none" /></g><g
         transform="matrix(1,0,0,-1,0,598.48566)"
         id="g3433"><path
           d="m 443.633,496.457 0,62.672"
           id="path3435"
           style="fill:none;stroke:#000000;stroke-width:1.60000002;stroke-linecap:butt;stroke-linejoin:miter;stroke-miterlimit:4;stroke-opacity:1;stroke-dasharray:none" /></g><g
         transform="matrix(0,-1,-1,0,0,598.48566)"
         id="g3437"><path
           d="m 566.512,-443.633 -11.071,6.403 0,-12.801 11.071,6.398 z"
           id="path3439"
           style="fill:#000000;fill-opacity:1;fill-rule:evenodd;stroke:#000000;stroke-width:1.60000002;stroke-linecap:butt;stroke-linejoin:miter;stroke-miterlimit:4;stroke-opacity:1;stroke-dasharray:none" /></g><text
         transform="matrix(1,0,0,-1,577.45538,36.17416)"
         id="text3441"><tspan
           x="0 15.552 28.3104 37.411201 51.811199 64.569603 72.547203 79.7472 95.760002 110.16 119.7504 129.34081 142.0992 154.8576"
           y="0"
           id="tspan3443"
           style="font-size:28.79999924px;font-variant:normal;font-weight:normal;writing-mode:lr-tb;fill:#000000;fill-opacity:1;fill-rule:nonzero;stroke:none;font-family:Liberation Serif;-inkscape-font-specification:LiberationSerif">Target Surface</tspan></text>
<g
         transform="matrix(1,0,0,-1,0,598.48566)"
         id="g3445"><path
           d="m 253.422,555.902 0,-115.218"
           id="path3447"
           style="fill:none;stroke:#000000;stroke-width:0.75610203;stroke-linecap:butt;stroke-linejoin:miter;stroke-miterlimit:4;stroke-opacity:1;stroke-dasharray:none" /></g><g
         transform="matrix(0,1,1,0,0,598.48566)"
         id="g3449"><path
           d="m -437.195,253.422 -5.231,3.023 0,-6.047 5.231,3.024 z"
           id="path3451"
           style="fill:#000000;fill-opacity:1;fill-rule:evenodd;stroke:#000000;stroke-width:0.75610203;stroke-linecap:butt;stroke-linejoin:miter;stroke-miterlimit:4;stroke-opacity:1;stroke-dasharray:none" /></g><g
         transform="matrix(1,0,0,-1,0,598.48566)"
         id="g3453"><path
           d="m 368.816,555.18 -115.214,0"
           id="path3455"
           style="fill:none;stroke:#000000;stroke-width:0.75610203;stroke-linecap:butt;stroke-linejoin:miter;stroke-miterlimit:4;stroke-opacity:1;stroke-dasharray:none" /></g><g
         transform="matrix(1,0,0,-1,0,598.48566)"
         id="g3457"><path
           d="m 372.309,555.18 -5.235,3.027 0,-6.051 5.235,3.024 z"
           id="path3459"
           style="fill:#000000;fill-opacity:1;fill-rule:evenodd;stroke:#000000;stroke-width:0.75610203;stroke-linecap:butt;stroke-linejoin:miter;stroke-miterlimit:4;stroke-opacity:1;stroke-dasharray:none" /></g><text
         transform="matrix(0.8121659,0,0,-1,344.96928,48.92115)"
         id="text3461"><tspan
           x="0"
           y="0"
           id="tspan3463"
           style="font-size:37.31330872px;font-style:italic;font-variant:normal;writing-mode:lr-tb;fill:#000000;fill-opacity:1;fill-rule:nonzero;stroke:none;font-family:Liberation Serif;-inkscape-font-specification:LiberationSerif-Italic">x</tspan><tspan
           x="-103.79085"
           y="-84.473862"
           id="tspan3465"
           style="font-size:37.31330872px;font-style:italic;font-variant:normal;writing-mode:lr-tb;fill:#000000;fill-opacity:1;fill-rule:nonzero;stroke:none;font-family:Liberation Serif;-inkscape-font-specification:LiberationSerif-Italic">y</tspan></text>
<text
         transform="matrix(1,0,0,-1,326.86242,236.39847)"
         id="text3467"><tspan
           x="0 6.3936 15.9936 23.4624 33.062401 41.568001 50.073601 55.391998 64.991997"
           y="0"
           id="tspan3469"
           style="font-size:19.20000076px;font-variant:normal;font-weight:normal;writing-mode:lr-tb;fill:#000000;fill-opacity:1;fill-rule:nonzero;stroke:none;font-family:Liberation Serif;-inkscape-font-specification:LiberationSerif">Inspector</tspan><tspan
           x="167.06717 180.92957 187.32317 193.71677 202.22237 211.82237 216.62238"
           y="-264.15662"
           id="tspan3471"
           style="font-size:19.20000076px;font-variant:normal;font-weight:normal;writing-mode:lr-tb;fill:#000000;fill-opacity:1;fill-rule:nonzero;stroke:none;font-family:Liberation Serif;-inkscape-font-specification:LiberationSerif">Array 1</tspan><tspan
           x="163.26463 177.12703 183.52063 189.91423 198.41983 208.01982 212.81982"
           y="134.50935"
           id="tspan3473"
           style="font-size:19.20000076px;font-variant:normal;font-weight:normal;writing-mode:lr-tb;fill:#000000;fill-opacity:1;fill-rule:nonzero;stroke:none;font-family:Liberation Serif;-inkscape-font-specification:LiberationSerif">Array 2</tspan></text>
<g
         transform="matrix(1,0,0,-1,0,598.48566)"
         id="g3475"><path
           d="m 530.762,598.191 0,-4.918 c 0,-2.222 -0.102,0.442 0.703,-2.953 0.14,-0.578 0,-4.367 0,-4.918 l 0,-7.867 c 0,-0.238 -0.02,-2.922 0,-2.953 0.168,-0.23 0.601,0.293 0.703,0 0.281,-0.785 -0.281,-2.164 0,-2.949 0.148,-0.414 0.555,-0.571 0.703,-0.985 0.211,-0.586 -0.148,-1.343 0,-1.968 0.168,-0.696 0.539,-1.27 0.703,-1.965 0.074,-0.313 -0.105,-0.692 0,-0.985 0.149,-0.414 0.598,-0.542 0.703,-0.984 0.149,-0.621 -0.113,-1.332 0,-1.969 0.129,-0.711 0.539,-1.269 0.703,-1.965 0.075,-0.312 -0.074,-0.671 0,-0.984 0.168,-0.695 0.469,-1.312 0.704,-1.969 0.234,-0.656 0.414,-1.355 0.703,-1.964 0.183,-0.387 0.597,-0.547 0.703,-0.985 0.148,-0.621 -0.207,-1.383 0,-1.969 0.297,-0.828 1.039,-1.195 1.406,-1.968 0.129,-0.27 -0.074,-0.672 0,-0.981 0.168,-0.695 0.469,-1.312 0.703,-1.969 0.235,-0.656 0.414,-1.355 0.703,-1.968 0.184,-0.383 0.52,-0.598 0.703,-0.981 0.29,-0.613 0.333,-1.449 0.704,-1.969 0.164,-0.23 0.468,0 0.703,0 0.234,-0.328 0.519,-0.597 0.703,-0.984 1.547,-0.496 0.371,-2.023 0.703,-2.949 0.148,-0.418 0.469,-0.656 0.703,-0.984 0.234,-0.329 0.406,-0.778 0.703,-0.985 0.211,-0.148 0.492,0.145 0.703,0 0.594,-0.414 0.813,-1.555 1.407,-1.969 0.207,-0.144 0.492,0.149 0.703,0 0.297,-0.207 0.406,-0.773 0.703,-0.984 0.207,-0.145 0.492,0.148 0.703,0 0.297,-0.207 0.406,-0.773 0.703,-0.98 0.418,-0.293 1.074,0.46 1.406,0 0.164,-0.235 -0.168,-0.754 0,-0.985 0.164,-0.234 0.493,0.145 0.703,0 0.293,-0.207 0.407,-0.777 0.704,-0.984 0.207,-0.149 0.468,0 0.703,0 0.465,0 0.961,0.207 1.402,0 0.316,-0.149 0.43,-0.727 0.703,-0.985 0.438,-0.406 0.91,-0.75 1.406,-0.984 0.223,-0.102 0.481,0.106 0.704,0 0.5,-0.23 0.91,-0.75 1.406,-0.98 0.222,-0.106 0.48,0.101 0.703,0 0.5,-0.235 0.91,-0.754 1.406,-0.985 0.223,-0.105 0.481,0.102 0.703,0 0.496,-0.234 0.969,-0.578 1.407,-0.984 0.277,-0.258 0.382,-0.871 0.703,-0.985 l 2.109,0 c 0.234,-0.328 0.387,-0.836 0.703,-0.984 0.891,-0.414 1.973,0.586 2.813,0 0.211,-0.144 -0.211,-0.836 0,-0.984 0.418,-0.293 0.961,0.207 1.406,0 0.312,-0.145 0.426,-0.727 0.703,-0.981 0.434,-0.41 0.906,-0.754 1.406,-0.984 0.664,-0.313 1.442,0.308 2.11,0 0.312,-0.149 0.468,-0.656 0.703,-0.985 0.469,-0.328 0.906,-0.753 1.406,-0.984 0.441,-0.207 0.984,0.293 1.402,0 0.297,-0.207 0.411,-0.777 0.704,-0.984 0.21,-0.145 0.468,0 0.703,0 0.468,-0.328 0.972,-0.574 1.406,-0.985 0.555,-0.511 0.855,-1.453 1.406,-1.965 l 1.406,-0.984 c 0.235,0 0.497,0.145 0.704,0 0.593,-0.414 0.855,-1.453 1.406,-1.969 0.871,-0.812 1.941,-1.152 2.812,-1.964 0.918,-0.86 1.887,-2.965 2.813,-3.938 0.676,-0.707 1.433,-1.258 2.109,-1.965 0.531,-0.558 0.856,-1.453 1.406,-1.969 0.434,-0.406 1.036,-0.464 1.407,-0.984 0.164,-0.23 -0.133,-0.711 0,-0.984 0.367,-0.77 0.937,-1.309 1.406,-1.965 0.234,-0.328 0.555,-0.57 0.703,-0.985 0.102,-0.293 0,-0.656 0,-0.984 0.234,-0.656 0.41,-1.355 0.703,-1.969 0.856,-1.797 0.895,-0.097 1.406,-2.949 0.114,-0.637 -0.148,-1.344 0,-1.969 0.102,-0.437 0.469,-0.656 0.704,-0.98 0.234,-0.656 0.574,-1.258 0.703,-1.969 0.113,-0.637 -0.094,-1.324 0,-1.969 0.144,-1.015 0.554,-1.933 0.699,-2.949 0.094,-0.644 -0.09,-1.324 0,-1.969 0.148,-1.015 0.43,-1.988 0.703,-2.949 0.195,-0.683 0.602,-1.25 0.703,-1.969 0.348,-1.593 -0.226,-3.312 0,-4.918 0.149,-1.015 0.582,-1.929 0.703,-2.953 0.196,-1.617 -0.281,-3.328 0,-4.918 0.129,-0.711 0.578,-1.253 0.703,-1.964 0.114,-0.637 0,-1.313 0,-1.969 l 0,-20.656 c 0,-0.985 0.141,-1.989 0,-2.954 -0.101,-0.718 -0.535,-1.269 -0.703,-1.968 -0.074,-0.309 0,-0.653 0,-0.981 0,-0.984 0.141,-1.988 0,-2.953 -0.101,-0.719 -0.574,-1.254 -0.703,-1.965 -0.113,-0.636 0.094,-1.324 0,-1.969 -0.144,-1.015 -0.555,-1.933 -0.703,-2.953 -0.184,-1.285 0.23,-2.66 0,-3.933 -0.125,-0.711 -0.574,-1.254 -0.703,-1.969 -0.113,-0.633 0,-1.309 0,-1.965 l 0,-13.773 c 0,-0.985 -0.219,-2.016 0,-2.949 0.105,-0.442 0.601,-0.543 0.703,-0.985 0.148,-0.621 -0.207,-1.383 0,-1.969 0.105,-0.293 0.539,0.235 0.703,0 0.371,-0.515 0.414,-1.355 0.703,-1.964 0.184,-0.387 0.602,-0.547 0.703,-0.985 0.149,-0.621 -0.257,-1.422 0,-1.969 0.293,-0.609 1.036,-0.464 1.407,-0.984 0.168,-0.23 0,-0.656 0,-0.98 0.234,-0.329 0.429,-0.727 0.703,-0.985 0.437,-0.406 0.972,-0.578 1.406,-0.984 0.277,-0.258 0.43,-0.727 0.703,-0.985 0.438,-0.406 0.973,-0.578 1.406,-0.984 0.813,-0.754 1.297,-2.195 2.11,-2.949 0.437,-0.406 0.969,-0.578 1.406,-0.985 0.277,-0.257 0.426,-0.726 0.703,-0.984 3.07,-2.863 -0.23,0.438 2.813,-0.984 0.312,-0.145 0.406,-0.774 0.703,-0.985 0.664,-0.461 1.445,-0.519 2.109,-0.98 0.297,-0.207 0.387,-0.84 0.703,-0.984 0.446,-0.207 0.961,0.207 1.406,0 0.313,-0.149 0.407,-0.778 0.704,-0.985 0.441,-0.308 2.367,0.309 2.812,0 0.293,-0.207 0.406,-0.777 0.703,-0.984 0.207,-0.145 0.465,0 0.699,0 l 3.516,0 c 0.469,0 0.953,0.16 1.406,0 0.508,-0.176 0.91,-0.75 1.407,-0.985 0.457,-0.211 2.75,0 3.515,0 l 16.168,0 c 0.844,0 3.762,0.215 4.219,0 0.5,-0.23 0.91,-0.75 1.406,-0.98 0.223,-0.106 0.481,0.101 0.703,0 0.496,-0.234 0.91,-0.754 1.407,-0.984 1.054,-0.493 0.703,0.984 2.109,0 0.211,-0.149 -0.211,-0.84 0,-0.985 0.418,-0.293 0.988,0.293 1.406,0 0.211,-0.148 -0.164,-0.754 0,-0.984 0.164,-0.231 0.492,0.148 0.703,0 0.25,-0.172 1.157,-1.793 1.407,-1.969 1.73,-1.211 -0.637,2.856 2.109,-0.98 0.164,-0.235 -0.168,-0.754 0,-0.985 0.164,-0.234 0.492,0.145 0.703,0 0.594,-0.414 0.856,-1.453 1.406,-1.969 0.434,-0.406 0.969,-0.578 1.407,-0.984 0.273,-0.258 0.468,-0.656 0.703,-0.984 0.234,-0.325 0.554,-0.567 0.703,-0.981 0.101,-0.293 -0.195,-0.804 0,-0.984 0.613,-0.574 1.445,-0.52 2.109,-0.984 0.293,-0.208 0.469,-0.657 0.699,-0.985 0.235,-0.328 0.559,-0.566 0.704,-0.984 0.105,-0.293 -0.165,-0.75 0,-0.981 0.167,-0.234 0.496,0.145 0.703,0 0.187,-0.133 2.015,-2.691 2.109,-2.953 0.105,-0.293 -0.164,-0.75 0,-0.984 0.332,-0.465 1.074,0.465 1.406,0 0.168,-0.231 -0.105,-0.692 0,-0.985 1.465,-4.093 -0.047,1.055 1.407,-0.98 0.168,-0.234 -0.165,-0.754 0,-0.984 0.168,-0.235 0.539,0.23 0.703,0 0.168,-0.235 -0.164,-0.754 0,-0.985 0.168,-0.23 0.539,0.231 0.703,0 0.168,-0.23 -0.164,-0.754 0,-0.984 0.168,-0.231 0.539,0.23 0.703,0 0.168,-0.231 -0.164,-0.75 0,-0.985 0.469,-0.652 0.937,0.657 1.406,0 0.938,-1.312 -1.172,-0.984 0.703,-0.984"
           id="path3477"
           style="fill:none;stroke:#000000;stroke-width:0.58802599;stroke-linecap:butt;stroke-linejoin:miter;stroke-miterlimit:4;stroke-opacity:1;stroke-dasharray:none" /></g><g
         transform="matrix(1,0,0,-1,0,598.48566)"
         id="g3479"><path
           d="m 211.824,107.07 c 51.344,-121.578 72.063,-39.859 142.555,-63.355 15.766,-5.258 81.672,-57.488 99.559,-39.598 15.265,15.262 71.671,30.793 99.562,21.496 13.762,-4.59 57.445,-28.414 71.277,-21.496 43.934,21.965 32.934,77.055 48.649,92.77 14.281,14.281 42.457,17.035 52.043,36.207 4.172,8.347 24.117,121.109 22.625,125.582 -7.399,22.195 -22.563,23.629 -30.547,39.597 -2.367,4.739 2.164,28.332 -2.262,30.547 -9.812,4.907 -18.066,10.813 -27.152,14.707"
           id="path3481"
           style="fill:none;stroke:#000000;stroke-width:0.80000001;stroke-linecap:butt;stroke-linejoin:miter;stroke-miterlimit:4;stroke-opacity:1;stroke-dasharray:none" /></g><g
         transform="matrix(1,0,0,-1,0,598.48566)"
         id="g3483"><path
           d="m 663.066,530.766 c 0,0 35.68,-8.18 -7.246,-51.204 l -42.929,-43.019"
           id="path3485"
           style="fill:none;stroke:#000000;stroke-width:1.30739701;stroke-linecap:butt;stroke-linejoin:miter;stroke-miterlimit:4;stroke-opacity:1;stroke-dasharray:none" /></g><g
         transform="matrix(-0.99779,1,1,0.99779,0,598.48566)"
         id="g3487"><path
           d="m -520.927,88.854 -6.405,3.702 0.002,-7.405 6.403,3.703 z"
           id="path3489"
           style="fill:#000000;fill-opacity:1;fill-rule:evenodd;stroke:#000000;stroke-width:0.92549098;stroke-linecap:butt;stroke-linejoin:miter;stroke-miterlimit:4;stroke-opacity:1;stroke-dasharray:none" /></g><path
         d="m 257.953,153.865 36.203,0 0,-42.988 -36.203,0 0,42.988 z"
         id="path3491"
         style="fill:#ffffff;fill-opacity:1;fill-rule:nonzero;stroke:none" /><path
         d="m 342.805,89.38 36.203,0 0,-42.992 -36.203,0 0,42.992 z"
         id="path3493"
         style="fill:#ffffff;fill-opacity:1;fill-rule:nonzero;stroke:none" /><path
         d="m 344.336,81.958 0.863,-0.863 5.52,4.848 5.519,-4.848 0.867,0.863 -6.386,6.481 -6.383,-6.481 z"
         id="path3495"
         style="fill:#000000;fill-opacity:1;fill-rule:nonzero;stroke:none" /><path
         d="m 351.727,69.72 0,0.145 0.05,0.144 0.047,0.145 0.047,0.191 0.051,0.191 0.094,0.383 0.097,0.242 0.047,0.192 0.098,0.238 0.094,0.242 0.097,0.239 0.094,0.238 0.145,0.242 0.097,0.238 0.145,0.243 0.14,0.238 0.145,0.191 0.144,0.242 0.192,0.192 0.191,0.238 0.387,0.387 0.191,0.144 0.239,0.141 0.242,0.145 0.094,0.05 0.144,0.094 0.098,0.047 0.144,0.051 0.145,0.047 0.14,0 0.145,0.046 0.098,0.051 0.336,0 0.144,0.047 0.145,0 c 0.238,0 1.39,0 2.398,-0.625 -1.344,-0.238 -2.305,-1.437 -2.305,-2.59 0,-0.769 0.528,-1.679 1.825,-1.679 1.054,0 2.593,0.863 2.593,2.781 0,2.496 -2.832,3.168 -4.465,3.168 -2.785,0 -4.464,-2.543 -4.992,-3.649 -1.199,3.168 -3.793,3.649 -5.183,3.649 -4.946,0 -7.68,-6.192 -7.68,-7.344 0,-0.48 0.48,-0.48 0.574,-0.48 0.387,0 0.528,0.097 0.625,0.527 1.633,5.043 4.75,6.242 6.383,6.242 0.914,0 2.594,-0.433 2.594,-3.215 0,-1.488 -0.817,-4.656 -2.594,-11.328 -0.766,-2.976 -2.445,-4.992 -4.512,-4.992 -0.289,0 -1.39,0 -2.398,0.621 1.199,0.242 2.254,1.25 2.254,2.594 0,1.297 -1.055,1.679 -1.774,1.679 -1.441,0 -2.64,-1.246 -2.64,-2.785 0,-2.207 2.398,-3.117 4.511,-3.117 3.122,0 4.848,3.313 4.993,3.598 0.574,-1.774 2.304,-3.598 5.136,-3.598 4.942,0 7.68,6.145 7.68,7.344 0,0.48 -0.434,0.48 -0.578,0.48 -0.43,0 -0.527,-0.195 -0.621,-0.531 -1.586,-5.133 -4.852,-6.285 -6.387,-6.285 -1.824,0 -2.59,1.535 -2.59,3.168 0,1.055 0.285,2.109 0.817,4.176 l 1.629,6.527 z"
         id="path3497"
         style="fill:#000000;fill-opacity:1;fill-rule:nonzero;stroke:none" /><path
         d="m 272.168,144.185 0.863,-0.863 5.52,4.847 5.523,-4.847 0.864,0.863 -6.387,6.48 -6.383,-6.48 z"
         id="path3499"
         style="fill:#000000;fill-opacity:1;fill-rule:nonzero;stroke:none" /><path
         d="m 286.566,135.736 0,0.097 0.051,0.098 0,0.094 0.047,0.047 0,0.144 0.047,0.051 0,0.238 0.051,0.047 0,0.289 c 0,0.863 -0.672,1.297 -1.395,1.297 -0.48,0 -1.246,-0.289 -1.679,-1.008 -0.094,-0.242 -0.481,-1.73 -0.672,-2.594 -0.336,-1.246 -0.672,-2.543 -0.961,-3.793 l -2.16,-8.589 c -0.141,-0.719 -2.207,-4.082 -5.375,-4.082 -2.446,0 -2.977,2.113 -2.977,3.89 0,2.207 0.816,5.137 2.449,9.36 0.77,1.918 0.961,2.449 0.961,3.406 0,2.16 -1.535,3.937 -3.937,3.937 -4.512,0 -6.289,-6.961 -6.289,-7.343 0,-0.481 0.48,-0.481 0.578,-0.481 0.48,0 0.527,0.098 0.769,0.817 1.293,4.511 3.215,5.953 4.797,5.953 0.387,0 1.203,0 1.203,-1.539 0,-1.2 -0.48,-2.446 -0.816,-3.36 -1.875,-5.039 -2.738,-7.726 -2.738,-9.984 0,-4.27 2.976,-5.664 5.808,-5.664 1.871,0 3.504,0.769 4.848,2.113 -0.625,-2.449 -1.199,-4.801 -3.121,-7.344 -1.246,-1.586 -3.071,-2.976 -5.278,-2.976 -0.625,0 -2.785,0.144 -3.601,1.969 0.769,0 1.39,0 2.066,0.574 0.477,0.433 0.91,1.058 0.91,1.968 0,1.489 -1.246,1.68 -1.726,1.68 -1.106,0 -2.692,-0.765 -2.692,-3.117 0,-2.355 2.114,-4.129 5.043,-4.129 4.942,0 9.84,4.32 11.184,9.695 l 4.605,18.239 z"
         id="path3501"
         style="fill:#000000;fill-opacity:1;fill-rule:nonzero;stroke:none" /><g
         transform="matrix(1,0,0,-1,0,598.48566)"
         id="g3503"><path
           d="m 322.805,217.398 157.207,0 0,157.203 -157.207,0 0,-157.203 z"
           id="path3505"
           style="fill:none;stroke:#000000;stroke-width:3.20000005;stroke-linecap:butt;stroke-linejoin:miter;stroke-miterlimit:4;stroke-opacity:1;stroke-dasharray:none" /></g><g
         transform="matrix(1,0,0,-1,0,598.48566)"
         id="g3507"><path
           d="m 426.625,98.176 32.715,0 0,119.223 -32.715,0 0,-119.223 z"
           id="path3509"
           style="fill:#ffffff;fill-opacity:1;fill-rule:nonzero;stroke:#000000;stroke-width:3.20000005;stroke-linecap:butt;stroke-linejoin:miter;stroke-miterlimit:4;stroke-opacity:1;stroke-dasharray:none" /></g><g
         transform="matrix(1,0,0,-1,0,598.48566)"
         id="g3511"><path
           d="m 427.922,374.602 32.719,0 0,119.223 -32.719,0 0,-119.223 z"
           id="path3513"
           style="fill:#ffffff;fill-opacity:1;fill-rule:nonzero;stroke:#000000;stroke-width:3.20000005;stroke-linecap:butt;stroke-linejoin:miter;stroke-miterlimit:4;stroke-opacity:1;stroke-dasharray:none" /></g><g
         transform="matrix(1,0,0,-1,0,598.48566)"
         id="g3515"><path
           d="m 419,86.016 47.551,0 0,24.398 -47.551,0 0,-24.398 z"
           id="path3517"
           style="fill:none;stroke:#000000;stroke-width:1.60000002;stroke-linecap:butt;stroke-linejoin:miter;stroke-miterlimit:4;stroke-opacity:1;stroke-dasharray:none" /></g><g
         transform="matrix(0.0133627,0,0,1,0,598.48566)"
         id="g3519"><path
           d="m 34816.216,-98.176 c 0,11.996 -745.722,21.723 -1665.377,21.723 -919.947,0 -1665.668,-9.727 -1665.668,-21.723 0,-12 745.721,-21.726 1665.668,-21.726 919.655,0 1665.377,9.726 1665.377,21.726 z"
           id="path3521"
           style="fill:#ffffff;fill-opacity:1;fill-rule:nonzero;stroke:#000000;stroke-width:13.84117794;stroke-linecap:butt;stroke-linejoin:miter;stroke-miterlimit:4;stroke-opacity:1;stroke-dasharray:none" /></g><g
         transform="matrix(1,0,0,-1,0,598.48566)"
         id="g3523"><path
           d="m 420.297,481.66 47.555,0 0,24.398 -47.555,0 0,-24.398 z"
           id="path3525"
           style="fill:none;stroke:#000000;stroke-width:1.60000002;stroke-linecap:butt;stroke-linejoin:miter;stroke-miterlimit:4;stroke-opacity:1;stroke-dasharray:none" /></g><g
         transform="matrix(0.0133627,0,0,1,0,598.48566)"
         id="g3527"><path
           d="m 34913.56,-493.824 c 0,12 -745.721,21.726 -1665.669,21.726 -919.947,0 -1665.376,-9.726 -1665.376,-21.726 0,-11.996 745.429,-21.723 1665.376,-21.723 919.948,0 1665.669,9.727 1665.669,21.723 z"
           id="path3529"
           style="fill:#ffffff;fill-opacity:1;fill-rule:nonzero;stroke:#000000;stroke-width:13.84117794;stroke-linecap:butt;stroke-linejoin:miter;stroke-miterlimit:4;stroke-opacity:1;stroke-dasharray:none" /></g><g
         transform="matrix(1,0,0,-1,0,598.48566)"
         id="g3531"><path
           d="m 405.621,81.098 78.016,0 0,32.379 -78.016,0 0,-32.379 z"
           id="path3533"
           style="fill:#ffffff;fill-opacity:1;fill-rule:nonzero;stroke:#000000;stroke-width:3.20000005;stroke-linecap:butt;stroke-linejoin:miter;stroke-miterlimit:4;stroke-opacity:1;stroke-dasharray:none" /></g><g
         transform="matrix(1,0,0,-1,0,598.48566)"
         id="g3535"><path
           d="m 467.594,97.289 c 0,12.684 -10.282,22.965 -22.965,22.965 -12.684,0 -22.965,-10.281 -22.965,-22.965 0,-12.684 10.281,-22.965 22.965,-22.965 12.683,0 22.965,10.281 22.965,22.965 z"
           id="path3537"
           style="fill:#ffffff;fill-opacity:1;fill-rule:nonzero;stroke:#000000;stroke-width:3.20000005;stroke-linecap:butt;stroke-linejoin:miter;stroke-miterlimit:4;stroke-opacity:1;stroke-dasharray:none" /></g><g
         transform="matrix(1,0,0,-1,0,598.48566)"
         id="g3539"><path
           d="m 404.191,478.297 78.02,0 0,32.379 -78.02,0 0,-32.379 z"
           id="path3541"
           style="fill:#ffffff;fill-opacity:1;fill-rule:nonzero;stroke:#000000;stroke-width:3.20000005;stroke-linecap:butt;stroke-linejoin:miter;stroke-miterlimit:4;stroke-opacity:1;stroke-dasharray:none" /></g><g
         transform="matrix(1,0,0,-1,0,598.48566)"
         id="g3543"><path
           d="m 466.164,494.484 c 0,12.684 -10.281,22.969 -22.965,22.969 -12.683,0 -22.965,-10.285 -22.965,-22.969 0,-12.683 10.282,-22.964 22.965,-22.964 12.684,0 22.965,10.281 22.965,22.964 z"
           id="path3545"
           style="fill:#ffffff;fill-opacity:1;fill-rule:nonzero;stroke:#000000;stroke-width:3.20000005;stroke-linecap:butt;stroke-linejoin:miter;stroke-miterlimit:4;stroke-opacity:1;stroke-dasharray:none" /></g><g
         transform="matrix(1,0,0,-1,0,598.48566)"
         id="g3547"><path
           d="m 408.219,283.996 c 0,10.617 -8.606,19.227 -19.227,19.227 -10.617,0 -19.226,-8.61 -19.226,-19.227 0,-10.617 8.609,-19.226 19.226,-19.226 10.621,0 19.227,8.609 19.227,19.226 z"
           id="path3549"
           style="fill:none;stroke:#000000;stroke-width:0.27188501;stroke-linecap:butt;stroke-linejoin:miter;stroke-miterlimit:4;stroke-opacity:1;stroke-dasharray:none" /></g><g
         transform="matrix(1,0,0,-1,0,598.48566)"
         id="g3551"><path
           d="m 369.863,283.898 38.356,0"
           id="path3553"
           style="fill:none;stroke:#000000;stroke-width:0.0679713;stroke-linecap:butt;stroke-linejoin:miter;stroke-miterlimit:4;stroke-opacity:1;stroke-dasharray:none" /></g><g
         transform="matrix(1,0,0,-1,0,598.48566)"
         id="g3555"><path
           d="m 388.508,264.77 0,38.355"
           id="path3557"
           style="fill:none;stroke:#000000;stroke-width:0.0679713;stroke-linecap:butt;stroke-linejoin:miter;stroke-miterlimit:4;stroke-opacity:1;stroke-dasharray:none" /></g><g
         transform="matrix(1,0,0,-1,0,598.48566)"
         id="g3559"><path
           d="m 388.562,293.52 0,-9.516 19.477,0 -0.031,0.703 c -0.199,4.82 -2.176,9.316 -5.602,12.742 -2.465,2.465 -5.445,4.149 -8.867,5.012 -1.246,0.316 -3.168,0.574 -4.273,0.574 l -0.704,0 0,-9.515 z"
           id="path3561"
           style="fill:none;stroke:#000000;stroke-width:0.38840699;stroke-linecap:butt;stroke-linejoin:miter;stroke-miterlimit:4;stroke-opacity:1;stroke-dasharray:none" /></g><g
         transform="matrix(1,0,0,-1,0,598.48566)"
         id="g3563"><path
           d="m 388.758,293.52 0,-9.325 19.047,0 -0.063,0.852 c -0.359,4.762 -2.254,8.918 -5.582,12.25 -2.062,2.058 -4.578,3.605 -7.336,4.512 -1.691,0.558 -3.054,0.808 -5.363,0.98 l -0.703,0.055 0,-9.324 z"
           id="path3565"
           style="fill:#000000;fill-opacity:1;fill-rule:nonzero;stroke:#000000;stroke-width:0.38840699;stroke-linecap:butt;stroke-linejoin:miter;stroke-miterlimit:4;stroke-opacity:1;stroke-dasharray:none" /></g><g
         transform="matrix(1,0,0,-1,0,598.48566)"
         id="g3567"><path
           d="m 369.973,283.105 c 0.328,-4.23 1.535,-7.496 3.941,-10.679 0.774,-1.024 2.524,-2.778 3.539,-3.547 2.961,-2.234 6.496,-3.582 10.164,-3.867 l 0.848,-0.067 0,18.864 -18.547,0 0.055,-0.704 z"
           id="path3569"
           style="fill:#000000;fill-opacity:1;fill-rule:nonzero;stroke:#000000;stroke-width:0.38840699;stroke-linecap:butt;stroke-linejoin:miter;stroke-miterlimit:4;stroke-opacity:1;stroke-dasharray:none" /></g><g
         transform="matrix(1,0,0,-1,0,598.48566)"
         id="g3571"><path
           d="M 391.785,264.316 439.656,102.305"
           id="path3573"
           style="fill:none;stroke:#000000;stroke-width:2.2972219;stroke-linecap:butt;stroke-linejoin:miter;stroke-miterlimit:4;stroke-opacity:1;stroke-dasharray:none" /></g><g
         transform="matrix(0.295479,1,1,-0.295479,0,598.48566)"
         id="g3575"><path
           d="m 30.471,432.157 -7.621,4.404 -0.001,-8.808 7.622,4.404 z"
           id="path3577"
           style="fill:#000000;fill-opacity:1;fill-rule:evenodd;stroke:#000000;stroke-width:1.10153103;stroke-linecap:butt;stroke-linejoin:miter;stroke-miterlimit:4;stroke-opacity:1;stroke-dasharray:none" /></g><g
         transform="matrix(1,0,0,-1,0,598.48566)"
         id="g3579"><path
           d="M 443.027,489.586 388.484,283.926"
           id="path3581"
           style="fill:none;stroke:#000000;stroke-width:2.35356498;stroke-linecap:butt;stroke-linejoin:miter;stroke-miterlimit:4;stroke-opacity:1;stroke-dasharray:none" /></g><g
         transform="matrix(0.265201,-1,-1,-0.265201,0,598.48566)"
         id="g3583"><path
           d="m 572.439,-292.606 -7.874,4.548 0.004,-9.1 7.87,4.552 z"
           id="path3585"
           style="fill:#000000;fill-opacity:1;fill-rule:evenodd;stroke:#000000;stroke-width:1.13746202;stroke-linecap:butt;stroke-linejoin:miter;stroke-miterlimit:4;stroke-opacity:1;stroke-dasharray:none" /></g><path
         d="m 472.566,566.888 5.981,-5.25 0.937,0.934 -6.918,7.023 -6.914,-7.023 0.938,-0.934 5.976,5.25 z"
         id="path3587"
         style="fill:#000000;fill-opacity:1;fill-rule:nonzero;stroke:none" /><path
         d="m 477.457,536.99 0,-0.313 0.051,-0.312 0,-0.52 0.051,-0.156 0.054,-0.156 0,-0.157 0.102,-0.207 0.055,-0.156 0.05,-0.156 0.106,-0.156 0.101,-0.157 0.106,-0.156 0.156,-0.156 0.156,-0.102 0.157,-0.156 0.101,-0.051 0.106,-0.055 0.105,-0.101 0.102,-0.055 0.105,-0.051 0.102,-0.05 0.105,-0.055 0.156,-0.051 0.106,-0.051 0.156,-0.054 0.152,-0.051 0.157,-0.051 0.156,0 0.156,-0.051 0.156,-0.054 0.157,0 0.207,-0.051 0.211,0 0.156,-0.051 0.207,0 0.207,-0.055 0.937,0 0.258,-0.05 2.446,0 c 1.039,0 1.664,0 1.664,1.246 0,1.199 -0.676,1.199 -1.301,1.199 -3.172,0.051 -3.172,0.727 -3.172,1.922 l 0,11.129 c 0,4.574 -3.691,7.902 -11.387,7.902 -2.965,0 -9.258,-0.156 -9.258,-4.73 0,-2.289 1.821,-3.223 3.172,-3.223 1.614,0 3.278,1.039 3.278,3.223 0,1.558 -0.989,2.445 -1.145,2.547 1.457,0.312 3.121,0.363 3.742,0.363 3.903,0 5.668,-2.184 5.668,-6.082 l 0,-8.27 c 0,-4.992 -4.73,-5.668 -6.031,-5.668 -2.652,0 -4.73,1.821 -4.73,4.11 0,5.562 8.214,6.293 10.761,6.449 l 0,1.609 c -3.636,-0.156 -16.793,-0.621 -16.793,-8.109 0,-4.992 6.395,-5.93 9.985,-5.93 4.16,0 6.55,2.133 7.695,4.317 z"
         id="path3589"
         style="fill:#000000;fill-opacity:1;fill-rule:nonzero;stroke:none" /><path
         d="m 499.191,548.22 0,0.625 -0.05,0.051 0,0.105 -0.051,0.051 0,0.055 -0.055,0 0,0.051 -0.101,0 0,0.05 -0.262,0 0,0.055 -0.57,0 c -2.29,-2.289 -5.567,-2.34 -7.075,-2.34 l 0,-1.301 c 0.887,0 3.278,0 5.254,1.039 l 0,-18.46 c 0,-1.196 0,-1.665 -3.64,-1.665 l -1.352,0 0,-1.3 c 0.625,0.054 5.094,0.156 6.445,0.156 1.094,0 5.668,-0.102 6.45,-0.156 l 0,1.3 -1.352,0 c -3.641,0 -3.641,0.469 -3.641,1.665 l 0,20.019 z"
         id="path3591"
         style="fill:#000000;fill-opacity:1;fill-rule:nonzero;stroke:none" /><path
         d="m 463.438,66.665 5.98,5.25 5.98,-5.25 0.934,0.938 -6.914,7.019 -6.918,-7.019 0.938,-0.938 z"
         id="path3593"
         style="fill:#000000;fill-opacity:1;fill-rule:nonzero;stroke:none" /><path
         d="m 474.305,42.017 0,-0.313 0.05,-0.312 0,-0.52 0.055,-0.156 0.051,-0.156 0,-0.156 0.105,-0.207 0.102,-0.313 0.211,-0.312 0.101,-0.157 0.157,-0.152 0.156,-0.105 0.156,-0.157 0.106,-0.05 0.101,-0.055 0.106,-0.102 0.101,-0.054 0.211,-0.102 0.102,-0.055 0.156,-0.05 0.106,-0.051 0.156,-0.051 0.156,-0.055 0.156,-0.05 0.156,0 0.157,-0.051 0.152,-0.055 0.156,0 0.211,-0.051 0.207,0 0.157,-0.051 0.207,0 0.207,-0.054 0.937,0 0.262,-0.051 2.441,0 c 1.039,0 1.664,0 1.664,1.25 0,1.195 -0.675,1.195 -1.3,1.195 -3.172,0.051 -3.172,0.727 -3.172,1.922 l 0,11.129 c 0,4.574 -3.692,7.902 -11.387,7.902 -2.965,0 -9.258,-0.156 -9.258,-4.73 0,-2.289 1.82,-3.223 3.176,-3.223 1.609,0 3.273,1.039 3.273,3.223 0,1.559 -0.988,2.445 -1.144,2.547 1.457,0.312 3.121,0.363 3.746,0.363 3.898,0 5.668,-2.183 5.668,-6.082 l 0,-8.269 c 0,-4.993 -4.734,-5.668 -6.031,-5.668 -2.653,0 -4.735,1.82 -4.735,4.109 0,5.562 8.215,6.293 10.766,6.449 l 0,1.61 c -3.641,-0.157 -16.797,-0.622 -16.797,-8.11 0,-4.992 6.395,-5.929 9.984,-5.929 4.161,0 6.551,2.132 7.696,4.316 z"
         id="path3595"
         style="fill:#000000;fill-opacity:1;fill-rule:nonzero;stroke:none" /><path
         d="m 502.23,36.868 -1.25,0 c -0.101,-0.832 -0.468,-2.964 -0.933,-3.328 -0.313,-0.207 -3.07,-0.207 -3.59,-0.207 l -6.656,0 c 3.797,3.379 5.043,4.368 7.226,6.082 2.707,2.133 5.203,4.371 5.203,7.801 0,4.367 -3.847,7.074 -8.476,7.074 -4.524,0 -7.539,-3.172 -7.539,-6.5 0,-1.82 1.558,-2.027 1.922,-2.027 0.883,0 1.925,0.621 1.925,1.922 0,0.676 -0.261,1.926 -2.132,1.926 1.09,2.597 3.586,3.379 5.25,3.379 3.64,0 5.511,-2.809 5.511,-5.774 0,-3.117 -2.234,-5.613 -3.379,-6.914 l -8.734,-8.633 c -0.363,-0.312 -0.363,-0.363 -0.363,-1.402 l 14.922,0 1.093,6.601 z"
         id="path3597"
         style="fill:#000000;fill-opacity:1;fill-rule:nonzero;stroke:none" /><path
         d="m 372.266,410.771 0,-2.547 9.461,0.312 0,2.442 c -3.223,0 -3.536,0 -3.536,2.027 l 0,31.41 -9.203,-0.418 0,-2.441 c 3.223,0 3.586,0 3.586,-1.977 l 0,-10.089 c -2.597,2.027 -5.25,2.339 -6.965,2.339 l 0.52,-1.871 c 2.91,0 4.992,-1.664 6.137,-3.172 l 0,-12.894 c -0.676,-0.938 -2.809,-3.797 -6.711,-3.797 -6.344,0 -6.344,6.238 -6.344,9.879 0,2.496 0,5.254 1.351,7.281 1.508,2.184 3.954,2.703 5.567,2.703 l -0.52,1.871 c -7.593,0 -13,-4.574 -13,-11.855 0,-6.813 4.782,-11.75 12.426,-11.75 3.121,0 5.617,1.246 7.231,2.547 z"
         id="path3599"
         style="fill:#000000;fill-opacity:1;fill-rule:nonzero;stroke:none" /><path
         d="m 395.871,423.771 0,0.57 -0.051,0 0,0.211 -0.05,0 0,0.051 -0.055,0.051 -0.051,0.054 -0.051,0 -0.054,0.051 -0.207,0 -0.051,0.051 -0.52,0 c -2.289,-2.289 -5.617,-2.34 -7.074,-2.34 l 0,-1.301 c 0.832,0 3.227,0 5.254,1.043 l 0,-18.461 c 0,-1.195 0,-1.664 -3.641,-1.664 l -1.402,0 0,-1.301 c 0.676,0.051 5.144,0.157 6.5,0.157 1.09,0 5.668,-0.106 6.445,-0.157 l 0,1.301 -1.351,0 c -3.641,0 -3.641,0.469 -3.641,1.664 l 0,20.02 z"
         id="path3601"
         style="fill:#000000;fill-opacity:1;fill-rule:nonzero;stroke:none" /><path
         d="m 378.191,167.326 0,-2.547 9.465,0.312 0,2.445 c -3.226,0 -3.539,0 -3.539,2.028 l 0,31.406 -9.203,-0.414 0,-2.445 c 3.223,0 3.59,0 3.59,-1.977 l 0,-10.086 c -2.602,2.028 -5.254,2.34 -6.969,2.34 l 0.52,-1.875 c 2.91,0 4.992,-1.664 6.136,-3.172 l 0,-12.894 c -0.675,-0.938 -2.808,-3.797 -6.707,-3.797 -6.347,0 -6.347,6.242 -6.347,9.879 0,2.496 0,5.254 1.355,7.281 1.508,2.183 3.949,2.703 5.563,2.703 l -0.52,1.875 c -7.594,0 -13,-4.578 -13,-11.859 0,-6.809 4.785,-11.75 12.426,-11.75 3.121,0 5.617,1.246 7.23,2.547 z"
         id="path3603"
         style="fill:#000000;fill-opacity:1;fill-rule:nonzero;stroke:none" /><path
         d="m 407.934,163.947 -1.196,0 c -0.105,-0.832 -0.468,-2.965 -0.937,-3.329 -0.309,-0.207 -3.117,-0.207 -3.586,-0.207 l -6.656,0 c 3.796,3.379 5.043,4.368 7.226,6.082 2.653,2.133 5.149,4.368 5.149,7.801 0,4.367 -3.797,7.074 -8.477,7.074 -4.469,0 -7.488,-3.175 -7.488,-6.5 0,-1.82 1.562,-2.031 1.875,-2.031 0.883,0 1.922,0.625 1.922,1.926 0,0.676 -0.207,1.922 -2.133,1.922 1.144,2.601 3.59,3.383 5.305,3.383 3.64,0 5.511,-2.809 5.511,-5.774 0,-3.121 -2.234,-5.617 -3.429,-6.914 l -8.739,-8.633 c -0.312,-0.312 -0.312,-0.363 -0.312,-1.406 l 14.875,0 1.09,6.606 z"
         id="path3605"
         style="fill:#000000;fill-opacity:1;fill-rule:nonzero;stroke:none" /></g></g></svg>