<?xml version="1.0" encoding="UTF-8" standalone="no"?>
<!-- Created with Inkscape (http://www.inkscape.org/) -->

<svg
   xmlns:dc="http://purl.org/dc/elements/1.1/"
   xmlns:cc="http://creativecommons.org/ns#"
   xmlns:rdf="http://www.w3.org/1999/02/22-rdf-syntax-ns#"
   xmlns:svg="http://www.w3.org/2000/svg"
   xmlns="http://www.w3.org/2000/svg"
   version="1.1"
   width="560"
   height="420"
   id="svg5373"
   xml:space="preserve"><metadata
     id="metadata5379"><rdf:RDF><cc:Work
         rdf:about=""><dc:format>image/svg+xml</dc:format><dc:type
           rdf:resource="http://purl.org/dc/dcmitype/StillImage" /><dc:title></dc:title></cc:Work></rdf:RDF></metadata><defs
     id="defs5377"><clipPath
       id="clipPath5521"><path
         d="m 585.602,3105.6 0,-2726.401 3480.008,0 0,2726.401 -3480.008,0 z"
         id="path5523" /></clipPath><clipPath
       id="clipPath5547"><path
         d="m 1785.6,3297.61 0,-3105.61 1771.2,0 0,3105.61 -1771.2,0 z"
         id="path5549" /></clipPath></defs><g
     transform="matrix(1.25,0,0,-1.25,0,420)"
     id="g5381"><g
       transform="scale(0.1,0.1)"
       id="g5383"><path
         d="m 585.602,384 0,2721.6 3475.198,0 0,-2721.6 -3475.198,0"
         id="path5385"
         style="fill:none;stroke:#ffffff;stroke-width:5.00002003;stroke-linecap:butt;stroke-linejoin:round;stroke-miterlimit:10;stroke-opacity:1;stroke-dasharray:none" /><path
         d="M 585.602,384 4060.8,384"
         id="path5387"
         style="fill:none;stroke:#000000;stroke-width:5.00002003;stroke-linecap:butt;stroke-linejoin:round;stroke-miterlimit:10;stroke-opacity:1;stroke-dasharray:none" /><path
         d="m 585.602,3105.6 3475.198,0"
         id="path5389"
         style="fill:none;stroke:#000000;stroke-width:5.00002003;stroke-linecap:butt;stroke-linejoin:round;stroke-miterlimit:10;stroke-opacity:1;stroke-dasharray:none" /><path
         d="m 585.602,384 0,2721.6"
         id="path5391"
         style="fill:none;stroke:#000000;stroke-width:5.00002003;stroke-linecap:butt;stroke-linejoin:round;stroke-miterlimit:10;stroke-opacity:1;stroke-dasharray:none" /><path
         d="m 4060.8,384 0,2721.6"
         id="path5393"
         style="fill:none;stroke:#000000;stroke-width:5.00002003;stroke-linecap:butt;stroke-linejoin:round;stroke-miterlimit:10;stroke-opacity:1;stroke-dasharray:none" /><path
         d="M 585.602,384 4060.8,384"
         id="path5395"
         style="fill:none;stroke:#000000;stroke-width:5.00002003;stroke-linecap:butt;stroke-linejoin:round;stroke-miterlimit:10;stroke-opacity:1;stroke-dasharray:none" /><path
         d="m 585.602,384 0,2721.6"
         id="path5397"
         style="fill:none;stroke:#000000;stroke-width:5.00002003;stroke-linecap:butt;stroke-linejoin:round;stroke-miterlimit:10;stroke-opacity:1;stroke-dasharray:none" /><path
         d="m 585.602,384 0,38.398"
         id="path5399"
         style="fill:none;stroke:#000000;stroke-width:5.00002003;stroke-linecap:butt;stroke-linejoin:round;stroke-miterlimit:10;stroke-opacity:1;stroke-dasharray:none" /><path
         d="m 585.602,3105.6 0,-33.6"
         id="path5401"
         style="fill:none;stroke:#000000;stroke-width:5.00002003;stroke-linecap:butt;stroke-linejoin:round;stroke-miterlimit:10;stroke-opacity:1;stroke-dasharray:none" /><g
         transform="scale(10,10)"
         id="g5403"><text
           transform="matrix(1,0,0,-1,54.2402,20.6398)"
           id="text5405"><tspan
             x="0"
             y="0"
             id="tspan5407"
             style="font-size:16px;font-variant:normal;font-weight:normal;writing-mode:lr-tb;fill:#000000;fill-opacity:1;fill-rule:nonzero;stroke:none;font-family:Helvetica;-inkscape-font-specification:Helvetica">0</tspan></text>
</g><path
         d="m 1276.8,384 0,38.398"
         id="path5409"
         style="fill:none;stroke:#000000;stroke-width:5.00002003;stroke-linecap:butt;stroke-linejoin:round;stroke-miterlimit:10;stroke-opacity:1;stroke-dasharray:none" /><path
         d="m 1276.8,3105.6 0,-33.6"
         id="path5411"
         style="fill:none;stroke:#000000;stroke-width:5.00002003;stroke-linecap:butt;stroke-linejoin:round;stroke-miterlimit:10;stroke-opacity:1;stroke-dasharray:none" /><g
         transform="scale(10,10)"
         id="g5413"><text
           transform="matrix(1,0,0,-1,116.64,20.6398)"
           id="text5415"><tspan
             x="0 8.8959999 13.344"
             y="0"
             id="tspan5417"
             style="font-size:16px;font-variant:normal;font-weight:normal;writing-mode:lr-tb;fill:#000000;fill-opacity:1;fill-rule:nonzero;stroke:none;font-family:Helvetica;-inkscape-font-specification:Helvetica">0.5</tspan></text>
</g><path
         d="m 1972.8,384 0,38.398"
         id="path5419"
         style="fill:none;stroke:#000000;stroke-width:5.00002003;stroke-linecap:butt;stroke-linejoin:round;stroke-miterlimit:10;stroke-opacity:1;stroke-dasharray:none" /><path
         d="m 1972.8,3105.6 0,-33.6"
         id="path5421"
         style="fill:none;stroke:#000000;stroke-width:5.00002003;stroke-linecap:butt;stroke-linejoin:round;stroke-miterlimit:10;stroke-opacity:1;stroke-dasharray:none" /><g
         transform="scale(10,10)"
         id="g5423"><text
           transform="matrix(1,0,0,-1,192.96,20.6398)"
           id="text5425"><tspan
             x="0"
             y="0"
             id="tspan5427"
             style="font-size:16px;font-variant:normal;font-weight:normal;writing-mode:lr-tb;fill:#000000;fill-opacity:1;fill-rule:nonzero;stroke:none;font-family:Helvetica;-inkscape-font-specification:Helvetica">1</tspan></text>
</g><path
         d="m 2668.8,384 0,38.398"
         id="path5429"
         style="fill:none;stroke:#000000;stroke-width:5.00002003;stroke-linecap:butt;stroke-linejoin:round;stroke-miterlimit:10;stroke-opacity:1;stroke-dasharray:none" /><path
         d="m 2668.8,3105.6 0,-33.6"
         id="path5431"
         style="fill:none;stroke:#000000;stroke-width:5.00002003;stroke-linecap:butt;stroke-linejoin:round;stroke-miterlimit:10;stroke-opacity:1;stroke-dasharray:none" /><g
         transform="scale(10,10)"
         id="g5433"><text
           transform="matrix(1,0,0,-1,255.84,20.6398)"
           id="text5435"><tspan
             x="0 8.8959999 13.344"
             y="0"
             id="tspan5437"
             style="font-size:16px;font-variant:normal;font-weight:normal;writing-mode:lr-tb;fill:#000000;fill-opacity:1;fill-rule:nonzero;stroke:none;font-family:Helvetica;-inkscape-font-specification:Helvetica">1.5</tspan></text>
</g><path
         d="m 3364.8,384 0,38.398"
         id="path5439"
         style="fill:none;stroke:#000000;stroke-width:5.00002003;stroke-linecap:butt;stroke-linejoin:round;stroke-miterlimit:10;stroke-opacity:1;stroke-dasharray:none" /><path
         d="m 3364.8,3105.6 0,-33.6"
         id="path5441"
         style="fill:none;stroke:#000000;stroke-width:5.00002003;stroke-linecap:butt;stroke-linejoin:round;stroke-miterlimit:10;stroke-opacity:1;stroke-dasharray:none" /><g
         transform="scale(10,10)"
         id="g5443"><text
           transform="matrix(1,0,0,-1,332.161,20.6398)"
           id="text5445"><tspan
             x="0"
             y="0"
             id="tspan5447"
             style="font-size:16px;font-variant:normal;font-weight:normal;writing-mode:lr-tb;fill:#000000;fill-opacity:1;fill-rule:nonzero;stroke:none;font-family:Helvetica;-inkscape-font-specification:Helvetica">2</tspan></text>
</g><path
         d="m 4060.8,384 0,38.398"
         id="path5449"
         style="fill:none;stroke:#000000;stroke-width:5.00002003;stroke-linecap:butt;stroke-linejoin:round;stroke-miterlimit:10;stroke-opacity:1;stroke-dasharray:none" /><path
         d="m 4060.8,3105.6 0,-33.6"
         id="path5451"
         style="fill:none;stroke:#000000;stroke-width:5.00002003;stroke-linecap:butt;stroke-linejoin:round;stroke-miterlimit:10;stroke-opacity:1;stroke-dasharray:none" /><g
         transform="scale(10,10)"
         id="g5453"><text
           transform="matrix(1,0,0,-1,395.041,20.6398)"
           id="text5455"><tspan
             x="0 8.8959999 13.344"
             y="0"
             id="tspan5457"
             style="font-size:16px;font-variant:normal;font-weight:normal;writing-mode:lr-tb;fill:#000000;fill-opacity:1;fill-rule:nonzero;stroke:none;font-family:Helvetica;-inkscape-font-specification:Helvetica">2.5</tspan></text>
</g><path
         d="m 585.602,384 33.597,0"
         id="path5459"
         style="fill:none;stroke:#000000;stroke-width:5.00002003;stroke-linecap:butt;stroke-linejoin:round;stroke-miterlimit:10;stroke-opacity:1;stroke-dasharray:none" /><path
         d="m 4060.8,384 -38.39,0"
         id="path5461"
         style="fill:none;stroke:#000000;stroke-width:5.00002003;stroke-linecap:butt;stroke-linejoin:round;stroke-miterlimit:10;stroke-opacity:1;stroke-dasharray:none" /><g
         transform="scale(10,10)"
         id="g5463"><text
           transform="matrix(1,0,0,-1,47.0402,32.6398)"
           id="text5465"><tspan
             x="0"
             y="0"
             id="tspan5467"
             style="font-size:16px;font-variant:normal;font-weight:normal;writing-mode:lr-tb;fill:#000000;fill-opacity:1;fill-rule:nonzero;stroke:none;font-family:Helvetica;-inkscape-font-specification:Helvetica">0</tspan></text>
</g><path
         d="m 585.602,1065.6 33.597,0"
         id="path5469"
         style="fill:none;stroke:#000000;stroke-width:5.00002003;stroke-linecap:butt;stroke-linejoin:round;stroke-miterlimit:10;stroke-opacity:1;stroke-dasharray:none" /><path
         d="m 4060.8,1065.6 -38.39,0"
         id="path5471"
         style="fill:none;stroke:#000000;stroke-width:5.00002003;stroke-linecap:butt;stroke-linejoin:round;stroke-miterlimit:10;stroke-opacity:1;stroke-dasharray:none" /><g
         transform="scale(10,10)"
         id="g5473"><text
           transform="matrix(1,0,0,-1,33.6,100.8)"
           id="text5475"><tspan
             x="0 8.8959999 13.344"
             y="0"
             id="tspan5477"
             style="font-size:16px;font-variant:normal;font-weight:normal;writing-mode:lr-tb;fill:#000000;fill-opacity:1;fill-rule:nonzero;stroke:none;font-family:Helvetica;-inkscape-font-specification:Helvetica">0.5</tspan></text>
</g><path
         d="m 585.602,1747.2 33.597,0"
         id="path5479"
         style="fill:none;stroke:#000000;stroke-width:5.00002003;stroke-linecap:butt;stroke-linejoin:round;stroke-miterlimit:10;stroke-opacity:1;stroke-dasharray:none" /><path
         d="m 4060.8,1747.2 -38.39,0"
         id="path5481"
         style="fill:none;stroke:#000000;stroke-width:5.00002003;stroke-linecap:butt;stroke-linejoin:round;stroke-miterlimit:10;stroke-opacity:1;stroke-dasharray:none" /><g
         transform="scale(10,10)"
         id="g5483"><text
           transform="matrix(1,0,0,-1,47.0402,168.96)"
           id="text5485"><tspan
             x="0"
             y="0"
             id="tspan5487"
             style="font-size:16px;font-variant:normal;font-weight:normal;writing-mode:lr-tb;fill:#000000;fill-opacity:1;fill-rule:nonzero;stroke:none;font-family:Helvetica;-inkscape-font-specification:Helvetica">1</tspan></text>
</g><path
         d="m 585.602,2428.8 33.597,0"
         id="path5489"
         style="fill:none;stroke:#000000;stroke-width:5.00002003;stroke-linecap:butt;stroke-linejoin:round;stroke-miterlimit:10;stroke-opacity:1;stroke-dasharray:none" /><path
         d="m 4060.8,2428.8 -38.39,0"
         id="path5491"
         style="fill:none;stroke:#000000;stroke-width:5.00002003;stroke-linecap:butt;stroke-linejoin:round;stroke-miterlimit:10;stroke-opacity:1;stroke-dasharray:none" /><g
         transform="scale(10,10)"
         id="g5493"><text
           transform="matrix(1,0,0,-1,33.6,237.12)"
           id="text5495"><tspan
             x="0 8.8959999 13.344"
             y="0"
             id="tspan5497"
             style="font-size:16px;font-variant:normal;font-weight:normal;writing-mode:lr-tb;fill:#000000;fill-opacity:1;fill-rule:nonzero;stroke:none;font-family:Helvetica;-inkscape-font-specification:Helvetica">1.5</tspan></text>
</g><path
         d="m 585.602,3105.6 33.597,0"
         id="path5499"
         style="fill:none;stroke:#000000;stroke-width:5.00002003;stroke-linecap:butt;stroke-linejoin:round;stroke-miterlimit:10;stroke-opacity:1;stroke-dasharray:none" /><path
         d="m 4060.8,3105.6 -38.39,0"
         id="path5501"
         style="fill:none;stroke:#000000;stroke-width:5.00002003;stroke-linecap:butt;stroke-linejoin:round;stroke-miterlimit:10;stroke-opacity:1;stroke-dasharray:none" /><g
         transform="scale(10,10)"
         id="g5503"><text
           transform="matrix(1,0,0,-1,47.0402,304.8)"
           id="text5505"><tspan
             x="0"
             y="0"
             id="tspan5507"
             style="font-size:16px;font-variant:normal;font-weight:normal;writing-mode:lr-tb;fill:#000000;fill-opacity:1;fill-rule:nonzero;stroke:none;font-family:Helvetica;-inkscape-font-specification:Helvetica">2</tspan></text>
</g><path
         d="M 585.602,384 4060.8,384"
         id="path5509"
         style="fill:none;stroke:#000000;stroke-width:5.00002003;stroke-linecap:butt;stroke-linejoin:round;stroke-miterlimit:10;stroke-opacity:1;stroke-dasharray:none" /><path
         d="m 585.602,3105.6 3475.198,0"
         id="path5511"
         style="fill:none;stroke:#000000;stroke-width:5.00002003;stroke-linecap:butt;stroke-linejoin:round;stroke-miterlimit:10;stroke-opacity:1;stroke-dasharray:none" /><path
         d="m 585.602,384 0,2721.6"
         id="path5513"
         style="fill:none;stroke:#000000;stroke-width:5.00002003;stroke-linecap:butt;stroke-linejoin:round;stroke-miterlimit:10;stroke-opacity:1;stroke-dasharray:none" /><path
         d="m 4060.8,384 0,2721.6"
         id="path5515"
         style="fill:none;stroke:#000000;stroke-width:5.00002003;stroke-linecap:butt;stroke-linejoin:round;stroke-miterlimit:10;stroke-opacity:1;stroke-dasharray:none" /><g
         id="g5517"><g
           clip-path="url(#clipPath5521)"
           id="g5519"><path
             d="m 2798.41,1195.2 9.59,9.6 9.61,9.6 9.59,4.8 4.8,9.6 9.61,9.6 9.59,4.8 4.8,9.6 9.61,4.8 4.8,9.6 9.59,4.8 4.8,9.6 9.61,4.8 4.79,4.8 4.8,9.6 9.61,4.8 4.8,4.8 4.79,4.8 4.8,9.6 4.8,4.8 4.81,4.8 4.8,4.8 4.79,4.8 4.8,4.8 4.8,4.8 4.81,0 4.8,4.8 4.79,4.8 4.8,4.8 4.8,4.8 9.61,9.6 4.79,4.8 4.8,4.8 9.61,9.6 4.8,4.8 9.59,9.6 9.61,9.6 9.59,4.8 4.8,9.6 9.61,9.6 9.59,9.6 9.6,4.8 9.61,9.6 9.59,9.6 9.61,9.6 4.8,9.6 9.59,9.6 9.61,4.8 9.6,9.6 9.59,9.6 9.61,9.6 4.8,4.8 9.59,9.6 9.61,9.6 4.8,4.8 9.59,9.6 9.61,9.6 4.8,4.8 9.59,9.6 4.81,4.8 9.6,9.6 4.79,4.8 4.8,4.8 9.61,9.6 4.8,4.8 4.79,4.8 9.61,4.8 4.8,4.8 4.8,9.6 4.79,4.8 4.8,4.8 4.81,4.8 4.8,4.8 4.8,0 4.79,4.8 4.8,4.8 0,4.8 4.81,9.6 4.8,14.4 4.8,14.4 0,14.4 4.79,19.2 4.8,19.2 0,24 4.81,24 0,24 4.8,24 0,28.8 4.8,28.8 0,57.6 4.79,28.8 0,62.4 4.8,33.6 0,91.2 4.81,28.8 0,153.6 4.8,28.8 0,585.6 -4.8,9.6 0,9.6"
             id="path5525"
             style="fill:none;stroke:#0000ff;stroke-width:20;stroke-linecap:butt;stroke-linejoin:round;stroke-miterlimit:10;stroke-opacity:1;stroke-dasharray:none" /><path
             d="m 2275.2,648 4.8,4.801 4.8,4.797 4.81,4.8 0,4.801 4.79,4.801 4.8,4.801 4.8,4.797 0,4.8 4.8,4.801 4.81,4.801 4.79,4.801 4.8,4.797 4.8,4.8 4.8,4.801 0,4.801 4.81,4.801 4.79,4.801 4.8,4.796 4.8,4.801 4.8,4.801 4.81,4.801 0,4.801 4.79,4.796 4.8,4.801 4.8,4.801 9.61,9.602 -4.81,0 4.81,0 4.79,4.796 4.8,4.801 0,4.801 4.8,4.801 4.8,4.801 4.81,4.796 4.79,4.801 4.8,4.801 0,4.801 4.8,4.801 4.8,0 4.81,4.796 4.79,4.801 4.8,9.602 4.8,4.801 4.8,4.796 4.81,4.801 4.79,4.801 9.6,4.801 4.8,4.801 4.81,9.597 4.79,4.801 4.8,4.801 4.8,4.801 9.61,9.597 4.79,4.801 4.8,4.801 4.8,4.801 4.8,4.796 9.6,9.602 4.8,4.801 4.8,4.801 4.8,4.796 4.81,4.801 4.79,4.801 4.8,4.801 4.8,4.801 4.8,4.796 4.81,4.801 4.79,4.801 4.8,4.801 4.8,4.801 4.8,4.796 4.81,4.802 4.79,4.8 4.8,4.8 4.8,4.8 4.8,4.8 4.81,4.8 4.79,4.8 4.8,4.8 4.8,4.8 9.61,4.8 4.8,9.6 9.59,4.8 4.8,9.6 9.61,4.8 9.59,9.6 4.8,9.6 9.61,9.6 9.59,4.8 9.61,9.6 9.59,9.6 4.8,9.6 9.61,4.8 9.59,9.6 9.6,9.6 9.61,9.6 9.59,9.6 4.8,4.8 9.61,9.6"
             id="path5527"
             style="fill:none;stroke:#0000ff;stroke-width:20;stroke-linecap:butt;stroke-linejoin:round;stroke-miterlimit:10;stroke-opacity:1;stroke-dasharray:none" /><path
             d="m 672,384 1228.8,0 9.6,4.801 19.2,0 9.6,4.797 9.6,0 9.6,4.8 9.6,4.801 9.6,4.801 14.4,4.801 9.6,4.797 9.6,4.8 9.6,4.801 9.6,9.602 14.4,4.797 9.6,4.8 9.6,9.602 9.6,4.801 9.6,9.597 9.6,4.801 9.6,9.602 9.6,9.597 9.6,4.801 9.6,9.602 9.6,4.797 9.6,9.601 4.8,4.801 9.6,9.598 9.6,4.8 4.8,9.602 9.6,4.801 9.6,9.597 4.8,4.801 4.8,9.602 9.61,4.797 4.79,4.8 9.6,9.602 4.8,4.801 4.81,4.797 4.79,9.601 4.8,4.801 4.8,4.801 4.8,4.797 4.81,4.8 4.79,4.801 4.8,4.801"
             id="path5529"
             style="fill:none;stroke:#0000ff;stroke-width:20;stroke-linecap:butt;stroke-linejoin:round;stroke-miterlimit:10;stroke-opacity:1;stroke-dasharray:none" /><path
             d="M 585.602,384 672,384"
             id="path5531"
             style="fill:none;stroke:#0000ff;stroke-width:20;stroke-linecap:butt;stroke-linejoin:round;stroke-miterlimit:10;stroke-opacity:1;stroke-dasharray:none" /></g></g><g
         transform="scale(10,10)"
         id="g5533"><text
           transform="matrix(1,0,0,-1,209.28,4.31992)"
           id="text5535"><tspan
             x="0 8 16.896 21.344 26.672001 40"
             y="0"
             id="tspan5537"
             style="font-size:16px;font-variant:normal;font-weight:normal;writing-mode:lr-tb;fill:#000000;fill-opacity:1;fill-rule:nonzero;stroke:none;font-family:Helvetica;-inkscape-font-specification:Helvetica">x1 (m)</tspan></text>
<text
           transform="matrix(0,1,1,0,25.4402,151.68)"
           id="text5539"><tspan
             x="0 8 16.896 21.344 26.672001 40"
             y="0"
             id="tspan5541"
             style="font-size:16px;font-variant:normal;font-weight:normal;writing-mode:lr-tb;fill:#000000;fill-opacity:1;fill-rule:nonzero;stroke:none;font-family:Helvetica;-inkscape-font-specification:Helvetica">x2 (m)</tspan></text>
</g><g
         id="g5543"><g
           clip-path="url(#clipPath5547)"
           id="g5545"><path
             d="M 1920,436.801 2025.6,331.199"
             id="path5551"
             style="fill:none;stroke:#0000ff;stroke-width:30;stroke-linecap:butt;stroke-linejoin:round;stroke-miterlimit:10;stroke-opacity:1;stroke-dasharray:none" /><path
             d="M 2025.6,436.801 1920,331.199"
             id="path5553"
             style="fill:none;stroke:#0000ff;stroke-width:30;stroke-linecap:butt;stroke-linejoin:round;stroke-miterlimit:10;stroke-opacity:1;stroke-dasharray:none" /><path
             d="M 2270.4,777.602 2376,672"
             id="path5555"
             style="fill:none;stroke:#0000ff;stroke-width:30;stroke-linecap:butt;stroke-linejoin:round;stroke-miterlimit:10;stroke-opacity:1;stroke-dasharray:none" /><path
             d="M 2376,777.602 2270.4,672"
             id="path5557"
             style="fill:none;stroke:#0000ff;stroke-width:30;stroke-linecap:butt;stroke-linejoin:round;stroke-miterlimit:10;stroke-opacity:1;stroke-dasharray:none" /><path
             d="M 2404.8,916.801 2510.4,811.199"
             id="path5559"
             style="fill:none;stroke:#0000ff;stroke-width:30;stroke-linecap:butt;stroke-linejoin:round;stroke-miterlimit:10;stroke-opacity:1;stroke-dasharray:none" /><path
             d="M 2510.4,916.801 2404.8,811.199"
             id="path5561"
             style="fill:none;stroke:#0000ff;stroke-width:30;stroke-linecap:butt;stroke-linejoin:round;stroke-miterlimit:10;stroke-opacity:1;stroke-dasharray:none" /><path
             d="m 2616,1118.4 105.61,-105.6"
             id="path5563"
             style="fill:none;stroke:#0000ff;stroke-width:30;stroke-linecap:butt;stroke-linejoin:round;stroke-miterlimit:10;stroke-opacity:1;stroke-dasharray:none" /><path
             d="M 2721.61,1118.4 2616,1012.8"
             id="path5565"
             style="fill:none;stroke:#0000ff;stroke-width:30;stroke-linecap:butt;stroke-linejoin:round;stroke-miterlimit:10;stroke-opacity:1;stroke-dasharray:none" /><path
             d="M 2961.61,1459.2 3067.2,1353.6"
             id="path5567"
             style="fill:none;stroke:#0000ff;stroke-width:30;stroke-linecap:butt;stroke-linejoin:round;stroke-miterlimit:10;stroke-opacity:1;stroke-dasharray:none" /><path
             d="M 3067.2,1459.2 2961.61,1353.6"
             id="path5569"
             style="fill:none;stroke:#0000ff;stroke-width:30;stroke-linecap:butt;stroke-linejoin:round;stroke-miterlimit:10;stroke-opacity:1;stroke-dasharray:none" /><path
             d="m 3312,1800 105.61,-105.6"
             id="path5571"
             style="fill:none;stroke:#0000ff;stroke-width:30;stroke-linecap:butt;stroke-linejoin:round;stroke-miterlimit:10;stroke-opacity:1;stroke-dasharray:none" /><path
             d="M 3417.61,1800 3312,1694.4"
             id="path5573"
             style="fill:none;stroke:#0000ff;stroke-width:30;stroke-linecap:butt;stroke-linejoin:round;stroke-miterlimit:10;stroke-opacity:1;stroke-dasharray:none" /><path
             d="m 3312,3158.4 105.61,-105.6"
             id="path5575"
             style="fill:none;stroke:#0000ff;stroke-width:30;stroke-linecap:butt;stroke-linejoin:round;stroke-miterlimit:10;stroke-opacity:1;stroke-dasharray:none" /><path
             d="M 3417.61,3158.4 3312,3052.8"
             id="path5577"
             style="fill:none;stroke:#0000ff;stroke-width:30;stroke-linecap:butt;stroke-linejoin:round;stroke-miterlimit:10;stroke-opacity:1;stroke-dasharray:none" /></g></g></g></g></svg>