<?xml version="1.0" encoding="UTF-8" standalone="no"?>
<!-- Created with Inkscape (http://www.inkscape.org/) -->

<svg
   xmlns:dc="http://purl.org/dc/elements/1.1/"
   xmlns:cc="http://creativecommons.org/ns#"
   xmlns:rdf="http://www.w3.org/1999/02/22-rdf-syntax-ns#"
   xmlns:svg="http://www.w3.org/2000/svg"
   xmlns="http://www.w3.org/2000/svg"
   version="1.1"
   width="560"
   height="420"
   id="svg43317"
   xml:space="preserve"><metadata
     id="metadata43323"><rdf:RDF><cc:Work
         rdf:about=""><dc:format>image/svg+xml</dc:format><dc:type
           rdf:resource="http://purl.org/dc/dcmitype/StillImage" /><dc:title></dc:title></cc:Work></rdf:RDF></metadata><defs
     id="defs43321"><clipPath
       id="clipPath43333"><path
         d="m 801.602,1185.6 0,-263.998 263.998,0 0,263.998 -263.998,0 z"
         id="path43335" /></clipPath><clipPath
       id="clipPath43349"><path
         d="m 585.602,3110.4 0,-2740.802 3480.008,0 0,2740.802 -3480.008,0 z"
         id="path43351" /></clipPath><clipPath
       id="clipPath43361"><path
         d="m 2193.61,672 0,-264 264,0 0,264 -264,0 z"
         id="path43363" /></clipPath><clipPath
       id="clipPath43377"><path
         d="m 585.602,3110.4 0,-2740.802 3480.008,0 0,2740.802 -3480.008,0 z"
         id="path43379" /></clipPath><clipPath
       id="clipPath43393"><path
         d="m 2884.8,1699.2 0,-264 264,0 0,264 -264,0 z"
         id="path43395" /></clipPath><clipPath
       id="clipPath43409"><path
         d="m 585.602,3110.4 0,-2740.802 3480.008,0 0,2740.802 -3480.008,0 z"
         id="path43411" /></clipPath><clipPath
       id="clipPath43425"><path
         d="m 1867.2,3211.2 0,-211.2 216,0 0,211.2 -216,0 z"
         id="path43427" /></clipPath><clipPath
       id="clipPath43441"><path
         d="m 585.602,3110.4 0,-2740.802 3480.008,0 0,2740.802 -3480.008,0 z"
         id="path43443" /></clipPath><clipPath
       id="clipPath43455"><path
         d="m 3830.41,1113.6 0,-460.799 460.8,0 0,460.799 -460.8,0 z"
         id="path43457" /></clipPath><clipPath
       id="clipPath43473"><path
         d="m 585.602,3110.4 0,-2740.802 3480.008,0 0,2740.802 -3480.008,0 z"
         id="path43475" /></clipPath></defs><g
     transform="matrix(1.25,0,0,-1.25,0,420)"
     id="g43325"><g
       transform="scale(0.1,0.1)"
       id="g43327"><g
         id="g43329"><g
           clip-path="url(#clipPath43333)"
           id="g43331"><path
             d="m 979.199,1056 c 0,-26.51 -21.492,-48 -48,-48 -26.508,0 -48,21.49 -48,48 0,26.51 21.492,48 48,48 26.508,0 48,-21.49 48,-48"
             id="path43337"
             style="fill:none;stroke:#0000ff;stroke-width:20;stroke-linecap:butt;stroke-linejoin:round;stroke-miterlimit:10;stroke-opacity:1;stroke-dasharray:none" /></g></g><g
         transform="scale(10,10)"
         id="g43339"><text
           transform="matrix(1,0,0,-1,93.1203,64.3199)"
           id="text43341"><tspan
             x="0"
             y="0"
             id="tspan43343"
             style="font-size:20px;font-variant:normal;font-weight:normal;writing-mode:lr-tb;fill:#000000;fill-opacity:1;fill-rule:nonzero;stroke:none;font-family:Helvetica;-inkscape-font-specification:Helvetica">1</tspan></text>
</g><g
         id="g43345"><g
           clip-path="url(#clipPath43349)"
           id="g43347"><path
             d="m 941.203,1056 c 0,-5.52 -4.48,-10 -10,-10 -5.519,0 -10,4.48 -10,10 0,5.52 4.481,10 10,10 5.52,0 10,-4.48 10,-10"
             id="path43353"
             style="fill:#0000ff;fill-opacity:1;fill-rule:nonzero;stroke:none" /><path
             d="M 931.203,1056 2323.2,542.398"
             id="path43355"
             style="fill:none;stroke:#0000ff;stroke-width:20;stroke-linecap:butt;stroke-linejoin:round;stroke-miterlimit:10;stroke-opacity:1;stroke-dasharray:none" /></g></g><g
         id="g43357"><g
           clip-path="url(#clipPath43361)"
           id="g43359"><path
             d="m 2371.2,542.398 c 0,-26.507 -21.49,-48 -48,-48 -26.5,0 -48,21.493 -48,48 0,26.508 21.5,48 48,48 26.51,0 48,-21.492 48,-48"
             id="path43365"
             style="fill:none;stroke:#0000ff;stroke-width:20;stroke-linecap:butt;stroke-linejoin:round;stroke-miterlimit:10;stroke-opacity:1;stroke-dasharray:none" /></g></g><g
         transform="scale(10,10)"
         id="g43367"><text
           transform="matrix(1,0,0,-1,232.32,12.9598)"
           id="text43369"><tspan
             x="0"
             y="0"
             id="tspan43371"
             style="font-size:20px;font-variant:normal;font-weight:normal;writing-mode:lr-tb;fill:#000000;fill-opacity:1;fill-rule:nonzero;stroke:none;font-family:Helvetica;-inkscape-font-specification:Helvetica">2</tspan></text>
</g><g
         id="g43373"><g
           clip-path="url(#clipPath43377)"
           id="g43375"><path
             d="M 2323.2,542.398 931.203,1056"
             id="path43381"
             style="fill:none;stroke:#000000;stroke-width:30;stroke-linecap:butt;stroke-linejoin:round;stroke-miterlimit:10;stroke-opacity:1;stroke-dasharray:none" /><path
             d="m 2333.2,542.398 c 0,-5.519 -4.48,-10 -10,-10 -5.52,0 -10,4.481 -10,10 0,5.52 4.48,10 10,10 5.52,0 10,-4.48 10,-10"
             id="path43383"
             style="fill:#0000ff;fill-opacity:1;fill-rule:nonzero;stroke:none" /><path
             d="M 2323.2,542.398 3014.41,1569.6"
             id="path43385"
             style="fill:none;stroke:#0000ff;stroke-width:20;stroke-linecap:butt;stroke-linejoin:round;stroke-miterlimit:10;stroke-opacity:1;stroke-dasharray:none" /><path
             d="M 2323.2,542.398 1972.8,3110.4"
             id="path43387"
             style="fill:none;stroke:#0000ff;stroke-width:10;stroke-linecap:butt;stroke-linejoin:round;stroke-miterlimit:10;stroke-opacity:1;stroke-dasharray:none" /></g></g><g
         id="g43389"><g
           clip-path="url(#clipPath43393)"
           id="g43391"><path
             d="m 3062.4,1569.6 c 0,-26.51 -21.49,-48 -48,-48 -26.51,0 -48,21.49 -48,48 0,26.51 21.49,48 48,48 26.51,0 48,-21.49 48,-48"
             id="path43397"
             style="fill:none;stroke:#0000ff;stroke-width:20;stroke-linecap:butt;stroke-linejoin:round;stroke-miterlimit:10;stroke-opacity:1;stroke-dasharray:none" /></g></g><g
         transform="scale(10,10)"
         id="g43399"><text
           transform="matrix(1,0,0,-1,301.441,115.68)"
           id="text43401"><tspan
             x="0"
             y="0"
             id="tspan43403"
             style="font-size:20px;font-variant:normal;font-weight:normal;writing-mode:lr-tb;fill:#000000;fill-opacity:1;fill-rule:nonzero;stroke:none;font-family:Helvetica;-inkscape-font-specification:Helvetica">3</tspan></text>
</g><g
         id="g43405"><g
           clip-path="url(#clipPath43409)"
           id="g43407"><path
             d="M 3014.41,1569.6 2323.2,542.398"
             id="path43413"
             style="fill:none;stroke:#000000;stroke-width:30;stroke-linecap:butt;stroke-linejoin:round;stroke-miterlimit:10;stroke-opacity:1;stroke-dasharray:none" /><path
             d="m 3024.41,1569.6 c 0,-5.52 -4.48,-10 -10,-10 -5.52,0 -10,4.48 -10,10 0,5.52 4.48,10 10,10 5.52,0 10,-4.48 10,-10"
             id="path43415"
             style="fill:#0000ff;fill-opacity:1;fill-rule:nonzero;stroke:none" /><path
             d="M 3014.41,1569.6 1972.8,3110.4"
             id="path43417"
             style="fill:none;stroke:#0000ff;stroke-width:10;stroke-linecap:butt;stroke-linejoin:round;stroke-miterlimit:10;stroke-opacity:1;stroke-dasharray:none" /><path
             d="M 3014.41,1569.6 4060.8,883.199"
             id="path43419"
             style="fill:none;stroke:#0000ff;stroke-width:20;stroke-linecap:butt;stroke-linejoin:round;stroke-miterlimit:10;stroke-opacity:1;stroke-dasharray:none" /></g></g><g
         id="g43421"><g
           clip-path="url(#clipPath43425)"
           id="g43423"><path
             d="m 2020.8,3110.4 c 0,-26.51 -21.49,-48 -48,-48 -26.51,0 -48,21.49 -48,48 0,26.51 21.49,48 48,48 26.51,0 48,-21.49 48,-48"
             id="path43429"
             style="fill:none;stroke:#0000ff;stroke-width:10;stroke-linecap:butt;stroke-linejoin:round;stroke-miterlimit:10;stroke-opacity:1;stroke-dasharray:none" /></g></g><g
         transform="scale(10,10)"
         id="g43431"><text
           transform="matrix(1,0,0,-1,197.28,269.28)"
           id="text43433"><tspan
             x="0"
             y="0"
             id="tspan43435"
             style="font-size:20px;font-variant:normal;font-weight:normal;writing-mode:lr-tb;fill:#000000;fill-opacity:1;fill-rule:nonzero;stroke:none;font-family:Helvetica;-inkscape-font-specification:Helvetica">4</tspan></text>
</g><g
         id="g43437"><g
           clip-path="url(#clipPath43441)"
           id="g43439"><path
             d="M 1972.8,3110.4 2323.2,542.398"
             id="path43445"
             style="fill:none;stroke:#0000ff;stroke-width:10;stroke-linecap:butt;stroke-linejoin:round;stroke-miterlimit:10;stroke-opacity:1;stroke-dasharray:none" /><path
             d="M 1972.8,3110.4 3014.41,1569.6"
             id="path43447"
             style="fill:none;stroke:#0000ff;stroke-width:10;stroke-linecap:butt;stroke-linejoin:round;stroke-miterlimit:10;stroke-opacity:1;stroke-dasharray:none" /><path
             d="m 1982.8,3110.4 c 0,-5.52 -4.48,-10 -10,-10 -5.51,0 -10,4.48 -10,10 0,5.52 4.49,10 10,10 5.52,0 10,-4.48 10,-10"
             id="path43449"
             style="fill:#0000ff;fill-opacity:1;fill-rule:nonzero;stroke:none" /></g></g><g
         id="g43451"><g
           clip-path="url(#clipPath43455)"
           id="g43453"><path
             d="M 3993.61,950.398 4128.01,816"
             id="path43459"
             style="fill:none;stroke:#00ff00;stroke-width:20;stroke-linecap:butt;stroke-linejoin:round;stroke-miterlimit:10;stroke-opacity:1;stroke-dasharray:none" /><path
             d="M 4128.01,950.398 3993.61,816"
             id="path43461"
             style="fill:none;stroke:#00ff00;stroke-width:20;stroke-linecap:butt;stroke-linejoin:round;stroke-miterlimit:10;stroke-opacity:1;stroke-dasharray:none" /></g></g><g
         transform="scale(10,10)"
         id="g43463"><text
           transform="matrix(1,0,0,-1,406.08,47.0398)"
           id="text43465"><tspan
             x="0"
             y="0"
             id="tspan43467"
             style="font-size:20px;font-variant:normal;font-weight:normal;writing-mode:lr-tb;fill:#000000;fill-opacity:1;fill-rule:nonzero;stroke:none;font-family:Helvetica;-inkscape-font-specification:Helvetica">5</tspan></text>
</g><g
         id="g43469"><g
           clip-path="url(#clipPath43473)"
           id="g43471"><path
             d="M 4060.8,883.199 3014.41,1569.6"
             id="path43477"
             style="fill:none;stroke:#000000;stroke-width:30;stroke-linecap:butt;stroke-linejoin:round;stroke-miterlimit:10;stroke-opacity:1;stroke-dasharray:none" /><path
             d="m 4070.8,883.199 c 0,-5.519 -4.48,-10 -10,-10 -5.51,0 -10,4.481 -10,10 0,5.52 4.49,10 10,10 5.52,0 10,-4.48 10,-10"
             id="path43479"
             style="fill:#0000ff;fill-opacity:1;fill-rule:nonzero;stroke:none" /></g></g></g></g></svg>