<?xml version="1.0" encoding="UTF-8" standalone="no"?>
<!-- Created with Inkscape (http://www.inkscape.org/) -->

<svg
   xmlns:dc="http://purl.org/dc/elements/1.1/"
   xmlns:cc="http://creativecommons.org/ns#"
   xmlns:rdf="http://www.w3.org/1999/02/22-rdf-syntax-ns#"
   xmlns:svg="http://www.w3.org/2000/svg"
   xmlns="http://www.w3.org/2000/svg"
   version="1.1"
   width="744.09448"
   height="1052.3622"
   id="svg2">
  <defs
     id="defs4">
    <marker
       refX="0"
       refY="0"
       orient="auto"
       id="Arrow2Lend"
       style="overflow:visible">
      <path
         d="M 8.7185878,4.0337352 -2.2072895,0.01601326 8.7185884,-4.0017078 c -1.7454984,2.3720609 -1.7354408,5.6174519 -6e-7,8.035443 z"
         transform="matrix(-1.1,0,0,-1.1,-1.1,0)"
         id="path3861"
         style="fill-rule:evenodd;stroke-width:0.625;stroke-linejoin:round" />
    </marker>
  </defs>
  <metadata
     id="metadata7">
    <rdf:RDF>
      <cc:Work
         rdf:about="">
        <dc:format>image/svg+xml</dc:format>
        <dc:type
           rdf:resource="http://purl.org/dc/dcmitype/StillImage" />
        <dc:title></dc:title>
      </cc:Work>
    </rdf:RDF>
  </metadata>
  <g
     id="layer1">
    <path
       d="m 184.52786,573.15507 c -14.51539,-12.89029 -26.43478,-23.55301 -26.48753,-23.69494 -0.15991,-0.4303 7.41381,-7.71287 10.34074,-9.94322 7.5116,-5.72391 16.4184,-10.13013 24.98866,-12.36195 15.30955,-3.98684 31.15619,-2.82784 45.78016,3.34829 5.51092,2.32742 11.23786,5.76789 16.38084,9.84082 2.9881,2.36639 9.79337,9.13794 9.46815,9.42123 -3.72148,3.24178 -53.39941,46.28068 -53.67748,46.50396 -0.33611,0.26988 -4.72206,-3.51378 -26.79354,-23.11419 z"
       id="path3761"
       style="fill:#ffff00;fill-opacity:0;stroke:#000000;stroke-width:0.45549011;stroke-miterlimit:4;stroke-opacity:1;stroke-dasharray:none;stroke-dashoffset:0" />
    <path
       d="m 282.85715,595.2193 a 71.428574,71.428574 0 1 1 -142.85715,0 71.428574,71.428574 0 1 1 142.85715,0 z"
       transform="matrix(1.0579805,0,0,1.0579805,-28.094436,-103.11742)"
       id="path2985-0"
       style="fill:#000000;fill-opacity:1;stroke:#000000;stroke-width:1.70000005;stroke-miterlimit:4;stroke-opacity:1;stroke-dasharray:none;stroke-dashoffset:0" />
    <path
       d="m 261.8465,571.61288 a 53.721039,68.85939 0 0 1 -75.97303,0 l 37.98652,-48.69094 z"
       transform="matrix(1.4126578,0,0,1.1237845,-120.64474,-61.03852)"
       id="path3795"
       style="fill:#ffffff;fill-opacity:1;stroke:#000000;stroke-width:0.79367006;stroke-miterlimit:4;stroke-opacity:1;stroke-dasharray:none;stroke-dashoffset:0" />
    <path
       d="m 261.8465,571.61288 a 53.721039,68.85939 0 0 1 -75.97303,0 l 37.98652,-48.69094 z"
       transform="matrix(-1.4126427,-0.00653792,0.00520098,-1.1237725,509.10734,1115.7219)"
       id="path3795-2"
       style="fill:#ffffff;fill-opacity:1;stroke:#000000;stroke-width:0.79367006;stroke-miterlimit:4;stroke-opacity:1;stroke-dasharray:none;stroke-dashoffset:0" />
    <path
       d="m 193.36973,527.15496 288.91391,0"
       id="path3834"
       style="fill:none;stroke:#000000;stroke-width:1px;stroke-linecap:butt;stroke-linejoin:miter;stroke-opacity:1;marker-end:url(#Arrow2Lend)" />
    <rect
       width="118.9633"
       height="45.013142"
       x="74.718102"
       y="487.55588"
       transform="matrix(0.7129528,-0.70121202,0.70121202,0.7129528,0,0)"
       id="rect4646"
       style="fill:#ffffff;fill-opacity:1;stroke:#000000;stroke-width:2;stroke-miterlimit:4;stroke-opacity:1;stroke-dasharray:none;stroke-dashoffset:0" />
    <path
       d="M 196.12427,527.15496 453.34,269.54796"
       id="path4280"
       style="fill:none;stroke:#000000;stroke-width:2.39024448;stroke-linecap:butt;stroke-linejoin:miter;stroke-miterlimit:4;stroke-opacity:1;stroke-dasharray:4.78048911, 4.78048911;stroke-dashoffset:0;marker-end:url(#Arrow2Lend)" />
    <path
       d="M 458.78413,275.41417 342.43914,159.06918 562.66357,379.29361 340.77707,157.40711"
       id="path4648"
       style="fill:none;stroke:#000000;stroke-width:3.10162735;stroke-linecap:butt;stroke-linejoin:miter;stroke-miterlimit:4;stroke-opacity:1;stroke-dasharray:none;marker-end:url(#Arrow2Lend)" />
    <g
       transform="matrix(3.7733904,0,0,-3.7733904,-757.34848,3116.3818)"
       id="content"
       xml:space="preserve"
       style="font-style:normal;font-variant:normal;font-weight:normal;font-stretch:normal;letter-spacing:normal;word-spacing:normal;text-anchor:start;fill:none;stroke:#000000;stroke-linecap:butt;stroke-linejoin:miter;stroke-miterlimit:10.43299961;stroke-opacity:1;stroke-dasharray:none;stroke-dashoffset:0"><path
         d="m 223.99,660.63 0,-0.19 0.02,-0.19 0.02,-0.18 0.03,-0.18 0.04,-0.18 0.05,-0.18 0.06,-0.16 0.06,-0.17 0.07,-0.16 0.08,-0.16 0.08,-0.15 0.1,-0.15 0.1,-0.14 0.1,-0.13 0.11,-0.13 0.12,-0.13 0.12,-0.12 0.12,-0.11 0.14,-0.1 0.13,-0.1 0.14,-0.09 0.15,-0.09 0.15,-0.08 0.15,-0.07 0.16,-0.06 0.16,-0.06 0.16,-0.04 0.16,-0.04 0.17,-0.03 0.17,-0.03 0.17,-0.01 0.17,0 c 1.62,0 2.6,1.38 2.6,2.53 0,0.1 0,0.17 -0.13,0.17 -0.11,0 -0.11,-0.06 -0.12,-0.16 -0.08,-1.42 -1.15,-2.24 -2.23,-2.24 -0.61,0 -2.56,0.34 -2.56,3.3 0,2.97 1.94,3.31 2.55,3.31 1.09,0 1.97,-0.9 2.17,-2.35 0.02,-0.14 0.02,-0.17 0.16,-0.17 0.16,0 0.16,0.03 0.16,0.24 V 664 c 0,0.17 0,0.24 -0.11,0.24 -0.04,0 -0.08,0 -0.16,-0.12 l -0.5,-0.74 c -0.37,0.36 -0.87,0.86 -1.83,0.86 -1.86,0 -3.46,-1.58 -3.46,-3.61 z"
         id="path4848"
         style="fill:#000000;stroke-width:0" /><path
         d="m 231.73,659.53 0.01,0.21 c 0.06,1.48 0.9,1.73 1.24,1.73 1.02,0 1.12,-1.34 1.12,-1.73 h -2.36 l -0.01,-0.21 h 2.78 c 0.22,0 0.25,0 0.25,0.21 0,0.98 -0.54,1.94 -1.78,1.94 -1.16,0 -2.07,-1.02 -2.07,-2.26 0,-1.33 1.04,-2.29 2.18,-2.29 1.22,0 1.67,1.1 1.67,1.29 0,0.1 -0.08,0.12 -0.13,0.12 -0.09,0 -0.11,-0.06 -0.13,-0.14 -0.35,-1.03 -1.25,-1.03 -1.35,-1.03 -0.49,0 -0.89,0.3 -1.12,0.67 -0.3,0.48 -0.3,1.13 -0.3,1.49 z"
         id="path4850"
         style="fill:#000000;stroke-width:0" /><path
         d="m 236.15,660.65 v -2.66 c 0,-0.45 -0.11,-0.45 -0.78,-0.45 v -0.31 c 0.35,0.01 0.86,0.04 1.13,0.04 0.26,0 0.77,-0.03 1.11,-0.04 v 0.31 c -0.66,0 -0.77,0 -0.77,0.45 v 1.83 c 0,1.03 0.7,1.59 1.34,1.59 0.62,0 0.73,-0.54 0.73,-1.11 v -2.31 c 0,-0.45 -0.11,-0.45 -0.77,-0.45 v -0.31 c 0.35,0.01 0.85,0.04 1.12,0.04 0.26,0 0.78,-0.03 1.12,-0.04 v 0.31 c -0.52,0 -0.77,0 -0.78,0.3 v 1.9 c 0,0.85 0,1.16 -0.31,1.52 -0.14,0.17 -0.47,0.37 -1.04,0.37 -0.73,0 -1.2,-0.43 -1.47,-1.05 v 1.05 l -1.41,-0.11 v -0.31 c 0.7,0 0.78,-0.07 0.78,-0.56 z"
         id="path4852"
         style="fill:#000000;stroke-width:0" /><path
         d="m 242.03,661.21 h 1.43 v 0.31 h -1.43 v 1.82 h -0.25 c -0.01,-0.81 -0.3,-1.87 -1.28,-1.91 v -0.22 h 0.85 v -2.74 c 0,-1.23 0.92,-1.34 1.28,-1.34 0.71,0 0.98,0.7 0.98,1.34 v 0.56 h -0.24 v -0.54 c 0,-0.74 -0.3,-1.12 -0.67,-1.12 -0.67,0 -0.67,0.91 -0.67,1.08 z"
         id="path4854"
         style="fill:#000000;stroke-width:0" /><path
         d="m 245.29,659.53 0.01,0.21 c 0.06,1.48 0.9,1.73 1.23,1.73 1.03,0 1.13,-1.34 1.13,-1.73 h -2.36 l -0.01,-0.21 h 2.78 c 0.21,0 0.24,0 0.24,0.21 0,0.98 -0.53,1.94 -1.78,1.94 -1.15,0 -2.07,-1.02 -2.07,-2.26 0,-1.33 1.05,-2.29 2.19,-2.29 1.22,0 1.66,1.1 1.66,1.29 0,0.1 -0.08,0.12 -0.13,0.12 -0.08,0 -0.11,-0.06 -0.13,-0.14 -0.34,-1.03 -1.24,-1.03 -1.34,-1.03 -0.5,0 -0.89,0.3 -1.12,0.67 -0.3,0.48 -0.3,1.13 -0.3,1.49 z"
         id="path4856"
         style="fill:#000000;stroke-width:0" /><path
         d="m 250.27,660.53 v 1.1 l -1.38,-0.11 v -0.31 c 0.7,0 0.78,-0.07 0.78,-0.56 v -2.66 c 0,-0.45 -0.11,-0.45 -0.78,-0.45 v -0.31 c 0.39,0.01 0.86,0.04 1.13,0.04 0.4,0 0.87,0 1.27,-0.04 v 0.31 h -0.21 c -0.74,0 -0.76,0.11 -0.76,0.47 v 1.53 c 0,0.98 0.42,1.87 1.18,1.87 0.07,0 0.09,0 0.11,-0.01 -0.03,-0.01 -0.23,-0.13 -0.23,-0.39 0,-0.28 0.21,-0.43 0.43,-0.43 0.18,0 0.42,0.12 0.42,0.44 0,0.32 -0.3,0.61 -0.73,0.61 -0.73,0 -1.09,-0.67 -1.23,-1.1 z"
         id="path4858"
         style="fill:#000000;stroke-width:0" /><path
         d="m 260.53,659.36 0,0.12 -0.01,0.12 -0.02,0.11 -0.02,0.12 -0.02,0.11 -0.03,0.11 -0.04,0.11 -0.04,0.1 -0.04,0.1 -0.05,0.1 -0.05,0.1 -0.06,0.09 -0.06,0.1 -0.07,0.08 -0.07,0.09 -0.07,0.08 -0.08,0.08 -0.08,0.07 -0.08,0.07 -0.09,0.06 -0.09,0.07 -0.09,0.05 -0.09,0.05 -0.1,0.05 -0.1,0.04 -0.1,0.04 -0.1,0.03 -0.11,0.03 -0.11,0.02 -0.11,0.01 -0.11,0.01 -0.11,0 -0.01,-0.21 c 0.44,0 0.86,-0.22 1.12,-0.65 0.26,-0.43 0.26,-1 0.26,-1.38 0,-0.36 0,-0.89 -0.22,-1.33 -0.21,-0.45 -0.65,-0.74 -1.15,-0.74 h 0 c -0.43,0 -0.87,0.21 -1.13,0.67 -0.25,0.44 -0.25,1.04 -0.25,1.4 0,0.39 0,0.92 0.23,1.36 0.27,0.46 0.74,0.67 1.14,0.67 l 0.01,0.21 c -1.24,0 -2.21,-1.08 -2.21,-2.32 0,-1.28 1.04,-2.23 2.2,-2.23 1.2,0 2.21,0.97 2.21,2.23 z"
         id="path4860"
         style="fill:#000000;stroke-width:0" /><path
         d="m 262.57,661.52 v 1.15 c 0,0.87 0.47,1.35 0.91,1.35 0.03,0 0.18,0 0.33,-0.07 -0.12,-0.04 -0.3,-0.17 -0.3,-0.42 0,-0.23 0.16,-0.42 0.43,-0.42 0.29,0 0.44,0.19 0.44,0.43 0,0.37 -0.37,0.7 -0.9,0.7 -0.7,0 -1.54,-0.53 -1.54,-1.58 v -1.14 h -0.79 v -0.31 h 0.79 v -3.22 c 0,-0.45 -0.11,-0.45 -0.78,-0.45 v -0.31 c 0.39,0.01 0.86,0.04 1.14,0.04 0.39,0 0.86,0 1.26,-0.04 v 0.31 h -0.21 c -0.74,0 -0.76,0.11 -0.76,0.47 v 3.2 h 1.14 v 0.31 z"
         id="path4862"
         style="fill:#000000;stroke-width:0" /><path
         d="m 269.58,663.8 0,0.01 -0.01,0.01 0,0.01 0,0.01 -0.01,0.02 -0.01,0.01 -0.01,0.02 0,0.01 -0.01,0.02 -0.01,0.01 0,0.01 -0.01,0.01 -0.01,0.01 -0.01,0.01 0,0 -0.01,0.01 -0.01,0.01 -0.01,0 -0.01,0.01 -0.01,0 -0.01,0.01 -0.01,0 -0.01,0 -0.01,0 -0.01,0.01 -0.02,0 -0.01,0 -0.02,0 -0.01,0 -0.02,0 -0.02,0 -0.01,0 -0.02,0 -0.03,0 h -1.68 v -0.31 h 0.24 c 0.77,0 0.79,-0.11 0.79,-0.47 v -4.96 c 0,-0.27 0,-0.74 -1.03,-0.74 v -0.31 c 0.35,0.01 0.84,0.04 1.17,0.04 0.33,0 0.81,-0.03 1.16,-0.04 v 0.31 c -1.02,0 -1.02,0.47 -1.02,0.74 v 5.35 h 0.01 l 2.4,-6.18 c 0.05,-0.13 0.09,-0.22 0.19,-0.22 0.11,0 0.14,0.08 0.18,0.19 l 2.45,6.29 h 0.01 v -5.7 c 0,-0.36 -0.02,-0.47 -0.79,-0.47 h -0.23 v -0.31 c 0.36,0.04 1.04,0.04 1.43,0.04 0.39,0 1.05,0 1.42,-0.04 v 0.31 h -0.24 c -0.76,0 -0.78,0.11 -0.78,0.47 v 5.23 c 0,0.36 0.02,0.47 0.78,0.47 h 0.24 v 0.31 h -1.68 c -0.26,0 -0.26,-0.01 -0.33,-0.19 l -2.18,-5.59 z"
         id="path4864"
         style="fill:#000000;stroke-width:0" /><path
         d="m 279.63,657.99 0.01,-0.04 0,-0.03 0.01,-0.04 0.01,-0.04 0.01,-0.04 0.01,-0.03 0.01,-0.04 0.01,-0.03 0.02,-0.04 0.01,-0.03 0.02,-0.04 0.02,-0.03 0.02,-0.03 0.02,-0.04 0.03,-0.03 0.02,-0.03 0.02,-0.02 0.03,-0.03 0.03,-0.03 0.03,-0.02 0.03,-0.02 0.03,-0.03 0.03,-0.02 0.03,-0.01 0.04,-0.02 0.04,-0.01 0.03,-0.02 0.04,-0.01 0.04,0 0.04,-0.01 0.04,0 0.05,-0.01 c 0.21,0 0.81,0.14 0.81,0.95 v 0.55 h -0.24 v -0.55 c 0,-0.58 -0.25,-0.64 -0.36,-0.64 -0.33,0 -0.37,0.45 -0.37,0.5 v 1.99 c 0,0.41 0,0.8 -0.36,1.17 -0.39,0.39 -0.88,0.54 -1.36,0.54 -0.82,0 -1.51,-0.46 -1.51,-1.12 0,-0.29 0.2,-0.46 0.46,-0.46 0.28,0 0.46,0.19 0.46,0.45 0,0.12 -0.05,0.45 -0.51,0.46 0.27,0.35 0.76,0.46 1.08,0.46 0.48,0 1.05,-0.39 1.05,-1.27 v -0.37 -0.21 -0.99 c 0,-0.95 -0.71,-1.29 -1.16,-1.29 -0.49,0 -0.9,0.35 -0.9,0.85 0,0.54 0.42,1.37 2.06,1.43 h 0 v 0.21 c -0.51,-0.03 -1.2,-0.06 -1.83,-0.36 -0.75,-0.34 -0.99,-0.85 -0.99,-1.29 0,-0.81 0.96,-1.05 1.59,-1.05 0.65,0 1.11,0.39 1.3,0.86 z"
         id="path4866"
         style="fill:#000000;stroke-width:0" /><path
         d="m 283.37,659.16 0.02,0 0.03,-0.01 0.03,0 0.03,-0.01 0.03,-0.01 0.04,-0.01 0.03,-0.01 0.04,-0.01 0.04,-0.01 0.05,-0.01 0.04,-0.02 0.04,-0.02 0.05,-0.01 0.04,-0.03 0.04,-0.02 0.05,-0.02 0.04,-0.03 0.04,-0.03 0.04,-0.03 0.04,-0.03 0.04,-0.03 0.04,-0.04 0.03,-0.04 0.03,-0.04 0.03,-0.05 0.01,-0.02 0.02,-0.03 0.01,-0.02 0.01,-0.03 0.01,-0.02 0.01,-0.03 0.01,-0.03 0,-0.02 0.01,-0.03 0,-0.03 0.01,-0.03 0,-0.04 0,-0.03 0,-0.03 c 0,-0.51 -0.34,-0.91 -1.12,-0.91 -0.84,0 -1.19,0.57 -1.38,1.42 -0.03,0.12 -0.04,0.16 -0.14,0.16 -0.13,0 -0.13,-0.07 -0.13,-0.25 v -1.31 c 0,-0.16 0,-0.23 0.11,-0.23 0.05,0 0.06,0.01 0.25,0.19 0.02,0.02 0.02,0.04 0.19,0.23 0.44,-0.41 0.89,-0.42 1.1,-0.42 1.14,0 1.6,0.66 1.6,1.38 0,0.52 -0.3,0.82 -0.42,0.94 -0.32,0.32 -0.71,0.4 -1.13,0.48 -0.56,0.11 -1.22,0.23 -1.22,0.81 0,0.35 0.25,0.76 1.11,0.76 1.09,0 1.14,-0.9 1.16,-1.21 0.01,-0.08 0.1,-0.08 0.12,-0.08 0.13,0 0.13,0.05 0.13,0.23 v 1.01 c 0,0.17 0,0.23 -0.11,0.23 -0.05,0 -0.07,0 -0.2,-0.11 -0.03,-0.04 -0.12,-0.13 -0.17,-0.16 -0.37,0.27 -0.78,0.27 -0.93,0.27 -1.21,0 -1.59,-0.66 -1.59,-1.22 0,-0.34 0.16,-0.62 0.43,-0.84 0.31,-0.26 0.59,-0.32 1.31,-0.46 z"
         id="path4868"
         style="fill:#000000;stroke-width:0" /><path
         d="m 287.3,659.16 0.02,0 0.03,-0.01 0.02,0 0.04,-0.01 0.03,-0.01 0.03,-0.01 0.04,-0.01 0.04,-0.01 0.04,-0.01 0.05,-0.01 0.04,-0.02 0.04,-0.02 0.05,-0.01 0.04,-0.03 0.04,-0.02 0.05,-0.02 0.04,-0.03 0.04,-0.03 0.04,-0.03 0.04,-0.03 0.04,-0.03 0.04,-0.04 0.03,-0.04 0.03,-0.04 0.03,-0.05 0.01,-0.02 0.02,-0.03 0.01,-0.02 0.01,-0.03 0.01,-0.02 0.01,-0.03 0.01,-0.03 0,-0.02 0.01,-0.03 0,-0.03 0.01,-0.03 0,-0.04 0,-0.03 0,-0.03 c 0,-0.51 -0.35,-0.91 -1.12,-0.91 -0.84,0 -1.19,0.57 -1.38,1.42 -0.03,0.12 -0.04,0.16 -0.14,0.16 -0.13,0 -0.13,-0.07 -0.13,-0.25 v -1.31 c 0,-0.16 0,-0.23 0.11,-0.23 0.05,0 0.06,0.01 0.25,0.19 0.01,0.02 0.01,0.04 0.19,0.23 0.44,-0.41 0.89,-0.42 1.1,-0.42 1.14,0 1.6,0.66 1.6,1.38 0,0.52 -0.3,0.82 -0.42,0.94 -0.33,0.32 -0.71,0.4 -1.13,0.48 -0.56,0.11 -1.22,0.23 -1.22,0.81 0,0.35 0.25,0.76 1.11,0.76 1.09,0 1.14,-0.9 1.16,-1.21 0.01,-0.08 0.1,-0.08 0.12,-0.08 0.13,0 0.13,0.05 0.13,0.23 v 1.01 c 0,0.17 0,0.23 -0.11,0.23 -0.05,0 -0.07,0 -0.2,-0.11 -0.03,-0.04 -0.13,-0.13 -0.17,-0.16 -0.37,0.27 -0.78,0.27 -0.93,0.27 -1.22,0 -1.59,-0.66 -1.59,-1.22 0,-0.34 0.16,-0.62 0.42,-0.84 0.32,-0.26 0.6,-0.32 1.32,-0.46 z"
         id="path4870"
         style="fill:#000000;stroke-width:0" /></g>    <g
       transform="matrix(6,0,0,-6,-1079.965,4357.4584)"
       id="g5054"
       xml:space="preserve"
       style="font-style:normal;font-variant:normal;font-weight:normal;font-stretch:normal;letter-spacing:normal;word-spacing:normal;text-anchor:start;fill:none;stroke:#000000;stroke-linecap:butt;stroke-linejoin:miter;stroke-miterlimit:10.43299961;stroke-opacity:1;stroke-dasharray:none;stroke-dashoffset:0"><path
         d="m 227.59,657.66 v -0.49 l 1.82,0.06 v 0.47 c -0.62,0 -0.68,0 -0.68,0.39 v 6.04 l -1.77,-0.08 v -0.47 c 0.62,0 0.69,0 0.69,-0.38 v -1.94 c -0.5,0.39 -1.01,0.45 -1.34,0.45 l 0.1,-0.36 c 0.56,0 0.96,-0.32 1.18,-0.61 h 0 v -2.48 c -0.13,-0.18 -0.54,-0.73 -1.29,-0.73 -1.22,0 -1.22,1.2 -1.22,1.9 0,0.48 0,1.01 0.26,1.4 0.29,0.42 0.76,0.52 1.07,0.52 l -0.1,0.36 c -1.46,0 -2.5,-0.88 -2.5,-2.28 0,-1.31 0.92,-2.26 2.39,-2.26 0.6,0 1.08,0.24 1.39,0.49 z"
         id="path5056"
         style="fill:#000000;stroke-width:0" /></g>    <g
       transform="matrix(4.1272782,0,0,-4.0308366,-818.06713,2864.2821)"
       id="g5124"
       xml:space="preserve"
       style="font-style:normal;font-variant:normal;font-weight:normal;font-stretch:normal;letter-spacing:normal;word-spacing:normal;text-anchor:start;fill:none;stroke:#000000;stroke-linecap:butt;stroke-linejoin:miter;stroke-miterlimit:10.43299961;stroke-opacity:1;stroke-dasharray:none;stroke-dashoffset:0"><path
         d="m 226.9,661.09 -1.27,0.31 c -0.62,0.15 -1,0.68 -1,1.26 0,0.69 0.53,1.3 1.31,1.3 1.66,0 1.88,-1.63 1.94,-2.08 0.01,-0.06 0.01,-0.11 0.12,-0.11 0.13,0 0.13,0.05 0.13,0.23 v 2 c 0,0.17 0,0.24 -0.11,0.24 -0.07,0 -0.08,-0.01 -0.15,-0.13 l -0.35,-0.57 c -0.3,0.29 -0.7,0.7 -1.59,0.7 -1.11,0 -1.94,-0.88 -1.94,-1.93 0,-0.82 0.53,-1.55 1.3,-1.82 0.11,-0.04 0.62,-0.16 1.32,-0.33 0.26,-0.06 0.56,-0.13 0.84,-0.5 0.21,-0.26 0.31,-0.59 0.31,-0.92 0,-0.7 -0.5,-1.42 -1.33,-1.42 -0.29,0 -1.05,0.05 -1.58,0.54 -0.57,0.54 -0.6,1.17 -0.61,1.53 -0.01,0.1 -0.09,0.1 -0.12,0.1 -0.13,0 -0.13,-0.07 -0.13,-0.25 v -1.98 c 0,-0.17 0,-0.24 0.11,-0.24 0.07,0 0.08,0.02 0.15,0.13 0,0.01 0.03,0.03 0.36,0.56 0.3,-0.34 0.94,-0.69 1.83,-0.69 1.16,0 1.96,0.97 1.96,2.06 0,1 -0.66,1.81 -1.5,2.01 z"
         id="path5126"
         style="fill:#000000;stroke-width:0" /><path
         d="m 230.68,660.97 v 0.66 l -1.43,-0.11 v -0.31 c 0.7,0 0.77,-0.06 0.77,-0.5 v -4.65 c 0,-0.44 -0.11,-0.44 -0.77,-0.44 v -0.31 c 0.33,0.01 0.85,0.03 1.11,0.03 0.27,0 0.78,-0.02 1.12,-0.03 v 0.31 c -0.66,0 -0.77,0 -0.77,0.44 v 1.67 0.09 l 0.14,0.13 c -0.14,0.21 -0.14,0.22 -0.14,0.42 h 0 v 2.21 c 0.29,0.51 0.77,0.8 1.28,0.8 0.73,0 1.33,-0.88 1.33,-2 0,-1.2 -0.69,-2.04 -1.43,-2.04 -0.4,0 -0.77,0.2 -1.04,0.61 l -0.14,-0.13 c 0.05,-0.16 0.47,-0.69 1.22,-0.69 1.19,0 2.22,0.97 2.22,2.25 0,1.26 -0.96,2.25 -2.08,2.25 -0.78,0 -1.19,-0.44 -1.39,-0.66 z"
         id="path5128"
         style="fill:#000000;stroke-width:0" /><path
         d="m 236.26,661.63 -1.39,-0.11 v -0.31 c 0.65,0 0.74,-0.06 0.74,-0.55 v -2.67 c 0,-0.45 -0.11,-0.45 -0.78,-0.45 v -0.31 c 0.32,0.01 0.86,0.04 1.1,0.04 0.34,0 0.69,-0.03 1.03,-0.04 v 0.31 c -0.66,0 -0.7,0.05 -0.7,0.44 z"
         id="path5130"
         style="fill:#000000;stroke-width:0" /><path
         d="m 236.3,663.35 0,0.03 0,0.03 0,0.03 -0.01,0.03 0,0.02 -0.01,0.03 -0.01,0.03 -0.01,0.02 -0.01,0.02 -0.01,0.03 -0.02,0.02 -0.01,0.02 -0.02,0.02 -0.01,0.02 -0.02,0.02 -0.02,0.02 -0.01,0.01 -0.02,0.02 -0.02,0.01 -0.03,0.02 -0.02,0.01 -0.02,0.01 -0.02,0.01 -0.02,0.01 -0.03,0.01 -0.02,0.01 -0.03,0.01 -0.02,0 -0.03,0.01 -0.02,0 -0.03,0 -0.02,0 c -0.31,0 -0.53,-0.27 -0.53,-0.53 0,-0.26 0.22,-0.52 0.53,-0.52 0.27,0 0.52,0.21 0.52,0.52 z"
         id="path5132"
         style="fill:#000000;stroke-width:0" /><path
         d="m 238.36,660.65 v -2.66 c 0,-0.45 -0.1,-0.45 -0.77,-0.45 v -0.31 c 0.35,0.01 0.85,0.04 1.12,0.04 0.26,0 0.78,-0.03 1.12,-0.04 v 0.31 c -0.67,0 -0.78,0 -0.78,0.45 v 1.83 c 0,1.03 0.71,1.59 1.34,1.59 0.63,0 0.74,-0.54 0.74,-1.11 v -2.31 c 0,-0.45 -0.11,-0.45 -0.78,-0.45 v -0.31 c 0.35,0.01 0.86,0.04 1.13,0.04 0.26,0 0.78,-0.03 1.11,-0.04 v 0.31 c -0.51,0 -0.76,0 -0.77,0.3 v 1.9 c 0,0.85 0,1.16 -0.31,1.52 -0.14,0.17 -0.47,0.37 -1.05,0.37 -0.72,0 -1.19,-0.43 -1.47,-1.05 v 1.05 l -1.4,-0.11 v -0.31 c 0.7,0 0.77,-0.07 0.77,-0.56 z"
         id="path5134"
         style="fill:#000000;stroke-width:0" /><path
         d="m 250.08,664.15 0,0.01 -0.01,0.01 0,0.01 0,0.01 -0.01,0.02 0,0.01 -0.01,0.01 0,0 -0.01,0.01 0,0.01 0,0.01 -0.01,0.01 0,0.01 -0.01,0 0,0.01 -0.01,0.01 -0.01,0 0,0.01 -0.01,0 -0.01,0.01 0,0 -0.01,0.01 -0.01,0 -0.01,0.01 -0.01,0 -0.01,0 -0.01,0 -0.01,0 -0.01,0.01 -0.02,0 -0.01,0 -0.01,0 -0.01,0 c -0.15,0 -0.19,-0.06 -0.23,-0.2 l -2.07,-5.94 c -0.17,-0.51 -0.57,-0.66 -1.11,-0.67 v -0.31 c 0.23,0.01 0.66,0.04 1.02,0.04 0.3,0 0.82,-0.03 1.14,-0.04 v 0.31 c -0.5,0 -0.75,0.25 -0.75,0.51 0,0.03 0.01,0.13 0.02,0.15 l 0.46,1.3 0.11,0.31 1.11,3.23 1.13,-3.23 h -2.24 l -0.11,-0.31 h 2.46 l 0.53,-1.52 c 0.01,-0.04 0.03,-0.1 0.03,-0.14 0,-0.3 -0.56,-0.3 -0.83,-0.3 v -0.31 c 0.36,0.04 1.05,0.04 1.43,0.04 0.43,0 0.89,-0.01 1.31,-0.04 v 0.31 h -0.18 c -0.6,0 -0.74,0.07 -0.85,0.4 z"
         id="path5136"
         style="fill:#000000;stroke-width:0" /><path
         d="m 256.45,659.57 0.06,0.07 0.06,0.08 0.06,0.07 0.06,0.08 0.12,0.15 0.06,0.08 0.06,0.08 0.06,0.07 0.06,0.07 0.06,0.07 0.05,0.07 0.03,0.03 0.03,0.03 0.02,0.04 0.03,0.03 0.02,0.02 0.03,0.03 0.02,0.03 0.02,0.02 c 0.31,0.36 0.72,0.51 1.19,0.52 v 0.31 c -0.26,-0.02 -0.56,-0.03 -0.82,-0.03 -0.3,0 -0.82,0.02 -0.95,0.03 v -0.31 c 0.21,-0.02 0.29,-0.15 0.29,-0.31 0,-0.16 -0.1,-0.29 -0.15,-0.35 l -0.62,-0.77 -0.78,1 c -0.09,0.1 -0.09,0.12 -0.09,0.18 0,0.15 0.16,0.24 0.35,0.25 v 0.31 c -0.26,-0.01 -0.91,-0.03 -1.07,-0.03 -0.21,0 -0.68,0.01 -0.95,0.03 v -0.31 c 0.7,0 0.71,-0.01 1.18,-0.61 l 0.98,-1.28 -0.93,-1.18 c -0.48,-0.58 -1.07,-0.6 -1.28,-0.6 v -0.31 c 0.26,0.03 0.57,0.04 0.83,0.04 0.29,0 0.71,-0.03 0.95,-0.04 v 0.31 c -0.22,0.03 -0.29,0.16 -0.29,0.31 0,0.22 0.29,0.55 0.89,1.26 l 0.76,-0.99 c 0.08,-0.11 0.21,-0.27 0.21,-0.33 0,-0.09 -0.09,-0.24 -0.36,-0.25 v -0.31 c 0.3,0.01 0.85,0.04 1.07,0.04 0.27,0 0.66,-0.01 0.96,-0.04 v 0.31 c -0.54,0 -0.72,0.02 -0.95,0.31 z"
         id="path5138"
         style="fill:#000000;stroke-width:0" /><path
         d="m 260.61,661.63 -1.39,-0.11 v -0.31 c 0.65,0 0.74,-0.06 0.74,-0.55 v -2.67 c 0,-0.45 -0.11,-0.45 -0.78,-0.45 v -0.31 c 0.32,0.01 0.86,0.04 1.1,0.04 0.34,0 0.69,-0.03 1.03,-0.04 v 0.31 c -0.66,0 -0.7,0.05 -0.7,0.44 z"
         id="path5140"
         style="fill:#000000;stroke-width:0" /><path
         d="m 260.65,663.35 0,0.03 0,0.03 0,0.03 -0.01,0.03 0,0.02 -0.01,0.03 -0.01,0.03 -0.01,0.02 -0.01,0.02 -0.01,0.03 -0.02,0.02 -0.01,0.02 -0.01,0.02 -0.02,0.02 -0.02,0.02 -0.02,0.02 -0.01,0.01 -0.02,0.02 -0.02,0.01 -0.02,0.02 -0.03,0.01 -0.02,0.01 -0.02,0.01 -0.02,0.01 -0.03,0.01 -0.02,0.01 -0.03,0.01 -0.02,0 -0.03,0.01 -0.02,0 -0.03,0 -0.02,0 c -0.31,0 -0.53,-0.27 -0.53,-0.53 0,-0.26 0.22,-0.52 0.53,-0.52 0.27,0 0.52,0.21 0.52,0.52 z"
         id="path5142"
         style="fill:#000000;stroke-width:0" /><path
         d="m 263.69,659.16 0.02,0 0.03,-0.01 0.03,0 0.03,-0.01 0.03,-0.01 0.04,-0.01 0.03,-0.01 0.04,-0.01 0.05,-0.01 0.04,-0.01 0.04,-0.02 0.04,-0.02 0.05,-0.01 0.04,-0.03 0.05,-0.02 0.04,-0.02 0.04,-0.03 0.04,-0.03 0.05,-0.03 0.04,-0.03 0.03,-0.03 0.04,-0.04 0.03,-0.04 0.03,-0.04 0.03,-0.05 0.02,-0.02 0.01,-0.03 0.01,-0.02 0.01,-0.03 0.01,-0.02 0.01,-0.03 0.01,-0.03 0,-0.02 0.01,-0.03 0.01,-0.03 0,-0.03 0,-0.04 0,-0.03 0.01,-0.03 c 0,-0.51 -0.35,-0.91 -1.13,-0.91 -0.83,0 -1.19,0.57 -1.38,1.42 -0.03,0.12 -0.04,0.16 -0.14,0.16 -0.13,0 -0.13,-0.07 -0.13,-0.25 v -1.31 c 0,-0.16 0,-0.23 0.11,-0.23 0.05,0 0.06,0.01 0.25,0.19 0.02,0.02 0.02,0.04 0.2,0.23 0.43,-0.41 0.88,-0.42 1.09,-0.42 1.14,0 1.6,0.66 1.6,1.38 0,0.52 -0.3,0.82 -0.42,0.94 -0.32,0.32 -0.71,0.4 -1.13,0.48 -0.56,0.11 -1.22,0.23 -1.22,0.81 0,0.35 0.25,0.76 1.11,0.76 1.1,0 1.14,-0.9 1.16,-1.21 0.01,-0.08 0.1,-0.08 0.12,-0.08 0.13,0 0.13,0.05 0.13,0.23 v 1.01 c 0,0.17 0,0.23 -0.11,0.23 -0.05,0 -0.07,0 -0.2,-0.11 -0.03,-0.04 -0.12,-0.13 -0.16,-0.16 -0.38,0.27 -0.79,0.27 -0.94,0.27 -1.21,0 -1.59,-0.66 -1.59,-1.22 0,-0.34 0.16,-0.62 0.43,-0.84 0.32,-0.26 0.59,-0.32 1.31,-0.46 z"
         id="path5144"
         style="fill:#000000;stroke-width:0" /><path
         d="m 272.17,654.85 0,0.01 0,0 0,0 0,0.01 0,0 0,0 0,0.01 -0.01,0 0,0 0,0.01 0,0 0,0.01 -0.01,0 0,0.01 -0.01,0 0,0.01 -0.01,0.01 0,0 0,0.01 -0.01,0 0,0.01 0,0 -0.01,0 0,0.01 -0.01,0 0,0.01 -0.01,0 0,0.01 -0.01,0 0,0.01 -0.01,0 0,0.01 -0.01,0.01 0,0 -0.01,0.01 -0.01,0.01 0,0 -0.01,0.01 -0.01,0.01 0,0 -0.01,0.01 -0.01,0.01 c -1.24,1.25 -1.56,3.13 -1.56,4.65 0,1.73 0.38,3.45 1.6,4.7 0.13,0.12 0.13,0.14 0.13,0.17 0,0.07 -0.04,0.09 -0.1,0.09 -0.1,0 -0.99,-0.67 -1.58,-1.93 -0.51,-1.09 -0.63,-2.2 -0.63,-3.03 0,-0.78 0.11,-1.98 0.66,-3.1 0.6,-1.22 1.45,-1.87 1.55,-1.87 0.06,0 0.1,0.03 0.1,0.1 z"
         id="path5146"
         style="fill:#000000;stroke-width:0" /><polygon
         points="274.37,662.74 275.53,663.75 276.67,662.74 276.85,662.92 275.53,664.27 274.2,662.92 "
         id="polygon5148"
         style="fill:#000000;stroke-width:0" /><path
         d="m 276.47,658 0,-0.06 0,-0.06 0,-0.03 0,-0.03 0.01,-0.04 0,-0.03 0.01,-0.03 0.01,-0.03 0.01,-0.04 0.01,-0.03 0.02,-0.03 0.01,-0.03 0.02,-0.03 0.03,-0.03 0.02,-0.03 0.03,-0.02 0.03,-0.03 0.02,-0.01 0.02,-0.01 0.02,-0.02 0.02,-0.01 0.02,-0.01 0.02,-0.01 0.03,-0.01 0.02,-0.01 0.03,-0.01 0.02,-0.01 0.03,-0.01 0.03,-0.01 0.03,0 0.03,-0.01 0.04,-0.01 0.03,0 0.03,-0.01 0.04,0 0.04,-0.01 0.04,0 0.04,-0.01 0.04,0 0.04,0 0.05,0 0.05,0 0.04,-0.01 h 0.48 c 0.2,0 0.32,0 0.32,0.24 0,0.23 -0.13,0.23 -0.26,0.23 -0.61,0.01 -0.61,0.14 -0.61,0.37 v 2.14 c 0,0.88 -0.7,1.52 -2.19,1.52 -0.56,0 -1.78,-0.03 -1.78,-0.91 0,-0.44 0.35,-0.62 0.62,-0.62 0.31,0 0.63,0.2 0.63,0.62 0,0.3 -0.19,0.47 -0.22,0.49 0.28,0.06 0.59,0.07 0.71,0.07 0.75,0 1.1,-0.42 1.1,-1.17 v -0.34 -0.31 -0.94 c 0,-0.96 -0.92,-1.09 -1.16,-1.09 -0.51,0 -0.91,0.35 -0.91,0.79 0,1.07 1.57,1.21 2.07,1.24 h 0 v 0.31 c -0.71,-0.03 -3.23,-0.12 -3.23,-1.56 0,-0.96 1.23,-1.14 1.92,-1.14 0.79,0 1.26,0.41 1.48,0.83 z"
         id="path5150"
         style="fill:#000000;stroke-width:0" /><path
         d="m 281.19,659.72 0,0.07 0,0.08 0,0.08 0,0.08 -0.01,0.17 -0.01,0.17 -0.02,0.18 -0.02,0.19 -0.03,0.2 -0.03,0.2 -0.04,0.2 -0.05,0.21 -0.05,0.21 -0.06,0.21 -0.07,0.21 -0.08,0.21 -0.04,0.11 -0.05,0.11 -0.04,0.1 -0.05,0.11 c -0.6,1.22 -1.46,1.86 -1.56,1.86 -0.06,0 -0.1,-0.03 -0.1,-0.09 0,-0.03 0,-0.05 0.19,-0.23 0.98,-0.99 1.54,-2.57 1.54,-4.64 0,-1.7 -0.36,-3.45 -1.6,-4.7 -0.13,-0.12 -0.13,-0.14 -0.13,-0.17 0,-0.06 0.04,-0.1 0.1,-0.1 0.1,0 1,0.68 1.59,1.94 0.5,1.09 0.62,2.19 0.62,3.03 z"
         id="path5152"
         style="fill:#000000;stroke-width:0" /></g>    <g
       transform="matrix(6,0,0,-6,-890.26673,4512.8609)"
       id="g3367"
       xml:space="preserve"
       style="font-style:normal;font-variant:normal;font-weight:normal;font-stretch:normal;letter-spacing:normal;word-spacing:normal;text-anchor:start;fill:none;stroke:#000000;stroke-linecap:butt;stroke-linejoin:miter;stroke-miterlimit:10.43299961;stroke-opacity:1;stroke-dasharray:none;stroke-dashoffset:0"><path
         d="m 226.76,660.23 0,0.03 0.01,0.03 0.01,0.03 0.01,0.04 0.01,0.04 0.01,0.04 0.01,0.04 0.02,0.05 0.01,0.04 0.02,0.05 0.02,0.05 0.02,0.05 0.02,0.05 0.03,0.05 0.02,0.05 0.03,0.05 0.03,0.05 0.03,0.04 0.03,0.05 0.04,0.04 0.04,0.05 0.04,0.04 0.04,0.04 0.04,0.03 0.05,0.03 0.05,0.03 0.02,0.01 0.03,0.02 0.02,0.01 0.03,0.01 0.03,0.01 0.03,0 0.03,0.01 0.02,0.01 0.04,0 0.03,0 0.03,0.01 0.03,0 c 0.05,0 0.29,0 0.5,-0.13 -0.28,-0.05 -0.48,-0.3 -0.48,-0.54 0,-0.16 0.11,-0.35 0.38,-0.35 0.22,0 0.54,0.18 0.54,0.58 0,0.52 -0.59,0.66 -0.93,0.66 -0.58,0 -0.93,-0.53 -1.04,-0.76 -0.25,0.66 -0.79,0.76 -1.08,0.76 -1.03,0 -1.6,-1.29 -1.6,-1.53 0,-0.1 0.1,-0.1 0.12,-0.1 0.08,0 0.11,0.02 0.13,0.11 0.34,1.05 0.99,1.3 1.33,1.3 0.19,0 0.54,-0.09 0.54,-0.67 0,-0.31 -0.17,-0.97 -0.54,-2.36 -0.16,-0.62 -0.51,-1.04 -0.94,-1.04 -0.06,0 -0.29,0 -0.5,0.13 0.25,0.05 0.47,0.26 0.47,0.54 0,0.27 -0.22,0.35 -0.37,0.35 -0.3,0 -0.55,-0.26 -0.55,-0.58 0,-0.46 0.5,-0.65 0.94,-0.65 0.65,0 1.01,0.69 1.04,0.75 0.12,-0.37 0.48,-0.75 1.07,-0.75 1.03,0 1.6,1.28 1.6,1.53 0,0.1 -0.09,0.1 -0.12,0.1 -0.09,0 -0.11,-0.04 -0.13,-0.11 -0.33,-1.07 -1.01,-1.31 -1.33,-1.31 -0.38,0 -0.54,0.32 -0.54,0.66 0,0.22 0.06,0.44 0.17,0.87 z"
         id="path3369"
         style="fill:#000000;stroke-width:0" /></g>  </g>
</svg>
