<?xml version="1.0" encoding="UTF-8" standalone="no"?>
<!-- Created with Inkscape (http://www.inkscape.org/) -->

<svg
   xmlns:dc="http://purl.org/dc/elements/1.1/"
   xmlns:cc="http://creativecommons.org/ns#"
   xmlns:rdf="http://www.w3.org/1999/02/22-rdf-syntax-ns#"
   xmlns:svg="http://www.w3.org/2000/svg"
   xmlns="http://www.w3.org/2000/svg"
   xmlns:sodipodi="http://sodipodi.sourceforge.net/DTD/sodipodi-0.dtd"
   xmlns:inkscape="http://www.inkscape.org/namespaces/inkscape"
   width="592.72699"
   height="867.78381"
   id="svg16920"
   version="1.1"
   inkscape:version="0.48.4 r9939"
   sodipodi:docname="New document 6">
  <defs
     id="defs16922" />
  <sodipodi:namedview
     id="base"
     pagecolor="#ffffff"
     bordercolor="#666666"
     borderopacity="1.0"
     inkscape:pageopacity="0.0"
     inkscape:pageshadow="2"
     inkscape:zoom="0.35"
     inkscape:cx="324.35431"
     inkscape:cy="413.60202"
     inkscape:document-units="px"
     inkscape:current-layer="layer1"
     showgrid="false"
     fit-margin-top="0"
     fit-margin-left="0"
     fit-margin-right="0"
     fit-margin-bottom="0"
     inkscape:window-width="1075"
     inkscape:window-height="732"
     inkscape:window-x="720"
     inkscape:window-y="197"
     inkscape:window-maximized="0" />
  <metadata
     id="metadata16925">
    <rdf:RDF>
      <cc:Work
         rdf:about="">
        <dc:format>image/svg+xml</dc:format>
        <dc:type
           rdf:resource="http://purl.org/dc/dcmitype/StillImage" />
        <dc:title></dc:title>
      </cc:Work>
    </rdf:RDF>
  </metadata>
  <g
     inkscape:label="Layer 1"
     inkscape:groupmode="layer"
     id="layer1"
     transform="translate(-50.645691,-78.180398)">
    <path
       style="fill:#cccccc;stroke:#000000;stroke-width:1px;stroke-linecap:butt;stroke-linejoin:miter;stroke-opacity:1"
       d="m 180,135.21933 c 117.63318,-110.13368 146.18626,-37.780595 254.28571,34.28571 54.0896,36.05973 130.55837,19.37633 151.42858,102.85714 15.96722,63.86892 -52.61166,98.12479 -37.14286,160 30.1268,120.50722 179.93802,271.46989 25.71428,374.28572 -36.87825,24.5855 -86.47191,10.02889 -122.85714,34.28571 C 420.74008,861.3926 420.13225,924.69905 380,938.07647 247.28784,982.31386 170.32393,817.61968 137.14286,718.07647 123.91999,678.40788 192.10068,619.08463 168.57143,583.79075 135.76183,534.57636 24.314878,386.58957 57.142857,320.93361 94.922948,245.37343 137.00347,210.46325 180,135.21933 z"
       id="path16928"
       inkscape:connector-curvature="0" />
  </g>
</svg>
