<?xml version="1.0" encoding="utf-8" standalone="no"?><!DOCTYPE svg PUBLIC "-//W3C//DTD SVG 1.1//EN" "http://www.w3.org/Graphics/SVG/1.1/DTD/svg11.dtd">
<svg preserveAspectRatio="xMinYMin meet" width="100%" height="100%" viewBox="0 0 560.000 420.000"  version="1.1" xmlns="http://www.w3.org/2000/svg" xmlns:xlink="http://www.w3.org/1999/xlink">
  <desc>Matlab Figure Converted by PLOT2SVG written by Juerg Schwizer</desc>
  <g id="topgroup">
  <rect x="0" y="0" width="560.000" height="420.000" fill="#ffffff" stroke="none" />
  <g id ="ID000000">
  <clipPath id="ID000001">
    <rect x="72.800" y="31.500" width="434.000" height="143.288"/>
  </clipPath>
      <polygon fill="#ffffff" fill-opacity="1.00" stroke="none" stroke-width="0.5pt" stroke-opacity="1.00" stroke-dasharray="none" points="72.800,174.788 506.800,174.788 506.800,31.500 72.800,31.500 "/>
      <polygon fill="#ffffff" fill-opacity="1.00" stroke="none" stroke-width="0.5pt" stroke-opacity="1.00" stroke-dasharray="none" points="72.800,174.788 506.800,174.788 506.800,174.788 72.800,174.788 "/>
      <polygon fill="#ffffff" fill-opacity="1.00" stroke="none" stroke-width="0.5pt" stroke-opacity="1.00" stroke-dasharray="none" points="72.800,174.788 72.800,174.788 72.800,31.500 72.800,31.500 "/>
    <g>
<g id="ID000002" clip-path="url(#ID000001)" >
      <polyline fill="none" stroke="#00ff00" stroke-width="2.0pt" stroke-dasharray="8.0,2.0" points="72.800,160.600 73.523,160.409 74.247,160.218 74.970,160.027 75.693,159.836 76.417,159.645 77.140,159.454 77.863,159.263 78.587,159.072 79.310,158.881 80.033,158.689 80.757,158.498 81.480,158.307 82.203,158.116 82.927,157.925 83.650,157.734 84.373,157.543 85.097,157.352 85.820,157.161 86.543,156.969 87.267,156.778 87.990,156.587 88.713,156.396 89.437,156.205 90.160,156.014 90.883,155.823 91.607,155.631 92.330,155.440 93.053,155.249 93.777,155.058 94.500,154.867 95.223,154.676 95.947,154.484 96.670,154.293 97.393,154.102 98.117,153.911 98.840,153.720 99.563,153.528 100.287,153.337 101.010,153.146 101.733,152.955 102.457,152.764 103.180,152.572 103.903,152.381 104.627,152.190 105.350,151.999 106.073,151.808 106.797,151.616 107.520,151.425 108.243,151.234 108.967,151.043 109.690,150.851 110.413,150.660 111.137,150.469 111.860,150.278 112.583,150.086 113.307,149.895 114.030,149.704 114.753,149.513 115.477,149.321 116.200,149.130 116.923,148.939 117.647,148.748 118.370,148.556 119.093,148.365 119.817,148.174 120.540,147.982 121.263,147.791 121.987,147.600 122.710,147.409 123.433,147.217 124.157,147.026 124.880,146.835 125.603,146.643 126.327,146.452 127.050,146.261 127.773,146.069 128.497,145.878 129.220,145.687 129.943,145.495 130.667,145.304 131.390,145.113 132.113,144.921 132.837,144.730 133.560,144.539 134.283,144.347 135.007,144.156 135.730,143.965 136.453,143.773 137.177,143.582 137.900,143.391 138.623,143.199 139.347,143.008 140.070,142.817 140.793,142.625 141.517,142.434 142.240,142.242 142.963,142.051 143.687,141.860 144.410,141.668 145.133,141.477 145.857,141.285 146.580,141.094 147.303,140.903 148.027,140.711 148.750,140.520 149.473,140.328 150.197,140.137 150.920,139.946 151.643,139.754 152.367,139.563 153.090,139.371 153.813,139.180 154.537,138.988 155.260,138.797 155.983,138.606 156.707,138.414 157.430,138.223 158.153,138.031 158.877,137.840 159.600,137.648 160.323,137.457 161.047,137.265 161.770,137.074 162.493,136.883 163.217,136.691 163.940,136.500 164.663,136.308 165.387,136.117 166.110,135.925 166.833,135.734 167.557,135.542 168.280,135.351 169.003,135.159 169.727,134.968 170.450,134.776 171.173,134.585 171.897,134.393 172.620,134.202 173.343,134.010 174.067,133.819 174.790,133.627 175.513,133.436 176.237,133.244 176.960,133.052 177.683,132.861 178.407,132.669 179.130,132.478 179.853,132.286 180.577,132.095 181.300,131.903 182.023,131.712 182.747,131.520 183.470,131.329 184.193,131.137 184.917,130.945 185.640,130.754 186.363,130.562 187.087,130.371 187.810,130.179 188.533,129.988 189.257,129.796 189.980,129.604 190.703,129.413 191.427,129.221 192.150,129.030 192.873,128.838 193.597,128.646 194.320,128.455 195.043,128.263 195.767,128.072 196.490,127.880 197.213,127.688 197.937,127.497 198.660,127.305 199.383,127.114 200.107,126.922 200.830,126.730 201.553,126.539 202.277,126.347 203.000,126.155 203.723,125.964 204.447,125.772 205.170,125.580 205.893,125.389 206.617,125.197 207.340,125.005 208.063,124.814 208.787,124.622 209.510,124.430 210.233,124.239 210.957,124.047 211.680,123.855 212.403,123.664 213.127,123.472 213.850,123.280 214.573,123.089 215.297,122.897 216.020,122.705 216.743,122.514 217.467,122.322 218.190,122.130 218.913,121.938 219.637,121.747 220.360,121.555 221.083,121.363 221.807,121.172 222.530,120.980 223.253,120.788 223.977,120.596 224.700,120.405 225.423,120.213 226.147,120.021 226.870,119.830 227.593,119.638 228.317,119.446 229.040,119.254 229.763,119.063 230.487,118.871 231.210,118.679 231.933,118.487 232.657,118.296 233.380,118.104 234.103,117.912 234.827,117.720 235.550,117.529 236.273,117.337 236.997,117.145 237.720,116.953 238.443,116.761 239.167,116.570 239.890,116.378 240.613,116.186 241.337,115.994 242.060,115.803 242.783,115.611 243.507,115.419 244.230,115.227 244.953,115.035 245.677,114.844 246.400,114.652 247.123,114.460 247.847,114.268 248.570,114.077 249.293,113.885 250.017,113.693 250.740,113.501 251.463,113.309 252.187,113.118 252.910,112.926 253.633,112.734 254.357,112.542 255.080,112.350 255.803,112.159 256.527,111.967 257.250,111.775 257.973,111.583 258.697,111.391 259.420,111.200 260.143,111.008 260.867,110.816 261.590,110.624 262.313,110.432 263.037,110.241 263.760,110.049 264.483,109.857 265.207,109.665 265.930,109.473 266.653,109.282 267.377,109.090 268.100,108.898 268.823,108.706 269.547,108.514 270.270,108.323 270.993,108.131 271.717,107.939 272.440,107.747 273.163,107.556 273.887,107.364 274.610,107.172 275.333,106.980 276.057,106.788 276.780,106.597 277.503,106.405 278.227,106.213 278.950,106.021 279.673,105.829 280.397,105.638 281.120,105.446 281.843,105.254 282.567,105.062 283.290,104.870 284.013,104.679 284.737,104.487 285.460,104.295 286.183,104.103 286.907,103.911 287.630,103.720 288.353,103.528 289.077,103.336 289.800,103.144 290.523,102.952 291.247,102.761 291.970,102.569 292.693,102.377 293.417,102.185 294.140,101.993 294.863,101.802 295.587,101.610 296.310,101.418 297.033,101.226 297.757,101.034 298.480,100.843 299.203,100.651 299.927,100.459 300.650,100.267 301.373,100.075 302.097,99.884 302.820,99.692 303.543,99.500 304.267,99.308 304.990,99.116 305.713,98.925 306.437,98.733 307.160,98.541 307.883,98.349 308.607,98.157 309.330,97.966 310.053,97.774 310.777,97.582 311.500,97.390 312.223,97.199 312.947,97.007 313.670,96.815 314.393,96.623 315.117,96.431 315.840,96.240 316.563,96.048 317.287,95.856 318.010,95.664 318.733,95.472 319.457,95.281 320.180,95.089 320.903,94.897 321.627,94.705 322.350,94.514 323.073,94.322 323.797,94.130 324.520,93.938 325.243,93.746 325.967,93.555 326.690,93.363 327.413,93.171 328.137,92.979 328.860,92.788 329.583,92.596 330.307,92.404 331.030,92.212 331.753,92.020 332.477,91.829 333.200,91.637 333.923,91.445 334.647,91.253 335.370,91.062 336.093,90.870 336.817,90.678 337.540,90.486 338.263,90.294 338.987,90.103 339.710,89.911 340.433,89.719 341.157,89.527 341.880,89.336 342.603,89.144 343.327,88.952 344.050,88.760 344.773,88.569 345.497,88.377 346.220,88.185 346.943,87.993 347.667,87.802 348.390,87.610 349.113,87.418 349.837,87.226 350.560,87.035 351.283,86.843 352.007,86.651 352.730,86.459 353.453,86.268 354.177,86.076 354.900,85.884 355.623,85.692 356.347,85.500 357.070,85.309 357.793,85.117 358.517,84.925 359.240,84.733 359.963,84.542 360.687,84.350 361.410,84.158 362.133,83.966 362.857,83.775 363.580,83.583 364.303,83.391 365.027,83.199 365.750,83.008 366.473,82.816 367.197,82.624 367.920,82.432 368.643,82.241 369.367,82.049 370.090,81.857 370.813,81.666 371.537,81.474 372.260,81.282 372.983,81.090 373.707,80.899 374.430,80.707 375.153,80.515 375.877,80.323 376.600,80.132 377.323,79.940 378.047,79.748 378.770,79.556 379.493,79.365 380.217,79.173 380.940,78.981 381.663,78.789 382.387,78.598 383.110,78.406 383.833,78.214 384.557,78.023 385.280,77.831 386.003,77.639 386.727,77.447 387.450,77.256 388.173,77.064 388.897,76.872 389.620,76.681 390.343,76.489 391.067,76.297 391.790,76.105 392.513,75.914 393.237,75.722 393.960,75.530 394.683,75.339 395.407,75.147 396.130,74.955 396.853,74.764 397.577,74.572 398.300,74.380 399.023,74.189 399.747,73.997 400.470,73.805 401.193,73.613 401.917,73.422 402.640,73.230 403.363,73.038 404.087,72.847 404.810,72.655 405.533,72.463 406.257,72.272 406.980,72.080 407.703,71.888 408.427,71.697 409.150,71.505 409.873,71.314 410.597,71.122 411.320,70.930 412.043,70.739 412.767,70.547 413.490,70.355 414.213,70.164 414.937,69.972 415.660,69.780 416.383,69.589 417.107,69.397 417.830,69.206 418.553,69.014 419.277,68.822 420.000,68.631 420.723,68.439 421.447,68.248 422.170,68.056 422.893,67.864 423.617,67.673 424.340,67.481 425.063,67.290 425.787,67.098 426.510,66.906 427.233,66.715 427.957,66.523 428.680,66.332 429.403,66.140 430.127,65.949 430.850,65.757 431.573,65.565 432.297,65.374 433.020,65.182 433.743,64.991 434.467,64.799 435.190,64.608 435.913,64.416 436.637,64.225 437.360,64.033 438.083,63.842 438.807,63.650 439.530,63.459 440.253,63.267 440.977,63.076 441.700,62.884 442.423,62.693 443.147,62.501 443.870,62.310 444.593,62.118 445.317,61.927 446.040,61.735 446.763,61.544 447.487,61.352 448.210,61.161 448.933,60.969 449.657,60.778 450.380,60.586 451.103,60.395 451.827,60.203 452.550,60.012 453.273,59.821 453.997,59.629 454.720,59.438 455.443,59.246 456.167,59.055 456.890,58.863 457.613,58.672 458.337,58.481 459.060,58.289 459.783,58.098 460.507,57.906 461.230,57.715 461.953,57.524 462.677,57.332 463.400,57.141 464.123,56.949 464.847,56.758 465.570,56.567 466.293,56.375 467.017,56.184 467.740,55.993 468.463,55.801 469.187,55.610 469.910,55.419 470.633,55.227 471.357,55.036 472.080,54.844 472.803,54.653 473.527,54.462 474.250,54.270 474.973,54.079 475.697,53.888 476.420,53.697 477.143,53.505 477.867,53.314 478.590,53.123 479.313,52.931 480.037,52.740 480.760,52.549 481.483,52.357 482.207,52.166 482.930,51.975 483.653,51.784 484.377,51.592 485.100,51.401 485.823,51.210 486.547,51.019 487.270,50.827 487.993,50.636 488.717,50.445 489.440,50.254 490.163,50.062 490.887,49.871 491.610,49.680 492.333,49.489 493.057,49.297 493.780,49.106 494.503,48.915 495.227,48.724 495.950,48.532 496.673,48.341 497.397,48.150 498.120,47.959 498.843,47.768 499.567,47.576 500.290,47.385 501.013,47.194 501.737,47.003 502.460,46.812 503.183,46.621 503.907,46.429 504.630,46.238 505.353,46.047 506.077,45.856 506.800,45.665 "/>
<g>
</g>
</g>
<g id="ID000003" >
  <g transform="translate(23.300,104.146)">
    <g transform="rotate(-90.0)">
      <text x="0.000" y="0.000" font-family="Helvetica" text-anchor="middle" font-size="16pt" fill="#000000" >Force (N)</text>
    </g>
  </g>
</g>
<g id="ID000004" >
  <g transform="translate(289.300,16.979)">
    <g transform="rotate(-0.0)">
      <text x="0.000" y="0.000" font-family="Helvetica" text-anchor="middle" font-size="16pt" fill="#000000" >Tangential Force</text>
    </g>
  </g>
</g>
<g id="ID000005" >
</g>
    </g>
    <g>
      <polyline fill="none" stroke="#000000" stroke-width="0.5pt" stroke-dasharray="none" points="145.133,174.788 145.133,170.448 "/>
      <polyline fill="none" stroke="#000000" stroke-width="0.5pt" stroke-dasharray="none" points="217.467,174.788 217.467,170.448 "/>
      <polyline fill="none" stroke="#000000" stroke-width="0.5pt" stroke-dasharray="none" points="289.800,174.788 289.800,170.448 "/>
      <polyline fill="none" stroke="#000000" stroke-width="0.5pt" stroke-dasharray="none" points="362.133,174.788 362.133,170.448 "/>
      <polyline fill="none" stroke="#000000" stroke-width="0.5pt" stroke-dasharray="none" points="434.467,174.788 434.467,170.448 "/>
      <polyline fill="none" stroke="#000000" stroke-width="0.5pt" stroke-dasharray="none" points="72.800,174.788 506.800,174.788 "/>
      <polyline fill="none" stroke="#000000" stroke-width="0.5pt" stroke-dasharray="none" points="145.133,31.500 145.133,35.840 "/>
      <polyline fill="none" stroke="#000000" stroke-width="0.5pt" stroke-dasharray="none" points="217.467,31.500 217.467,35.840 "/>
      <polyline fill="none" stroke="#000000" stroke-width="0.5pt" stroke-dasharray="none" points="289.800,31.500 289.800,35.840 "/>
      <polyline fill="none" stroke="#000000" stroke-width="0.5pt" stroke-dasharray="none" points="362.133,31.500 362.133,35.840 "/>
      <polyline fill="none" stroke="#000000" stroke-width="0.5pt" stroke-dasharray="none" points="434.467,31.500 434.467,35.840 "/>
      <polyline fill="none" stroke="#000000" stroke-width="0.5pt" stroke-dasharray="none" points="72.800,31.500 506.800,31.500 "/>
  <g transform="translate(72.800,196.534)">
    <g transform="rotate(-0.0)">
      <text x="0.000" y="0.000" font-family="Helvetica" text-anchor="middle" font-size="16pt" fill="#000000" >-300</text>
    </g>
  </g>
  <g transform="translate(145.133,196.534)">
    <g transform="rotate(-0.0)">
      <text x="0.000" y="0.000" font-family="Helvetica" text-anchor="middle" font-size="16pt" fill="#000000" >-200</text>
    </g>
  </g>
  <g transform="translate(217.467,196.534)">
    <g transform="rotate(-0.0)">
      <text x="0.000" y="0.000" font-family="Helvetica" text-anchor="middle" font-size="16pt" fill="#000000" >-100</text>
    </g>
  </g>
  <g transform="translate(289.800,196.534)">
    <g transform="rotate(-0.0)">
      <text x="0.000" y="0.000" font-family="Helvetica" text-anchor="middle" font-size="16pt" fill="#000000" >0</text>
    </g>
  </g>
  <g transform="translate(362.133,196.534)">
    <g transform="rotate(-0.0)">
      <text x="0.000" y="0.000" font-family="Helvetica" text-anchor="middle" font-size="16pt" fill="#000000" >100</text>
    </g>
  </g>
  <g transform="translate(434.467,196.534)">
    <g transform="rotate(-0.0)">
      <text x="0.000" y="0.000" font-family="Helvetica" text-anchor="middle" font-size="16pt" fill="#000000" >200</text>
    </g>
  </g>
  <g transform="translate(506.800,196.534)">
    <g transform="rotate(-0.0)">
      <text x="0.000" y="0.000" font-family="Helvetica" text-anchor="middle" font-size="16pt" fill="#000000" >300</text>
    </g>
  </g>
      <polyline fill="none" stroke="#000000" stroke-width="0.5pt" stroke-dasharray="none" points="72.800,103.144 77.140,103.144 "/>
      <polyline fill="none" stroke="#000000" stroke-width="0.5pt" stroke-dasharray="none" points="72.800,174.788 72.800,31.500 "/>
      <polyline fill="none" stroke="#000000" stroke-width="0.5pt" stroke-dasharray="none" points="506.800,103.144 502.460,103.144 "/>
      <polyline fill="none" stroke="#000000" stroke-width="0.5pt" stroke-dasharray="none" points="506.800,174.788 506.800,31.500 "/>
  <g transform="translate(64.120,181.988)">
    <g transform="rotate(-0.0)">
      <text x="0.000" y="0.000" font-family="Helvetica" text-anchor="end" font-size="16pt" fill="#000000" >-0.2</text>
    </g>
  </g>
  <g transform="translate(64.120,110.344)">
    <g transform="rotate(-0.0)">
      <text x="0.000" y="0.000" font-family="Helvetica" text-anchor="end" font-size="16pt" fill="#000000" >0</text>
    </g>
  </g>
  <g transform="translate(64.120,38.700)">
    <g transform="rotate(-0.0)">
      <text x="0.000" y="0.000" font-family="Helvetica" text-anchor="end" font-size="16pt" fill="#000000" >0.2</text>
    </g>
  </g>
      <polyline fill="none" stroke="#000000" stroke-width="0.5pt" stroke-dasharray="none" points="72.800,174.788 72.800,173.355 "/>
      <polyline fill="none" stroke="#000000" stroke-width="0.5pt" stroke-dasharray="none" points="72.800,174.788 72.800,174.788 "/>
    </g>
  </g>
  <g id ="ID000006">
  <clipPath id="ID000007">
    <rect x="72.800" y="230.512" width="434.000" height="143.288"/>
  </clipPath>
      <polygon fill="#ffffff" fill-opacity="1.00" stroke="none" stroke-width="0.5pt" stroke-opacity="1.00" stroke-dasharray="none" points="72.800,373.800 506.800,373.800 506.800,230.512 72.800,230.512 "/>
      <polygon fill="#ffffff" fill-opacity="1.00" stroke="none" stroke-width="0.5pt" stroke-opacity="1.00" stroke-dasharray="none" points="72.800,230.512 506.800,230.512 506.800,230.512 72.800,230.512 "/>
      <polygon fill="#ffffff" fill-opacity="1.00" stroke="none" stroke-width="0.5pt" stroke-opacity="1.00" stroke-dasharray="none" points="72.800,373.800 72.800,373.800 72.800,230.512 72.800,230.512 "/>
    <g>
<g id="ID000008" clip-path="url(#ID000007)" >
      <polyline fill="none" stroke="#00ff00" stroke-width="2.0pt" stroke-dasharray="none" points="72.800,295.407 73.523,295.920 74.247,296.431 74.970,296.941 75.693,297.449 76.417,297.956 77.140,298.461 77.863,298.964 78.587,299.465 79.310,299.965 80.033,300.463 80.757,300.960 81.480,301.455 82.203,301.948 82.927,302.440 83.650,302.930 84.373,303.418 85.097,303.905 85.820,304.390 86.543,304.873 87.267,305.355 87.990,305.835 88.713,306.313 89.437,306.790 90.160,307.265 90.883,307.738 91.607,308.210 92.330,308.680 93.053,309.149 93.777,309.615 94.500,310.080 95.223,310.544 95.947,311.006 96.670,311.466 97.393,311.924 98.117,312.381 98.840,312.836 99.563,313.289 100.287,313.741 101.010,314.191 101.733,314.640 102.457,315.087 103.180,315.532 103.903,315.975 104.627,316.417 105.350,316.857 106.073,317.296 106.797,317.732 107.520,318.168 108.243,318.601 108.967,319.033 109.690,319.463 110.413,319.891 111.137,320.318 111.860,320.743 112.583,321.167 113.307,321.589 114.030,322.009 114.753,322.427 115.477,322.844 116.200,323.259 116.923,323.673 117.647,324.085 118.370,324.495 119.093,324.903 119.817,325.310 120.540,325.715 121.263,326.119 121.987,326.520 122.710,326.920 123.433,327.319 124.157,327.716 124.880,328.111 125.603,328.504 126.327,328.896 127.050,329.286 127.773,329.674 128.497,330.061 129.220,330.446 129.943,330.830 130.667,331.211 131.390,331.591 132.113,331.970 132.837,332.346 133.560,332.722 134.283,333.095 135.007,333.467 135.730,333.837 136.453,334.205 137.177,334.571 137.900,334.936 138.623,335.300 139.347,335.661 140.070,336.021 140.793,336.380 141.517,336.736 142.240,337.091 142.963,337.444 143.687,337.796 144.410,338.146 145.133,338.494 145.857,338.840 146.580,339.185 147.303,339.528 148.027,339.870 148.750,340.210 149.473,340.548 150.197,340.884 150.920,341.219 151.643,341.552 152.367,341.884 153.090,342.213 153.813,342.541 154.537,342.868 155.260,343.192 155.983,343.515 156.707,343.837 157.430,344.156 158.153,344.474 158.877,344.791 159.600,345.105 160.323,345.418 161.047,345.729 161.770,346.039 162.493,346.347 163.217,346.653 163.940,346.957 164.663,347.260 165.387,347.561 166.110,347.860 166.833,348.158 167.557,348.454 168.280,348.749 169.003,349.041 169.727,349.332 170.450,349.622 171.173,349.909 171.897,350.195 172.620,350.479 173.343,350.762 174.067,351.043 174.790,351.322 175.513,351.599 176.237,351.875 176.960,352.149 177.683,352.422 178.407,352.692 179.130,352.961 179.853,353.229 180.577,353.494 181.300,353.758 182.023,354.021 182.747,354.281 183.470,354.540 184.193,354.797 184.917,355.053 185.640,355.307 186.363,355.559 187.087,355.809 187.810,356.058 188.533,356.305 189.257,356.550 189.980,356.794 190.703,357.036 191.427,357.276 192.150,357.515 192.873,357.752 193.597,357.987 194.320,358.220 195.043,358.452 195.767,358.682 196.490,358.910 197.213,359.137 197.937,359.362 198.660,359.585 199.383,359.807 200.107,360.027 200.830,360.245 201.553,360.462 202.277,360.676 203.000,360.890 203.723,361.101 204.447,361.311 205.170,361.519 205.893,361.725 206.617,361.930 207.340,362.133 208.063,362.334 208.787,362.533 209.510,362.731 210.233,362.927 210.957,363.122 211.680,363.314 212.403,363.505 213.127,363.695 213.850,363.882 214.573,364.068 215.297,364.252 216.020,364.435 216.743,364.616 217.467,364.795 218.190,364.972 218.913,365.148 219.637,365.322 220.360,365.494 221.083,365.665 221.807,365.833 222.530,366.000 223.253,366.166 223.977,366.330 224.700,366.492 225.423,366.652 226.147,366.810 226.870,366.967 227.593,367.122 228.317,367.275 229.040,367.427 229.763,367.577 230.487,367.725 231.210,367.871 231.933,368.016 232.657,368.159 233.380,368.300 234.103,368.439 234.827,368.577 235.550,368.713 236.273,368.847 236.997,368.980 237.720,369.110 238.443,369.239 239.167,369.366 239.890,369.492 240.613,369.615 241.337,369.737 242.060,369.857 242.783,369.975 243.507,370.092 244.230,370.207 244.953,370.320 245.677,370.431 246.400,370.540 247.123,370.648 247.847,370.754 248.570,370.858 249.293,370.960 250.017,371.060 250.740,371.159 251.463,371.256 252.187,371.351 252.910,371.444 253.633,371.536 254.357,371.626 255.080,371.714 255.803,371.800 256.527,371.884 257.250,371.966 257.973,372.047 258.697,372.126 259.420,372.203 260.143,372.278 260.867,372.352 261.590,372.423 262.313,372.493 263.037,372.561 263.760,372.627 264.483,372.691 265.207,372.754 265.930,372.814 266.653,372.873 267.377,372.930 268.100,372.985 268.823,373.038 269.547,373.090 270.270,373.139 270.993,373.187 271.717,373.233 272.440,373.277 273.163,373.319 273.887,373.360 274.610,373.399 275.333,373.436 276.057,373.471 276.780,373.504 277.503,373.536 278.227,373.565 278.950,373.593 279.673,373.620 280.397,373.644 281.120,373.667 281.843,373.688 282.567,373.707 283.290,373.724 284.013,373.740 284.737,373.754 285.460,373.766 286.183,373.776 286.907,373.785 287.630,373.791 288.353,373.796 289.077,373.799 289.800,373.800 290.523,373.799 291.247,373.796 291.970,373.791 292.693,373.785 293.417,373.776 294.140,373.766 294.863,373.754 295.587,373.740 296.310,373.724 297.033,373.707 297.757,373.688 298.480,373.667 299.203,373.644 299.927,373.619 300.650,373.593 301.373,373.565 302.097,373.535 302.820,373.503 303.543,373.470 304.267,373.435 304.990,373.398 305.713,373.359 306.437,373.319 307.160,373.276 307.883,373.232 308.607,373.186 309.330,373.139 310.053,373.089 310.777,373.038 311.500,372.985 312.223,372.930 312.947,372.874 313.670,372.815 314.393,372.755 315.117,372.693 315.840,372.629 316.563,372.563 317.287,372.496 318.010,372.427 318.733,372.355 319.457,372.283 320.180,372.208 320.903,372.132 321.627,372.053 322.350,371.973 323.073,371.891 323.797,371.808 324.520,371.722 325.243,371.635 325.967,371.546 326.690,371.455 327.413,371.362 328.137,371.268 328.860,371.172 329.583,371.074 330.307,370.974 331.030,370.872 331.753,370.769 332.477,370.663 333.200,370.556 333.923,370.447 334.647,370.337 335.370,370.224 336.093,370.110 336.817,369.994 337.540,369.876 338.263,369.756 338.987,369.635 339.710,369.511 340.433,369.386 341.157,369.259 341.880,369.131 342.603,369.000 343.327,368.868 344.050,368.734 344.773,368.598 345.497,368.460 346.220,368.321 346.943,368.179 347.667,368.036 348.390,367.891 349.113,367.744 349.837,367.596 350.560,367.445 351.283,367.293 352.007,367.139 352.730,366.984 353.453,366.826 354.177,366.667 354.900,366.506 355.623,366.343 356.347,366.178 357.070,366.011 357.793,365.843 358.517,365.673 359.240,365.501 359.963,365.327 360.687,365.151 361.410,364.974 362.133,364.795 362.857,364.614 363.580,364.431 364.303,364.246 365.027,364.060 365.750,363.872 366.473,363.682 367.197,363.490 367.920,363.296 368.643,363.101 369.367,362.904 370.090,362.705 370.813,362.504 371.537,362.301 372.260,362.097 372.983,361.891 373.707,361.683 374.430,361.474 375.153,361.262 375.877,361.049 376.600,360.834 377.323,360.617 378.047,360.399 378.770,360.179 379.493,359.957 380.217,359.733 380.940,359.507 381.663,359.280 382.387,359.051 383.110,358.820 383.833,358.587 384.557,358.353 385.280,358.117 386.003,357.879 386.727,357.640 387.450,357.398 388.173,357.155 388.897,356.911 389.620,356.664 390.343,356.416 391.067,356.166 391.790,355.914 392.513,355.661 393.237,355.405 393.960,355.148 394.683,354.890 395.407,354.629 396.130,354.367 396.853,354.103 397.577,353.838 398.300,353.571 399.023,353.302 399.747,353.031 400.470,352.759 401.193,352.485 401.917,352.209 402.640,351.931 403.363,351.652 404.087,351.371 404.810,351.088 405.533,350.804 406.257,350.518 406.980,350.230 407.703,349.941 408.427,349.650 409.150,349.357 409.873,349.062 410.597,348.766 411.320,348.468 412.043,348.169 412.767,347.867 413.490,347.565 414.213,347.260 414.937,346.954 415.660,346.646 416.383,346.336 417.107,346.025 417.830,345.712 418.553,345.397 419.277,345.081 420.000,344.763 420.723,344.443 421.447,344.122 422.170,343.799 422.893,343.474 423.617,343.148 424.340,342.820 425.063,342.491 425.787,342.159 426.510,341.826 427.233,341.492 427.957,341.156 428.680,340.818 429.403,340.478 430.127,340.137 430.850,339.795 431.573,339.450 432.297,339.104 433.020,338.757 433.743,338.407 434.467,338.056 435.190,337.704 435.913,337.350 436.637,336.994 437.360,336.637 438.083,336.278 438.807,335.917 439.530,335.555 440.253,335.191 440.977,334.825 441.700,334.458 442.423,334.089 443.147,333.719 443.870,333.347 444.593,332.973 445.317,332.598 446.040,332.221 446.763,331.842 447.487,331.462 448.210,331.080 448.933,330.697 449.657,330.312 450.380,329.925 451.103,329.537 451.827,329.147 452.550,328.755 453.273,328.362 453.997,327.967 454.720,327.571 455.443,327.173 456.167,326.773 456.890,326.372 457.613,325.969 458.337,325.565 459.060,325.159 459.783,324.751 460.507,324.341 461.230,323.930 461.953,323.518 462.677,323.104 463.400,322.688 464.123,322.270 464.847,321.851 465.570,321.430 466.293,321.008 467.017,320.584 467.740,320.159 468.463,319.731 469.187,319.303 469.910,318.872 470.633,318.440 471.357,318.006 472.080,317.571 472.803,317.134 473.527,316.696 474.250,316.256 474.973,315.814 475.697,315.371 476.420,314.926 477.143,314.479 477.867,314.031 478.590,313.581 479.313,313.130 480.037,312.676 480.760,312.222 481.483,311.765 482.207,311.308 482.930,310.848 483.653,310.387 484.377,309.924 485.100,309.460 485.823,308.994 486.547,308.526 487.270,308.057 487.993,307.586 488.717,307.114 489.440,306.640 490.163,306.164 490.887,305.687 491.610,305.208 492.333,304.728 493.057,304.246 493.780,303.762 494.503,303.277 495.227,302.790 495.950,302.301 496.673,301.811 497.397,301.319 498.120,300.826 498.843,300.331 499.567,299.834 500.290,299.336 501.013,298.836 501.737,298.335 502.460,297.832 503.183,297.327 503.907,296.821 504.630,296.313 505.353,295.804 506.077,295.293 506.800,294.780 "/>
<g>
</g>
</g>
<g id="ID000009" >
  <g transform="translate(289.300,215.990)">
    <g transform="rotate(-0.0)">
      <text x="0.000" y="0.000" font-family="Helvetica" text-anchor="middle" font-size="16pt" fill="#000000" >Normal Force</text>
    </g>
  </g>
</g>
<g id="ID000010" >
  <g transform="translate(289.300,418.559)">
    <g transform="rotate(-0.0)">
      <text x="0.000" y="0.000" font-family="Helvetica" text-anchor="middle" font-size="16pt" fill="#000000" >Array Speed (rad/s)</text>
    </g>
  </g>
</g>
<g id="ID000011" >
  <g transform="translate(30.300,303.158)">
    <g transform="rotate(-90.0)">
      <text x="0.000" y="0.000" font-family="Helvetica" text-anchor="middle" font-size="16pt" fill="#000000" >Force (N*10E-2)</text>
    </g>
  </g>
</g>
    </g>
    <g>
      <polyline fill="none" stroke="#000000" stroke-width="0.5pt" stroke-dasharray="none" points="145.133,373.800 145.133,369.460 "/>
      <polyline fill="none" stroke="#000000" stroke-width="0.5pt" stroke-dasharray="none" points="217.467,373.800 217.467,369.460 "/>
      <polyline fill="none" stroke="#000000" stroke-width="0.5pt" stroke-dasharray="none" points="289.800,373.800 289.800,369.460 "/>
      <polyline fill="none" stroke="#000000" stroke-width="0.5pt" stroke-dasharray="none" points="362.133,373.800 362.133,369.460 "/>
      <polyline fill="none" stroke="#000000" stroke-width="0.5pt" stroke-dasharray="none" points="434.467,373.800 434.467,369.460 "/>
      <polyline fill="none" stroke="#000000" stroke-width="0.5pt" stroke-dasharray="none" points="72.800,373.800 506.800,373.800 "/>
      <polyline fill="none" stroke="#000000" stroke-width="0.5pt" stroke-dasharray="none" points="145.133,230.512 145.133,234.852 "/>
      <polyline fill="none" stroke="#000000" stroke-width="0.5pt" stroke-dasharray="none" points="217.467,230.512 217.467,234.852 "/>
      <polyline fill="none" stroke="#000000" stroke-width="0.5pt" stroke-dasharray="none" points="289.800,230.512 289.800,234.852 "/>
      <polyline fill="none" stroke="#000000" stroke-width="0.5pt" stroke-dasharray="none" points="362.133,230.512 362.133,234.852 "/>
      <polyline fill="none" stroke="#000000" stroke-width="0.5pt" stroke-dasharray="none" points="434.467,230.512 434.467,234.852 "/>
      <polyline fill="none" stroke="#000000" stroke-width="0.5pt" stroke-dasharray="none" points="72.800,230.512 506.800,230.512 "/>
  <g transform="translate(72.800,395.546)">
    <g transform="rotate(-0.0)">
      <text x="0.000" y="0.000" font-family="Helvetica" text-anchor="middle" font-size="16pt" fill="#000000" >-300</text>
    </g>
  </g>
  <g transform="translate(145.133,395.546)">
    <g transform="rotate(-0.0)">
      <text x="0.000" y="0.000" font-family="Helvetica" text-anchor="middle" font-size="16pt" fill="#000000" >-200</text>
    </g>
  </g>
  <g transform="translate(217.467,395.546)">
    <g transform="rotate(-0.0)">
      <text x="0.000" y="0.000" font-family="Helvetica" text-anchor="middle" font-size="16pt" fill="#000000" >-100</text>
    </g>
  </g>
  <g transform="translate(289.800,395.546)">
    <g transform="rotate(-0.0)">
      <text x="0.000" y="0.000" font-family="Helvetica" text-anchor="middle" font-size="16pt" fill="#000000" >0</text>
    </g>
  </g>
  <g transform="translate(362.133,395.546)">
    <g transform="rotate(-0.0)">
      <text x="0.000" y="0.000" font-family="Helvetica" text-anchor="middle" font-size="16pt" fill="#000000" >100</text>
    </g>
  </g>
  <g transform="translate(434.467,395.546)">
    <g transform="rotate(-0.0)">
      <text x="0.000" y="0.000" font-family="Helvetica" text-anchor="middle" font-size="16pt" fill="#000000" >200</text>
    </g>
  </g>
  <g transform="translate(506.800,395.546)">
    <g transform="rotate(-0.0)">
      <text x="0.000" y="0.000" font-family="Helvetica" text-anchor="middle" font-size="16pt" fill="#000000" >300</text>
    </g>
  </g>
      <polyline fill="none" stroke="#000000" stroke-width="0.5pt" stroke-dasharray="none" points="72.800,302.156 77.140,302.156 "/>
      <polyline fill="none" stroke="#000000" stroke-width="0.5pt" stroke-dasharray="none" points="72.800,373.800 72.800,230.512 "/>
      <polyline fill="none" stroke="#000000" stroke-width="0.5pt" stroke-dasharray="none" points="506.800,302.156 502.460,302.156 "/>
      <polyline fill="none" stroke="#000000" stroke-width="0.5pt" stroke-dasharray="none" points="506.800,373.800 506.800,230.512 "/>
  <g transform="translate(64.120,381.000)">
    <g transform="rotate(-0.0)">
      <text x="0.000" y="0.000" font-family="Helvetica" text-anchor="end" font-size="16pt" fill="#000000" >0</text>
    </g>
  </g>
  <g transform="translate(64.120,309.356)">
    <g transform="rotate(-0.0)">
      <text x="0.000" y="0.000" font-family="Helvetica" text-anchor="end" font-size="16pt" fill="#000000" >0.2</text>
    </g>
  </g>
  <g transform="translate(64.120,237.712)">
    <g transform="rotate(-0.0)">
      <text x="0.000" y="0.000" font-family="Helvetica" text-anchor="end" font-size="16pt" fill="#000000" >0.4</text>
    </g>
  </g>
      <polyline fill="none" stroke="#000000" stroke-width="0.5pt" stroke-dasharray="none" points="72.800,373.800 72.800,372.367 "/>
      <polyline fill="none" stroke="#000000" stroke-width="0.5pt" stroke-dasharray="none" points="72.800,373.800 72.800,373.800 "/>
    </g>
  </g>
  </g>
</svg>
