<?xml version="1.0" encoding="utf-8" standalone="no"?><!DOCTYPE svg PUBLIC "-//W3C//DTD SVG 1.1//EN" "http://www.w3.org/Graphics/SVG/1.1/DTD/svg11.dtd">
<svg preserveAspectRatio="xMinYMin meet" width="100%" height="100%" viewBox="0 0 560.000 420.000"  version="1.1" xmlns="http://www.w3.org/2000/svg" xmlns:xlink="http://www.w3.org/1999/xlink">
  <desc>Matlab Figure Converted by PLOT2SVG written by Juerg Schwizer</desc>
  <g id="topgroup">
  <rect x="0" y="0" width="560.000" height="420.000" fill="#ffffff" stroke="none" />
  <g id ="ID000000">
  <clipPath id="ID000001">
    <rect x="72.800" y="31.500" width="434.000" height="143.288"/>
  </clipPath>
      <polygon fill="#ffffff" fill-opacity="1.00" stroke="none" stroke-width="0.5pt" stroke-opacity="1.00" stroke-dasharray="none" points="72.800,174.788 506.800,174.788 506.800,31.500 72.800,31.500 "/>
      <polygon fill="#ffffff" fill-opacity="1.00" stroke="none" stroke-width="0.5pt" stroke-opacity="1.00" stroke-dasharray="none" points="72.800,174.788 506.800,174.788 506.800,174.788 72.800,174.788 "/>
      <polygon fill="#ffffff" fill-opacity="1.00" stroke="none" stroke-width="0.5pt" stroke-opacity="1.00" stroke-dasharray="none" points="72.800,174.788 72.800,174.788 72.800,31.500 72.800,31.500 "/>
    <g>
<g id="ID000002" clip-path="url(#ID000001)" >
      <polyline fill="none" stroke="#00ff00" stroke-width="2.0pt" stroke-dasharray="8.0,2.0" points="72.800,160.600 73.523,160.409 74.247,160.218 74.970,160.027 75.693,159.836 76.417,159.645 77.140,159.454 77.863,159.263 78.587,159.072 79.310,158.881 80.033,158.689 80.757,158.498 81.480,158.307 82.203,158.116 82.927,157.925 83.650,157.734 84.373,157.543 85.097,157.352 85.820,157.161 86.543,156.969 87.267,156.778 87.990,156.587 88.713,156.396 89.437,156.205 90.160,156.014 90.883,155.823 91.607,155.631 92.330,155.440 93.053,155.249 93.777,155.058 94.500,154.867 95.223,154.676 95.947,154.484 96.670,154.293 97.393,154.102 98.117,153.911 98.840,153.720 99.563,153.528 100.287,153.337 101.010,153.146 101.733,152.955 102.457,152.764 103.180,152.572 103.903,152.381 104.627,152.190 105.350,151.999 106.073,151.808 106.797,151.616 107.520,151.425 108.243,151.234 108.967,151.043 109.690,150.851 110.413,150.660 111.137,150.469 111.860,150.278 112.583,150.086 113.307,149.895 114.030,149.704 114.753,149.513 115.477,149.321 116.200,149.130 116.923,148.939 117.647,148.748 118.370,148.556 119.093,148.365 119.817,148.174 120.540,147.982 121.263,147.791 121.987,147.600 122.710,147.409 123.433,147.217 124.157,147.026 124.880,146.835 125.603,146.643 126.327,146.452 127.050,146.261 127.773,146.069 128.497,145.878 129.220,145.687 129.943,145.495 130.667,145.304 131.390,145.113 132.113,144.921 132.837,144.730 133.560,144.539 134.283,144.347 135.007,144.156 135.730,143.965 136.453,143.773 137.177,143.582 137.900,143.391 138.623,143.199 139.347,143.008 140.070,142.817 140.793,142.625 141.517,142.434 142.240,142.242 142.963,142.051 143.687,141.860 144.410,141.668 145.133,141.477 145.857,141.285 146.580,141.094 147.303,140.903 148.027,140.711 148.750,140.520 149.473,140.328 150.197,140.137 150.920,139.946 151.643,139.754 152.367,139.563 153.090,139.371 153.813,139.180 154.537,138.988 155.260,138.797 155.983,138.606 156.707,138.414 157.430,138.223 158.153,138.031 158.877,137.840 159.600,137.648 160.323,137.457 161.047,137.265 161.770,137.074 162.493,136.883 163.217,136.691 163.940,136.500 164.663,136.308 165.387,136.117 166.110,135.925 166.833,135.734 167.557,135.542 168.280,135.351 169.003,135.159 169.727,134.968 170.450,134.776 171.173,134.585 171.897,134.393 172.620,134.202 173.343,134.010 174.067,133.819 174.790,133.627 175.513,133.436 176.237,133.244 176.960,133.052 177.683,132.861 178.407,132.669 179.130,132.478 179.853,132.286 180.577,132.095 181.300,131.903 182.023,131.712 182.747,131.520 183.470,131.329 184.193,131.137 184.917,130.945 185.640,130.754 186.363,130.562 187.087,130.371 187.810,130.179 188.533,129.988 189.257,129.796 189.980,129.604 190.703,129.413 191.427,129.221 192.150,129.030 192.873,128.838 193.597,128.646 194.320,128.455 195.043,128.263 195.767,128.072 196.490,127.880 197.213,127.688 197.937,127.497 198.660,127.305 199.383,127.114 200.107,126.922 200.830,126.730 201.553,126.539 202.277,126.347 203.000,126.155 203.723,125.964 204.447,125.772 205.170,125.580 205.893,125.389 206.617,125.197 207.340,125.005 208.063,124.814 208.787,124.622 209.510,124.430 210.233,124.239 210.957,124.047 211.680,123.855 212.403,123.664 213.127,123.472 213.850,123.280 214.573,123.089 215.297,122.897 216.020,122.705 216.743,122.514 217.467,122.322 218.190,122.130 218.913,121.938 219.637,121.747 220.360,121.555 221.083,121.363 221.807,121.172 222.530,120.980 223.253,120.788 223.977,120.596 224.700,120.405 225.423,120.213 226.147,120.021 226.870,119.830 227.593,119.638 228.317,119.446 229.040,119.254 229.763,119.063 230.487,118.871 231.210,118.679 231.933,118.487 232.657,118.296 233.380,118.104 234.103,117.912 234.827,117.720 235.550,117.529 236.273,117.337 236.997,117.145 237.720,116.953 238.443,116.761 239.167,116.570 239.890,116.378 240.613,116.186 241.337,115.994 242.060,115.803 242.783,115.611 243.507,115.419 244.230,115.227 244.953,115.035 245.677,114.844 246.400,114.652 247.123,114.460 247.847,114.268 248.570,114.077 249.293,113.885 250.017,113.693 250.740,113.501 251.463,113.309 252.187,113.118 252.910,112.926 253.633,112.734 254.357,112.542 255.080,112.350 255.803,112.159 256.527,111.967 257.250,111.775 257.973,111.583 258.697,111.391 259.420,111.200 260.143,111.008 260.867,110.816 261.590,110.624 262.313,110.432 263.037,110.241 263.760,110.049 264.483,109.857 265.207,109.665 265.930,109.473 266.653,109.282 267.377,109.090 268.100,108.898 268.823,108.706 269.547,108.514 270.270,108.323 270.993,108.131 271.717,107.939 272.440,107.747 273.163,107.556 273.887,107.364 274.610,107.172 275.333,106.980 276.057,106.788 276.780,106.597 277.503,106.405 278.227,106.213 278.950,106.021 279.673,105.829 280.397,105.638 281.120,105.446 281.843,105.254 282.567,105.062 283.290,104.870 284.013,104.679 284.737,104.487 285.460,104.295 286.183,104.103 286.907,103.911 287.630,103.720 288.353,103.528 289.077,103.336 289.800,103.144 290.523,102.952 291.247,102.761 291.970,102.569 292.693,102.377 293.417,102.185 294.140,101.993 294.863,101.802 295.587,101.610 296.310,101.418 297.033,101.226 297.757,101.034 298.480,100.843 299.203,100.651 299.927,100.459 300.650,100.267 301.373,100.075 302.097,99.884 302.820,99.692 303.543,99.500 304.267,99.308 304.990,99.116 305.713,98.925 306.437,98.733 307.160,98.541 307.883,98.349 308.607,98.157 309.330,97.966 310.053,97.774 310.777,97.582 311.500,97.390 312.223,97.199 312.947,97.007 313.670,96.815 314.393,96.623 315.117,96.431 315.840,96.240 316.563,96.048 317.287,95.856 318.010,95.664 318.733,95.472 319.457,95.281 320.180,95.089 320.903,94.897 321.627,94.705 322.350,94.514 323.073,94.322 323.797,94.130 324.520,93.938 325.243,93.746 325.967,93.555 326.690,93.363 327.413,93.171 328.137,92.979 328.860,92.788 329.583,92.596 330.307,92.404 331.030,92.212 331.753,92.020 332.477,91.829 333.200,91.637 333.923,91.445 334.647,91.253 335.370,91.062 336.093,90.870 336.817,90.678 337.540,90.486 338.263,90.294 338.987,90.103 339.710,89.911 340.433,89.719 341.157,89.527 341.880,89.336 342.603,89.144 343.327,88.952 344.050,88.760 344.773,88.569 345.497,88.377 346.220,88.185 346.943,87.993 347.667,87.802 348.390,87.610 349.113,87.418 349.837,87.226 350.560,87.035 351.283,86.843 352.007,86.651 352.730,86.459 353.453,86.268 354.177,86.076 354.900,85.884 355.623,85.692 356.347,85.500 357.070,85.309 357.793,85.117 358.517,84.925 359.240,84.733 359.963,84.542 360.687,84.350 361.410,84.158 362.133,83.966 362.857,83.775 363.580,83.583 364.303,83.391 365.027,83.199 365.750,83.008 366.473,82.816 367.197,82.624 367.920,82.432 368.643,82.241 369.367,82.049 370.090,81.857 370.813,81.666 371.537,81.474 372.260,81.282 372.983,81.090 373.707,80.899 374.430,80.707 375.153,80.515 375.877,80.323 376.600,80.132 377.323,79.940 378.047,79.748 378.770,79.556 379.493,79.365 380.217,79.173 380.940,78.981 381.663,78.789 382.387,78.598 383.110,78.406 383.833,78.214 384.557,78.023 385.280,77.831 386.003,77.639 386.727,77.447 387.450,77.256 388.173,77.064 388.897,76.872 389.620,76.681 390.343,76.489 391.067,76.297 391.790,76.105 392.513,75.914 393.237,75.722 393.960,75.530 394.683,75.339 395.407,75.147 396.130,74.955 396.853,74.764 397.577,74.572 398.300,74.380 399.023,74.189 399.747,73.997 400.470,73.805 401.193,73.613 401.917,73.422 402.640,73.230 403.363,73.038 404.087,72.847 404.810,72.655 405.533,72.463 406.257,72.272 406.980,72.080 407.703,71.888 408.427,71.697 409.150,71.505 409.873,71.314 410.597,71.122 411.320,70.930 412.043,70.739 412.767,70.547 413.490,70.355 414.213,70.164 414.937,69.972 415.660,69.780 416.383,69.589 417.107,69.397 417.830,69.206 418.553,69.014 419.277,68.822 420.000,68.631 420.723,68.439 421.447,68.248 422.170,68.056 422.893,67.864 423.617,67.673 424.340,67.481 425.063,67.290 425.787,67.098 426.510,66.906 427.233,66.715 427.957,66.523 428.680,66.332 429.403,66.140 430.127,65.949 430.850,65.757 431.573,65.565 432.297,65.374 433.020,65.182 433.743,64.991 434.467,64.799 435.190,64.608 435.913,64.416 436.637,64.225 437.360,64.033 438.083,63.842 438.807,63.650 439.530,63.459 440.253,63.267 440.977,63.076 441.700,62.884 442.423,62.693 443.147,62.501 443.870,62.310 444.593,62.118 445.317,61.927 446.040,61.735 446.763,61.544 447.487,61.352 448.210,61.161 448.933,60.969 449.657,60.778 450.380,60.586 451.103,60.395 451.827,60.203 452.550,60.012 453.273,59.821 453.997,59.629 454.720,59.438 455.443,59.246 456.167,59.055 456.890,58.863 457.613,58.672 458.337,58.481 459.060,58.289 459.783,58.098 460.507,57.906 461.230,57.715 461.953,57.524 462.677,57.332 463.400,57.141 464.123,56.949 464.847,56.758 465.570,56.567 466.293,56.375 467.017,56.184 467.740,55.993 468.463,55.801 469.187,55.610 469.910,55.419 470.633,55.227 471.357,55.036 472.080,54.844 472.803,54.653 473.527,54.462 474.250,54.270 474.973,54.079 475.697,53.888 476.420,53.697 477.143,53.505 477.867,53.314 478.590,53.123 479.313,52.931 480.037,52.740 480.760,52.549 481.483,52.357 482.207,52.166 482.930,51.975 483.653,51.784 484.377,51.592 485.100,51.401 485.823,51.210 486.547,51.019 487.270,50.827 487.993,50.636 488.717,50.445 489.440,50.254 490.163,50.062 490.887,49.871 491.610,49.680 492.333,49.489 493.057,49.297 493.780,49.106 494.503,48.915 495.227,48.724 495.950,48.532 496.673,48.341 497.397,48.150 498.120,47.959 498.843,47.768 499.567,47.576 500.290,47.385 501.013,47.194 501.737,47.003 502.460,46.812 503.183,46.621 503.907,46.429 504.630,46.238 505.353,46.047 506.077,45.856 506.800,45.665 "/>
<g>
</g>
</g>
<g id="ID000003" >
  <g transform="translate(23.300,104.146)">
    <g transform="rotate(-90.0)">
      <text x="0.000" y="0.000" font-family="Helvetica" text-anchor="middle" font-size="16pt" fill="#000000" >Force (N)</text>
    </g>
  </g>
</g>
<g id="ID000004" >
  <g transform="translate(289.300,16.979)">
    <g transform="rotate(-0.0)">
      <text x="0.000" y="0.000" font-family="Helvetica" text-anchor="middle" font-size="16pt" fill="#000000" >Tangential Force</text>
    </g>
  </g>
</g>
<g id="ID000005" >
</g>
    </g>
    <g>
      <polyline fill="none" stroke="#000000" stroke-width="0.5pt" stroke-dasharray="none" points="145.133,174.788 145.133,170.448 "/>
      <polyline fill="none" stroke="#000000" stroke-width="0.5pt" stroke-dasharray="none" points="217.467,174.788 217.467,170.448 "/>
      <polyline fill="none" stroke="#000000" stroke-width="0.5pt" stroke-dasharray="none" points="289.800,174.788 289.800,170.448 "/>
      <polyline fill="none" stroke="#000000" stroke-width="0.5pt" stroke-dasharray="none" points="362.133,174.788 362.133,170.448 "/>
      <polyline fill="none" stroke="#000000" stroke-width="0.5pt" stroke-dasharray="none" points="434.467,174.788 434.467,170.448 "/>
      <polyline fill="none" stroke="#000000" stroke-width="0.5pt" stroke-dasharray="none" points="72.800,174.788 506.800,174.788 "/>
      <polyline fill="none" stroke="#000000" stroke-width="0.5pt" stroke-dasharray="none" points="145.133,31.500 145.133,35.840 "/>
      <polyline fill="none" stroke="#000000" stroke-width="0.5pt" stroke-dasharray="none" points="217.467,31.500 217.467,35.840 "/>
      <polyline fill="none" stroke="#000000" stroke-width="0.5pt" stroke-dasharray="none" points="289.800,31.500 289.800,35.840 "/>
      <polyline fill="none" stroke="#000000" stroke-width="0.5pt" stroke-dasharray="none" points="362.133,31.500 362.133,35.840 "/>
      <polyline fill="none" stroke="#000000" stroke-width="0.5pt" stroke-dasharray="none" points="434.467,31.500 434.467,35.840 "/>
      <polyline fill="none" stroke="#000000" stroke-width="0.5pt" stroke-dasharray="none" points="72.800,31.500 506.800,31.500 "/>
  <g transform="translate(72.800,196.534)">
    <g transform="rotate(-0.0)">
      <text x="0.000" y="0.000" font-family="Helvetica" text-anchor="middle" font-size="16pt" fill="#000000" >-300</text>
    </g>
  </g>
  <g transform="translate(145.133,196.534)">
    <g transform="rotate(-0.0)">
      <text x="0.000" y="0.000" font-family="Helvetica" text-anchor="middle" font-size="16pt" fill="#000000" >-200</text>
    </g>
  </g>
  <g transform="translate(217.467,196.534)">
    <g transform="rotate(-0.0)">
      <text x="0.000" y="0.000" font-family="Helvetica" text-anchor="middle" font-size="16pt" fill="#000000" >-100</text>
    </g>
  </g>
  <g transform="translate(289.800,196.534)">
    <g transform="rotate(-0.0)">
      <text x="0.000" y="0.000" font-family="Helvetica" text-anchor="middle" font-size="16pt" fill="#000000" >0</text>
    </g>
  </g>
  <g transform="translate(362.133,196.534)">
    <g transform="rotate(-0.0)">
      <text x="0.000" y="0.000" font-family="Helvetica" text-anchor="middle" font-size="16pt" fill="#000000" >100</text>
    </g>
  </g>
  <g transform="translate(434.467,196.534)">
    <g transform="rotate(-0.0)">
      <text x="0.000" y="0.000" font-family="Helvetica" text-anchor="middle" font-size="16pt" fill="#000000" >200</text>
    </g>
  </g>
  <g transform="translate(506.800,196.534)">
    <g transform="rotate(-0.0)">
      <text x="0.000" y="0.000" font-family="Helvetica" text-anchor="middle" font-size="16pt" fill="#000000" >300</text>
    </g>
  </g>
      <polyline fill="none" stroke="#000000" stroke-width="0.5pt" stroke-dasharray="none" points="72.800,103.144 77.140,103.144 "/>
      <polyline fill="none" stroke="#000000" stroke-width="0.5pt" stroke-dasharray="none" points="72.800,174.788 72.800,31.500 "/>
      <polyline fill="none" stroke="#000000" stroke-width="0.5pt" stroke-dasharray="none" points="506.800,103.144 502.460,103.144 "/>
      <polyline fill="none" stroke="#000000" stroke-width="0.5pt" stroke-dasharray="none" points="506.800,174.788 506.800,31.500 "/>
  <g transform="translate(64.120,181.988)">
    <g transform="rotate(-0.0)">
      <text x="0.000" y="0.000" font-family="Helvetica" text-anchor="end" font-size="16pt" fill="#000000" >-0.2</text>
    </g>
  </g>
  <g transform="translate(64.120,110.344)">
    <g transform="rotate(-0.0)">
      <text x="0.000" y="0.000" font-family="Helvetica" text-anchor="end" font-size="16pt" fill="#000000" >0</text>
    </g>
  </g>
  <g transform="translate(64.120,38.700)">
    <g transform="rotate(-0.0)">
      <text x="0.000" y="0.000" font-family="Helvetica" text-anchor="end" font-size="16pt" fill="#000000" >0.2</text>
    </g>
  </g>
      <polyline fill="none" stroke="#000000" stroke-width="0.5pt" stroke-dasharray="none" points="72.800,174.788 72.800,173.355 "/>
      <polyline fill="none" stroke="#000000" stroke-width="0.5pt" stroke-dasharray="none" points="72.800,174.788 72.800,174.788 "/>
    </g>
  </g>
  <g id ="ID000006">
  <clipPath id="ID000007">
    <rect x="72.800" y="230.512" width="434.000" height="143.288"/>
  </clipPath>
      <polygon fill="#ffffff" fill-opacity="1.00" stroke="none" stroke-width="0.5pt" stroke-opacity="1.00" stroke-dasharray="none" points="72.800,373.800 506.800,373.800 506.800,230.512 72.800,230.512 "/>
      <polygon fill="#ffffff" fill-opacity="1.00" stroke="none" stroke-width="0.5pt" stroke-opacity="1.00" stroke-dasharray="none" points="72.800,230.512 506.800,230.512 506.800,230.512 72.800,230.512 "/>
      <polygon fill="#ffffff" fill-opacity="1.00" stroke="none" stroke-width="0.5pt" stroke-opacity="1.00" stroke-dasharray="none" points="72.800,373.800 72.800,373.800 72.800,230.512 72.800,230.512 "/>
    <g>
<g id="ID000008" clip-path="url(#ID000007)" >
      <polyline fill="none" stroke="#00ff00" stroke-width="2.0pt" stroke-dasharray="none" points="72.800,269.275 73.523,269.960 74.247,270.642 74.970,271.321 75.693,271.999 76.417,272.674 77.140,273.347 77.863,274.018 78.587,274.687 79.310,275.354 80.033,276.018 80.757,276.680 81.480,277.340 82.203,277.998 82.927,278.653 83.650,279.307 84.373,279.958 85.097,280.606 85.820,281.253 86.543,281.898 87.267,282.540 87.990,283.180 88.713,283.818 89.437,284.453 90.160,285.087 90.883,285.718 91.607,286.347 92.330,286.974 93.053,287.598 93.777,288.220 94.500,288.841 95.223,289.458 95.947,290.074 96.670,290.688 97.393,291.299 98.117,291.908 98.840,292.515 99.563,293.119 100.287,293.722 101.010,294.322 101.733,294.920 102.457,295.515 103.180,296.109 103.903,296.700 104.627,297.289 105.350,297.876 106.073,298.461 106.797,299.043 107.520,299.623 108.243,300.201 108.967,300.777 109.690,301.351 110.413,301.922 111.137,302.491 111.860,303.058 112.583,303.623 113.307,304.185 114.030,304.745 114.753,305.303 115.477,305.859 116.200,306.412 116.923,306.964 117.647,307.513 118.370,308.060 119.093,308.604 119.817,309.147 120.540,309.687 121.263,310.225 121.987,310.760 122.710,311.294 123.433,311.825 124.157,312.354 124.880,312.881 125.603,313.406 126.327,313.928 127.050,314.448 127.773,314.966 128.497,315.482 129.220,315.995 129.943,316.506 130.667,317.015 131.390,317.522 132.113,318.026 132.837,318.529 133.560,319.029 134.283,319.526 135.007,320.022 135.730,320.515 136.453,321.006 137.177,321.495 137.900,321.982 138.623,322.466 139.347,322.949 140.070,323.428 140.793,323.906 141.517,324.382 142.240,324.855 142.963,325.326 143.687,325.795 144.410,326.261 145.133,326.725 145.857,327.187 146.580,327.647 147.303,328.105 148.027,328.560 148.750,329.013 149.473,329.464 150.197,329.912 150.920,330.359 151.643,330.803 152.367,331.245 153.090,331.684 153.813,332.122 154.537,332.557 155.260,332.990 155.983,333.420 156.707,333.849 157.430,334.275 158.153,334.699 158.877,335.121 159.600,335.540 160.323,335.957 161.047,336.372 161.770,336.785 162.493,337.195 163.217,337.604 163.940,338.010 164.663,338.413 165.387,338.815 166.110,339.214 166.833,339.611 167.557,340.006 168.280,340.398 169.003,340.788 169.727,341.176 170.450,341.562 171.173,341.946 171.897,342.327 172.620,342.706 173.343,343.083 174.067,343.457 174.790,343.829 175.513,344.199 176.237,344.567 176.960,344.932 177.683,345.296 178.407,345.657 179.130,346.015 179.853,346.372 180.577,346.726 181.300,347.078 182.023,347.428 182.747,347.775 183.470,348.120 184.193,348.463 184.917,348.804 185.640,349.142 186.363,349.478 187.087,349.812 187.810,350.144 188.533,350.473 189.257,350.800 189.980,351.125 190.703,351.448 191.427,351.768 192.150,352.086 192.873,352.402 193.597,352.716 194.320,353.027 195.043,353.336 195.767,353.643 196.490,353.947 197.213,354.249 197.937,354.549 198.660,354.847 199.383,355.143 200.107,355.436 200.830,355.727 201.553,356.016 202.277,356.302 203.000,356.586 203.723,356.868 204.447,357.148 205.170,357.425 205.893,357.700 206.617,357.973 207.340,358.243 208.063,358.512 208.787,358.778 209.510,359.041 210.233,359.303 210.957,359.562 211.680,359.819 212.403,360.074 213.127,360.326 213.850,360.576 214.573,360.824 215.297,361.070 216.020,361.313 216.743,361.554 217.467,361.793 218.190,362.029 218.913,362.264 219.637,362.496 220.360,362.725 221.083,362.953 221.807,363.178 222.530,363.401 223.253,363.621 223.977,363.839 224.700,364.055 225.423,364.269 226.147,364.480 226.870,364.689 227.593,364.896 228.317,365.101 229.040,365.303 229.763,365.503 230.487,365.700 231.210,365.895 231.933,366.088 232.657,366.279 233.380,366.467 234.103,366.653 234.827,366.836 235.550,367.017 236.273,367.196 236.997,367.373 237.720,367.547 238.443,367.719 239.167,367.888 239.890,368.055 240.613,368.220 241.337,368.383 242.060,368.543 242.783,368.701 243.507,368.856 244.230,369.009 244.953,369.159 245.677,369.308 246.400,369.454 247.123,369.597 247.847,369.738 248.570,369.877 249.293,370.013 250.017,370.147 250.740,370.279 251.463,370.408 252.187,370.535 252.910,370.659 253.633,370.781 254.357,370.901 255.080,371.018 255.803,371.133 256.527,371.245 257.250,371.355 257.973,371.463 258.697,371.568 259.420,371.671 260.143,371.771 260.867,371.869 261.590,371.964 262.313,372.057 263.037,372.148 263.760,372.236 264.483,372.322 265.207,372.405 265.930,372.486 266.653,372.564 267.377,372.640 268.100,372.713 268.823,372.784 269.547,372.853 270.270,372.919 270.993,372.983 271.717,373.044 272.440,373.103 273.163,373.159 273.887,373.213 274.610,373.265 275.333,373.314 276.057,373.361 276.780,373.405 277.503,373.447 278.227,373.487 278.950,373.524 279.673,373.559 280.397,373.592 281.120,373.622 281.843,373.650 282.567,373.676 283.290,373.699 284.013,373.720 284.737,373.739 285.460,373.755 286.183,373.768 286.907,373.780 287.630,373.789 288.353,373.795 289.077,373.799 289.800,373.800 290.523,373.799 291.247,373.795 291.970,373.789 292.693,373.780 293.417,373.769 294.140,373.755 294.863,373.739 295.587,373.720 296.310,373.699 297.033,373.676 297.757,373.650 298.480,373.622 299.203,373.592 299.927,373.559 300.650,373.524 301.373,373.486 302.097,373.447 302.820,373.405 303.543,373.360 304.267,373.313 304.990,373.264 305.713,373.212 306.437,373.158 307.160,373.102 307.883,373.043 308.607,372.982 309.330,372.918 310.053,372.852 310.777,372.784 311.500,372.713 312.223,372.640 312.947,372.565 313.670,372.487 314.393,372.406 315.117,372.324 315.840,372.239 316.563,372.151 317.287,372.061 318.010,371.969 318.733,371.874 319.457,371.777 320.180,371.677 320.903,371.575 321.627,371.471 322.350,371.364 323.073,371.255 323.797,371.144 324.520,371.030 325.243,370.913 325.967,370.795 326.690,370.673 327.413,370.550 328.137,370.424 328.860,370.295 329.583,370.165 330.307,370.032 331.030,369.896 331.753,369.758 332.477,369.618 333.200,369.475 333.923,369.330 334.647,369.182 335.370,369.032 336.093,368.880 336.817,368.725 337.540,368.568 338.263,368.408 338.987,368.246 339.710,368.082 340.433,367.915 341.157,367.746 341.880,367.574 342.603,367.400 343.327,367.224 344.050,367.045 344.773,366.864 345.497,366.680 346.220,366.494 346.943,366.306 347.667,366.115 348.390,365.921 349.113,365.726 349.837,365.528 350.560,365.327 351.283,365.124 352.007,364.919 352.730,364.712 353.453,364.501 354.177,364.289 354.900,364.074 355.623,363.857 356.347,363.637 357.070,363.415 357.793,363.190 358.517,362.964 359.240,362.734 359.963,362.503 360.687,362.268 361.410,362.032 362.133,361.793 362.857,361.552 363.580,361.308 364.303,361.062 365.027,360.813 365.750,360.562 366.473,360.309 367.197,360.053 367.920,359.795 368.643,359.534 369.367,359.272 370.090,359.006 370.813,358.739 371.537,358.469 372.260,358.196 372.983,357.921 373.707,357.644 374.430,357.365 375.153,357.083 375.877,356.799 376.600,356.512 377.323,356.223 378.047,355.932 378.770,355.638 379.493,355.342 380.217,355.044 380.940,354.743 381.663,354.440 382.387,354.134 383.110,353.827 383.833,353.517 384.557,353.204 385.280,352.889 386.003,352.572 386.727,352.253 387.450,351.931 388.173,351.607 388.897,351.281 389.620,350.952 390.343,350.621 391.067,350.288 391.790,349.952 392.513,349.614 393.237,349.274 393.960,348.931 394.683,348.586 395.407,348.239 396.130,347.890 396.853,347.538 397.577,347.184 398.300,346.828 399.023,346.469 399.747,346.108 400.470,345.745 401.193,345.379 401.917,345.012 402.640,344.642 403.363,344.269 404.087,343.895 404.810,343.518 405.533,343.139 406.257,342.757 406.980,342.374 407.703,341.988 408.427,341.600 409.150,341.209 409.873,340.816 410.597,340.422 411.320,340.024 412.043,339.625 412.767,339.223 413.490,338.819 414.213,338.413 414.937,338.005 415.660,337.594 416.383,337.181 417.107,336.766 417.830,336.349 418.553,335.930 419.277,335.508 420.000,335.084 420.723,334.658 421.447,334.229 422.170,333.799 422.893,333.366 423.617,332.931 424.340,332.494 425.063,332.054 425.787,331.612 426.510,331.169 427.233,330.723 427.957,330.274 428.680,329.824 429.403,329.371 430.127,328.917 430.850,328.460 431.573,328.000 432.297,327.539 433.020,327.076 433.743,326.610 434.467,326.142 435.190,325.672 435.913,325.200 436.637,324.725 437.360,324.249 438.083,323.770 438.807,323.289 439.530,322.806 440.253,322.321 440.977,321.833 441.700,321.344 442.423,320.852 443.147,320.358 443.870,319.862 444.593,319.364 445.317,318.864 446.040,318.361 446.763,317.856 447.487,317.349 448.210,316.840 448.933,316.329 449.657,315.816 450.380,315.300 451.103,314.782 451.827,314.263 452.550,313.740 453.273,313.216 453.997,312.690 454.720,312.161 455.443,311.631 456.167,311.098 456.890,310.563 457.613,310.026 458.337,309.486 459.060,308.945 459.783,308.401 460.507,307.855 461.230,307.307 461.953,306.757 462.677,306.205 463.400,305.650 464.123,305.094 464.847,304.535 465.570,303.974 466.293,303.411 467.017,302.846 467.740,302.278 468.463,301.709 469.187,301.137 469.910,300.563 470.633,299.987 471.357,299.409 472.080,298.828 472.803,298.246 473.527,297.661 474.250,297.074 474.973,296.485 475.697,295.894 476.420,295.301 477.143,294.705 477.867,294.108 478.590,293.508 479.313,292.906 480.037,292.302 480.760,291.696 481.483,291.087 482.207,290.477 482.930,289.864 483.653,289.249 484.377,288.632 485.100,288.013 485.823,287.392 486.547,286.768 487.270,286.143 487.993,285.515 488.717,284.885 489.440,284.253 490.163,283.619 490.887,282.983 491.610,282.344 492.333,281.704 493.057,281.061 493.780,280.416 494.503,279.769 495.227,279.120 495.950,278.468 496.673,277.815 497.397,277.159 498.120,276.501 498.843,275.841 499.567,275.179 500.290,274.515 501.013,273.848 501.737,273.180 502.460,272.509 503.183,271.836 503.907,271.161 504.630,270.484 505.353,269.805 506.077,269.124 506.800,268.440 "/>
<g>
</g>
</g>
<g id="ID000009" >
  <g transform="translate(289.300,215.990)">
    <g transform="rotate(-0.0)">
      <text x="0.000" y="0.000" font-family="Helvetica" text-anchor="middle" font-size="16pt" fill="#000000" >Normal Force</text>
    </g>
  </g>
</g>
<g id="ID000010" >
  <g transform="translate(289.300,418.559)">
    <g transform="rotate(-0.0)">
      <text x="0.000" y="0.000" font-family="Helvetica" text-anchor="middle" font-size="16pt" fill="#000000" >Array Speed (rad/s)</text>
    </g>
  </g>
</g>
<g id="ID000011" >
  <g transform="translate(47.300,303.158)">
    <g transform="rotate(-90.0)">
      <text x="0.000" y="0.000" font-family="Helvetica" text-anchor="middle" font-size="16pt" fill="#000000" >Force (N)</text>
    </g>
  </g>
</g>
    </g>
    <g>
      <polyline fill="none" stroke="#000000" stroke-width="0.5pt" stroke-dasharray="none" points="145.133,373.800 145.133,369.460 "/>
      <polyline fill="none" stroke="#000000" stroke-width="0.5pt" stroke-dasharray="none" points="217.467,373.800 217.467,369.460 "/>
      <polyline fill="none" stroke="#000000" stroke-width="0.5pt" stroke-dasharray="none" points="289.800,373.800 289.800,369.460 "/>
      <polyline fill="none" stroke="#000000" stroke-width="0.5pt" stroke-dasharray="none" points="362.133,373.800 362.133,369.460 "/>
      <polyline fill="none" stroke="#000000" stroke-width="0.5pt" stroke-dasharray="none" points="434.467,373.800 434.467,369.460 "/>
      <polyline fill="none" stroke="#000000" stroke-width="0.5pt" stroke-dasharray="none" points="72.800,373.800 506.800,373.800 "/>
      <polyline fill="none" stroke="#000000" stroke-width="0.5pt" stroke-dasharray="none" points="145.133,230.512 145.133,234.852 "/>
      <polyline fill="none" stroke="#000000" stroke-width="0.5pt" stroke-dasharray="none" points="217.467,230.512 217.467,234.852 "/>
      <polyline fill="none" stroke="#000000" stroke-width="0.5pt" stroke-dasharray="none" points="289.800,230.512 289.800,234.852 "/>
      <polyline fill="none" stroke="#000000" stroke-width="0.5pt" stroke-dasharray="none" points="362.133,230.512 362.133,234.852 "/>
      <polyline fill="none" stroke="#000000" stroke-width="0.5pt" stroke-dasharray="none" points="434.467,230.512 434.467,234.852 "/>
      <polyline fill="none" stroke="#000000" stroke-width="0.5pt" stroke-dasharray="none" points="72.800,230.512 506.800,230.512 "/>
  <g transform="translate(72.800,395.546)">
    <g transform="rotate(-0.0)">
      <text x="0.000" y="0.000" font-family="Helvetica" text-anchor="middle" font-size="16pt" fill="#000000" >-300</text>
    </g>
  </g>
  <g transform="translate(145.133,395.546)">
    <g transform="rotate(-0.0)">
      <text x="0.000" y="0.000" font-family="Helvetica" text-anchor="middle" font-size="16pt" fill="#000000" >-200</text>
    </g>
  </g>
  <g transform="translate(217.467,395.546)">
    <g transform="rotate(-0.0)">
      <text x="0.000" y="0.000" font-family="Helvetica" text-anchor="middle" font-size="16pt" fill="#000000" >-100</text>
    </g>
  </g>
  <g transform="translate(289.800,395.546)">
    <g transform="rotate(-0.0)">
      <text x="0.000" y="0.000" font-family="Helvetica" text-anchor="middle" font-size="16pt" fill="#000000" >0</text>
    </g>
  </g>
  <g transform="translate(362.133,395.546)">
    <g transform="rotate(-0.0)">
      <text x="0.000" y="0.000" font-family="Helvetica" text-anchor="middle" font-size="16pt" fill="#000000" >100</text>
    </g>
  </g>
  <g transform="translate(434.467,395.546)">
    <g transform="rotate(-0.0)">
      <text x="0.000" y="0.000" font-family="Helvetica" text-anchor="middle" font-size="16pt" fill="#000000" >200</text>
    </g>
  </g>
  <g transform="translate(506.800,395.546)">
    <g transform="rotate(-0.0)">
      <text x="0.000" y="0.000" font-family="Helvetica" text-anchor="middle" font-size="16pt" fill="#000000" >300</text>
    </g>
  </g>
      <polyline fill="none" stroke="#000000" stroke-width="0.5pt" stroke-dasharray="none" points="72.800,326.037 77.140,326.037 "/>
      <polyline fill="none" stroke="#000000" stroke-width="0.5pt" stroke-dasharray="none" points="72.800,278.274 77.140,278.274 "/>
      <polyline fill="none" stroke="#000000" stroke-width="0.5pt" stroke-dasharray="none" points="72.800,373.800 72.800,230.512 "/>
      <polyline fill="none" stroke="#000000" stroke-width="0.5pt" stroke-dasharray="none" points="506.800,326.037 502.460,326.037 "/>
      <polyline fill="none" stroke="#000000" stroke-width="0.5pt" stroke-dasharray="none" points="506.800,278.274 502.460,278.274 "/>
      <polyline fill="none" stroke="#000000" stroke-width="0.5pt" stroke-dasharray="none" points="506.800,373.800 506.800,230.512 "/>
  <g transform="translate(64.120,381.000)">
    <g transform="rotate(-0.0)">
      <text x="0.000" y="0.000" font-family="Helvetica" text-anchor="end" font-size="16pt" fill="#000000" >0</text>
    </g>
  </g>
  <g transform="translate(64.120,333.237)">
    <g transform="rotate(-0.0)">
      <text x="0.000" y="0.000" font-family="Helvetica" text-anchor="end" font-size="16pt" fill="#000000" >1</text>
    </g>
  </g>
  <g transform="translate(64.120,285.474)">
    <g transform="rotate(-0.0)">
      <text x="0.000" y="0.000" font-family="Helvetica" text-anchor="end" font-size="16pt" fill="#000000" >2</text>
    </g>
  </g>
  <g transform="translate(64.120,237.712)">
    <g transform="rotate(-0.0)">
      <text x="0.000" y="0.000" font-family="Helvetica" text-anchor="end" font-size="16pt" fill="#000000" >3</text>
    </g>
  </g>
      <polyline fill="none" stroke="#000000" stroke-width="0.5pt" stroke-dasharray="none" points="72.800,373.800 72.800,372.367 "/>
      <polyline fill="none" stroke="#000000" stroke-width="0.5pt" stroke-dasharray="none" points="72.800,373.800 72.800,373.800 "/>
  <g transform="translate(72.800,218.512)">
    <g transform="rotate(-0.0)">
      <text x="0.000" y="0.000" font-family="Helvetica" text-anchor="start" font-size="16pt" fill="#000000" >&#215; 10<tspan font-size="11.2pt" dy="-11.2pt">-3</tspan></text>
    </g>
  </g>
    </g>
  </g>
  </g>
</svg>
