<?xml version="1.0" encoding="UTF-8" standalone="no"?>
<!-- Created with Inkscape (http://www.inkscape.org/) -->

<svg
   xmlns:dc="http://purl.org/dc/elements/1.1/"
   xmlns:cc="http://creativecommons.org/ns#"
   xmlns:rdf="http://www.w3.org/1999/02/22-rdf-syntax-ns#"
   xmlns:svg="http://www.w3.org/2000/svg"
   xmlns="http://www.w3.org/2000/svg"
   version="1.1"
   width="870"
   height="662.5"
   id="svg10836"
   xml:space="preserve"><metadata
     id="metadata10842"><rdf:RDF><cc:Work
         rdf:about=""><dc:format>image/svg+xml</dc:format><dc:type
           rdf:resource="http://purl.org/dc/dcmitype/StillImage" /><dc:title></dc:title></cc:Work></rdf:RDF></metadata><defs
     id="defs10840"><clipPath
       id="clipPath10852"><path
         d="m 0,0 6960,0 0,5299.21 -6960,0 L 0,0 z"
         id="path10854" /></clipPath><clipPath
       id="clipPath11062"><path
         d="m 907.203,4905.61 0,-4324.809 5395.207,0 0,4324.809 -5395.207,0 z"
         id="path11064" /></clipPath><clipPath
       id="clipPath11086"><path
         d="m 0,0 0,5300 6960,0 L 6960,0 0,0 z"
         id="path11088" /></clipPath><clipPath
       id="clipPath11134"><path
         d="m 4646.41,4852.8 0,-432 1608,0 0,432 -1608,0 z"
         id="path11136" /></clipPath><clipPath
       id="clipPath11144"><path
         d="m 0,0 0,5300 6960,0 L 6960,0 0,0 z"
         id="path11146" /></clipPath><clipPath
       id="clipPath11158"><path
         d="m 4646.41,4852.8 0,-432 1608,0 0,432 -1608,0 z"
         id="path11160" /></clipPath></defs><g
     transform="matrix(1.25,0,0,-1.25,0,662.5)"
     id="g10844"><g
       transform="scale(0.1,0.1)"
       id="g10846"><g
         id="g10848"><g
           clip-path="url(#clipPath10852)"
           id="g10850"><path
             d="m 907.203,580.801 0,4319.999 5390.407,0 0,-4319.999 -5390.407,0"
             id="path10856"
             style="fill:none;stroke:#ffffff;stroke-width:5.00002003;stroke-linecap:butt;stroke-linejoin:round;stroke-miterlimit:10;stroke-opacity:1;stroke-dasharray:none" /><path
             d="m 907.203,580.801 5390.407,0"
             id="path10858"
             style="fill:none;stroke:#000000;stroke-width:5.00002003;stroke-linecap:butt;stroke-linejoin:round;stroke-miterlimit:10;stroke-opacity:1;stroke-dasharray:none" /><path
             d="m 907.203,4900.8 5390.407,0"
             id="path10860"
             style="fill:none;stroke:#000000;stroke-width:5.00002003;stroke-linecap:butt;stroke-linejoin:round;stroke-miterlimit:10;stroke-opacity:1;stroke-dasharray:none" /><path
             d="m 907.203,580.801 0,4319.999"
             id="path10862"
             style="fill:none;stroke:#000000;stroke-width:5.00002003;stroke-linecap:butt;stroke-linejoin:round;stroke-miterlimit:10;stroke-opacity:1;stroke-dasharray:none" /><path
             d="m 6297.61,580.801 0,4319.999"
             id="path10864"
             style="fill:none;stroke:#000000;stroke-width:5.00002003;stroke-linecap:butt;stroke-linejoin:round;stroke-miterlimit:10;stroke-opacity:1;stroke-dasharray:none" /><path
             d="m 907.203,580.801 5390.407,0"
             id="path10866"
             style="fill:none;stroke:#000000;stroke-width:5.00002003;stroke-linecap:butt;stroke-linejoin:round;stroke-miterlimit:10;stroke-opacity:1;stroke-dasharray:none" /><path
             d="m 907.203,580.801 0,4319.999"
             id="path10868"
             style="fill:none;stroke:#000000;stroke-width:5.00002003;stroke-linecap:butt;stroke-linejoin:round;stroke-miterlimit:10;stroke-opacity:1;stroke-dasharray:none" /><path
             d="m 907.203,580.801 0,57.597"
             id="path10870"
             style="fill:none;stroke:#000000;stroke-width:5.00002003;stroke-linecap:butt;stroke-linejoin:round;stroke-miterlimit:10;stroke-opacity:1;stroke-dasharray:none" /><path
             d="m 907.203,4900.8 0,-52.79"
             id="path10872"
             style="fill:none;stroke:#000000;stroke-width:5.00002003;stroke-linecap:butt;stroke-linejoin:round;stroke-miterlimit:10;stroke-opacity:1;stroke-dasharray:none" /><g
             transform="scale(10,10)"
             id="g10874"><text
               transform="matrix(1,0,0,-1,86.4,40.3199)"
               id="text10876"><tspan
                 x="0"
                 y="0"
                 id="tspan10878"
                 style="font-size:16px;font-variant:normal;font-weight:normal;writing-mode:lr-tb;fill:#000000;fill-opacity:1;fill-rule:nonzero;stroke:none;font-family:Helvetica;-inkscape-font-specification:Helvetica">0</tspan></text>
</g><path
             d="m 1804.8,580.801 0,57.597"
             id="path10880"
             style="fill:none;stroke:#000000;stroke-width:5.00002003;stroke-linecap:butt;stroke-linejoin:round;stroke-miterlimit:10;stroke-opacity:1;stroke-dasharray:none" /><path
             d="m 1804.8,4900.8 0,-52.79"
             id="path10882"
             style="fill:none;stroke:#000000;stroke-width:5.00002003;stroke-linecap:butt;stroke-linejoin:round;stroke-miterlimit:10;stroke-opacity:1;stroke-dasharray:none" /><g
             transform="scale(10,10)"
             id="g10884"><text
               transform="matrix(1,0,0,-1,171.84,40.3199)"
               id="text10886"><tspan
                 x="0 8.8959999"
                 y="0"
                 id="tspan10888"
                 style="font-size:16px;font-variant:normal;font-weight:normal;writing-mode:lr-tb;fill:#000000;fill-opacity:1;fill-rule:nonzero;stroke:none;font-family:Helvetica;-inkscape-font-specification:Helvetica">50</tspan></text>
</g><path
             d="m 2702.41,580.801 0,57.597"
             id="path10890"
             style="fill:none;stroke:#000000;stroke-width:5.00002003;stroke-linecap:butt;stroke-linejoin:round;stroke-miterlimit:10;stroke-opacity:1;stroke-dasharray:none" /><path
             d="m 2702.41,4900.8 0,-52.79"
             id="path10892"
             style="fill:none;stroke:#000000;stroke-width:5.00002003;stroke-linecap:butt;stroke-linejoin:round;stroke-miterlimit:10;stroke-opacity:1;stroke-dasharray:none" /><g
             transform="scale(10,10)"
             id="g10894"><text
               transform="matrix(1,0,0,-1,257.28,40.3199)"
               id="text10896"><tspan
                 x="0 8.8959999 17.792"
                 y="0"
                 id="tspan10898"
                 style="font-size:16px;font-variant:normal;font-weight:normal;writing-mode:lr-tb;fill:#000000;fill-opacity:1;fill-rule:nonzero;stroke:none;font-family:Helvetica;-inkscape-font-specification:Helvetica">100</tspan></text>
</g><path
             d="m 3600.01,580.801 0,57.597"
             id="path10900"
             style="fill:none;stroke:#000000;stroke-width:5.00002003;stroke-linecap:butt;stroke-linejoin:round;stroke-miterlimit:10;stroke-opacity:1;stroke-dasharray:none" /><path
             d="m 3600.01,4900.8 0,-52.79"
             id="path10902"
             style="fill:none;stroke:#000000;stroke-width:5.00002003;stroke-linecap:butt;stroke-linejoin:round;stroke-miterlimit:10;stroke-opacity:1;stroke-dasharray:none" /><g
             transform="scale(10,10)"
             id="g10904"><text
               transform="matrix(1,0,0,-1,347.041,40.3199)"
               id="text10906"><tspan
                 x="0 8.8959999 17.792"
                 y="0"
                 id="tspan10908"
                 style="font-size:16px;font-variant:normal;font-weight:normal;writing-mode:lr-tb;fill:#000000;fill-opacity:1;fill-rule:nonzero;stroke:none;font-family:Helvetica;-inkscape-font-specification:Helvetica">150</tspan></text>
</g><path
             d="m 4497.61,580.801 0,57.597"
             id="path10910"
             style="fill:none;stroke:#000000;stroke-width:5.00002003;stroke-linecap:butt;stroke-linejoin:round;stroke-miterlimit:10;stroke-opacity:1;stroke-dasharray:none" /><path
             d="m 4497.61,4900.8 0,-52.79"
             id="path10912"
             style="fill:none;stroke:#000000;stroke-width:5.00002003;stroke-linecap:butt;stroke-linejoin:round;stroke-miterlimit:10;stroke-opacity:1;stroke-dasharray:none" /><g
             transform="scale(10,10)"
             id="g10914"><text
               transform="matrix(1,0,0,-1,436.801,40.3199)"
               id="text10916"><tspan
                 x="0 8.8959999 17.792"
                 y="0"
                 id="tspan10918"
                 style="font-size:16px;font-variant:normal;font-weight:normal;writing-mode:lr-tb;fill:#000000;fill-opacity:1;fill-rule:nonzero;stroke:none;font-family:Helvetica;-inkscape-font-specification:Helvetica">200</tspan></text>
</g><path
             d="m 5395.21,580.801 0,57.597"
             id="path10920"
             style="fill:none;stroke:#000000;stroke-width:5.00002003;stroke-linecap:butt;stroke-linejoin:round;stroke-miterlimit:10;stroke-opacity:1;stroke-dasharray:none" /><path
             d="m 5395.21,4900.8 0,-52.79"
             id="path10922"
             style="fill:none;stroke:#000000;stroke-width:5.00002003;stroke-linecap:butt;stroke-linejoin:round;stroke-miterlimit:10;stroke-opacity:1;stroke-dasharray:none" /><g
             transform="scale(10,10)"
             id="g10924"><text
               transform="matrix(1,0,0,-1,526.561,40.3199)"
               id="text10926"><tspan
                 x="0 8.8959999 17.792"
                 y="0"
                 id="tspan10928"
                 style="font-size:16px;font-variant:normal;font-weight:normal;writing-mode:lr-tb;fill:#000000;fill-opacity:1;fill-rule:nonzero;stroke:none;font-family:Helvetica;-inkscape-font-specification:Helvetica">250</tspan></text>
</g><path
             d="m 6297.61,580.801 0,57.597"
             id="path10930"
             style="fill:none;stroke:#000000;stroke-width:5.00002003;stroke-linecap:butt;stroke-linejoin:round;stroke-miterlimit:10;stroke-opacity:1;stroke-dasharray:none" /><path
             d="m 6297.61,4900.8 0,-52.79"
             id="path10932"
             style="fill:none;stroke:#000000;stroke-width:5.00002003;stroke-linecap:butt;stroke-linejoin:round;stroke-miterlimit:10;stroke-opacity:1;stroke-dasharray:none" /><g
             transform="scale(10,10)"
             id="g10934"><text
               transform="matrix(1,0,0,-1,616.801,40.3199)"
               id="text10936"><tspan
                 x="0 8.8959999 17.792"
                 y="0"
                 id="tspan10938"
                 style="font-size:16px;font-variant:normal;font-weight:normal;writing-mode:lr-tb;fill:#000000;fill-opacity:1;fill-rule:nonzero;stroke:none;font-family:Helvetica;-inkscape-font-specification:Helvetica">300</tspan></text>
</g><path
             d="m 907.203,787.199 52.797,0"
             id="path10940"
             style="fill:none;stroke:#000000;stroke-width:5.00002003;stroke-linecap:butt;stroke-linejoin:round;stroke-miterlimit:10;stroke-opacity:1;stroke-dasharray:none" /><path
             d="m 6297.61,787.199 -57.6,0"
             id="path10942"
             style="fill:none;stroke:#000000;stroke-width:5.00002003;stroke-linecap:butt;stroke-linejoin:round;stroke-miterlimit:10;stroke-opacity:1;stroke-dasharray:none" /><g
             transform="scale(10,10)"
             id="g10944"><text
               transform="matrix(1,0,0,-1,79.2,72.9598)"
               id="text10946"><tspan
                 x="0"
                 y="0"
                 id="tspan10948"
                 style="font-size:16px;font-variant:normal;font-weight:normal;writing-mode:lr-tb;fill:#000000;fill-opacity:1;fill-rule:nonzero;stroke:none;font-family:Helvetica;-inkscape-font-specification:Helvetica">0</tspan></text>
</g><path
             d="M 907.203,1200 960,1200"
             id="path10950"
             style="fill:none;stroke:#000000;stroke-width:5.00002003;stroke-linecap:butt;stroke-linejoin:round;stroke-miterlimit:10;stroke-opacity:1;stroke-dasharray:none" /><path
             d="m 6297.61,1200 -57.6,0"
             id="path10952"
             style="fill:none;stroke:#000000;stroke-width:5.00002003;stroke-linecap:butt;stroke-linejoin:round;stroke-miterlimit:10;stroke-opacity:1;stroke-dasharray:none" /><g
             transform="scale(10,10)"
             id="g10954"><text
               transform="matrix(1,0,0,-1,57.1199,114.24)"
               id="text10956"><tspan
                 x="0 8.8959999 13.344 22.24"
                 y="0"
                 id="tspan10958"
                 style="font-size:16px;font-variant:normal;font-weight:normal;writing-mode:lr-tb;fill:#000000;fill-opacity:1;fill-rule:nonzero;stroke:none;font-family:Helvetica;-inkscape-font-specification:Helvetica">0.02</tspan></text>
</g><path
             d="m 907.203,1612.8 52.797,0"
             id="path10960"
             style="fill:none;stroke:#000000;stroke-width:5.00002003;stroke-linecap:butt;stroke-linejoin:round;stroke-miterlimit:10;stroke-opacity:1;stroke-dasharray:none" /><path
             d="m 6297.61,1612.8 -57.6,0"
             id="path10962"
             style="fill:none;stroke:#000000;stroke-width:5.00002003;stroke-linecap:butt;stroke-linejoin:round;stroke-miterlimit:10;stroke-opacity:1;stroke-dasharray:none" /><g
             transform="scale(10,10)"
             id="g10964"><text
               transform="matrix(1,0,0,-1,57.1199,155.52)"
               id="text10966"><tspan
                 x="0 8.8959999 13.344 22.24"
                 y="0"
                 id="tspan10968"
                 style="font-size:16px;font-variant:normal;font-weight:normal;writing-mode:lr-tb;fill:#000000;fill-opacity:1;fill-rule:nonzero;stroke:none;font-family:Helvetica;-inkscape-font-specification:Helvetica">0.04</tspan></text>
</g><path
             d="m 907.203,2020.8 52.797,0"
             id="path10970"
             style="fill:none;stroke:#000000;stroke-width:5.00002003;stroke-linecap:butt;stroke-linejoin:round;stroke-miterlimit:10;stroke-opacity:1;stroke-dasharray:none" /><path
             d="m 6297.61,2020.8 -57.6,0"
             id="path10972"
             style="fill:none;stroke:#000000;stroke-width:5.00002003;stroke-linecap:butt;stroke-linejoin:round;stroke-miterlimit:10;stroke-opacity:1;stroke-dasharray:none" /><g
             transform="scale(10,10)"
             id="g10974"><text
               transform="matrix(1,0,0,-1,57.1199,196.32)"
               id="text10976"><tspan
                 x="0 8.8959999 13.344 22.24"
                 y="0"
                 id="tspan10978"
                 style="font-size:16px;font-variant:normal;font-weight:normal;writing-mode:lr-tb;fill:#000000;fill-opacity:1;fill-rule:nonzero;stroke:none;font-family:Helvetica;-inkscape-font-specification:Helvetica">0.06</tspan></text>
</g><path
             d="m 907.203,2433.6 52.797,0"
             id="path10980"
             style="fill:none;stroke:#000000;stroke-width:5.00002003;stroke-linecap:butt;stroke-linejoin:round;stroke-miterlimit:10;stroke-opacity:1;stroke-dasharray:none" /><path
             d="m 6297.61,2433.6 -57.6,0"
             id="path10982"
             style="fill:none;stroke:#000000;stroke-width:5.00002003;stroke-linecap:butt;stroke-linejoin:round;stroke-miterlimit:10;stroke-opacity:1;stroke-dasharray:none" /><g
             transform="scale(10,10)"
             id="g10984"><text
               transform="matrix(1,0,0,-1,57.1199,237.6)"
               id="text10986"><tspan
                 x="0 8.8959999 13.344 22.24"
                 y="0"
                 id="tspan10988"
                 style="font-size:16px;font-variant:normal;font-weight:normal;writing-mode:lr-tb;fill:#000000;fill-opacity:1;fill-rule:nonzero;stroke:none;font-family:Helvetica;-inkscape-font-specification:Helvetica">0.08</tspan></text>
</g><path
             d="m 907.203,2846.4 52.797,0"
             id="path10990"
             style="fill:none;stroke:#000000;stroke-width:5.00002003;stroke-linecap:butt;stroke-linejoin:round;stroke-miterlimit:10;stroke-opacity:1;stroke-dasharray:none" /><path
             d="m 6297.61,2846.4 -57.6,0"
             id="path10992"
             style="fill:none;stroke:#000000;stroke-width:5.00002003;stroke-linecap:butt;stroke-linejoin:round;stroke-miterlimit:10;stroke-opacity:1;stroke-dasharray:none" /><g
             transform="scale(10,10)"
             id="g10994"><text
               transform="matrix(1,0,0,-1,65.7602,278.88)"
               id="text10996"><tspan
                 x="0 8.8959999 13.344"
                 y="0"
                 id="tspan10998"
                 style="font-size:16px;font-variant:normal;font-weight:normal;writing-mode:lr-tb;fill:#000000;fill-opacity:1;fill-rule:nonzero;stroke:none;font-family:Helvetica;-inkscape-font-specification:Helvetica">0.1</tspan></text>
</g><path
             d="m 907.203,3259.2 52.797,0"
             id="path11000"
             style="fill:none;stroke:#000000;stroke-width:5.00002003;stroke-linecap:butt;stroke-linejoin:round;stroke-miterlimit:10;stroke-opacity:1;stroke-dasharray:none" /><path
             d="m 6297.61,3259.2 -57.6,0"
             id="path11002"
             style="fill:none;stroke:#000000;stroke-width:5.00002003;stroke-linecap:butt;stroke-linejoin:round;stroke-miterlimit:10;stroke-opacity:1;stroke-dasharray:none" /><g
             transform="scale(10,10)"
             id="g11004"><text
               transform="matrix(1,0,0,-1,57.1199,320.161)"
               id="text11006"><tspan
                 x="0 8.8959999 13.344 22.24"
                 y="0"
                 id="tspan11008"
                 style="font-size:16px;font-variant:normal;font-weight:normal;writing-mode:lr-tb;fill:#000000;fill-opacity:1;fill-rule:nonzero;stroke:none;font-family:Helvetica;-inkscape-font-specification:Helvetica">0.12</tspan></text>
</g><path
             d="m 907.203,3667.2 52.797,0"
             id="path11010"
             style="fill:none;stroke:#000000;stroke-width:5.00002003;stroke-linecap:butt;stroke-linejoin:round;stroke-miterlimit:10;stroke-opacity:1;stroke-dasharray:none" /><path
             d="m 6297.61,3667.2 -57.6,0"
             id="path11012"
             style="fill:none;stroke:#000000;stroke-width:5.00002003;stroke-linecap:butt;stroke-linejoin:round;stroke-miterlimit:10;stroke-opacity:1;stroke-dasharray:none" /><g
             transform="scale(10,10)"
             id="g11014"><text
               transform="matrix(1,0,0,-1,57.1199,360.961)"
               id="text11016"><tspan
                 x="0 8.8959999 13.344 22.24"
                 y="0"
                 id="tspan11018"
                 style="font-size:16px;font-variant:normal;font-weight:normal;writing-mode:lr-tb;fill:#000000;fill-opacity:1;fill-rule:nonzero;stroke:none;font-family:Helvetica;-inkscape-font-specification:Helvetica">0.14</tspan></text>
</g><path
             d="M 907.203,4080 960,4080"
             id="path11020"
             style="fill:none;stroke:#000000;stroke-width:5.00002003;stroke-linecap:butt;stroke-linejoin:round;stroke-miterlimit:10;stroke-opacity:1;stroke-dasharray:none" /><path
             d="m 6297.61,4080 -57.6,0"
             id="path11022"
             style="fill:none;stroke:#000000;stroke-width:5.00002003;stroke-linecap:butt;stroke-linejoin:round;stroke-miterlimit:10;stroke-opacity:1;stroke-dasharray:none" /><g
             transform="scale(10,10)"
             id="g11024"><text
               transform="matrix(1,0,0,-1,57.1199,402.241)"
               id="text11026"><tspan
                 x="0 8.8959999 13.344 22.24"
                 y="0"
                 id="tspan11028"
                 style="font-size:16px;font-variant:normal;font-weight:normal;writing-mode:lr-tb;fill:#000000;fill-opacity:1;fill-rule:nonzero;stroke:none;font-family:Helvetica;-inkscape-font-specification:Helvetica">0.16</tspan></text>
</g><path
             d="m 907.203,4492.8 52.797,0"
             id="path11030"
             style="fill:none;stroke:#000000;stroke-width:5.00002003;stroke-linecap:butt;stroke-linejoin:round;stroke-miterlimit:10;stroke-opacity:1;stroke-dasharray:none" /><path
             d="m 6297.61,4492.8 -57.6,0"
             id="path11032"
             style="fill:none;stroke:#000000;stroke-width:5.00002003;stroke-linecap:butt;stroke-linejoin:round;stroke-miterlimit:10;stroke-opacity:1;stroke-dasharray:none" /><g
             transform="scale(10,10)"
             id="g11034"><text
               transform="matrix(1,0,0,-1,57.1199,443.521)"
               id="text11036"><tspan
                 x="0 8.8959999 13.344 22.24"
                 y="0"
                 id="tspan11038"
                 style="font-size:16px;font-variant:normal;font-weight:normal;writing-mode:lr-tb;fill:#000000;fill-opacity:1;fill-rule:nonzero;stroke:none;font-family:Helvetica;-inkscape-font-specification:Helvetica">0.18</tspan></text>
</g><path
             d="m 907.203,4900.8 52.797,0"
             id="path11040"
             style="fill:none;stroke:#000000;stroke-width:5.00002003;stroke-linecap:butt;stroke-linejoin:round;stroke-miterlimit:10;stroke-opacity:1;stroke-dasharray:none" /><path
             d="m 6297.61,4900.8 -57.6,0"
             id="path11042"
             style="fill:none;stroke:#000000;stroke-width:5.00002003;stroke-linecap:butt;stroke-linejoin:round;stroke-miterlimit:10;stroke-opacity:1;stroke-dasharray:none" /><g
             transform="scale(10,10)"
             id="g11044"><text
               transform="matrix(1,0,0,-1,65.7602,484.321)"
               id="text11046"><tspan
                 x="0 8.8959999 13.344"
                 y="0"
                 id="tspan11048"
                 style="font-size:16px;font-variant:normal;font-weight:normal;writing-mode:lr-tb;fill:#000000;fill-opacity:1;fill-rule:nonzero;stroke:none;font-family:Helvetica;-inkscape-font-specification:Helvetica">0.2</tspan></text>
</g><path
             d="m 907.203,580.801 5390.407,0"
             id="path11050"
             style="fill:none;stroke:#000000;stroke-width:5.00002003;stroke-linecap:butt;stroke-linejoin:round;stroke-miterlimit:10;stroke-opacity:1;stroke-dasharray:none" /><path
             d="m 907.203,4900.8 5390.407,0"
             id="path11052"
             style="fill:none;stroke:#000000;stroke-width:5.00002003;stroke-linecap:butt;stroke-linejoin:round;stroke-miterlimit:10;stroke-opacity:1;stroke-dasharray:none" /><path
             d="m 907.203,580.801 0,4319.999"
             id="path11054"
             style="fill:none;stroke:#000000;stroke-width:5.00002003;stroke-linecap:butt;stroke-linejoin:round;stroke-miterlimit:10;stroke-opacity:1;stroke-dasharray:none" /><path
             d="m 6297.61,580.801 0,4319.999"
             id="path11056"
             style="fill:none;stroke:#000000;stroke-width:5.00002003;stroke-linecap:butt;stroke-linejoin:round;stroke-miterlimit:10;stroke-opacity:1;stroke-dasharray:none" /></g></g><g
         id="g11058"><g
           clip-path="url(#clipPath11062)"
           id="g11060"><path
             d="m 4516.81,3000 19.2,14.4 14.4,9.6 19.2,9.6 19.2,14.4 19.2,9.6 14.4,9.6 19.2,9.6 19.2,14.4 19.2,9.6 14.4,9.6 19.2,14.4 19.2,9.6 19.2,9.6 14.4,9.61 19.2,14.39 19.2,9.61 19.2,9.59 14.4,14.41 19.2,9.59 19.2,9.6 19.2,14.4 14.4,9.6 19.2,9.6 19.2,9.6 14.4,14.4 19.2,9.6 19.2,9.61 19.2,14.39 14.4,9.61 19.2,9.59 19.2,9.6 19.2,14.4 14.4,9.6 19.2,9.6 19.2,14.4 19.2,9.6 14.4,9.6 19.2,9.61 19.2,14.39 19.2,9.61 14.4,9.59 19.2,14.41 19.2,9.59 19.2,9.6 14.4,9.6 19.2,14.4 19.2,9.6 19.2,9.6 14.4,14.4 19.2,9.6 19.2,9.61 19.2,9.59 14.4,14.41 19.2,9.59 19.2,9.6 19.2,14.4 14.4,9.6 19.2,9.61 19.2,14.39 19.2,9.61 14.4,9.59 19.2,9.61 19.2,14.39 14.4,9.61 19.2,9.59 19.2,14.41 19.2,9.59 14.4,9.6 19.2,9.61 19.2,14.39 19.2,9.61 14.4,9.59 19.2,14.41 19.2,9.59 19.2,9.61 14.4,9.59 19.2,14.41 19.2,9.59 19.2,9.6 14.4,14.4 19.2,9.6 19.2,9.61 19.2,9.59 14.4,14.41 19.2,9.59 19.2,9.61 19.2,14.39 14.4,9.61 19.2,9.59 19.2,9.6 19.2,14.4 14.4,9.6 19.2,9.61 19.2,14.39 19.2,9.61 14.4,9.59 19.2,9.61 19.2,14.39 19.2,9.61"
             id="path11066"
             style="fill:none;stroke:#0000ff;stroke-width:20;stroke-linecap:butt;stroke-linejoin:round;stroke-miterlimit:10;stroke-opacity:1;stroke-dasharray:60;stroke-dashoffset:0" /><path
             d="m 2736,1910.4 19.2,14.4 19.21,9.6 19.2,9.6 14.39,14.4 19.2,9.6 19.21,9.6 19.2,9.6 14.39,14.4 19.2,9.6 19.21,9.6 14.39,14.4 19.2,9.6 19.2,9.6 19.21,14.4 14.39,9.6 19.2,9.6 19.2,9.6 19.21,14.4 14.39,9.6 19.2,9.6 19.2,14.4 19.21,9.6 14.39,9.6 19.2,9.6 19.21,14.4 19.2,9.6 14.39,9.6 19.2,14.4 19.21,9.6 19.2,9.6 14.39,9.6 19.2,14.4 19.21,9.6 19.2,9.6 14.39,14.4 19.2,9.6 19.21,9.6 19.2,14.4 14.39,9.6 19.2,9.6 19.21,9.6 19.2,14.4 14.39,9.6 19.2,9.6 19.21,14.4 19.2,9.6 14.39,9.6 19.21,9.6 19.2,14.4 14.4,9.6 19.19,9.6 19.21,14.4 19.2,9.6 14.4,9.6 19.19,14.4 19.21,9.6 19.2,9.6 14.4,9.6 19.19,14.4 19.21,9.6 19.2,9.6 14.4,14.4 19.19,9.6 19.21,9.6 19.2,9.6 14.4,14.4 19.19,9.6 19.21,9.6 19.2,14.4 14.4,9.6 19.19,9.6 19.21,14.4 19.2,9.6 14.4,9.6 19.2,9.6 19.2,14.4 19.2,9.6 14.4,9.6 19.2,14.4 19.2,9.6 19.2,9.6 14.4,9.6 19.2,14.4 19.2,9.6 19.2,9.6 14.4,14.4 19.2,9.6 19.2,9.6 14.4,9.6 19.2,14.4 19.2,9.6 19.2,9.6 14.4,14.4 19.2,9.6 19.2,9.6 19.2,14.4 14.4,9.6 19.2,9.6 19.2,9.6"
             id="path11068"
             style="fill:none;stroke:#0000ff;stroke-width:20;stroke-linecap:butt;stroke-linejoin:round;stroke-miterlimit:10;stroke-opacity:1;stroke-dasharray:60;stroke-dashoffset:0" /><path
             d="m 960,820.801 14.402,14.398 19.2,9.602 19.198,9.597 19.2,9.602 14.4,14.398 19.2,9.602 19.2,9.602 19.2,14.398 14.4,9.602 19.2,9.597 19.2,9.602 19.2,14.398 14.4,9.602 19.2,9.597 19.2,14.403 19.2,9.597 14.4,9.602 19.2,14.4 19.2,9.6 19.2,9.6 14.4,9.6 19.2,14.4 19.2,9.6 19.2,9.6 14.4,14.4 19.2,9.6 19.2,9.6 19.2,9.6 14.4,14.4 19.2,9.6 19.2,9.6 19.2,14.4 14.4,9.6 19.2,9.6 19.2,14.4 14.4,9.6 19.2,9.6 19.2,9.6 19.2,14.4 14.4,9.6 19.2,9.6 19.2,14.4 19.2,9.6 14.4,9.6 19.2,9.6 19.2,14.4 19.2,9.6 14.4,9.6 19.2,14.4 19.2,9.6 19.2,9.6 14.4,14.4 19.2,9.6 19.2,9.6 19.2,9.6 14.4,14.4 19.2,9.6 19.2,9.6 19.2,14.4 14.4,9.6 19.2,9.6 19.2,14.4 19.2,9.6 14.4,9.6 19.2,9.6 19.2,14.4 19.2,9.6 14.4,9.6 19.2,14.4 19.21,9.6 19.19,9.6 14.4,9.6 19.2,14.4 19.21,9.6 14.39,9.6 19.2,14.4 19.2,9.6 19.21,9.6 14.39,14.4 19.2,9.6 19.2,9.6 19.21,9.6 14.39,14.4 19.2,9.6 19.2,9.6 19.21,14.4 14.39,9.6 19.2,9.6 19.2,9.6 19.21,14.4 14.39,9.6 19.2,9.6 19.2,14.4 19.21,9.6 14.39,9.6 19.2,14.4 19.21,9.6 19.2,9.6 14.39,9.6"
             id="path11070"
             style="fill:none;stroke:#0000ff;stroke-width:20;stroke-linecap:butt;stroke-linejoin:round;stroke-miterlimit:10;stroke-opacity:1;stroke-dasharray:60;stroke-dashoffset:0" /><path
             d="m 907.203,787.199 14.399,14.403 19.199,9.597 19.199,9.602"
             id="path11072"
             style="fill:none;stroke:#0000ff;stroke-width:20;stroke-linecap:butt;stroke-linejoin:round;stroke-miterlimit:10;stroke-opacity:1;stroke-dasharray:60;stroke-dashoffset:0" /><path
             d="m 4516.81,811.199 321.6,0 19.2,4.801 360,0 19.2,4.801 321.6,0 19.2,4.801 302.4,0 19.2,4.796 288,0 19.2,4.801 91.2,0"
             id="path11074"
             style="fill:none;stroke:#008000;stroke-width:20;stroke-linecap:butt;stroke-linejoin:round;stroke-miterlimit:10;stroke-opacity:1;stroke-dasharray:none" /><path
             d="m 2736,792 19.2,4.801 681.6,0 19.2,4.801 523.21,0 14.4,4.796 432,0 19.2,4.801 72,0"
             id="path11076"
             style="fill:none;stroke:#008000;stroke-width:20;stroke-linecap:butt;stroke-linejoin:round;stroke-miterlimit:10;stroke-opacity:1;stroke-dasharray:none" /><path
             d="m 960,787.199 590.4,0 19.2,4.801 1166.4,0"
             id="path11078"
             style="fill:none;stroke:#008000;stroke-width:20;stroke-linecap:butt;stroke-linejoin:round;stroke-miterlimit:10;stroke-opacity:1;stroke-dasharray:none" /><path
             d="m 907.203,787.199 52.797,0"
             id="path11080"
             style="fill:none;stroke:#008000;stroke-width:20;stroke-linecap:butt;stroke-linejoin:round;stroke-miterlimit:10;stroke-opacity:1;stroke-dasharray:none" /></g></g><g
         id="g11082"><g
           clip-path="url(#clipPath11086)"
           id="g11084"><g
             transform="scale(10,10)"
             id="g11090"><text
               transform="matrix(1,0,0,-1,289.92,24)"
               id="text11092"><tspan
                 x="0 10.672 16 21.327999 30.224001 38.223999 42.672001 53.344002 62.240002 71.136002 80.031998 88.928001 93.375999 98.704002 104.032 112.928 121.824 126.272 134.272"
                 y="0"
                 id="tspan11094"
                 style="font-size:16px;font-variant:normal;font-weight:normal;writing-mode:lr-tb;fill:#000000;fill-opacity:1;fill-rule:nonzero;stroke:none;font-family:Helvetica;-inkscape-font-specification:Helvetica">Array Speed (rad/s)</tspan></text>
<text
               transform="matrix(0,1,1,0,48.9602,240)"
               id="text11096"><tspan
                 x="0 9.776 18.672001 24 32 40.896 45.344002 50.672001 62.223999"
                 y="0"
                 id="tspan11098"
                 style="font-size:16px;font-variant:normal;font-weight:normal;writing-mode:lr-tb;fill:#000000;fill-opacity:1;fill-rule:nonzero;stroke:none;font-family:Helvetica;-inkscape-font-specification:Helvetica">Force (N)</tspan></text>
</g><path
             d="m 4646.41,4425.61 1603.2,0 0,427.199 -1603.2,0 0,-427.199 z"
             id="path11100"
             style="fill:#ffffff;fill-opacity:1;fill-rule:evenodd;stroke:none" /><path
             d="m 4646.41,4425.61 0,427.19 1603.2,0 0,-427.19 -1603.2,0"
             id="path11102"
             style="fill:none;stroke:#ffffff;stroke-width:5.00002003;stroke-linecap:butt;stroke-linejoin:round;stroke-miterlimit:10;stroke-opacity:1;stroke-dasharray:none" /><path
             d="m 4646.41,4425.61 1603.2,0"
             id="path11104"
             style="fill:none;stroke:#000000;stroke-width:5.00002003;stroke-linecap:butt;stroke-linejoin:round;stroke-miterlimit:10;stroke-opacity:1;stroke-dasharray:none" /><path
             d="m 4646.41,4852.8 1603.2,0"
             id="path11106"
             style="fill:none;stroke:#000000;stroke-width:5.00002003;stroke-linecap:butt;stroke-linejoin:round;stroke-miterlimit:10;stroke-opacity:1;stroke-dasharray:none" /><path
             d="m 4646.41,4425.61 0,427.19"
             id="path11108"
             style="fill:none;stroke:#000000;stroke-width:5.00002003;stroke-linecap:butt;stroke-linejoin:round;stroke-miterlimit:10;stroke-opacity:1;stroke-dasharray:none" /><path
             d="m 6249.61,4425.61 0,427.19"
             id="path11110"
             style="fill:none;stroke:#000000;stroke-width:5.00002003;stroke-linecap:butt;stroke-linejoin:round;stroke-miterlimit:10;stroke-opacity:1;stroke-dasharray:none" /><path
             d="m 4646.41,4425.61 1603.2,0"
             id="path11112"
             style="fill:none;stroke:#000000;stroke-width:5.00002003;stroke-linecap:butt;stroke-linejoin:round;stroke-miterlimit:10;stroke-opacity:1;stroke-dasharray:none" /><path
             d="m 4646.41,4425.61 0,427.19"
             id="path11114"
             style="fill:none;stroke:#000000;stroke-width:5.00002003;stroke-linecap:butt;stroke-linejoin:round;stroke-miterlimit:10;stroke-opacity:1;stroke-dasharray:none" /><path
             d="m 4646.41,4425.61 1603.2,0"
             id="path11116"
             style="fill:none;stroke:#000000;stroke-width:5.00002003;stroke-linecap:butt;stroke-linejoin:round;stroke-miterlimit:10;stroke-opacity:1;stroke-dasharray:none" /><path
             d="m 4646.41,4852.8 1603.2,0"
             id="path11118"
             style="fill:none;stroke:#000000;stroke-width:5.00002003;stroke-linecap:butt;stroke-linejoin:round;stroke-miterlimit:10;stroke-opacity:1;stroke-dasharray:none" /><path
             d="m 4646.41,4425.61 0,427.19"
             id="path11120"
             style="fill:none;stroke:#000000;stroke-width:5.00002003;stroke-linecap:butt;stroke-linejoin:round;stroke-miterlimit:10;stroke-opacity:1;stroke-dasharray:none" /><path
             d="m 6249.61,4425.61 0,427.19"
             id="path11122"
             style="fill:none;stroke:#000000;stroke-width:5.00002003;stroke-linecap:butt;stroke-linejoin:round;stroke-miterlimit:10;stroke-opacity:1;stroke-dasharray:none" /><g
             transform="scale(10,10)"
             id="g11124"><text
               transform="matrix(1,0,0,-1,503.041,468.001)"
               id="text11126"><tspan
                 x="0 9.776 18.672001 27.568001 36.464001 45.360001 54.256001 58.703999 62.256001 71.152 74.704002 79.152 88.928001 97.823997 103.152 111.152"
                 y="0"
                 id="tspan11128"
                 style="font-size:16px;font-variant:normal;font-weight:normal;writing-mode:lr-tb;fill:#000000;fill-opacity:1;fill-rule:nonzero;stroke:none;font-family:Helvetica;-inkscape-font-specification:Helvetica">Tangential Force</tspan></text>
</g></g></g><g
         id="g11130"><g
           clip-path="url(#clipPath11134)"
           id="g11132"><path
             d="m 4704.01,4742.41 292.8,0"
             id="path11138"
             style="fill:none;stroke:#0000ff;stroke-width:20;stroke-linecap:butt;stroke-linejoin:round;stroke-miterlimit:10;stroke-opacity:1;stroke-dasharray:60;stroke-dashoffset:0" /></g></g><g
         id="g11140"><g
           clip-path="url(#clipPath11144)"
           id="g11142"><g
             transform="scale(10,10)"
             id="g11148"><text
               transform="matrix(1,0,0,-1,503.041,447.841)"
               id="text11150"><tspan
                 x="0 11.552 20.448 25.775999 39.104 48 51.551998 56 65.776001 74.671997 80 88"
                 y="0"
                 id="tspan11152"
                 style="font-size:16px;font-variant:normal;font-weight:normal;writing-mode:lr-tb;fill:#000000;fill-opacity:1;fill-rule:nonzero;stroke:none;font-family:Helvetica;-inkscape-font-specification:Helvetica">Normal Force</tspan></text>
</g></g></g><g
         id="g11154"><g
           clip-path="url(#clipPath11158)"
           id="g11156"><path
             d="m 4704.01,4540.8 292.8,0"
             id="path11162"
             style="fill:none;stroke:#008000;stroke-width:20;stroke-linecap:butt;stroke-linejoin:round;stroke-miterlimit:10;stroke-opacity:1;stroke-dasharray:none" /></g></g></g></g></svg>