<?xml version="1.0" encoding="UTF-8" standalone="no"?>
<!-- Created with Inkscape (http://www.inkscape.org/) -->

<svg
   xmlns:dc="http://purl.org/dc/elements/1.1/"
   xmlns:cc="http://creativecommons.org/ns#"
   xmlns:rdf="http://www.w3.org/1999/02/22-rdf-syntax-ns#"
   xmlns:svg="http://www.w3.org/2000/svg"
   xmlns="http://www.w3.org/2000/svg"
   version="1.1"
   width="1567.8717"
   height="1413.5861"
   id="svg3921">
  <defs
     id="defs3923" />
  <metadata
     id="metadata3926">
    <rdf:RDF>
      <cc:Work
         rdf:about="">
        <dc:format>image/svg+xml</dc:format>
        <dc:type
           rdf:resource="http://purl.org/dc/dcmitype/StillImage" />
        <dc:title></dc:title>
      </cc:Work>
    </rdf:RDF>
  </metadata>
  <g
     transform="translate(912.50724,85.859375)"
     id="layer1">
    <path
       d="m 308.57143,323.79074 a 120,120 0 1 1 -240.000004,0 120,120 0 1 1 240.000004,0 z"
       transform="matrix(2.7156903,0,0,2.7156903,-1039.2444,-579.81032)"
       id="path3929-0-6"
       style="fill:none;stroke:#00eb00;stroke-width:43.80587387;stroke-linecap:butt;stroke-miterlimit:4;stroke-opacity:1;stroke-dasharray:none;stroke-dashoffset:0" />
    <path
       d="m 308.57143,323.79074 a 120,120 0 1 1 -240.000004,0 120,120 0 1 1 240.000004,0 z"
       transform="matrix(1.7696793,0,0,1.7696793,-853.71096,-280.64359)"
       id="path3929-2"
       style="fill:#afafaf;fill-opacity:1;stroke:#000000;stroke-width:5;stroke-linecap:butt;stroke-miterlimit:4;stroke-opacity:1;stroke-dasharray:none;stroke-dashoffset:0" />
    <path
       d="m 308.57143,323.79074 a 120,120 0 1 1 -240.000004,0 120,120 0 1 1 240.000004,0 z"
       transform="matrix(2.8969007,0,0,2.8969007,-301.98698,-21.341709)"
       id="path3929-0-6-4"
       style="fill:none;stroke:#00eb00;stroke-width:43.80587387;stroke-linecap:butt;stroke-miterlimit:4;stroke-opacity:1;stroke-dasharray:none;stroke-dashoffset:0" />
    <path
       d="m 308.57143,323.79074 a 120,120 0 1 1 -240.000004,0 120,120 0 1 1 240.000004,0 z"
       transform="matrix(1.9446064,0,0,1.9446064,-116.69721,278.43091)"
       id="path3929-2-4"
       style="fill:#afafaf;fill-opacity:1;stroke:#000000;stroke-width:5;stroke-linecap:butt;stroke-miterlimit:4;stroke-opacity:1;stroke-dasharray:none;stroke-dashoffset:0" />
    <path
       d="M -105.77093,783.89357 71.149433,551.48903 -243.87364,432.59478 -331.46461,547.6553 -122.22276,805.3739 z"
       id="path4816"
       style="fill:#00eb00;fill-opacity:1;stroke:#00eb00;stroke-width:0.77671814px;stroke-linecap:butt;stroke-linejoin:miter;stroke-opacity:1" />
  </g>
</svg>
